<svg width="93" height="96" viewBox="0 0 93 96" fill="none" xmlns="http://www.w3.org/2000/svg">
<path fill-rule="evenodd" clip-rule="evenodd" d="M45.972 1.0711C55.0944 0.644417 64.4374 2.05279 72.0127 7.62988C79.756 13.3307 84.6751 22.3567 87.9 31.9392C91.2327 41.8424 93.6957 52.7153 90.5419 62.6884C87.4145 72.5777 79.2078 79.1157 71.1814 84.8066C63.5373 90.2264 55.0767 94.5877 45.972 94.2894C37.03 93.9964 28.8556 89.2579 21.8363 83.1899C15.0463 77.3201 10.4295 69.4001 7.08129 60.6695C3.45145 51.2046 -0.90113 40.9729 1.88735 31.1725C4.68613 21.3358 13.512 15.4469 21.5002 9.99249C28.9774 4.88698 37.1662 1.48297 45.972 1.0711Z" fill="white" stroke="#DADADA" stroke-width="2"/>
<path d="M49.2548 14.5416C49.2548 14.5416 33.6699 14.7901 33.4214 36.8479C33.4214 36.8479 25.0196 35.3687 32.2381 46.3147C32.2381 46.3147 32.9362 48.1844 35.1491 46.3147C37.362 44.445 33.0782 50.7878 43.1368 57.1543C43.1368 57.1543 43.2788 67.3549 40.7701 68.9879C38.2613 70.6209 54.5207 76.2301 57.1833 68.9879C55.4895 66.9012 54.5957 64.2787 54.6627 61.5919C54.6627 61.5919 65.8336 61.0357 65.9046 41.7825C65.9165 22.6476 60.5913 13.4292 49.2548 14.5416Z" fill="#E8C0B6"/>
<path d="M47.7549 12.6249C47.7549 12.6249 44.4125 10.6366 40.564 13.8552C36.7154 17.0738 34.4793 14.9537 32.8552 19.9079C31.231 24.8621 31.5716 33.8722 32.3837 35.6848C33.1958 37.4973 39.6813 35.4846 41.4702 32.5955C43.059 30.025 43.4592 36.5391 47.0488 32.3099C50.1676 28.6299 51.2974 36.8796 54.4398 33.6611C57.5821 30.4425 57.2761 34.7595 58.3824 33.7599C58.7355 33.4523 62.4749 29.1812 64.3344 31.543C66.1939 33.9048 67.0809 33.1543 67.2928 28.5846C67.4811 24.6081 67.2928 9.65086 47.7549 12.6249Z" fill="#202020"/>
<path d="M56.975 68.4974C50.2188 73.9024 43.6499 70.7495 41.2099 68.4974C29.2626 67.9989 20.0919 86.4942 17 95.8042H84C77.8067 84.4498 63.7311 63.0924 56.975 68.4974Z" fill="#BAE8E8"/>
</svg>
