<svg id="Layer_1" data-name="Layer 1" xmlns="http://www.w3.org/2000/svg" xmlns:xlink="http://www.w3.org/1999/xlink" viewBox="0 0 1047.5 647.5"><defs><style>.cls-1{fill-opacity:0.2;fill:url(#linear-gradient);}.cls-2{fill:#97bfbf;}.cls-3{fill:#a83c25;}.cls-4{fill:#db7a65;}.cls-5{fill:#e8ffff;}.cls-6{fill:#0d6150;}.cls-7{fill:#269e86;}.cls-8{fill:#083d32;}.cls-9{fill:#69dbc4;}.cls-10{fill:#423e37;}.cls-11{fill:#b3a561;}.cls-12{fill:#588a8a;}.cls-13,.cls-28,.cls-29,.cls-48,.cls-49,.cls-73{fill:#fff;}.cls-14{fill:#bae8e8;}.cls-15{fill:#7fa1a1;}.cls-16{fill:#edd5bb;}.cls-17{fill:#ffe3c7;}.cls-18{fill:#dec8b0;}.cls-19,.cls-24{fill:#88bebb;}.cls-20{fill:#689391;}.cls-21{fill:#d48975;}.cls-22{fill:#e4937d;}.cls-23{fill:#c7816e;}.cls-24,.cls-26{stroke:#709f9d;stroke-width:0.45px;}.cls-112,.cls-114,.cls-115,.cls-24,.cls-26,.cls-58,.cls-59,.cls-60,.cls-61,.cls-62{stroke-linecap:round;}.cls-112,.cls-114,.cls-115,.cls-24,.cls-26{stroke-linejoin:round;}.cls-25,.cls-26{fill:#719e9c;}.cls-27{fill:#77a6a4;}.cls-28,.cls-29,.cls-48,.cls-49,.cls-50{isolation:isolate;}.cls-28{opacity:0.2;}.cls-29{opacity:0.3;}.cls-30{fill:#1a1a1a;}.cls-31{fill:#29abe2;}.cls-32{fill:#3d0a63;}.cls-33{fill:#662d91;}.cls-34{fill:#8f4300;}.cls-35{fill:#b46000;}.cls-36{fill:#333;}.cls-37{fill:#2a3c75;}.cls-38{fill:#f77b1e;}.cls-39{fill:#fbb03b;}.cls-40{fill:#f0b471;}.cls-41{fill:#f7d9b7;}.cls-42{fill:#ccc;}.cls-43{fill:#999;}.cls-44{fill:#ffeddd;}.cls-45{fill:#f1dece;}.cls-46{fill:#decec0;}.cls-47,.cls-50{fill:#d6eef6;}.cls-48{opacity:0.45;}.cls-49{opacity:0.4;}.cls-50{opacity:0.94;}.cls-51{fill:#c8c8c8;}.cls-52{fill:#edeced;}.cls-53{fill:#dbdddb;}.cls-54{fill:#a8a8a8;}.cls-55{fill:#b7e0d7;}.cls-56{fill:#a4cdc2;}.cls-57{fill:#666667;}.cls-100,.cls-115,.cls-58,.cls-59,.cls-60,.cls-61,.cls-62{fill:none;}.cls-58{stroke:#acacac;}.cls-100,.cls-117,.cls-58,.cls-59,.cls-60,.cls-61,.cls-62,.cls-73{stroke-miterlimit:10;}.cls-58,.cls-59{stroke-width:5.08px;}.cls-59{stroke:#868686;}.cls-60{stroke:#9c9d9c;}.cls-60,.cls-61,.cls-62{stroke-width:1.69px;}.cls-61{stroke:#666667;}.cls-62{stroke:#5c5c5c;}.cls-63{fill:#9fc157;}.cls-64{fill:#8c4e41;}.cls-65{fill:#6f3e33;}.cls-66{fill:#6d903d;}.cls-67{fill:#7da43f;}.cls-68{fill:#79a144;}.cls-69{fill:#98c65b;}.cls-70{fill:#cc4a53;}.cls-71{fill:#901a1d;}.cls-72{fill:#dd6370;}.cls-100,.cls-73{stroke:#000;}.cls-114,.cls-115,.cls-117,.cls-73{stroke-width:0.9px;}.cls-74{fill:#415d2b;}.cls-75{fill:#4d6a31;}.cls-76{fill:#557535;}.cls-77{fill:#88b03f;}.cls-78{fill:#374f24;}.cls-79{fill:#5e833a;}.cls-80{fill:#a67c52;}.cls-81{fill:#d64279;}.cls-82{fill:#1b1464;}.cls-83{fill:#2e3192;}.cls-84{fill:#ff7bac;}.cls-85{fill:#8c6239;}.cls-86{fill:#c69c6d;}.cls-87{fill:#754c24;}.cls-88{fill:#d9811a;}.cls-89{fill:#f7931e;}.cls-90{fill:#4d4d4d;}.cls-91{fill:#f2f2f2;}.cls-92{fill:#d13802;}.cls-93{fill:#f15a24;}.cls-94{fill:#fabe78;}.cls-95{fill:#f9a94b;}.cls-96{fill:#fcd4a5;}.cls-97{fill:#faba6f;}.cls-98{fill:url(#linear-gradient-2);}.cls-99{fill:#efb8a9;}.cls-100{stroke-width:1.79px;}.cls-101{fill:#bb7f38;}.cls-102{fill:#998675;}.cls-103{fill:#736558;}.cls-104{fill:#7d5526;}.cls-105{fill:#c2b6ac;}.cls-106{fill:#46637c;}.cls-107{fill:#ebe7e3;}.cls-108{fill:#bdd2d9;}.cls-109,.cls-114{fill:#abbec5;}.cls-110{fill:#9eb1b7;}.cls-111,.cls-117{fill:#529fa6;}.cls-112,.cls-118{fill:#43878d;}.cls-112{stroke:#4a9398;stroke-width:0.67px;}.cls-113{fill:#499196;}.cls-114,.cls-115{stroke:#8fa1a8;}.cls-116{fill:#d9e6e8;}.cls-117{stroke:#499298;}.cls-119{fill:#326c70;}</style><linearGradient id="linear-gradient" x1="419.95" y1="679.43" x2="681.45" y2="-192.07" gradientTransform="matrix(1, 0, 0, -1, 0, 650)" gradientUnits="userSpaceOnUse"><stop offset="0" stop-color="#90dbdb"/><stop offset="1" stop-color="#90dbdb" stop-opacity="0.4"/></linearGradient><linearGradient id="linear-gradient-2" x1="697.11" y1="191.11" x2="700.79" y2="184.62" gradientTransform="matrix(1, 0, 0, -1, 0, 650)" gradientUnits="userSpaceOnUse"><stop offset="0" stop-color="#fff"/><stop offset="1" stop-color="#29abe2"/></linearGradient></defs><path class="cls-1" d="M474.5,21.5l573,313L595,647.5,0,298.5Z"/><path class="cls-2" d="M484.5,178.5,407.25,134V193.4l77.25,44.73Z"/><path class="cls-3" d="M524.5,119.06,447.25,74.54l-40,59.43L484.5,178.5Z"/><path class="cls-4" d="M564.42,132.21,487.17,87.68,447.25,74.54l77.25,44.52Z"/><path class="cls-5" d="M564.69,132.4,524.5,119.06l-40,59.44v59.63l80.19-46.3Z"/><path class="cls-6" d="M487.44,176.93v10l-82.93-47.86v-10Z"/><path class="cls-7" d="M527.44,117.49l-40,59.44v10l40-59.63,40,13.34v-10Z"/><path class="cls-8" d="M486.07,173l1.37,3.93-82.93-47.86,2.74-1.77Z"/><path class="cls-6" d="M524.5,115.92l2.94,1.57-40,59.44L486.07,173Z"/><path class="cls-9" d="M550.38,124.17l-25.88-8.25,2.94,1.57,40,13.15-80-46.3-3.73,2.16,3.73,1.18Z"/><path class="cls-10" d="M524.45,159.09c-7.91,4.56-14.31,15.64-14.28,24.74s6.46,12.76,14.37,8.19,14.31-15.64,14.29-24.71-6.46-12.77-14.38-8.19"/><path class="cls-10" d="M510.18,223.21V183.59l28.63-16.47v39.62Z"/><path class="cls-11" d="M510.28,183.51,538.91,167l-.1,3.31-28.53,16.5Z"/><path class="cls-11" d="M510.08,196.64l28.63-16.48-.1,3.32L510.08,200Z"/><path class="cls-11" d="M510.28,209.87l28.63-16.47-.1,3.31L510.28,213.2Z"/><path class="cls-11" d="M524.5,214.9l2.92-1.55V173.68l-3,1.68Z"/><path class="cls-2" d="M421.56,205V148.84l8.55,5,.07,56.22Z"/><path class="cls-2" d="M467.44,231.46V175.39l-8.72-5,.09,56.19Z"/><path class="cls-2" d="M450.18,221.45l-.08-56.07-8.59-5,.05,56.13Z"/><path class="cls-12" d="M453.13,219.88l-2.95,1.57V165.36l2.83,1.7Z"/><path class="cls-12" d="M433.13,208.31l-2.95,1.76V153.78l2.81,1.65Z"/><path class="cls-12" d="M467.44,231.46l2.74-1.57,0-52.9-2.77-1.63Z"/><path class="cls-12" d="M428.72,153v56.17l-.48-.29-.11-56.22Z"/><path class="cls-12" d="M423.42,149.94v56.18l-.48-.29-.11-56.22Z"/><path class="cls-12" d="M425.09,151v56.17l-.48-.28-.11-56.23Z"/><path class="cls-12" d="M426.85,152v56.18l-.48-.29-.1-56.22Z"/><path class="cls-12" d="M449,164.67v56.17l-.48-.28-.1-56.23Z"/><path class="cls-12" d="M443.67,161.57v56.17l-.49-.28-.1-56.22Z"/><path class="cls-12" d="M445.34,162.63v56.18l-.49-.29-.11-56.22Z"/><path class="cls-12" d="M447.1,163.61v56.18l-.48-.29-.11-56.22Z"/><path class="cls-12" d="M465.8,174.47v56.17l-.48-.28-.11-56.22Z"/><path class="cls-12" d="M460.51,171.38v56.17l-.49-.29-.11-56.21Z"/><path class="cls-12" d="M462.17,172.43V228.6l-.48-.28-.1-56.22Z"/><path class="cls-12" d="M463.94,173.42v56.17l-.48-.28-.11-56.23Z"/><path class="cls-2" d="M404.51,139.07l5.68,3.33v56.11l-5.68-3.34Z"/><path class="cls-12" d="M412.93,196.74l-2.74,1.77V142.4l2.74,1.57Z"/><path class="cls-2" d="M484.44,185.2l.06,56.07-5.69-3.14V182Z"/><path class="cls-5" d="M490.18,182.84l-2.81,4-2.87-1.69v56.11l5.68-3.14Z"/><path class="cls-5" d="M510.18,183.59l-17.05,9.81v-9.81l17.05-10Z"/><path class="cls-2" d="M494.89,176l9.61-5.5,5.68,3.14-17.05,10-2.55-1.36Z"/><path class="cls-2" d="M490.18,234.79l2.95,1.57v-43l-2.95-1.67Z"/><path class="cls-5" d="M504.5,229.89l-11.37,6.47v-43l11.37-6.47Z"/><path class="cls-2" d="M541.75,148.87l5.69,3.34,17.25-10-5.88-3.14Z"/><path class="cls-2" d="M541.75,158.68l5.69,3.34v-9.81l-5.69-3.34Z"/><path class="cls-5" d="M564.69,152.21l-5.9,3.36L547.44,162v-9.81l17.25-10Z"/><path class="cls-5" d="M558.81,198.51,547.44,205V162l11.37-6.48Z"/><path class="cls-2" d="M544.39,160.31l3.05,1.71v43l-3-1.57Z"/><path class="cls-5" d="M561.75,138.74v1.85l2.94,1.62v10l-3,1.68v42.85l5.69-3.34V140.64Z"/><path class="cls-2" d="M558.81,195.17l2.94,1.57V154l-2.94,1.56Z"/><path class="cls-2" d="M558.82,137.77v1.3l2.94,1.57v-2Z"/><path class="cls-2" d="M490.18,182.81l.4-.59,2.55,1.37v9.81l-2.95-1.57Z"/><path class="cls-2" d="M550.3,203.3l0-42.89-.68.4v42.95Z"/><path class="cls-2" d="M553.21,201.6l0-42.9-.68.41v42.94Z"/><path class="cls-2" d="M556.06,199.93l0-42.9-.68.41v42.94Z"/><path class="cls-2" d="M495.86,234.87l0-42.89-.68.4v42.94Z"/><path class="cls-2" d="M498.78,233.16l0-42.89-.68.41v42.94Z"/><path class="cls-2" d="M501.63,231.5l0-42.89-.69.41V232Z"/><path class="cls-6" d="M529,107.67,463.35,69.81l-17.26,9.8L512,117.67Z"/><path class="cls-9" d="M563.44,78,497.56,40.09,463.25,69.71l65.88,38.05Z"/><path class="cls-9" d="M512,121l17.16-9.91,34.32-29.74V78l-34.32,29.73L512,117.66l-34.32,6.61v3.31Z"/><path class="cls-6" d="M411.85,89.58l65.71,38v-3.34l-65.71-38Z"/><path class="cls-7" d="M511.87,117.57l-65.7-37.91-34.29,6.53,65.68,38.05Z"/><path class="cls-13" d="M505.21,49.31l50.39,29-36.47,32-50-29.81Z"/><path class="cls-14" d="M447.62,71.43c-6.27,3.62-14.31,9.49-24.6,18.49l46-8.56S474.3,56,447.62,71.43Z"/><path class="cls-13" d="M479.58,52.78c-14.81,8.56-10.64,28.12-10.64,28.12L505.1,49.38C493.19,48,485.08,49.6,479.58,52.78Z"/><path class="cls-14" d="M473.25,118.56,422.86,89.91l42.76-22.38,50.57,28.66Z"/><path class="cls-15" d="M498,100.12c-6.27,3.63-14.31,9.51-24.6,18.49l46-8.54s5.27-25.38-21.36-9.95"/><path class="cls-14" d="M530.44,82.17c-15,8.64-10.94,27.64-10.94,27.64l36.18-31.55C544,77.2,535.94,79,530.46,82.14"/><path class="cls-16" d="M249.65,366.55v-91L194.44,244v90.67Z"/><path class="cls-17" d="M304.8,244l-55.15,31.61v91l55.15-31.7Z"/><path class="cls-17" d="M305.3,244l-55.16,31.61v91l55.16-31.7Z"/><path class="cls-18" d="M249.65,275.56,304.8,244l-55.15-32.69L194.44,244Z"/><path class="cls-19" d="M304.8,295.7l43.94-26v-39l-43.94,26Z"/><path class="cls-20" d="M304.8,256.66V244l-44.11-26.14,33.15-19.66,54.9,32.5Z"/><path class="cls-16" d="M292,196.8l56.75,33.85v39l63.4,37.2V238.21L292,167.61Z"/><path class="cls-17" d="M412.14,306.89V238.21l44.82-27v69Z"/><path class="cls-18" d="M292,167.61l120.15,70.6,44.82-27L337.17,142.1Z"/><path class="cls-21" d="M250.14,369.87l-16.51-9.07V280.35l16.51,9.1Z"/><path class="cls-21" d="M205.52,343.41l-15.9-8.74V257.22l15.9,8.76Z"/><path class="cls-22" d="M262.45,282.59l-12.31,6.85v80.29l12.31-7.66Z"/><path class="cls-23" d="M233.63,280.35,235.9,279l13.07,7-2,1.64Z"/><path class="cls-23" d="M250.14,289.45l12.4-6.72-2.44-1.31-10,5.05-1.17-.42-2,1.64Z"/><path class="cls-24" d="M233.63,280.35l-4-4.79,20.54,10.91v3Z"/><path class="cls-24" d="M262.54,282.73l-12.4,6.72v-3L267,277.58Z"/><path class="cls-25" d="M250.14,284.33,264.43,277l2.57.62-16.86,8.89L233.63,275Z"/><path class="cls-25" d="M229.6,275.56l2.75-1.32,1.28.79,16.51,11.44Z"/><path class="cls-22" d="M189.62,253.89l4.82-3.37v6Z"/><path class="cls-25" d="M193.87,250.33,189,252.77l21.72,12.34-16.86-12.34Z"/><path class="cls-26" d="M212.75,263.63l-18.94-10.86,16.85,12.34Z"/><path class="cls-25" d="M193.87,250.33l.57-.27v3.16l-.57-.46Z"/><path class="cls-22" d="M205.42,267.15l-.16,76.24,2.27-1.21V266.39Z"/><path class="cls-21" d="M308,260.16l-11.83,6.57-2.18-1.4v77.34l2.18,1.21"/><path class="cls-22" d="M308,260.16l-11.83,6.57v77.15L308,336.51Z"/><path class="cls-16" d="M292,199.24V196.8l2.22,1.22Z"/><path class="cls-25" d="M309,257.42l-4.2-2.26v1.5Z"/><path class="cls-24" d="M189,258.08v-5.31l21.73,12.34-5.07,2.06Z"/><path class="cls-24" d="M296.07,266.73v-2.27l-3-1.83.87,2.7Z"/><path class="cls-24" d="M307.91,260.16l-11.84,6.57v-2.27l12.86-7Z"/><path class="cls-26" d="M293,262.63l11.7-6,4.2.76-12.86,7Z"/><path class="cls-27" d="M345.42,240v26.07l-10.63,6.38-9.09,5.46V251.65l15.16-9Z"/><path class="cls-28" d="M345.42,240v3.78l-19.72,20V258l15.16-15.36Z"/><path class="cls-29" d="M345.42,251v10.44l-10.63,11-9.09,5.46v-6.51Z"/><path class="cls-27" d="M434.55,234.05V257.4L425,263.12,416.9,268V244.49l13.57-8Z"/><path class="cls-28" d="M434.55,234.05v3.39L416.9,255.33v-5.1l13.57-13.76Z"/><path class="cls-29" d="M434.55,244v9.34L425,263.12,416.9,268v-5.83Z"/><path class="cls-27" d="M434.55,263.38v23.34L425,292.45l-8.14,4.88V273.82l13.57-8Z"/><path class="cls-28" d="M434.55,263.38v3.38L416.9,284.65v-5.1l13.57-13.76Z"/><path class="cls-29" d="M434.55,273.27v9.35L425,292.45l-8.14,4.88v-5.84Z"/><path class="cls-27" d="M455.24,251v23.35l-9.52,5.72L437.58,285V261.47l13.58-8Z"/><path class="cls-28" d="M455.24,251v3.38l-17.66,17.9V267.2l13.58-13.75Z"/><path class="cls-29" d="M455.24,260.93v9.34l-9.52,9.83L437.58,285v-5.84Z"/><path class="cls-27" d="M455.24,223v23.35l-9.52,5.71L437.58,257v-23.5l13.58-8Z"/><path class="cls-28" d="M455.24,223v3.38l-17.66,17.89v-5.1l13.58-13.76Z"/><path class="cls-29" d="M455.24,232.9v9.35l-9.52,9.82L437.58,257v-5.83Z"/><path class="cls-27" d="M322.27,253.62l0,25.34-13.66,7.75-.53.3.05-25.68,9.66-5.24Z"/><path class="cls-27" d="M308.08,261.33l14.19-8.44v.73Z"/><path class="cls-28" d="M322.27,252.89v4.56l-14.2,14.93,0-6.78,9.66-10.15Z"/><path class="cls-29" d="M322.25,264.59l0,7.86-13.67,14.26-.53.3,0-7.61Z"/><path class="cls-27" d="M405.86,271.42v27l-8.44-4.91-19-11.06-13.74-8L354,268.27V241.09l23.51,13.74,11.21,6.56,13.69,8Z"/><path class="cls-29" d="M388.71,261.39l-24,13.09L354,268.27v-.64l23.51-12.8Z"/><path class="cls-29" d="M405.86,271.42v17.5l-8.44,4.6-19-11.06,24-13.06Z"/><path class="cls-27" d="M405.86,241.36v27l-8.44-4.91-19-11.06-13.74-8L354,238.21V211l23.51,13.74,11.21,6.55,13.69,8Z"/><path class="cls-29" d="M388.71,231.32l-24,13.1L354,238.21v-.64l23.51-12.8Z"/><path class="cls-29" d="M405.86,241.36v17.5l-8.44,4.6-19-11.06,24-13.06Z"/><path class="cls-27" d="M207.53,280.76l26.1,14.56v22.81l-26.1-14.36Z"/><path class="cls-27" d="M262.54,295.7,294,277.58v25.73l-31.43,17.36Z"/><path class="cls-20" d="M266,307.3v9.13l12.11-6.92v-9.2Z"/><path class="cls-20" d="M279.66,288.6v9.13l12.12-6.91v-9.21Z"/><path class="cls-20" d="M279.66,299.25v9.13l12.11-6.93,0-9.2Z"/><path class="cls-20" d="M265.7,296.66v9.13l12.11-6.91v-9.2Z"/><path class="cls-20" d="M231.9,315.11l-10.62-5.89v-7.94l10.62,5.64Z"/><path class="cls-20" d="M219.71,308.2l-10.62-5.89v-7.93L219.71,300Z"/><path class="cls-20" d="M231.9,305.34l-10.62-5.89v-7.93l10.62,5.63Z"/><path class="cls-20" d="M219.71,298.45l-10.62-5.88v-7.93l10.62,5.63Z"/><path class="cls-20" d="M189.62,243.41,249,277.58V232.14Z"/><path class="cls-25" d="M306.9,244.93,249,277.58V232.14Z"/><path class="cls-27" d="M249,232.14V208.58l57.93,36.35Z"/><path class="cls-25" d="M189.62,243.41,249,208.58v23.56Z"/><path class="cls-20" d="M286.3,167.61l124.44,73.13L370,177.21Z"/><path class="cls-25" d="M286.3,167.61l47.86-28L370,177.21Z"/><path class="cls-25" d="M370,177.21l40.78,63.53,51.94-28.81Z"/><path class="cls-27" d="M334.16,139.66l128.52,72.27L370,177.21Z"/><path class="cls-30" d="M257.15,337.57c-.08-.42-3.42-1.19-5.3,0-2.92,1.87-.89,7.62,0,8.59a.91.91,0,0,1,.24.37c.27,1-1.54,1.93-1.38,2.05a4.6,4.6,0,0,0,2.76-1.3c2.57-2.41,2.46-7.73,3-8.59l.23-.36A7.29,7.29,0,0,0,257.15,337.57Z"/><path class="cls-31" d="M254,368.76v19a1.87,1.87,0,0,0,3.73,0v-19a1.88,1.88,0,0,0-.55-1.32,1.87,1.87,0,0,0-2.63,0A1.88,1.88,0,0,0,254,368.76Z"/><path class="cls-31" d="M260.68,365.35v19.32a1.87,1.87,0,0,0,.59,1.25,1.89,1.89,0,0,0,2.56,0,1.87,1.87,0,0,0,.59-1.25V365.35a1.84,1.84,0,0,0-.59-1.24,1.86,1.86,0,0,0-2.56,0A1.84,1.84,0,0,0,260.68,365.35Z"/><path class="cls-32" d="M254.36,370.67l-3.94-2.3a1.68,1.68,0,0,1-.59-.84,1.77,1.77,0,0,1,0-1l3.94,2.3a1.77,1.77,0,0,0,0,1A1.75,1.75,0,0,0,254.36,370.67Z"/><path class="cls-32" d="M259.7,345.85l3.94,2.3a1.94,1.94,0,0,0-1.9.22l-3.94-2.3a1.84,1.84,0,0,1,.92-.36A1.94,1.94,0,0,1,259.7,345.85Z"/><path class="cls-32" d="M258.83,350l-3.94-2.29,2.91-1.66,3.94,2.29Z"/><path class="cls-32" d="M253.77,368.81l-3.94-2.29,2.57-15.26,3.94,2.29Z"/><path class="cls-32" d="M258.83,350l2.91-1.66c1.21-.69,2.25-.41,2.49.65L267,361.19c.31,1.42-.89,3.61-2.5,4.54l-8.16,4.72c-1.61.92-2.82.14-2.52-1.64l2.57-15.26a5.63,5.63,0,0,1,.89-2A5.39,5.39,0,0,1,258.83,350Z"/><path class="cls-32" d="M256.34,353.55l-3.94-2.3a5.41,5.41,0,0,1,.88-2,5.52,5.52,0,0,1,1.61-1.51l3.94,2.3a5.55,5.55,0,0,0-1.61,1.52A5.79,5.79,0,0,0,256.34,353.55Z"/><path class="cls-33" d="M258.93,350a5.5,5.5,0,0,0-2.49,3.55l-2.57,15.25c-.3,1.78.92,2.56,2.52,1.64l8.16-4.72c1.61-.93,2.81-3.11,2.5-4.54L264.33,349c-.24-1.06-1.28-1.34-2.49-.65L259,350"/><path class="cls-34" d="M257.11,347.41a1.52,1.52,0,0,0,0,.67,1.57,1.57,0,0,0,.3.59,1.49,1.49,0,0,0,.53.41,1.51,1.51,0,0,0,1.31,0,1.49,1.49,0,0,0,.53-.41,1.57,1.57,0,0,0,.3-.59,1.52,1.52,0,0,0,0-.67v-1.77a1.47,1.47,0,0,0,0-.66,1.61,1.61,0,0,0-.3-.6,1.76,1.76,0,0,0-.53-.41,1.51,1.51,0,0,0-1.31,0,1.76,1.76,0,0,0-.53.41,1.61,1.61,0,0,0-.3.6,1.47,1.47,0,0,0,0,.66Z"/><path class="cls-35" d="M266,340.49c0,3.33-1,6.54-4.32,6.54s-7.73-3.21-7.73-6.54a6,6,0,0,1,12.05,0Z"/><path class="cls-35" d="M252.48,341.58a1.51,1.51,0,0,0,.52.91,1.56,1.56,0,0,0,1,.36,1.55,1.55,0,0,0,1.51-1.27v-1.23a1.49,1.49,0,0,0-.53-.91,1.52,1.52,0,0,0-1-.36,1.56,1.56,0,0,0-1,.36,1.48,1.48,0,0,0-.52.91Z"/><path class="cls-36" d="M277.65,353a5,5,0,1,0-5-5A5,5,0,0,0,277.65,353Z"/><path class="cls-36" d="M291,346.69a3.82,3.82,0,1,0-3.82-3.82A3.82,3.82,0,0,0,291,346.69Z"/><path class="cls-36" d="M291.63,354.9a5,5,0,1,0-5-5A5,5,0,0,0,291.63,354.9Z"/><path class="cls-36" d="M278.11,346.89a3.83,3.83,0,1,0-3.82-3.82A3.82,3.82,0,0,0,278.11,346.89Z"/><path class="cls-36" d="M286.5,350.43a3.82,3.82,0,1,0-3.82-3.82A3.82,3.82,0,0,0,286.5,350.43Z"/><path class="cls-36" d="M276.24,340.4c0,4.25,3,7.15,7.4,7.15s7.45-2.63,7.45-6.91a7.35,7.35,0,0,0-7.45-7.67,7.14,7.14,0,0,0-5.33,2.09,7,7,0,0,0-1.59,2.45A7.12,7.12,0,0,0,276.24,340.4Z"/><path class="cls-37" d="M284.56,368.84v19a1.86,1.86,0,0,0,1.86,1.87,1.88,1.88,0,0,0,1.32-.55,1.85,1.85,0,0,0,.54-1.32v-19a1.85,1.85,0,0,0-.54-1.32,1.86,1.86,0,0,0-2.64,0A1.85,1.85,0,0,0,284.56,368.84Z"/><path class="cls-37" d="M277.86,365.43v19.32a1.88,1.88,0,0,0,.55,1.32,1.87,1.87,0,0,0,2.63,0,1.88,1.88,0,0,0,.55-1.32V365.43a1.88,1.88,0,0,0-.55-1.32,1.87,1.87,0,0,0-2.63,0A1.88,1.88,0,0,0,277.86,365.43Z"/><path class="cls-38" d="M291.86,368l-3.94,2.3a1.68,1.68,0,0,0,.59-.84,1.72,1.72,0,0,0,0-1l3.94-2.3a1.81,1.81,0,0,1,0,1A1.73,1.73,0,0,1,291.86,368Z"/><path class="cls-38" d="M278.57,347.68l3.94-2.3a2,2,0,0,1,1-.14,1.85,1.85,0,0,1,.92.37l-3.94,2.3a1.84,1.84,0,0,0-.93-.36A1.94,1.94,0,0,0,278.57,347.68Z"/><path class="cls-38" d="M280.48,347.91l3.94-2.29,2.91,1.7-3.94,2.29Z"/><path class="cls-38" d="M285.87,353.13l3.94-2.29,2.64,15.27-3.94,2.3Z"/><path class="cls-38" d="M280.48,347.91l2.91,1.7a5.48,5.48,0,0,1,1.6,1.51,5.66,5.66,0,0,1,.88,2l2.64,15.28c.3,1.78-.91,2.57-2.51,1.65l-8.14-4.72c-1.6-.92-2.81-3.07-2.5-4.53L278,348.54C278.21,347.48,279.26,347.21,280.48,347.91Z"/><path class="cls-38" d="M283.39,349.61l3.94-2.3a5.48,5.48,0,0,1,1.6,1.51,5.66,5.66,0,0,1,.88,2l-3.94,2.3a5.66,5.66,0,0,0-.88-2A5.48,5.48,0,0,0,283.39,349.61Z"/><path class="cls-39" d="M280.42,347.91c-1.22-.71-2.3-.43-2.51.65l-2.64,12.27c-.31,1.42.9,3.6,2.5,4.52l8.17,4.72c1.6.93,2.81.14,2.5-1.64l-2.63-15.28a5.58,5.58,0,0,0-.88-2,5.48,5.48,0,0,0-1.6-1.51l-2.88-1.69"/><path class="cls-40" d="M282.15,347.48a1.54,1.54,0,0,0,.53.91,1.49,1.49,0,0,0,1,.36,1.47,1.47,0,0,0,1-.36,1.54,1.54,0,0,0,.53-.91v-1.77a1.61,1.61,0,0,0-.53-.91,1.52,1.52,0,0,0-1-.36,1.54,1.54,0,0,0-1,.36,1.61,1.61,0,0,0-.53.91Z"/><path class="cls-41" d="M276.24,340.57c0,3.32,1,6.54,4.33,6.54s7.72-3.22,7.72-6.54a6.06,6.06,0,0,0-.4-2.38,5.8,5.8,0,0,0-1.29-2,6,6,0,0,0-2-1.36,6,6,0,0,0-4.71,0,6,6,0,0,0-3.27,3.39A6.06,6.06,0,0,0,276.24,340.57Z"/><path class="cls-41" d="M286.79,341.65a1.38,1.38,0,0,0,0,.67,1.54,1.54,0,0,0,.3.6,1.76,1.76,0,0,0,.53.41,1.6,1.6,0,0,0,1.31,0,1.76,1.76,0,0,0,.53-.41,1.69,1.69,0,0,0,.3-.6,1.51,1.51,0,0,0,0-.67v-1.23a1.55,1.55,0,0,0-.53-.9,1.53,1.53,0,0,0-1.95,0,1.5,1.5,0,0,0-.53.9Z"/><path class="cls-38" d="M276.65,349.85a11.36,11.36,0,0,1-2.16,2.53,9.79,9.79,0,0,1-5.68,2.51c-.27,0-.53,0-.77,0a10,10,0,0,1-4.55-1.12l-.34.66a10.84,10.84,0,0,0,4.89,1.2h.86A10.57,10.57,0,0,0,275,353a12.43,12.43,0,0,0,2.3-2.71l-.64-.38Z"/><path class="cls-42" d="M262.43,355.61a1.68,1.68,0,1,0-1.68-1.68A1.68,1.68,0,0,0,262.43,355.61Z"/><path class="cls-42" d="M288.21,341.06l-3.56,6.54h0a5,5,0,0,1-1.16,1.38,5.86,5.86,0,0,1-1.53.93,6.1,6.1,0,0,1-2.31.42,8.82,8.82,0,0,1-2.23-.31,3.59,3.59,0,0,1-1.88-1,1.83,1.83,0,0,1-.37-.65,2.53,2.53,0,0,1-.12-.77,4.58,4.58,0,0,1,.3-1.46,9.69,9.69,0,0,1,1.06-2c.18-.26.34-.47.45-.62l.13-.16v0a.35.35,0,0,0,.08-.13.33.33,0,0,0,0-.14.23.23,0,0,0,0-.14l-.08-.12-.13-.07a.34.34,0,0,0-.14,0,.23.23,0,0,0-.14,0,.5.5,0,0,0-.12.08,12.54,12.54,0,0,0-1.08,1.54,8.72,8.72,0,0,0-.76,1.53,4.84,4.84,0,0,0-.35,1.72,3.28,3.28,0,0,0,.15,1,2.73,2.73,0,0,0,.92,1.28,4.7,4.7,0,0,0,1.84.89,9.57,9.57,0,0,0,2.44.33,6.59,6.59,0,0,0,2.59-.49,6.15,6.15,0,0,0,2.3-1.64,5.46,5.46,0,0,0,.72-1l-.34-.17.33.18,3.54-6.53a.35.35,0,0,0,0-.13.38.38,0,0,0,0-.15.54.54,0,0,0-.07-.13.34.34,0,0,0-.12-.09.34.34,0,0,0-.28,0,.41.41,0,0,0-.22.17Z"/><path class="cls-43" d="M262.48,355.05A1.08,1.08,0,1,0,261.4,354,1.07,1.07,0,0,0,262.48,355.05Z"/><path class="cls-41" d="M284.29,352.65l1,.48-1-.49,1,.48-1-.49a6.59,6.59,0,0,1-.51.85,11.91,11.91,0,0,1-1,1.25,8.81,8.81,0,0,1-2.26,1.87,6.55,6.55,0,0,1-1.42.59,5.87,5.87,0,0,1-1.62.23,7.53,7.53,0,0,1-3.06-.71,15.61,15.61,0,0,1-4-2.71,2,2,0,0,0-.63-.37,1.79,1.79,0,0,0-.73-.09,1.73,1.73,0,0,0-.7.18,1.94,1.94,0,0,0-.58.44,2,2,0,0,0-.36.63,1.8,1.8,0,0,0-.1.73,1.91,1.91,0,0,0,.18.7,1.82,1.82,0,0,0,.45.58,19.67,19.67,0,0,0,5,3.33,11.42,11.42,0,0,0,4.6,1,9.47,9.47,0,0,0,2.43-.31,10.65,10.65,0,0,0,3.44-1.62A14.75,14.75,0,0,0,286.6,356a13,13,0,0,0,1.08-1.74,1.85,1.85,0,0,0,.1-1.42,1.89,1.89,0,0,0-.94-1.08,1.87,1.87,0,0,0-1.43-.09,1.9,1.9,0,0,0-1.07.94Z"/><path class="cls-39" d="M283.14,357.17a2.48,2.48,0,0,0,3.5-.31l3.07-3.67a2.52,2.52,0,0,0,.56-1.82,2.5,2.5,0,0,0-.27-.93,2.34,2.34,0,0,0-.61-.75,2.53,2.53,0,0,0-.85-.47,2.66,2.66,0,0,0-1-.1,2.39,2.39,0,0,0-.93.28,2.46,2.46,0,0,0-.75.61l-3.07,3.67a2.35,2.35,0,0,0-.46.85,2.41,2.41,0,0,0-.1,1,2.5,2.5,0,0,0,.27.93A2.34,2.34,0,0,0,283.14,357.17Z"/><path class="cls-41" d="M276.24,340.57c0,3.32.83,6.54,3.58,6.54s6.41-3.22,6.41-6.54-2.23-6.07-5-6.07S276.24,337.24,276.24,340.57Z"/><path class="cls-36" d="M288.34,339c.88-1.4-.09-3.59-2.15-4.89s-4.45-1.22-5.37.17.08,3.59,2.15,4.89S287.45,340.34,288.34,339Z"/><path class="cls-36" d="M277.58,336l-1.11,2.72a7.15,7.15,0,0,0,2-.63,3.81,3.81,0,0,0,1.84-1.77,3.92,3.92,0,0,0,.32-2.54Z"/><path class="cls-33" d="M264.93,350.15a12,12,0,0,0,2.3,2.71,10.33,10.33,0,0,0,6,2.7h.85a10.86,10.86,0,0,0,4.84-1.2l-.34-.66a10,10,0,0,1-4.5,1.11h-.77a9.62,9.62,0,0,1-5.61-2.51,11,11,0,0,1-2.13-2.53l-.64.38Z"/><path class="cls-42" d="M279.79,355.56a1.68,1.68,0,1,0-1.68-1.68A1.68,1.68,0,0,0,279.79,355.56Z"/><path class="cls-42" d="M253.37,341.41l3.54,6.53.33-.19-.34.17a6,6,0,0,0,1.3,1.59,6.59,6.59,0,0,0,1.75,1.07,6.82,6.82,0,0,0,2.6.49,9.56,9.56,0,0,0,2.43-.34,4.38,4.38,0,0,0,2.25-1.27,2.69,2.69,0,0,0,.51-.9,2.91,2.91,0,0,0,.15-1,5.06,5.06,0,0,0-.34-1.72,10.6,10.6,0,0,0-1.15-2.12c-.21-.31-.44-.61-.68-.9a.31.31,0,0,0-.11-.09.42.42,0,0,0-.15,0,.34.34,0,0,0-.14,0,.33.33,0,0,0-.13.07.39.39,0,0,0-.11.27.36.36,0,0,0,.11.26,10.67,10.67,0,0,1,1,1.48,8,8,0,0,1,.66,1.35,4.07,4.07,0,0,1,.23,1.42,2.16,2.16,0,0,1-.11.76,2,2,0,0,1-.68,1,4.15,4.15,0,0,1-1.53.76,8.91,8.91,0,0,1-2.24.32,6.23,6.23,0,0,1-2.3-.44,5.64,5.64,0,0,1-2.06-1.45,5.5,5.5,0,0,1-.47-.61l-.11-.18v-.05l-.14.07.14-.07-.14.07.14-.07-3.55-6.53A.42.42,0,0,0,254,341a.41.41,0,0,0-.13-.08.3.3,0,0,0-.16,0,.42.42,0,0,0-.15,0,.32.32,0,0,0-.12.11.61.61,0,0,0-.07.14.43.43,0,0,0,0,.16,1,1,0,0,0,.07.15Z"/><path class="cls-43" d="M279.75,355a1.07,1.07,0,1,0-1.08-1.07A1.07,1.07,0,0,0,279.75,355Z"/><path class="cls-35" d="M254.3,354.39c.2.38.42.75.65,1.1a14.7,14.7,0,0,0,1.25,1.66,12.77,12.77,0,0,0,3.23,2.72,10.65,10.65,0,0,0,2.3,1,9.62,9.62,0,0,0,2.72.39,11.43,11.43,0,0,0,4.6-1,19.38,19.38,0,0,0,5-3.32,1.88,1.88,0,0,0,.63-1.28,1.86,1.86,0,0,0-3.09-1.52,15.92,15.92,0,0,1-4.06,2.71,7.69,7.69,0,0,1-3.06.7,6.62,6.62,0,0,1-1.54-.18,7,7,0,0,1-2.21-1.06,10.45,10.45,0,0,1-2.3-2.3,10.71,10.71,0,0,1-.59-.9,2,2,0,0,1-.14-.25v-.05l-.76.39.76-.38-.76.39.76-.38a1.79,1.79,0,0,0-.44-.58,1.81,1.81,0,0,0-.63-.36,2,2,0,0,0-.72-.1,1.92,1.92,0,0,0-.71.19,1.78,1.78,0,0,0-.57.45,1.9,1.9,0,0,0-.37.63,1.87,1.87,0,0,0,.1,1.42Z"/><path class="cls-33" d="M258.79,357.27a2.35,2.35,0,0,1-.85.46,2.46,2.46,0,0,1-1,.1,2.55,2.55,0,0,1-.93-.27,2.61,2.61,0,0,1-.75-.61l-3.07-3.67a2.55,2.55,0,0,1-.46-.86,2.44,2.44,0,0,1-.1-1,2.39,2.39,0,0,1,.28-.93,2.46,2.46,0,0,1,.61-.75,2.53,2.53,0,0,1,.85-.47,2.66,2.66,0,0,1,1-.1,2.55,2.55,0,0,1,1.69.89l3.06,3.68a2.53,2.53,0,0,1,.47.85,2.63,2.63,0,0,1,.09,1,2.39,2.39,0,0,1-.28.93A2.46,2.46,0,0,1,258.79,357.27Z"/><path class="cls-35" d="M266,340.49c0,3.33-1,6.54-4.13,6.54s-7.38-3.21-7.38-6.54a5.75,5.75,0,0,1,1.58-4.27,5.6,5.6,0,0,1,1.9-1.32,5.74,5.74,0,0,1,4.55,0,5.75,5.75,0,0,1,3.48,5.59Z"/><path class="cls-30" d="M256.56,339.66s.42-.24,1.28-2.72a12.68,12.68,0,0,1,2.92-1.15,5.51,5.51,0,0,1,3.28.38,6.45,6.45,0,0,0-5.11-2.3c-4,.27-6.3,4.2-5.89,4.76"/><path class="cls-30" d="M257.15,336.25a3,3,0,0,1,1.27.4,2.91,2.91,0,0,1,1,.91,2.85,2.85,0,0,1,.38,1.87l6.71-.77a4,4,0,0,0-.77-2.05,4.64,4.64,0,0,0-1.67-1.27,4.72,4.72,0,0,0-2.06-.41Z"/><path class="cls-44" d="M657.74,363.22V240.76l77-45.49v59.48l42-24.49v63Z"/><path class="cls-45" d="M657.74,240.76V363.22l-87.13-52.84-1-.59-27.3-16.55V170.78Z"/><path class="cls-46" d="M619.27,125.29l-76.94,45.49,115.41,70,77-45.49Z"/><path class="cls-46" d="M734.69,254.75v-49l42,24.49Z"/><path class="cls-47" d="M682.23,321.23v24.49l-6.73,4-9.76,5.86-1,.61v-24.5l9.9-5.94h0l5.3-3.18Z"/><path class="cls-48" d="M679.94,322.6l.46.36-15.66,20.29v-4.64l9.9-12.83h0Z"/><path class="cls-49" d="M682.23,326.4v15l-6.73,8.4-9.76,5.86-1-.8v-6.56Z"/><path class="cls-47" d="M706.7,307.23v24.49l-6.72,4-9.76,5.86-1,.6V317.73l9.9-6h0l5.28-3.17Z"/><path class="cls-48" d="M704.41,308.61l.47.36-15.66,20.28v-4.64l9.9-12.83h0Z"/><path class="cls-49" d="M706.7,312.4v15l-6.72,8.4-9.76,5.86-1-.8v-6.56Z"/><path class="cls-47" d="M731.19,293.24v24.49l-6.73,4-9.76,5.86-1,.61v-24.5l9.9-5.94,5.3-3.18Z"/><path class="cls-48" d="M728.9,294.61l.46.36L713.7,315.26v-4.64l9.9-12.83Z"/><path class="cls-49" d="M731.19,298.4v15l-6.73,8.4-9.76,5.86-1-.8v-6.56Z"/><path class="cls-50" d="M773.46,267.8v24.49l-8,4.79h0l-26.4,15.85-.6.36V288.8l11.45-6.88,10.6-6.36Z"/><path class="cls-48" d="M760.53,275.72l-22,31.93v-9l11.45-16.58Z"/><path class="cls-48" d="M773.46,270.57v16.81l-8.11,9.89h0l-26.86,16Z"/><path class="cls-47" d="M728.07,204.37v25.76L714,238.44,682.7,257l-17.59,10.4V241.59l19.75-11.68h0l16.42-9.71,25.23-14.92Z"/><path class="cls-48" d="M700.53,220.52l-36.18,46.83V255.8l19.76-25.56Z"/><path class="cls-48" d="M727.32,204.7v17.5l-14.06,16.57-31.32,18.52,43.83-51.68Z"/><path class="cls-47" d="M728,233.75v26l-14.17,8.38L682.2,286.77l-17.73,10.49v-26l19.91-11.76h0L701,249.71h0l25.43-15Z"/><path class="cls-48" d="M701,249.71l-36.48,47.22V285.28l19.91-25.77h0Z"/><path class="cls-48" d="M728,233.75V251.4l-14.17,16.71L682.2,286.77l44.19-52.1Z"/><path class="cls-13" d="M570.61,310.38l-1-.59.73-.22Z"/><path class="cls-47" d="M654.25,243.49V272.8l-45.12-27.11-33.81-20.32-18.81-11.3-10.69-6.41V178.34L576,196.46l12.85,7.73,18.76,11.27,33.81,20.32Z"/><path class="cls-48" d="M588.84,204.19l-32.33,9.88-10.69-6.41v-2L576,196.46Z"/><path class="cls-48" d="M641.41,235.78l-32.28,9.91-33.81-20.32,32.28-9.91Z"/><path class="cls-47" d="M654.25,277.83v29.32L609.13,280l-33.81-20.32-18.81-11.3L545.82,242V212.68L576,230.81l12.85,7.73,18.76,11.27,33.81,20.32Z"/><path class="cls-48" d="M588.84,238.54l-32.33,9.88L545.82,242v-2L576,230.81Z"/><path class="cls-48" d="M654.25,278,622,287.92,588.15,267.6l32.28-9.92Z"/><path class="cls-47" d="M654.25,312.53v29.32l-45.12-27.12-33.81-20.32-18.81-11.3-10.69-6.41V247.38L576,265.5l12.85,7.73L607.6,284.5l33.81,20.32Z"/><path class="cls-48" d="M588.84,273.23l-32.33,9.88-10.69-6.41v-2L576,265.5Z"/><path class="cls-48" d="M630.89,298.33l-32.27,9.91L564.8,287.92,597.09,278Z"/><path class="cls-47" d="M771.86,239.55l.42,22.59-11.92,7.16L739.19,282l-17.36,10.41-25.54,15.32-28.58,17.17-3,1.77-.45-23.81L682.71,292,699,282.47,723.6,268l25.2-14.84,12.66-7.45h0Z"/><path class="cls-48" d="M699,282.47l-31.25,42.44-3,1.77-.19-10L682.71,292Z"/><path class="cls-48" d="M748.8,253.12l-27,39.3-25.54,15.32L723.6,268Z"/><path class="cls-48" d="M771.86,239.61l.07,11.07-12.34,19.63-22.11,12.93L761,245.83h0Z"/><path class="cls-51" d="M799.24,45.1,743.64,81V99.84L799.24,64Z"/><path class="cls-51" d="M798,45l55.6,35.85V99.76L798,63.91Z"/><path class="cls-52" d="M798.4,45,854,80.88,850,83,794.86,47.44Z"/><path class="cls-53" d="M798.4,45,742.8,80.88l3.7,2.49L802,47.44Z"/><path class="cls-51" d="M798.4,433.52l54.76-35V90.19l-54.76,35Z"/><path class="cls-54" d="M798.4,433.52l-54.76-35V90.19l54.76,35Z"/><path class="cls-55" d="M798.4,120.09l46.29-29.58L798.4,0Z"/><path class="cls-56" d="M798.4,120.09,752.1,90.51,798.4,0Z"/><path class="cls-53" d="M798.4,125.82,854,90V80.66L798.4,116.5Z"/><path class="cls-52" d="M798.4,116.55,854,80.7l-4-2.13-55.15,35.56Z"/><path class="cls-51" d="M798.4,126,742.8,90.17V80.84l55.6,35.84Z"/><path class="cls-53" d="M798.51,116.77,742.8,80.84,746.94,79l51.57,33.11Z"/><path class="cls-53" d="M746.47,83.2l3.67-2.35-3.67-7.18Z"/><path class="cls-51" d="M746.47,83.2l-3.67-2.35,3.67-7.18Z"/><path class="cls-52" d="M798.43,116.68l3.62-2.46-3.62-7.07Z"/><path class="cls-51" d="M798.4,116.68l-3.65-2.35,3.68-7.18Z"/><path class="cls-52" d="M850.33,83,854,80.65l-3.67-7.18Z"/><path class="cls-51" d="M850.33,83l-3.67-2.35,3.67-7.18Z"/><path class="cls-54" d="M808.36,192l8.65-5.15V139.76l-8.65,5.15Z"/><path class="cls-54" d="M822.13,183.36l8.64-5.15V131.08l-8.64,5.15Z"/><path class="cls-54" d="M835.89,174.07l8.65-5.16V121.78l-8.65,5.16Z"/><path class="cls-57" d="M787.77,191.3l-8.64-5.16V139l8.64,5.16Z"/><path class="cls-57" d="M774,182.62l-8.65-5.16V130.33l8.65,5.16Z"/><path class="cls-57" d="M760.23,173.32l-8.64-5.15V121l8.64,5.15Z"/><path class="cls-58" d="M853.69,177,798.4,211.87"/><path class="cls-59" d="M743.17,177l55.23,34.83"/><path class="cls-60" d="M853.77,91.16,798.48,126"/><path class="cls-61" d="M743.25,91.18,798.48,126"/><path class="cls-62" d="M829.26,214.51v20.13"/><path class="cls-62" d="M822.3,226.82l6.55,7.89"/><path class="cls-54" d="M840.22,118.28c2.4-1.31,4.34.72,4.34,4.47s-2,8-4.34,9.41-4.34-.6-4.34-4.47S837.82,119.58,840.22,118.28Z"/><path class="cls-54" d="M826.45,126.46c2.4-1.31,4.34.72,4.34,4.47s-2,8-4.34,9.42-4.34-.6-4.34-4.47S824.05,127.76,826.45,126.46Z"/><path class="cls-54" d="M812.68,135.88c2.4-1.31,4.35.72,4.35,4.47s-2,8-4.35,9.41-4.34-.6-4.34-4.47S810.28,137.18,812.68,135.88Z"/><path class="cls-57" d="M755.91,117.29c-2.39-1.31-4.34.72-4.34,4.46s2,8,4.34,9.41,4.34-.59,4.34-4.46S758.31,118.58,755.91,117.29Z"/><path class="cls-57" d="M769.67,125.47c-2.39-1.31-4.34.72-4.34,4.46s2,8,4.34,9.42,4.35-.6,4.35-4.47S772.11,126.77,769.67,125.47Z"/><path class="cls-57" d="M783.45,134.88c-2.41-1.31-4.35.72-4.35,4.47s2,8,4.35,9.41,4.34-.6,4.34-4.47S785.86,136.18,783.45,134.88Z"/><path class="cls-63" d="M490.85,315.71,339.44,404,527.22,511l150.44-88.28Z"/><path class="cls-64" d="M577.73,328.76c0-2.5-1.64-5-5-6.91-6.6-3.83-17.26-3.83-23.89,0-3.31,1.92-5,4.41-4.95,6.91s1.64,5,4.95,6.91c6.59,3.83,17.26,3.83,23.89,0C576.09,333.75,577.73,331.26,577.73,328.76Z"/><path class="cls-65" d="M572.78,338.92c-6.6,3.83-17.26,3.83-23.89,0-3.31-1.92-5-4.41-4.95-6.91,0,2.5,1.64,5,4.95,6.91,6.59,3.83,17.26,3.83,23.89,0,3.31-1.92,5-4.41,5-6.91C577.73,334.51,576.13,337,572.78,338.92Z"/><path class="cls-66" d="M572.78,321.89c-6.6-3.83-17.26-3.83-23.89,0-3.31,1.92-5,4.41-4.95,6.91s1.64,5,4.95,6.9c6.59,3.84,17.26,3.84,23.89,0,3.31-1.91,5-4.41,5-6.91S576.13,323.75,572.78,321.89Z"/><path class="cls-63" d="M572.78,335.66c-6.6,3.83-17.26,3.83-23.89,0s-6.6-10,0-13.8,17.26-3.84,23.89,0S579.38,331.84,572.78,335.66Z"/><path class="cls-66" d="M568.11,333a16.08,16.08,0,0,1-14.55,0c-4-2.32-4-6.08,0-8.4a16.08,16.08,0,0,1,14.55,0C572.13,326.87,572.13,330.63,568.11,333Z"/><path class="cls-64" d="M563.53,327.45a2.68,2.68,0,0,1-.21,1,2.74,2.74,0,0,1-1.48,1.46,2.72,2.72,0,0,1-3.74-2.5V294.78a2.7,2.7,0,0,1,2.69-2.7,2.7,2.7,0,0,1,2.7,2.7Z"/><path class="cls-63" d="M560.79,320.92,539.15,309l21.68-48.73Z"/><path class="cls-67" d="M560.87,320.92,582.52,309l-21.69-48.73Z"/><path class="cls-68" d="M582.73,375.17c7.48,0,13.54-5.58,13.54-12.46s-6.06-12.45-13.54-12.45-13.54,5.57-13.54,12.45S575.26,375.17,582.73,375.17Z"/><path class="cls-68" d="M596.26,387.62c7.47,0,13.53-5.58,13.53-12.45s-6.06-12.46-13.53-12.46-13.54,5.58-13.54,12.46S588.78,387.62,596.26,387.62Z"/><path class="cls-68" d="M564.14,378.3c7.48,0,13.54-5.58,13.54-12.46s-6.06-12.45-13.54-12.45S550.6,359,550.6,365.84,556.66,378.3,564.14,378.3Z"/><path class="cls-68" d="M567.16,392.82c7.48,0,13.54-5.58,13.54-12.46s-6.06-12.45-13.54-12.45-13.54,5.58-13.54,12.45S559.68,392.82,567.16,392.82Z"/><path class="cls-68" d="M580.69,390.75c7.47,0,13.53-5.57,13.53-12.45s-6.06-12.46-13.53-12.46-13.54,5.58-13.54,12.46S573.21,390.75,580.69,390.75Z"/><path class="cls-68" d="M584.27,394.42c7.48,0,13.54-5.57,13.54-12.45s-6.06-12.45-13.54-12.45-13.54,5.57-13.54,12.45S576.79,394.42,584.27,394.42Z"/><path class="cls-69" d="M583.85,366a11.77,11.77,0,1,0-11.47-11.76A11.62,11.62,0,0,0,583.85,366Z"/><path class="cls-69" d="M595.32,377.76A11.77,11.77,0,1,0,583.85,366,11.62,11.62,0,0,0,595.32,377.76Z"/><path class="cls-69" d="M568.11,369a11.76,11.76,0,1,0-11.47-11.76A11.62,11.62,0,0,0,568.11,369Z"/><path class="cls-69" d="M570.66,382.66a11.76,11.76,0,1,0-11.48-11.76A11.62,11.62,0,0,0,570.66,382.66Z"/><path class="cls-69" d="M582.13,380.71A11.76,11.76,0,1,0,570.66,369,11.62,11.62,0,0,0,582.13,380.71Z"/><path class="cls-69" d="M585.16,384.17a11.77,11.77,0,1,0-11.47-11.77A11.63,11.63,0,0,0,585.16,384.17Z"/><path class="cls-70" d="M573.23,354.16a.16.16,0,0,0,.06.08l.09,0a1.4,1.4,0,0,1,.69.31,1.3,1.3,0,0,1,.41.62,1.37,1.37,0,0,1-.34,1.41.41.41,0,0,0,0,.09.31.31,0,0,0,0,.1,1.48,1.48,0,0,1-.08.75,1.42,1.42,0,0,1-.47.59,1.39,1.39,0,0,1-.71.26,1.47,1.47,0,0,1-.74-.15l-.09,0a.14.14,0,0,0-.09,0,1.37,1.37,0,0,1-.74.15,1.39,1.39,0,0,1-.71-.26,1.48,1.48,0,0,1-.46-.59,1.29,1.29,0,0,1-.08-.75.31.31,0,0,0,0-.1.15.15,0,0,0-.06-.09,1.4,1.4,0,0,1-.37-.66,1.36,1.36,0,0,1,0-.75,1.4,1.4,0,0,1,.42-.62,1.31,1.31,0,0,1,.69-.31.12.12,0,0,0,.09,0,.27.27,0,0,0,.07-.08,1.35,1.35,0,0,1,.5-.56,1.38,1.38,0,0,1,2,.56Z"/><path class="cls-70" d="M583.26,348.2a.14.14,0,0,0,.06.07.18.18,0,0,0,.09,0,1.49,1.49,0,0,1,.69.31,1.43,1.43,0,0,1,.42.63,1.39,1.39,0,0,1-.35,1.4.41.41,0,0,0,0,.09.17.17,0,0,0,0,.1,1.38,1.38,0,0,1-.09.75,1.36,1.36,0,0,1-.47.59,1.39,1.39,0,0,1-.71.26,1.42,1.42,0,0,1-.73-.16.19.19,0,0,0-.1,0l-.09,0a1.36,1.36,0,0,1-.74.16,1.43,1.43,0,0,1-.71-.26,1.34,1.34,0,0,1-.46-.59,1.38,1.38,0,0,1-.08-.75.16.16,0,0,0,0-.1.15.15,0,0,0-.06-.09,1.36,1.36,0,0,1-.34-1.4,1.35,1.35,0,0,1,.42-.63,1.41,1.41,0,0,1,.68-.31.18.18,0,0,0,.1,0,.16.16,0,0,0,.07-.07,1.38,1.38,0,0,1,2-.56A1.37,1.37,0,0,1,583.26,348.2Z"/><path class="cls-70" d="M569.39,370.39l.06.08.1,0a1.25,1.25,0,0,1,.68.31,1.32,1.32,0,0,1,.42.62,1.36,1.36,0,0,1,0,.75,1.34,1.34,0,0,1-.38.66.19.19,0,0,0,0,.08.2.2,0,0,0,0,.09,1.28,1.28,0,0,1-.08.75,1.35,1.35,0,0,1-.46.6,1.39,1.39,0,0,1-.71.26,1.42,1.42,0,0,1-.73-.16l-.1,0-.1,0a1.46,1.46,0,0,1-.74.16,1.39,1.39,0,0,1-.71-.26,1.51,1.51,0,0,1-.46-.6,1.37,1.37,0,0,1-.08-.75.38.38,0,0,0,0-.1.13.13,0,0,0-.06-.07,1.4,1.4,0,0,1-.37-.66,1.36,1.36,0,0,1,0-.75,1.43,1.43,0,0,1,.42-.63,1.38,1.38,0,0,1,.69-.3l.09,0a.27.27,0,0,0,.07-.08,1.38,1.38,0,0,1,.5-.52,1.41,1.41,0,0,1,.7-.19,1.44,1.44,0,0,1,.7.19A1.46,1.46,0,0,1,569.39,370.39Z"/><path class="cls-71" d="M579.22,366.4a.16.16,0,0,0,.06.08.14.14,0,0,0,.09,0,1.37,1.37,0,0,1,1.1.94,1.36,1.36,0,0,1,0,.75,1.4,1.4,0,0,1-.37.66.13.13,0,0,0,0,.09.15.15,0,0,0,0,.09,1.37,1.37,0,0,1-.09.75,1.34,1.34,0,0,1-.46.59,1.43,1.43,0,0,1-.72.26,1.33,1.33,0,0,1-.73-.16.31.31,0,0,0-.19,0,1.34,1.34,0,0,1-.74.16,1.33,1.33,0,0,1-.71-.25A1.4,1.4,0,0,1,576,369a.12.12,0,0,0,0-.1.22.22,0,0,0-.05-.08,1.34,1.34,0,0,1-.38-.66,1.36,1.36,0,0,1,0-.75,1.37,1.37,0,0,1,1.1-.94.17.17,0,0,0,.1,0,.27.27,0,0,0,.07-.08,1.36,1.36,0,0,1,1.2-.71,1.41,1.41,0,0,1,.7.19A1.49,1.49,0,0,1,579.22,366.4Z"/><path class="cls-71" d="M589.32,372a.22.22,0,0,0,.07.09.19.19,0,0,0,.09,0,1.25,1.25,0,0,1,.68.31,1.32,1.32,0,0,1,.42.62,1.37,1.37,0,0,1,0,.75,1.4,1.4,0,0,1-.37.66.14.14,0,0,0,0,.08.14.14,0,0,0,0,.09,1.36,1.36,0,0,1-.09.75,1.37,1.37,0,0,1-1.17.85,1.44,1.44,0,0,1-.74-.14.16.16,0,0,0-.09,0,.17.17,0,0,0-.1,0,1.41,1.41,0,0,1-.73.15,1.39,1.39,0,0,1-.71-.26,1.3,1.3,0,0,1-.46-.6,1.27,1.27,0,0,1-.08-.75.28.28,0,0,0,0-.09.24.24,0,0,0-.06-.08,1.4,1.4,0,0,1-.37-.66,1.37,1.37,0,0,1,0-.75,1.4,1.4,0,0,1,.42-.62,1.31,1.31,0,0,1,.69-.31l.1,0a.15.15,0,0,0,.06-.09,1.42,1.42,0,0,1,.51-.55,1.36,1.36,0,0,1,1.45,0A1.39,1.39,0,0,1,589.32,372Z"/><path class="cls-72" d="M589.32,356.65a.27.27,0,0,0,.07.08.14.14,0,0,0,.09,0,1.37,1.37,0,0,1,1.1.94,1.36,1.36,0,0,1,0,.75,1.4,1.4,0,0,1-.37.66.14.14,0,0,0,0,.08.38.38,0,0,0,0,.1,1.38,1.38,0,0,1-.09.75,1.37,1.37,0,0,1-1.17.85,1.35,1.35,0,0,1-.74-.15l-.09,0-.1,0a1.32,1.32,0,0,1-.73.15,1.24,1.24,0,0,1-.71-.26,1.27,1.27,0,0,1-.46-.59,1.29,1.29,0,0,1-.08-.75.34.34,0,0,0,0-.1.24.24,0,0,0-.06-.08,1.4,1.4,0,0,1-.37-.66,1.36,1.36,0,0,1,0-.75,1.37,1.37,0,0,1,1.11-.94.14.14,0,0,0,.09,0,.18.18,0,0,0,.07-.08,1.35,1.35,0,0,1,.51-.55,1.37,1.37,0,0,1,2,.55Z"/><path class="cls-70" d="M597.86,363.85l.06.08a.17.17,0,0,0,.1,0,1.37,1.37,0,0,1,1.1.94,1.36,1.36,0,0,1,0,.75,1.27,1.27,0,0,1-.38.65.36.36,0,0,0,0,.1.29.29,0,0,0,0,.09,1.28,1.28,0,0,1-.08.75,1.36,1.36,0,0,1-.47.59,1.36,1.36,0,0,1-1.45.1l-.09,0-.09,0a1.36,1.36,0,0,1-.74.16,1.3,1.3,0,0,1-.71-.25,1.39,1.39,0,0,1-.47-.6,1.37,1.37,0,0,1-.07-.75.34.34,0,0,0,0-.1.24.24,0,0,0-.06-.09,1.37,1.37,0,0,1-.37-.65,1.38,1.38,0,0,1,.45-1.38,1.49,1.49,0,0,1,.69-.31.18.18,0,0,0,.09,0,.16.16,0,0,0,.07-.07,1.38,1.38,0,0,1,.5-.52,1.41,1.41,0,0,1,.7-.19,1.44,1.44,0,0,1,.7.19A1.46,1.46,0,0,1,597.86,363.85Z"/><path class="cls-64" d="M510.19,316.23c0-3.72-2.46-7.45-7.37-10.29-9.84-5.68-25.78-5.68-35.62,0-4.93,2.88-7.38,6.57-7.38,10.29v6.67c0,3.72,2.45,7.45,7.38,10.29,9.84,5.68,25.78,5.68,35.62,0,4.91-2.88,7.38-6.57,7.37-10.3v-6.66Z"/><path class="cls-73" d="M459.82,319.74v0Z"/><path class="cls-65" d="M502.83,331.38c-9.84,5.67-25.78,5.67-35.62,0-4.93-2.88-7.38-6.57-7.38-10.3v1.82c0,3.72,2.45,7.45,7.38,10.29,9.84,5.68,25.78,5.68,35.62,0,4.91-2.88,7.38-6.57,7.37-10.3v-1.78C510.2,324.81,507.73,328.53,502.83,331.38Z"/><path class="cls-66" d="M502.83,305.94c-9.84-5.68-25.78-5.68-35.62,0-4.93,2.88-7.38,6.57-7.38,10.29v.2c0,3.74,2.45,7.46,7.38,10.3,9.84,5.68,25.78,5.68,35.62,0,4.91-2.87,7.38-6.56,7.37-10.3C510.2,312.48,507.73,308.78,502.83,305.94Z"/><path class="cls-63" d="M502.83,326.51c-9.84,5.68-25.78,5.68-35.62,0s-9.84-14.89,0-20.57,25.78-5.68,35.62,0S512.65,320.83,502.83,326.51Z"/><path class="cls-74" d="M503.12,300.74l-11-6.11a2.09,2.09,0,0,0-1-.1,2.13,2.13,0,0,0-.93.36l-23.41,13.53a6.33,6.33,0,0,0-2.69,3.78v.12l10.24,6.07Z"/><path class="cls-75" d="M503.84,308.39a6.22,6.22,0,0,1-.85,2.81,6.34,6.34,0,0,1-2,2.13l-23.39,13.54c-1.58.91-4.58.86-5.75,0V314.4a5.14,5.14,0,0,0,5.75,0L501,300.88c1.58-1,2.88-.18,2.88,1.65Z"/><path class="cls-66" d="M474.73,325.2c0,1.82-1.29,2.56-2.88,1.65l-5.08-2.93a6.27,6.27,0,0,1-2-2.13,6.39,6.39,0,0,1-.85-2.82V313.1c0-1.83,1.28-2.56,2.88-1.65l5.08,2.93a6.34,6.34,0,0,1,2.88,4.95Z"/><path class="cls-74" d="M498.3,292.34l-8-4.42a1.55,1.55,0,0,0-.71-.06,1.61,1.61,0,0,0-.66.25l-19.39,11.25a4.66,4.66,0,0,0-1.92,2.73v.09l7.4,4.4Z"/><path class="cls-76" d="M498.82,297.85a4.69,4.69,0,0,1-.6,2,4.58,4.58,0,0,1-1.46,1.54l-19.41,11.25a4.66,4.66,0,0,1-4.12,0v-9a3.73,3.73,0,0,0,4.12,0l19.41-11.25c1.14-.65,2.06-.13,2.06,1.2Z"/><path class="cls-66" d="M475.29,311.52c0,1.33-1,1.86-2.06,1.19l-3.68-2.14a4.7,4.7,0,0,1-1.46-1.55,4.57,4.57,0,0,1-.61-2v-4.25c0-1.32,1-1.85,2.07-1.2l3.68,2.13a4.58,4.58,0,0,1,1.46,1.54,4.44,4.44,0,0,1,.6,2Z"/><path class="cls-64" d="M392.27,385.72c0-3.86-2.52-7.71-7.61-10.65-10.17-5.91-26.6-5.91-36.8,0-5.08,3-7.63,6.79-7.63,10.65s2.55,7.7,7.63,10.64c10.15,5.92,26.6,5.92,36.8,0C389.75,393.4,392.29,389.58,392.27,385.72Z"/><path class="cls-65" d="M384.66,401.3c-10.17,5.91-26.6,5.91-36.8,0-5.08-3-7.63-6.79-7.63-10.65,0,3.86,2.55,7.71,7.63,10.65,10.15,5.91,26.6,5.91,36.8,0,5.09-3,7.63-6.79,7.61-10.65C392.29,394.5,389.75,398.36,384.66,401.3Z"/><path class="cls-66" d="M384.66,375c-10.17-5.91-26.6-5.91-36.8,0-5.08,3-7.63,6.79-7.63,10.65s2.55,7.7,7.63,10.64c10.15,5.92,26.6,5.92,36.8,0,5.09-2.95,7.63-6.8,7.61-10.64S389.75,378,384.66,375Z"/><path class="cls-63" d="M384.66,396.27c-10.17,5.92-26.6,5.92-36.8,0s-10.17-15.39,0-21.26,26.6-5.91,36.8,0S394.82,390.4,384.66,396.27Z"/><path class="cls-66" d="M377.4,392.1a24.66,24.66,0,0,1-22.4,0c-6.19-3.56-6.19-9.36,0-12.93a24.66,24.66,0,0,1,22.4,0C383.64,382.76,383.64,388.54,377.4,392.1Z"/><path class="cls-65" d="M344.48,326.87c0,16.06,9.47,29.05,21.17,29.05v-5.79c-8.21,0-15.9-12-15.9-23.26Z"/><path class="cls-65" d="M380.66,338.51a13.33,13.33,0,0,1-1.12,5,13,13,0,0,1-12.29,7.71v5.53c10.58,0,19.21-8.16,19.21-18.21Z"/><path class="cls-64" d="M370.41,383.63a4.15,4.15,0,1,1-8.3,0V333.36a4.15,4.15,0,1,1,8.3,0Z"/><path class="cls-64" d="M380.66,354.67a13,13,0,0,1-1.12,5,13,13,0,0,1-12.29,7.73v5.53c10.58,0,19.21-8.17,19.21-18.23Z"/><path class="cls-66" d="M347.73,334.63l-14.29-7.88,14.29-20.52Z"/><path class="cls-75" d="M347.73,334.63l14.3-7.88-14.3-20.52Z"/><path class="cls-66" d="M383.61,339.17l-14.3-7.88,14.3-20.52Z"/><path class="cls-75" d="M383.61,339.17l14.31-7.88-14.31-20.52Z"/><path class="cls-64" d="M343.53,345.08a21.12,21.12,0,0,0,6.21,15,21.17,21.17,0,0,0,15,6.2V360a14.89,14.89,0,0,1-14.88-14.89Z"/><path class="cls-63" d="M366.26,350.64,342,337.29l24.27-52.81Z"/><path class="cls-77" d="M366.26,350.64l24.26-13.35-24.26-52.81Z"/><path class="cls-77" d="M383.61,362.16l-12.62-7,12.62-18.11Z"/><path class="cls-66" d="M383.61,362.16l12.62-7-12.62-18.11Z"/><path class="cls-77" d="M345.54,359.65l-14.66-8.07,14.66-21.06Z"/><path class="cls-66" d="M345.54,359.65l14.68-8.07-14.68-21.06Z"/><path class="cls-64" d="M445.08,368.54c0-3.24-2.14-6.48-6.42-8.94-8.58-4.91-22.4-4.91-30.94,0-4.28,2.45-6.42,5.7-6.42,8.94s2.14,6.48,6.42,8.94c8.58,4.91,22.39,4.91,30.94,0C442.94,375,445.08,371.78,445.08,368.54Z"/><path class="cls-65" d="M438.66,381.63c-8.58,4.91-22.4,4.91-30.94,0-4.28-2.45-6.42-5.7-6.42-8.94,0,3.24,2.14,6.48,6.42,8.94,8.58,4.91,22.39,4.91,30.94,0,4.28-2.45,6.42-5.7,6.42-8.94C445.08,375.9,442.94,379.17,438.66,381.63Z"/><path class="cls-66" d="M438.66,359.53c-8.58-4.91-22.4-4.91-30.94,0-4.28,2.46-6.42,5.71-6.42,9s2.14,6.48,6.42,8.94c8.58,4.91,22.39,4.91,30.94,0,4.28-2.45,6.42-5.7,6.42-8.94S442.94,362,438.66,359.53Z"/><path class="cls-63" d="M438.66,377.41c-8.58,4.91-22.4,4.91-30.94,0s-8.59-12.94,0-17.88,22.39-4.91,30.94,0S447.21,372.47,438.66,377.41Z"/><path class="cls-66" d="M432.62,373.91a20.78,20.78,0,0,1-18.85,0c-5.21-3-5.21-7.87,0-10.89a20.87,20.87,0,0,1,18.85,0C437.82,366.08,437.82,370.91,432.62,373.91Z"/><path class="cls-65" d="M434.35,316.85c0,12.19-5.78,27.41-10.26,27.41v4c6.38,0,13.69-14.08,13.69-31.44Z"/><path class="cls-75" d="M450.83,291.85c0,7.92-6.41,26.63-14.33,26.63s-14.31-18.65-14.31-26.63Z"/><path class="cls-66" d="M446.66,297.7c-5.61,3.24-14.72,3.24-20.29,0s-5.6-8.47,0-11.71,14.72-3.23,20.29,0S452.27,294.46,446.66,297.7Z"/><path class="cls-65" d="M407.13,337.43A17.85,17.85,0,0,0,412.35,350a17.79,17.79,0,0,0,12.6,5.21V350a12.51,12.51,0,0,1-12.52-12.52Z"/><path class="cls-64" d="M426.68,366.52a3.48,3.48,0,0,1-3.5,3.49,3.58,3.58,0,0,1-1.33-.26,3.52,3.52,0,0,1-1.89-1.9,3.58,3.58,0,0,1-.26-1.33V346.88a3.49,3.49,0,0,1,7,0Z"/><path class="cls-64" d="M431.32,344.26a8.11,8.11,0,0,1-2.39,5.75,8.21,8.21,0,0,1-2.63,1.76,8.34,8.34,0,0,1-3.12.61v3.45a11.57,11.57,0,0,0,11.57-11.57Z"/><path class="cls-66" d="M428.23,304.91c0,10.14-8.22,34.13-18.4,34.13s-18.4-24-18.4-34.13Z"/><path class="cls-77" d="M422.86,312.42c-7.18,4.14-18.82,4.14-26,0s-7.18-10.87,0-15,18.82-4.15,26,0S430,308.27,422.86,312.42Z"/><path class="cls-77" d="M444.29,327c0,6.78-5.5,22.83-12.26,22.83s-12.27-16-12.27-22.83Z"/><path class="cls-63" d="M440.7,332a19.21,19.21,0,0,1-17.39,0c-4.81-2.77-4.81-7.27,0-10a19.21,19.21,0,0,1,17.39,0C445.51,324.75,445.51,329.27,440.7,332Z"/><path class="cls-64" d="M421.46,392.11c0-1.92-1.27-3.84-3.79-5.29-5.05-2.88-13.24-2.88-18.28,0-2.53,1.46-3.84,3.37-3.84,5.29s1.26,3.83,3.84,5.28c5,2.88,13.23,2.88,18.28,0C420.19,395.93,421.46,394,421.46,392.11Z"/><path class="cls-65" d="M417.69,399.87c-5.05,2.88-13.24,2.88-18.28,0-2.53-1.45-3.84-3.36-3.84-5.28,0,1.92,1.26,3.83,3.84,5.28,5,2.88,13.23,2.88,18.28,0,2.52-1.45,3.79-3.36,3.79-5.28C421.46,396.51,420.21,398.42,417.69,399.87Z"/><path class="cls-66" d="M417.69,386.82c-5.05-2.88-13.24-2.88-18.28,0-2.53,1.46-3.84,3.37-3.84,5.29s1.26,3.83,3.84,5.28c5,2.88,13.23,2.88,18.28,0,2.52-1.46,3.79-3.38,3.79-5.28S420.21,388.28,417.69,386.82Z"/><path class="cls-63" d="M417.69,397.38c-5.05,2.88-13.24,2.88-18.28,0s-5.05-7.67,0-10.55,13.23-2.88,18.28,0S422.73,394.46,417.69,397.38Z"/><path class="cls-66" d="M414.11,395.34a12.31,12.31,0,0,1-11.13,0c-3.07-1.79-3.07-4.66,0-6.44a12.31,12.31,0,0,1,11.13,0C417.19,390.66,417.18,393.53,414.11,395.34Z"/><path class="cls-64" d="M410.61,391a2,2,0,0,1-.61,1.45,2.06,2.06,0,0,1-1.46.61,2.08,2.08,0,0,1-2.06-2.06V367.08a2.07,2.07,0,0,1,4.13,0Z"/><path class="cls-67" d="M424.5,362.5a16,16,0,1,1-31.91,0Z"/><path class="cls-63" d="M419.84,369c-6.23,3.61-16.3,3.61-22.59,0s-6.24-9.45,0-13,16.36-3.6,22.59,0S426.08,365.41,419.84,369Z"/><path class="cls-67" d="M421.46,355.28a12.95,12.95,0,0,1-25.89,0Z"/><path class="cls-63" d="M417.7,360.56c-5.05,2.88-13.25,2.88-18.3,0s-5.06-7.67,0-10.55,13.25-2.93,18.3,0S422.75,357.64,417.7,360.56Z"/><path class="cls-67" d="M418.19,348.34a9.65,9.65,0,1,1-19.29,0Z"/><path class="cls-63" d="M415.38,352.29a15,15,0,0,1-13.66,0c-3.78-2.17-3.78-5.75,0-7.88a15.12,15.12,0,0,1,13.66,0C419.15,346.59,419.15,350.12,415.38,352.29Z"/><path class="cls-64" d="M396.3,416.65c0-2.25-1.48-4.5-4.46-6.23-5.95-3.43-15.59-3.43-21.54,0-3,1.73-4.46,4-4.45,6.23s1.48,4.5,4.45,6.22c5.95,3.44,15.59,3.44,21.54,0,3-1.72,4.46-4,4.46-6.23Z"/><path class="cls-65" d="M391.84,425.81c-5.95,3.43-15.59,3.43-21.54,0-3-1.72-4.46-4-4.45-6.23,0,2.25,1.48,4.5,4.45,6.23,5.95,3.43,15.59,3.43,21.54,0,3-1.73,4.46-4,4.46-6.24C396.3,421.84,394.82,424.09,391.84,425.81Z"/><path class="cls-66" d="M391.84,410.42c-5.95-3.43-15.59-3.43-21.54,0-3,1.73-4.46,4-4.45,6.23s1.48,4.51,4.45,6.22c5.95,3.44,15.59,3.44,21.54,0,3-1.71,4.46-4,4.46-6.22S394.82,412.15,391.84,410.42Z"/><path class="cls-63" d="M391.84,422.86c-5.95,3.44-15.59,3.44-21.54,0s-5.94-9,0-12.47,15.59-3.43,21.54,0S397.81,419.43,391.84,422.86Z"/><path class="cls-66" d="M387.63,420.44a14.57,14.57,0,0,1-13.12,0c-3.61-2.09-3.61-5.49,0-7.58a14.49,14.49,0,0,1,13.12,0C391.25,415,391.25,418.35,387.63,420.44Z"/><path class="cls-64" d="M383.5,415.47a2.42,2.42,0,0,1-2.43,2.42,2.42,2.42,0,0,1-2.42-2.42V386a2.42,2.42,0,0,1,2.42-2.42A2.42,2.42,0,0,1,383.5,386Z"/><path class="cls-63" d="M399.86,380.63a18.78,18.78,0,1,1-5.5-13.29A18.85,18.85,0,0,1,399.86,380.63Z"/><path class="cls-67" d="M397.41,371.33a18.79,18.79,0,0,1-35.07,8.26v1.05a18.79,18.79,0,1,0,35.12-9.31Z"/><path class="cls-65" d="M382.34,406.17a.85.85,0,0,1-.61.26.83.83,0,0,1-.61-.26.86.86,0,0,1,0-1.21l7.91-7.91a.75.75,0,0,1,.28-.18.88.88,0,0,1,.32-.07.93.93,0,0,1,.33.07.84.84,0,0,1,.28.18.88.88,0,0,1,.25.61.86.86,0,0,1-.25.61Z"/><path class="cls-63" d="M394.26,401.08a5.69,5.69,0,0,1-6.2,1.24,5.7,5.7,0,0,1,3.29-10.85,5.69,5.69,0,0,1,2.91,9.61Z"/><path class="cls-67" d="M394.93,393.76a5.69,5.69,0,0,1-9.72,4,4.9,4.9,0,0,1-.61-.74,5.66,5.66,0,0,0,.6,2.59,5.7,5.7,0,0,0,4.16,3.08,5.81,5.81,0,0,0,2.65-.19,5.69,5.69,0,0,0,2.92-8.74Z"/><path class="cls-64" d="M476.63,361c0-2.6-1.8-5.21-5.42-7.18-7.22-4-18.93-4-26.16,0-3.6,2-5.41,4.58-5.4,7.18s1.8,5.21,5.4,7.19c7.23,4,18.94,4,26.16,0C474.83,366.21,476.63,363.61,476.63,361Z"/><path class="cls-65" d="M471.21,371.58c-7.22,4-18.93,4-26.16,0-3.6-2-5.41-4.6-5.4-7.19,0,2.61,1.8,5.21,5.4,7.19,7.23,4,18.94,4,26.16,0,3.62-2,5.42-4.58,5.42-7.19C476.63,367,474.83,369.59,471.21,371.58Z"/><path class="cls-66" d="M471.21,353.82c-7.22-4-18.93-4-26.16,0-3.6,2-5.41,4.58-5.4,7.18s1.8,5.2,5.4,7.19c7.23,4,18.94,4,26.16,0,3.62-2,5.42-4.58,5.42-7.19S474.83,355.79,471.21,353.82Z"/><path class="cls-63" d="M471.21,368.18c-7.22,4-18.93,4-26.16,0s-7.21-10.4,0-14.36,18.94-4,26.16,0S478.44,364.21,471.21,368.18Z"/><path class="cls-66" d="M466.1,365.38a18.5,18.5,0,0,1-15.92,0c-4.41-2.42-4.41-6.34,0-8.76a18.41,18.41,0,0,1,15.92,0C470.5,359,470.5,363,466.1,365.38Z"/><path class="cls-64" d="M461.1,359.44a2.64,2.64,0,0,1-.23,1.07,2.74,2.74,0,0,1-.64.91,2.89,2.89,0,0,1-1,.6,3.08,3.08,0,0,1-3.2-.6,2.72,2.72,0,0,1-.87-2V330.11a2.73,2.73,0,0,1,.86-2,3.06,3.06,0,0,1,4.17,0,2.71,2.71,0,0,1,.87,2Z"/><path class="cls-77" d="M458.05,353.12l-17.68-9.71V327.52l17.68,9.74Z"/><path class="cls-66" d="M475.75,343.41l-17.7,9.71V337.26l17.7-9.74Z"/><path class="cls-63" d="M475.75,327.52l-17.51-9.75v0l-17.87,9.73,17.68,9.74Z"/><path class="cls-77" d="M458.08,334.24l-13.61-7.47V312.14l13.61,7.47Z"/><path class="cls-66" d="M471.69,326.77l-13.61,7.47V319.61l13.61-7.49Z"/><path class="cls-63" d="M471.69,312.12l-13.47-7.49h0l-13.75,7.5,13.61,7.47Z"/><path class="cls-77" d="M458.1,317.1l-9.85-5.4V301.11l9.85,5.41Z"/><path class="cls-66" d="M467.94,311.7l-9.84,5.4V306.52l9.84-5.41Z"/><path class="cls-63" d="M467.94,301.11l-9.75-5.42h0l-9.94,5.41,9.85,5.41Z"/><path class="cls-64" d="M435.22,416.88c0-2.88-1.92-5.82-5.75-8-7.67-4.44-20.13-4.44-27.8,0-3.84,2.22-5.75,5.13-5.75,8V422c0,2.88,1.91,5.82,5.75,8,7.67,4.44,20.13,4.44,27.8,0,3.83-2.22,5.75-5.13,5.75-8v-5.11Z"/><path class="cls-65" d="M429.47,428.7c-7.67,4.44-20.13,4.44-27.8,0-3.84-2.21-5.75-5.13-5.75-8V422c0,2.88,1.91,5.82,5.75,8,7.67,4.44,20.13,4.44,27.8,0,3.83-2.22,5.75-5.13,5.75-8v-1.23C435.23,423.57,433.31,426.49,429.47,428.7Z"/><path class="cls-66" d="M429.47,408.84c-7.67-4.44-20.13-4.44-27.8,0-3.84,2.22-5.75,5.13-5.75,8s1.91,5.81,5.75,8c7.67,4.43,20.13,4.43,27.8,0,3.83-2.23,5.75-5.14,5.75-8.05S433.31,411.06,429.47,408.84Z"/><path class="cls-63" d="M429.47,424.91c-7.67,4.43-20.13,4.43-27.8,0s-7.67-11.64,0-16.07,20.13-4.44,27.8,0S437.15,420.46,429.47,424.91Z"/><path class="cls-74" d="M431.23,410.36c-.2-8.49-5.43-27.22-11.87-27.22s-11.68,18.74-11.87,27.22a7.41,7.41,0,0,0,3.46,6.58,15.34,15.34,0,0,0,16.82,0C430.27,415.12,431.42,412.72,431.23,410.36Z"/><path class="cls-78" d="M419.3,410.5a7.42,7.42,0,0,1-3.46-6.57c.11-5.31.57-13.89,1-19.83-5.23,3.93-9.18,18.92-9.34,26.26a7.41,7.41,0,0,0,3.46,6.57,15.29,15.29,0,0,0,16.82,0,7.92,7.92,0,0,0,3.38-5C428.46,412.59,423.76,413.73,419.3,410.5Z"/><path class="cls-76" d="M418.75,414.67c-.16-6.6-4.54-21.17-9.92-21.17s-9.77,14.57-9.93,21.18c-.16,1.84.81,3.71,2.87,5.11a13.55,13.55,0,0,0,14.07,0C418,418.39,418.9,416.51,418.75,414.67Z"/><path class="cls-75" d="M418.75,414.67c-.14-5.87-3.62-18-8.18-20.67,2.45,5.07,2.67,15,1.61,19.87-.27,1.82-1.66,3.42-4,4.29a13,13,0,0,1-8.13,0,7,7,0,0,0,1.75,1.6,13.55,13.55,0,0,0,14.07,0A5.61,5.61,0,0,0,418.75,414.67Z"/><path class="cls-66" d="M428.09,420.76c-.12-4.51-3.1-14.43-6.77-14.43s-6.65,9.93-6.77,14.43a3.91,3.91,0,0,0,2,3.49,9.23,9.23,0,0,0,9.58,0,3.78,3.78,0,0,0,1.47-1.47A3.85,3.85,0,0,0,428.09,420.76Z"/><path class="cls-79" d="M420.12,422.15a4,4,0,0,1-1.66-1.24,3.87,3.87,0,0,1-.78-1.92,29,29,0,0,1,1.48-11.51c-2.59,2.76-4.47,9.7-4.57,13.26a3.85,3.85,0,0,0,.51,2,3.71,3.71,0,0,0,1.47,1.47,9.23,9.23,0,0,0,9.58,0,4.3,4.3,0,0,0,1.85-2.36,9.31,9.31,0,0,1-3.91,1A9.5,9.5,0,0,1,420.12,422.15Z"/><path class="cls-64" d="M429.72,449.61c0-3.31-2.08-6.63-6.27-9.15-8.34-5.06-21.89-5.06-30.24,0C389,443,387,446.3,387,449.61v5.95c0,3.31,2.08,6.62,6.26,9.15,8.35,5.06,21.9,5.06,30.24,0,4.19-2.53,6.27-5.84,6.27-9.16v-5.93Z"/><path class="cls-65" d="M423.45,463.07c-8.34,5.06-21.89,5.06-30.24,0-4.18-2.53-6.26-5.84-6.26-9.16v1.65c0,3.31,2.08,6.62,6.26,9.15,8.35,5.06,21.9,5.06,30.24,0,4.19-2.53,6.27-5.84,6.27-9.16v-1.62C429.72,457.23,427.64,460.54,423.45,463.07Z"/><path class="cls-66" d="M423.45,440.46c-8.34-5.06-21.89-5.06-30.24,0C389,443,387,446.3,387,449.61v.06c0,3.3,2.08,6.62,6.26,9.15,8.35,5.05,21.9,5.05,30.24,0,4.19-2.53,6.27-5.85,6.27-9.17S427.64,443,423.45,440.46Z"/><path class="cls-63" d="M423.45,458.75c-8.34,5.05-21.89,5.05-30.24,0s-8.35-13.25,0-18.29,21.9-5.06,30.24,0S431.81,453.69,423.45,458.75Z"/><path class="cls-66" d="M425,447.35c0,5.58-7.48,10.1-16.7,10.1s-16.71-4.52-16.71-10.1,16.71-27.21,16.71-27.21S425,441.77,425,447.35Z"/><path class="cls-79" d="M410.26,422.65c3.84,7.39,10.35,20.51,9.77,24.41-.81,5.51-8.86,8.78-18,7.3a25,25,0,0,1-9.29-3.39c2.42,3.77,8.48,6.44,15.58,6.44,9.22,0,16.7-4.51,16.7-10.09C425,443,414.65,428.58,410.26,422.65Z"/><path class="cls-80" d="M563.86,419.16a147.19,147.19,0,0,1,7.38,16.11,1.91,1.91,0,0,0,3.57-1.37,153.85,153.85,0,0,0-7.6-16.63,2,2,0,0,0-.48-.57,2.07,2.07,0,0,0-.66-.34,1.9,1.9,0,0,0-.75-.06,2,2,0,0,0-.71.22,2.06,2.06,0,0,0-.57.49,2,2,0,0,0-.34.66,1.85,1.85,0,0,0-.06.74,2,2,0,0,0,.22.71Z"/><path class="cls-81" d="M564.52,415.85l-1.45.94a2,2,0,0,0-.6,2.82l2.15,3.31a2,2,0,0,0,2.82.6l1.45-.94a2,2,0,0,0,.59-2.82l-2.14-3.31A2,2,0,0,0,564.52,415.85Z"/><path class="cls-82" d="M556.07,451.72c.49-.11,1.15-.26,1.91-.5a17.72,17.72,0,0,0,3.92-1.77,15.73,15.73,0,0,0,4.13-3.67c.4-.51.76-1,1.12-1.53a7.71,7.71,0,0,0,.49-.89,6.22,6.22,0,0,0,.37-1,7.65,7.65,0,0,0,.26-2,8.94,8.94,0,0,0-.33-2.3,9.34,9.34,0,0,0-.29-.89c-.09-.26-.18-.48-.25-.66a11.86,11.86,0,0,0-1.62-2.83,12.29,12.29,0,0,0-1.64-1.74,2.3,2.3,0,0,0-.78-.53,2.46,2.46,0,0,0-.93-.16,2.34,2.34,0,0,0-.91.22,2.31,2.31,0,0,0-1.21,1.39,2.29,2.29,0,0,0-.1.94,2.52,2.52,0,0,0,.29.89,2.26,2.26,0,0,0,.63.71,7.59,7.59,0,0,1,1,1.09,7.3,7.3,0,0,1,1,1.72l.2.53a5.56,5.56,0,0,1,.25.82,3.81,3.81,0,0,1,.09.82,2.86,2.86,0,0,1-.1.77,1.48,1.48,0,0,1-.1.27,3.67,3.67,0,0,1-.36.6c-.17.26-.42.57-.71.95a10.46,10.46,0,0,1-1.89,1.87,12.38,12.38,0,0,1-3,1.69,15.19,15.19,0,0,1-2.36.7,2.29,2.29,0,0,0-1.34,1,2.3,2.3,0,0,0,.63,3.07,2.3,2.3,0,0,0,1.63.4Z"/><path class="cls-37" d="M558.77,436.27l9.43,18.41Z"/><path class="cls-83" d="M556.72,437.32l9.44,18.41a2.32,2.32,0,0,0,3,.84,2.32,2.32,0,0,0,1.11-1.26,2.29,2.29,0,0,0,0-1.67l-9.44-18.41a2.21,2.21,0,0,0-.53-.78,2.33,2.33,0,0,0-.8-.51,2.26,2.26,0,0,0-.93-.13,2.21,2.21,0,0,0-.91.25,2.09,2.09,0,0,0-.73.59,2.26,2.26,0,0,0-.44.84,2.32,2.32,0,0,0,.26,1.83Z"/><path class="cls-81" d="M556.79,438.52l-3.23-1.88a1.54,1.54,0,0,1-.55-1.74l3.22,1.87a1.69,1.69,0,0,0,0,1A1.56,1.56,0,0,0,556.79,438.52Z"/><path class="cls-81" d="M562.3,415.42l3.24,1.88a2,2,0,0,0-.93-.14,2,2,0,0,0-.87.34l-3.23-1.88a1.87,1.87,0,0,1,.87-.34A1.94,1.94,0,0,1,562.3,415.42Z"/><path class="cls-81" d="M561,419.06l-3.23-1.88,2.73-1.56,3.23,1.88Z"/><path class="cls-81" d="M556.23,436.78,553,434.9l2.41-14.37,3.23,1.87Z"/><path class="cls-81" d="M561,419.08l2.73-1.53c1.15-.65,2.12-.39,2.34.61l2.56,11.51c.3,1.34-.83,3.4-2.34,4.28l-7.67,4.44c-1.54.87-2.65.13-2.37-1.53l2.41-14.38a5.36,5.36,0,0,1,.82-1.94A5.29,5.29,0,0,1,561,419.08Z"/><path class="cls-81" d="M558.65,422.4l-3.23-1.87a5.22,5.22,0,0,1,2.36-3.35l3.23,1.88a5.19,5.19,0,0,0-1.52,1.43A5.12,5.12,0,0,0,558.65,422.4Z"/><path class="cls-84" d="M561.34,419.17a5.18,5.18,0,0,0-1.52,1.43,5.1,5.1,0,0,0-.83,1.91l-2.42,14.37c-.28,1.67.86,2.41,2.36,1.54L566.6,434c1.54-.88,2.65-2.94,2.35-4.28l-2.56-11.51c-.22-1-1.21-1.26-2.3-.62l-2.73,1.54"/><path class="cls-85" d="M559.66,416.78a1.34,1.34,0,0,0,.08.56,1.44,1.44,0,0,0,.29.49,1.36,1.36,0,0,0,.46.32,1.32,1.32,0,0,0,1.1,0,1.36,1.36,0,0,0,.46-.32,1.44,1.44,0,0,0,.29-.49,1.34,1.34,0,0,0,.08-.56v-1.69a1.27,1.27,0,0,0-.08-.55,1.36,1.36,0,0,0-.29-.49,1.23,1.23,0,0,0-.46-.32,1.32,1.32,0,0,0-1.1,0,1.23,1.23,0,0,0-.46.32,1.36,1.36,0,0,0-.29.49,1.27,1.27,0,0,0-.08.55Z"/><path class="cls-86" d="M555.21,409.65c-.48,3.07,0,6.24,3.06,6.71s7.67-1.9,8.13-5a5.82,5.82,0,0,0-.07-2.24,5.7,5.7,0,0,0-2.57-3.56,5.65,5.65,0,0,0-4.34-.66,5.65,5.65,0,0,0-4.24,4.75Z"/><path class="cls-86" d="M566.53,409.54h-.17a1.52,1.52,0,0,0-1.52,1.53v1.14a1.53,1.53,0,0,0,1.52,1.53h.17a1.53,1.53,0,0,0,1.53-1.53v-1.14A1.52,1.52,0,0,0,566.53,409.54Z"/><path class="cls-86" d="M554.68,422a11.61,11.61,0,0,1-.67,1,13.67,13.67,0,0,1-1.89,2.06,12.31,12.31,0,0,1-3.07,2,12.88,12.88,0,0,1-5.16,1.11H543a1.86,1.86,0,0,0-.74.09,2,2,0,0,0-.66.37,2.19,2.19,0,0,0-.46.59,2,2,0,0,0-.2.72,2.09,2.09,0,0,0,.09.75,2,2,0,0,0,.37.65,1.92,1.92,0,0,0,.6.46,1.65,1.65,0,0,0,.72.2c.34,0,.76.05,1.22.05a16.63,16.63,0,0,0,6.73-1.44,16.45,16.45,0,0,0,6.48-5.26c.39-.52.68-1,.88-1.29a1.92,1.92,0,0,0-2.1-2.85,2,2,0,0,0-1.18.87Z"/><path class="cls-84" d="M556.08,419.39l-3.17,4a2,2,0,0,0,.32,2.87l.48.37a2,2,0,0,0,2.86-.32l3.18-4a2,2,0,0,0-.33-2.87l-.47-.37A2,2,0,0,0,556.08,419.39Z"/><path class="cls-87" d="M562.67,407.3a2.29,2.29,0,0,0,.34,3,2.4,2.4,0,0,0,.88.39,2.18,2.18,0,0,0,1,0,2.31,2.31,0,0,0,.88-.38,2.41,2.41,0,0,0,.64-.71,1.14,1.14,0,0,1,.52,0,1.49,1.49,0,0,1,.53.17,3.15,3.15,0,0,0,.3-1.32,3.22,3.22,0,0,0-.3-1.32,3,3,0,0,0-1-1.06,3.11,3.11,0,0,0-1.34-.52,2.92,2.92,0,0,0-.88-1.4c-1.2-1-3.13-.68-4.91-.35a19.2,19.2,0,0,1-2.82.53,10.17,10.17,0,0,1-2.46-.18,4.62,4.62,0,0,0,1.59,2.46,5.16,5.16,0,0,0,2.63.88A12.58,12.58,0,0,0,562.67,407.3Z"/><path class="cls-88" d="M552,457.4a3.09,3.09,0,0,0-.85,3.65,3.64,3.64,0,0,0,1.11,1.2,3.48,3.48,0,0,0,1.51.6l-2.62,1.71a1.39,1.39,0,0,0-.26.91,1.37,1.37,0,0,0,.39.87,1.5,1.5,0,0,0,.69.37,1.52,1.52,0,0,0,.79,0l4.47-2.82-1.47-2.67a4,4,0,0,0,1.71-1.8c.51-1.12.6-2.8-.26-3.52S553.87,455.38,552,457.4Z"/><path class="cls-88" d="M540.64,459.09a1.54,1.54,0,0,0,2-.85l1.19-3a1.52,1.52,0,0,0,0-1.15,1.46,1.46,0,0,0-.81-.81,1.58,1.58,0,0,0-1.15,0,1.54,1.54,0,0,0-.8.81l-1.19,3a1.58,1.58,0,0,0,0,1.15A1.6,1.6,0,0,0,540.64,459.09Z"/><path class="cls-39" d="M562.67,456.48a5.43,5.43,0,0,0-1.3-3.06,5.7,5.7,0,0,0-3.25-1.83c-1.36-.28-1.53.18-3.79,0a6.65,6.65,0,0,1-2.75-.5c-1.06-.53-1.22-1.13-2.52-1.69a4,4,0,0,0-1.73-.39c-1.82,0-3.11,1.89-3.4,2.3a6.42,6.42,0,0,0-1,2.72,6.3,6.3,0,0,0,.26,2.89,6.4,6.4,0,0,0,3.77,3.74,23.52,23.52,0,0,0,4,.64,23.12,23.12,0,0,1,2.42.32c1.76.36,1.82.68,3,.77a6.06,6.06,0,0,0,3.3-.55,5.45,5.45,0,0,0,2-1.7A5.61,5.61,0,0,0,562.67,456.48Z"/><path class="cls-89" d="M552.94,452.22a6,6,0,0,1-.84,4.1c-1,1.61-2.35,1.46-3.67,1.32a5.4,5.4,0,0,1-2.54-.93,5.31,5.31,0,0,1-1.75-2.07,3,3,0,0,1-.56-1.68c.17-1.85,3.51-2.38,5.12-2.42C550.49,450.48,552.46,450.43,552.94,452.22Z"/><path class="cls-13" d="M556.61,462.45a5.17,5.17,0,0,0-2.12-3.62c-1.28-.76-2.94.33-3.78.39-1.53.11-2,1-2.62.73s-1.15-2.22-2.62-4.24c-.5-.69-.07-1.27-.44-1.39a2.54,2.54,0,0,0-1.16.06,2.5,2.5,0,0,0-1,.55,5.62,5.62,0,0,0,.55,2.62,7.51,7.51,0,0,0,1.4,2.12,8.87,8.87,0,0,0,3,1.28,18.36,18.36,0,0,0,3.12.39,15.79,15.79,0,0,1,2.57.39c.55.16,1.28.44,2.11.67C556.22,462.57,556.28,462.39,556.61,462.45Z"/><path class="cls-88" d="M547.07,446.18c.87-2.75,2-4.68,2.82-4.56s1.37,2.48,1.24,5.71Z"/><path class="cls-39" d="M553.16,446.41a6.35,6.35,0,0,0-1-.89,5.44,5.44,0,0,0-3.83-1,3.6,3.6,0,0,0-2.19,1,4,4,0,0,0-.87,1.53,8.12,8.12,0,0,0-2.62-.5c-.27,0-.69.42-.84.5-.82.45-.67,2.95.12,3.73a1.44,1.44,0,0,0,.49.39c1.27.77,2.37,1.32,3.62,2.07a6.58,6.58,0,0,0,3.07.76,5.13,5.13,0,0,0,3.43-1.92,5.2,5.2,0,0,0,1.15-2.74A5.26,5.26,0,0,0,553.16,446.41Z"/><path class="cls-90" d="M549,447.58c-.34-.1-.71.21-.85.69s0,.93.37,1,.71-.22.84-.68A.81.81,0,0,0,549,447.58Z"/><path class="cls-13" d="M548.86,447.74c-.2-.06-.43.13-.52.42s0,.58.23.63.44-.13.52-.42A.5.5,0,0,0,548.86,447.74Z"/><path class="cls-39" d="M546.56,450.09l-1.89.39Z"/><path class="cls-13" d="M547.81,446.24c0-.07.17-.41.06-.5s-.54.13-.62.17a3.75,3.75,0,0,0-1.11,1l-.17.25a4.76,4.76,0,0,0-2.44-.67,2.6,2.6,0,0,0-1.84.44,2,2,0,0,0-.45,1.18,3.3,3.3,0,0,0,.17,1.89,3.47,3.47,0,0,0,1.06,1.28,7.6,7.6,0,0,0,1.78,1c.63.32,1.13.62,1.45.77.09-1.62.18-3.35.27-5A5,5,0,0,0,547.81,446.24Z"/><path class="cls-90" d="M541.5,446.88c-.2.5.22,1.13.91,1.41a1.19,1.19,0,0,0,.9.13,1.25,1.25,0,0,0,.75-.52c.2-.5-.21-1.13-.92-1.42a1.24,1.24,0,0,0-1.64.4Z"/><path class="cls-84" d="M542.73,450.19c.22.26-.47,1.21-.61,1.4a.8.8,0,0,1-.44.17.71.71,0,0,1-.45-.12.71.71,0,0,1-.21-.27A.8.8,0,0,1,541,451l.67-1.53.61.44.39.17.06,0Z"/><path class="cls-90" d="M545.12,449.46a4.22,4.22,0,0,1-1,.13,4,4,0,0,1-.84-.09,2.05,2.05,0,0,1-1.08-.56l-.2-.22-.23-.24-1.06,1.1a3,3,0,0,1,.22.25,4.35,4.35,0,0,0,.77.65A3.53,3.53,0,0,0,543,451a5.35,5.35,0,0,0,1.13.12,5.26,5.26,0,0,0,1.37-.18l-.36-1.48Z"/><path class="cls-39" d="M551.88,446c2.73-.91,5-1.1,5.37-.39s-1.21,2.55-3.9,4.34Z"/><path class="cls-91" d="M556.53,445.94a5.62,5.62,0,0,1-1.83,1.11,5.7,5.7,0,0,1-1.73.33c.11.52.22,1,.33,1.53A6.53,6.53,0,0,0,556.53,445.94Z"/><path class="cls-39" d="M544.53,461.62a1.5,1.5,0,0,0,1.14,0,1.53,1.53,0,0,0,.81-.81l1.2-3a1.57,1.57,0,0,0-.17-1,1.53,1.53,0,0,0-.78-.68,1.52,1.52,0,0,0-1.84.58l-1.2,3a1.55,1.55,0,0,0,.84,2Z"/><path class="cls-39" d="M546.87,455.83a3.84,3.84,0,0,1,1.54.94,4.66,4.66,0,0,1,1.11,1.53c-.53.4-1,1.17-1.54,1.54-.06-.45-.94-1.09-1.39-1.34s-.46-.15-.67-.39-.18-.58.5-1.72Z"/><path class="cls-39" d="M556.21,457.8a3.08,3.08,0,0,0-.94,1.74,3.14,3.14,0,0,0,.31,1.95,3.61,3.61,0,0,0,1.16,1.14,3.57,3.57,0,0,0,1.55.52L555.77,465a1.38,1.38,0,0,0-.22.93,1.42,1.42,0,0,0,.43.85,1.64,1.64,0,0,0,.73.34,1.72,1.72,0,0,0,.81-.08l4.31-3.07c-.54-.87-1.09-1.73-1.62-2.6a4.09,4.09,0,0,0,1.62-1.89c.45-1.14.44-2.82-.45-3.5S558,455.69,556.21,457.8Z"/><path class="cls-39" d="M559.51,452.84a3.5,3.5,0,0,0,3-2.35,3.41,3.41,0,0,0,.09-2,3.51,3.51,0,0,0-1-1.72,4.17,4.17,0,0,1,3,3,4.33,4.33,0,0,1-3,4.85Z"/><path class="cls-92" d="M536.1,433.9v1.87a3.51,3.51,0,0,1-2.06,2.88,11,11,0,0,1-10,0,3.57,3.57,0,0,1-2.1-2.92v-1.87a3.53,3.53,0,0,0,2.09,2.92,11,11,0,0,0,10,0A3.54,3.54,0,0,0,536.1,433.9Z"/><path class="cls-92" d="M534,431c2.78,1.6,2.79,4.2,0,5.8a11,11,0,0,1-10,0c-2.77-1.6-2.79-4.2,0-5.8a11,11,0,0,1,10,0Z"/><path class="cls-93" d="M533,431.36a8.73,8.73,0,0,0-8,0c-2.18,1.27-2.17,3.34,0,4.6a8.73,8.73,0,0,0,8,0C535.16,434.69,535.15,432.62,533,431.36Z"/><path class="cls-94" d="M734.83,476.47V450.16l34-19.51L751.79,421l-34,19.51V466.4l3,1.83V446.82l10.59,5.81v21.76Z"/><path class="cls-95" d="M720.73,468.23l1.54-.77V447.52l-1.54-.82c-.11,0,0,21.36,0,21.48"/><path class="cls-96" d="M734.83,450l-17.08-9.52v25.94l3,1.82-.05-21.48,10.64,5.88v21.76l3.51,2.08Z"/><path class="cls-95" d="M734.83,450l34-19.34v2.73l-34,19.67Z"/><path class="cls-95" d="M734.83,476.47l1.94-1.19V451.86l-1.94,1.19Z"/><path class="cls-95" d="M768.87,433.38V456.7l-1.66,1V434.3Z"/><path class="cls-89" d="M767.21,457.66l-2.56-1.49V435.83l2.56-1.53Z"/><path class="cls-97" d="M750.07,444.24l0,3.87,2.09,1.24,1.68-1v-6.26Z"/><path class="cls-89" d="M752.14,449.35l0-6.3-2,1.19,0,3.87Z"/><path class="cls-94" d="M689.33,502.81v-26.3l34-19.52-17.09-9.7-34,19.52v25.94l3,1.82V473.16L685.81,479v21.75Z"/><path class="cls-95" d="M675.22,494.57l1.54-.77V473.92l-1.54-.82c-.1,0,0,21.36,0,21.48"/><path class="cls-96" d="M689.33,476.33l-17.09-9.52v25.94l3,1.82,0-21.47L685.81,479v21.75l3.52,2.08Z"/><path class="cls-95" d="M689.33,476.33l34-19.34v2.72l-34,19.68Z"/><path class="cls-95" d="M689.33,502.81l1.93-1.19V478.2l-1.93,1.19Z"/><path class="cls-95" d="M723.37,459.72V483l-1.66,1V460.64Z"/><path class="cls-89" d="M721.71,484l-2.57-1.49V462.17l2.57-1.53Z"/><path class="cls-97" d="M704.56,470.58l0,3.87,2.09,1.25,1.69-1v-6.26Z"/><path class="cls-89" d="M706.63,475.7l0-6.3-2.05,1.19,0,3.86Z"/><path class="cls-98" d="M702.17,448.63,685.71,458l8.72,15.4L710.89,464Z"/><path class="cls-99" d="M694.7,465.66c.08.08.15.17.22.25a2.37,2.37,0,0,0,1.43.7,2.32,2.32,0,0,0,1.54-.37,1.46,1.46,0,0,0,.59-.87,1.5,1.5,0,0,0-.14-1l-.19-.32a.55.55,0,0,0-.33-.27.58.58,0,0,0-.43,0c-.13.06-.19,0-.25-.08.15-.12.33-.22.48-.35a2,2,0,0,0,.63-1.15,1.94,1.94,0,0,0-.23-1.29c-.6-1-1.22-2.07-1.82-3.11l-.05-.07-.08,0H696a.11.11,0,0,0-.07,0,.18.18,0,0,0-.07,0l0,.08a.14.14,0,0,0,0,.09l0,.07c.6,1,1.19,2,1.78,3.07a1.5,1.5,0,0,1,.22,1.07,1.53,1.53,0,0,1-.54.94,3.09,3.09,0,0,1-.37.26c-.09-.11-.08-.19,0-.26a.64.64,0,0,0,.17-.16.5.5,0,0,0,.09-.21.45.45,0,0,0,0-.23.47.47,0,0,0-.09-.22,3.92,3.92,0,0,0-.33-.5,1.47,1.47,0,0,0-.91-.47,1.43,1.43,0,0,0-1,.24,2.28,2.28,0,0,0-.94,1.18,2.33,2.33,0,0,0,0,1.52,1,1,0,0,0,.09.27Zm6.38-4.78a1.52,1.52,0,0,1-2-.11,1.48,1.48,0,0,1-.31-.39c-.59-1-1.16-2-1.76-3l-.06-.1a.12.12,0,0,0,0-.05l-.07,0h-.08l-.06,0a.19.19,0,0,0-.09.11.17.17,0,0,0,0,.14v.07l1.79,3.07a2,2,0,0,0,2.4.86c.17-.06.33-.15.5-.23,0,0,0,0,0,.06a.08.08,0,0,1,0,.07.1.1,0,0,1,0,.07l0,.06a.55.55,0,0,0-.18.16.54.54,0,0,0-.09.22.45.45,0,0,0,0,.23.74.74,0,0,0,.1.22,2.28,2.28,0,0,0,.46.61,1.48,1.48,0,0,0,.83.35,1.43,1.43,0,0,0,.88-.21,2.34,2.34,0,0,0,1.07-1.43,2.38,2.38,0,0,0-.25-1.77c-.21-.34-.4-.7-.64-1a2.29,2.29,0,0,0-2.67-.76,1.44,1.44,0,0,0-.6.34,1.57,1.57,0,0,0-.39.56,1.37,1.37,0,0,0-.1.63,1.35,1.35,0,0,0,.18.62c.06.11.12.22.19.33a.63.63,0,0,0,.34.26.59.59,0,0,0,.43-.05s0,0,.07,0H701s0,0,.06,0a.25.25,0,0,1,0,.07"/><path class="cls-99" d="M694.7,465.66a2.62,2.62,0,0,1,.22.25,2.37,2.37,0,0,0,1.43.7,2.32,2.32,0,0,0,1.54-.37,1.46,1.46,0,0,0,.59-.87,1.5,1.5,0,0,0-.14-1l-.19-.32a.55.55,0,0,0-.33-.27.58.58,0,0,0-.43,0,.18.18,0,0,1-.25-.07c.15-.13.33-.23.48-.36a2,2,0,0,0,.63-1.15,1.94,1.94,0,0,0-.23-1.29c-.6-1-1.22-2.07-1.82-3.11l-.05-.07-.08,0H696a.11.11,0,0,0-.07,0,.18.18,0,0,0-.07,0l0,.08a.14.14,0,0,0,0,.09l0,.07c.6,1,1.19,2,1.78,3.07a1.5,1.5,0,0,1,.22,1.07,1.53,1.53,0,0,1-.54.94,3.09,3.09,0,0,1-.37.26c-.09-.11-.08-.19,0-.26a.64.64,0,0,0,.17-.16.5.5,0,0,0,.09-.21.45.45,0,0,0,0-.23.47.47,0,0,0-.09-.22,3.92,3.92,0,0,0-.33-.5,1.49,1.49,0,0,0-1.91-.24,2.34,2.34,0,0,0-1,2.71,1,1,0,0,0,.09.27l.69,1.17"/><path class="cls-99" d="M701.1,460.86a1.55,1.55,0,0,1-1,.32,1.5,1.5,0,0,1-1-.44,1.57,1.57,0,0,1-.3-.38l-1.76-3-.06-.1-.06,0a.09.09,0,0,0-.07,0h-.07a.09.09,0,0,0-.07,0,.2.2,0,0,0-.09.11.22.22,0,0,0,0,.14v.07l1.8,3.07a1.94,1.94,0,0,0,1,.87,2,2,0,0,0,1.36,0c.17-.06.33-.16.49-.23l.05.05a.19.19,0,0,1,0,.08.25.25,0,0,1,0,.07.12.12,0,0,1-.05.05.52.52,0,0,0-.17.16.51.51,0,0,0-.09.22.49.49,0,0,0,0,.24.62.62,0,0,0,.1.22,1.89,1.89,0,0,0,.45.6,1.48,1.48,0,0,0,.84.36,1.53,1.53,0,0,0,.88-.21,2.35,2.35,0,0,0,.81-3.2,11.79,11.79,0,0,0-.63-1,2.37,2.37,0,0,0-1.21-.83,2.22,2.22,0,0,0-1.46.07,1.47,1.47,0,0,0-.6.33,1.49,1.49,0,0,0-.39.57,1.36,1.36,0,0,0-.11.63,1.55,1.55,0,0,0,.18.61c.07.12.13.23.2.33a.58.58,0,0,0,.34.27.56.56,0,0,0,.42-.05.11.11,0,0,1,.08,0,.09.09,0,0,1,.07,0l.07,0a.16.16,0,0,1,0,.07"/><path d="M703.85,456.54l-12.19,6.91a.11.11,0,0,0-.08.08.17.17,0,0,0,0,.12l.21.37,0,.05.06,0H692l.06,0,12.18-6.91a.3.3,0,0,0,.08-.08.24.24,0,0,0,0-.12l-.19-.38a.18.18,0,0,0-.1-.07.19.19,0,0,0-.13,0"/><path class="cls-100" d="M691.61,465.71c1.87,3.31,6.35,4.31,10,2.25s5.07-6.42,3.2-9.73-6.34-4.31-10-2.25S689.73,462.4,691.61,465.71Z"/><path class="cls-94" d="M644.09,529.07v-26.3l34-19.51-17.08-9.7-34,19.52V519l3,1.83V499.43l10.59,5.81V527Z"/><path class="cls-95" d="M630,520.84l1.5-.77v-20L630,499.3c-.1,0,0,21.37.06,21.48"/><path class="cls-96" d="M644.09,502.59,627,493.08V519l3,1.83,0-21.48,10.64,5.88V527l3.51,2.07Z"/><path class="cls-95" d="M644.09,502.6l34-19.34V486l-34,19.68Z"/><path class="cls-95" d="M644.09,529.07l1.93-1.18V504.47l-1.93,1.19Z"/><path class="cls-95" d="M678.13,486v23.33l-1.66,1V486.9Z"/><path class="cls-89" d="M676.47,510.27l-2.56-1.5V488.43l2.56-1.53Z"/><path class="cls-97" d="M659.33,496.85l0,3.86,2.09,1.25,1.69-1v-6.26Z"/><path class="cls-89" d="M661.39,502v-6.3l-2,1.19,0,3.86Z"/><path class="cls-101" d="M672,492.94,666.66,507l2.64,1,5.17-14.1a.77.77,0,0,0,0-.4.78.78,0,0,0-.16-.36,1.93,1.93,0,0,0-1.72-.77.71.71,0,0,0-.39.16.72.72,0,0,0-.25.34"/><path class="cls-102" d="M666.21,507.61c-.3.32-2.61,2.42-5.5-.76l-.62.42A6.68,6.68,0,0,0,664,510l4.12,1.53a.22.22,0,0,0,.11,0l.11,0a.31.31,0,0,0,.09-.07.15.15,0,0,0,.06-.09l.25-.65a.48.48,0,0,1,.23-.13.43.43,0,0,1,.25,0,.48.48,0,0,1,.23.13.46.46,0,0,1,.14.22.39.39,0,0,1,0,.26l-.05.12a.43.43,0,0,0,0,.11.23.23,0,0,0,0,.11.47.47,0,0,0,.06.09.33.33,0,0,0,.1.06l1.26.48a.28.28,0,0,0,.22,0,.26.26,0,0,0,.15-.16l.88-2.3a.33.33,0,0,0,0-.22.26.26,0,0,0-.16-.15l-1.32-.5a.28.28,0,0,0-.22,0,.31.31,0,0,0-.15.15l-.1.27a.52.52,0,0,1-.13.17.61.61,0,0,1-.2.09.55.55,0,0,1-.39-.09.54.54,0,0,1-.22-.33v-1l-2.63-1-.39.51-.09.09"/><path class="cls-103" d="M660.85,507l.13-.14s2.24,2.55,4.55,1.12a5.21,5.21,0,0,0,1.17-.93,3.28,3.28,0,0,1-1.09,1.07S663.38,509.74,660.85,507Z"/><path class="cls-104" d="M672.66,492.45a.88.88,0,0,0-.44.14.81.81,0,0,0-.32.34l-5.33,14,.11.06,5.37-14s.17-.48.58-.52"/><path class="cls-103" d="M666.58,507a3.42,3.42,0,0,1-1.05,1,3.12,3.12,0,0,0,1.17-.93Z"/><path class="cls-105" d="M646.36,491.66a7.53,7.53,0,0,0,13-7.46c-1.88-3.32-6.37-4.35-10-2.3a7.2,7.2,0,0,0-3,9.75"/><path class="cls-106" d="M656.12,483.26l-5.37.52a.74.74,0,0,0-.21.07.44.44,0,0,0-.17.16l-3,4.2a.73.73,0,0,1-.38.26.69.69,0,0,1-.47,0,.18.18,0,0,1-.1-.07.34.34,0,0,1-.06-.12.29.29,0,0,1,0-.13.24.24,0,0,1,.06-.11l3.72-4.71a.6.6,0,0,1,.08-.08.45.45,0,0,1,.11,0l5.73-.77a.37.37,0,0,1,.18,0,.35.35,0,0,1,.16.08.45.45,0,0,1,.1.14.29.29,0,0,1,0,.18.51.51,0,0,1-.13.29.47.47,0,0,1-.29.14"/><path class="cls-106" d="M651.58,493.87l7-4a.31.31,0,0,0,.09-.07.6.6,0,0,0,.06-.11.24.24,0,0,0,0-.12.53.53,0,0,0,0-.12l-3.23-5.62a.33.33,0,0,0-.19-.14.29.29,0,0,0-.24,0l-7,4.05-.09.08a.54.54,0,0,0-.05.11.49.49,0,0,0,0,.12.56.56,0,0,0,0,.12l3.23,5.62a.3.3,0,0,0,.19.14.31.31,0,0,0,.23,0"/><path class="cls-107" d="M653.77,488.82l2.4-1.37a.22.22,0,0,0,.07-.06.35.35,0,0,0,0-.08v-.1a.11.11,0,0,0,0-.08l-1.2-2.09a.26.26,0,0,0-.14-.11.22.22,0,0,0-.18,0l-2.4,1.38a.28.28,0,0,0-.11.15.26.26,0,0,0,0,.17l1.19,2.09.06.07.08,0h.1Z"/><path class="cls-107" d="M652,493.63l2.3-1.33-2.21-3.84a.25.25,0,0,0-.16-.12.27.27,0,0,0-.2,0l-1.88,1.08a.21.21,0,0,0-.1.14.22.22,0,0,0,0,.16Z"/><path class="cls-106" d="M653.78,485.71l1.24,2.16a.18.18,0,0,1-.07.17.21.21,0,0,1-.18,0l-1.24-2.16a.16.16,0,0,1,.07-.16.18.18,0,0,1,.09,0,.13.13,0,0,1,.09,0"/><path class="cls-106" d="M653,487.38l2.3-1.33a.12.12,0,0,1,.1,0,.16.16,0,0,1,.07.07.12.12,0,0,1,0,.09.11.11,0,0,1,0,.08l-2.3,1.34h-.1a.11.11,0,0,1-.07-.06.16.16,0,0,1,0-.09A.14.14,0,0,1,653,487.38Z"/><path class="cls-108" d="M468,492.62V400.56l16.35,9.34v91.77Z"/><path class="cls-109" d="M484.32,391.61,468,400.56l16.35,9.34,16.29-9.14Z"/><path class="cls-110" d="M484.32,501.67l16.29-9.35V400.76l-16.29,9.14Z"/><path class="cls-109" d="M484.11,496l10.68,5.43,13.91-8.05-10.62-5.83Z"/><path class="cls-110" d="M494.79,507.17v-5.72l13.91-8.05v5.72Z"/><path class="cls-108" d="M484.11,496l10.68,5.43v5.72l-10.68-5.57Z"/><path class="cls-109" d="M570.63,540.45l10.68,5.43,13.9-8L584.6,532Z"/><path class="cls-110" d="M581.31,551.6v-5.72l13.9-8v5.72Z"/><path class="cls-108" d="M570.63,540.45l10.68,5.43v5.72L570.63,546Z"/><path class="cls-111" d="M495,421.05a65.93,65.93,0,0,1,37.32.17c31.3,9.74,42.6,40.43,43.95,44.26v73l8.58,4.64-.55-82.2s-30.3-68.47-94.87-46.8v79.21Z"/><path class="cls-111" d="M497.6,497.52l-8.15-4.17L495.06,419l2.54-.6Z"/><path class="cls-112" d="M584.32,461l6-3v82.48l-5.45,2.7Z"/><path class="cls-113" d="M584.32,461l6-3s-34.44-66.64-89.73-49.58l-11.16,5.75S547.9,393.75,584.32,461Z"/><path class="cls-112" d="M497.6,497.52l5.77-3.33v-75l-5.77,1.14Z"/><path class="cls-108" d="M581.31,551.8V459.74l16.35,9.34v91.78Z"/><path class="cls-109" d="M597.66,450.79l-16.35,8.95,16.35,9.34L614,459.94Z"/><path class="cls-110" d="M597.66,560.86,614,551.51V459.94l-16.29,9.14Z"/><path class="cls-114" d="M468,400.56l-4.52-11.93,20.87,12.13v9.14Z"/><path class="cls-114" d="M484.32,409.9v-9.14l20.92-12.13q-2.3,6.06-4.6,12.13Z"/><path class="cls-109" d="M484.3,400.76l21.42-12.32L484.3,376.12l-21,12.32"/><path class="cls-115" d="M484.3,400.76l21.42-12.32L484.3,376.12l-21,12.32"/><path class="cls-114" d="M465.36,393.59l19,11.07,19.05-11.14L504,392l-19.63,11.24-19.56-11.18Z"/><path class="cls-114" d="M466.54,396.77l17.75,10.29,17.85-10.29-.61,1.57-17.24,9.9-17.16-9.9Z"/><path class="cls-114" d="M581.12,459.74l-4.52-11.9,20.91,12.1v9.14Z"/><path class="cls-114" d="M597.51,469.08v-9.14l20.88-12.1q-2.31,6.06-4.6,12.12Z"/><path class="cls-109" d="M597.44,459.94l21.43-12.31-21.43-12.32-21,12.32"/><path class="cls-115" d="M597.44,459.94l21.43-12.31-21.43-12.32-21,12.32"/><path class="cls-114" d="M578.51,452.77l19,11.08,19-11.14.57-1.53-19.62,11.24-19.57-11.18Z"/><path class="cls-114" d="M579.68,456l17.76,10.29L615.28,456l-.6,1.58-17.24,9.9-17.16-9.9Z"/><path class="cls-116" d="M470.68,409.9l9.77,5.42V431.6L470.68,426Z"/><path class="cls-116" d="M584.61,468.07l9.76,5.42v16.28l-9.76-5.64Z"/><path class="cls-109" d="M468,435.76l5.91,3.49v3.63L468,439.32Z"/><path class="cls-109" d="M478.6,445.77l5.91,3.49v3.63l-5.91-3.56Z"/><path class="cls-109" d="M468.05,444.25l5.91,3.49v3.64l-5.91-3.56Z"/><path class="cls-109" d="M581.36,489.21l5.91,3.49v3.63l-5.91-3.56Z"/><path class="cls-109" d="M581.36,497l5.91,3.48v3.64l-5.91-3.56Z"/><path class="cls-109" d="M591.73,495.89l5.91,3.48V503l-5.91-3.56Z"/><path class="cls-109" d="M585.64,505.78l5.9,3.49v3.63l-5.9-3.56Z"/><path class="cls-109" d="M591.41,512.22l5.91,3.49v3.64l-5.91-3.57Z"/><path class="cls-109" d="M581.36,513.86l5.91,3.5V521l-5.91-3.57Z"/><path class="cls-109" d="M587.37,521l5.9,3.49v3.63l-5.9-3.56Z"/><path class="cls-109" d="M591.41,529.75l5.91,3.49v3.64l-5.91-3.56Z"/><path class="cls-109" d="M581.36,529.75l5.91,3.49v3.64l-5.91-3.56Z"/><path class="cls-109" d="M581.36,538.52l5.91,3.49v3.63l-5.91-3.56Z"/><path class="cls-109" d="M591.73,547.28l5.91,3.5v3.63l-5.91-3.56Z"/><path class="cls-109" d="M580,547.28l5.91,3.5v3.63L580,550.85Z"/><path class="cls-109" d="M591.73,553.74l5.91,3.49v3.63l-5.91-3.56Z"/><path class="cls-109" d="M478.51,433l5.92,3.48v3.64l-5.92-3.56Z"/><path class="cls-109" d="M468,449.33l5.91,3.49v3.63L468,452.89Z"/><path class="cls-109" d="M473.19,458.24l5.91,3.49v3.64l-5.91-3.57Z"/><path class="cls-109" d="M468,488.76l5.91,3.49v3.64L468,492.32Z"/><path class="cls-109" d="M473.88,489.21l5.92,3.49v3.63l-5.92-3.56Z"/><path class="cls-109" d="M481.14,495.89l5.92,3.48V503l-5.92-3.56Z"/><path class="cls-109" d="M468,482.09l5.91,3.49v3.63L468,485.65Z"/><path class="cls-109" d="M478.39,478.53,484.3,482v3.64l-5.91-3.56Z"/><path class="cls-109" d="M468,469.4l5.91,3.49v3.63L468,473Z"/><path class="cls-109" d="M478.6,467.15l5.91,3.49v3.64l-5.91-3.56Z"/><path class="cls-117" d="M508.7,411.24V400.87s39.79-7.36,59.7,21.48l-.3,15.85a74.24,74.24,0,0,0-21.47-17.83A75.36,75.36,0,0,0,508.7,411.24Z"/><path class="cls-113" d="M508.7,400.83l3.83-1.92a71.83,71.83,0,0,1,25.56,2.5A73.39,73.39,0,0,1,571,421.51l-2.67.85a69.7,69.7,0,0,0-59.69-21.53Z"/><path class="cls-118" d="M568.1,438.21l.3-15.86,2.63-.84v19.62Z"/><path class="cls-119" d="M525.61,406.3a2,2,0,0,1-.73-.5.74.74,0,0,1-.17-.59.81.81,0,0,1,.39-.58,1.23,1.23,0,0,1,.82-.13,1.26,1.26,0,0,1,.56.21.92.92,0,0,1,.35.41.86.86,0,0,1,.07.5l-.42-.06a.57.57,0,0,0-.12-.48.76.76,0,0,0-.49-.23.82.82,0,0,0-.51.06.47.47,0,0,0-.22.36.44.44,0,0,0,.11.35,1.82,1.82,0,0,0,.53.32,2.46,2.46,0,0,1,.58.34.87.87,0,0,1,.29.36.82.82,0,0,1-.34,1,1.39,1.39,0,0,1-.84.12,1.68,1.68,0,0,1-.59-.22,1,1,0,0,1-.39-.4.85.85,0,0,1-.08-.52l.42.06a.55.55,0,0,0,.14.48.86.86,0,0,0,.55.25.88.88,0,0,0,.53-.06.44.44,0,0,0,.23-.34.44.44,0,0,0-.12-.39A1.77,1.77,0,0,0,525.61,406.3Z"/><path class="cls-119" d="M529.07,407.51l-1.32-.26-.46.77-.43-.09,1.82-2.91.36.07.59,3.38-.42-.08Zm-1.13-.58,1.07.21-.25-1.57Z"/><path class="cls-119" d="M533.17,406.4l-1-.25-.68,2.77-.41-.1.69-2.77-1-.25.08-.34,2.41.6Z"/><path class="cls-119" d="M535.79,410.15l-.41-.12.44-1.42-1.55-.47-.43,1.41-.41-.12.94-3.07.41.13-.41,1.32,1.55.47.4-1.32.41.13Z"/><path class="cls-119" d="M539.36,409.86l-1.31-.48-.39,1.06,1.52.56-.12.33-1.91-.71,1.1-3,1.89.7-.12.33-1.49-.56-.36,1,1.31.48Z"/><path class="cls-119" d="M541.56,411l-.7-.29-.5,1.19-.39-.17,1.25-2.95,1,.42a1.2,1.2,0,0,1,.66.55.84.84,0,0,1,0,.77.77.77,0,0,1-.35.42.91.91,0,0,1-.54.13l.16,1.55v0l-.42-.17Zm-.56-.61.6.25a.74.74,0,0,0,.52,0,.53.53,0,0,0,.34-.33.6.6,0,0,0,0-.49.81.81,0,0,0-.41-.35l-.6-.25Z"/><path class="cls-119" d="M546.84,414.53a1,1,0,0,1-.57.09,1.8,1.8,0,0,1-.66-.21,1.29,1.29,0,0,1-.7-1.17,2,2,0,0,1,.22-.78l.14-.25a1.69,1.69,0,0,1,.82-.83,1.19,1.19,0,0,1,1,.09,1.24,1.24,0,0,1,.59.61,1.11,1.11,0,0,1,0,.82l-.37-.2a.71.71,0,0,0-.37-.92.8.8,0,0,0-.72,0,1.44,1.44,0,0,0-.59.66l-.13.24a1.3,1.3,0,0,0-.18.87.78.78,0,0,0,.44.59,1.2,1.2,0,0,0,.39.15.59.59,0,0,0,.35,0l.33-.63-.65-.35.16-.31,1,.55Z"/><path class="cls-119" d="M549.58,415.67l-1.16-.7-.69.57-.38-.23,2.72-2.12.32.19-.61,3.4-.37-.23Zm-.87-.93.94.57.31-1.58Z"/><path class="cls-119" d="M553.81,416l-.86-.58-1.6,2.37-.34-.23,1.59-2.37-.85-.58.19-.29,2.06,1.39Z"/><path class="cls-119" d="M555.36,418.9l-1.12-.83-.68.91,1.3,1-.21.28L553,419l1.92-2.57,1.61,1.21-.21.28-1.27-1-.62.83,1.11.83Z"/></svg>