<svg width="93" height="97" viewBox="0 0 93 97" fill="none" xmlns="http://www.w3.org/2000/svg">
<path fill-rule="evenodd" clip-rule="evenodd" d="M45.972 1.0711C55.0944 0.644417 64.4374 2.05279 72.0127 7.62988C79.756 13.3307 84.6751 22.3567 87.9 31.9392C91.2327 41.8424 93.6957 52.7153 90.5419 62.6884C87.4145 72.5777 79.2078 79.1157 71.1814 84.8066C63.5373 90.2264 55.0767 94.5877 45.972 94.2894C37.03 93.9964 28.8556 89.2579 21.8363 83.1899C15.0463 77.3201 10.4295 69.4001 7.08129 60.6695C3.45145 51.2046 -0.90113 40.9729 1.88735 31.1725C4.68613 21.3358 13.512 15.4469 21.5002 9.99249C28.9774 4.88698 37.1662 1.48297 45.972 1.0711Z" fill="white" stroke="#DADADA" stroke-width="2"/>
<path d="M68.3502 35.3214C66.6703 35.3214 70.5135 23.32 64.5071 22.3535C64.5071 22.3535 60.0656 14.0573 57.4306 14.2989C54.7956 14.5406 54.4274 15.1274 51.5392 14.2989C51.5392 14.2989 43.7378 7.46404 41.4595 13.4704C41.4595 13.4704 36.6613 11.4223 32.3348 18.7519C28.0084 26.0816 25.2583 19.1086 26.8117 28.7051C26.8117 28.7051 22.7384 32.9165 24.1767 38.5547C24.1767 38.5547 18.8952 41.1897 22.6118 47.7599C26.3284 54.3301 15.7769 49.9231 23.0951 60.7278C23.0951 60.7278 19.4935 69.07 22.0134 70.6004C24.5334 72.1308 18.4119 77.6539 22.3701 79.5755C26.3284 81.4971 20.0688 83.5337 25.8221 85.4553C25.8221 85.4553 25.5805 92.9001 30.4247 86.2953C30.4247 86.2953 32.5879 87.8602 36.7878 85.5704C40.9877 83.2806 44.7158 82.2105 46.6374 84.1321C48.559 86.0537 53.2307 85.4553 56.1188 83.5337C59.0069 81.6121 60.0771 89.4136 61.757 84.972C63.437 80.5305 61.7455 81.1979 65.8763 80.0473C70.0072 78.8966 73.0794 74.7658 71.8712 71.9927C71.119 70.4958 70.7494 68.8358 70.7956 67.1611C70.8418 65.4865 71.3023 63.8494 72.1359 62.3962C74.1611 58.3114 70.5595 54.7329 73.7928 49.9807C77.0262 45.2285 70.0302 35.3214 68.3502 35.3214ZM64.0008 59.9453C58.9494 67.0219 57.1659 63.3973 55.9462 65.7791C54.7265 68.161 58.5812 72.8672 58.5812 72.8672C52.4022 80.496 43.0014 73.5806 43.0014 73.5806C43.0014 73.5806 46.7064 62.074 44.6123 61.1765C40.4584 59.3585 37.2711 50.9702 37.8119 50.3604C34.9813 53.4672 32.3808 48.807 31.7019 44.2965C31.2302 41.1897 35.4531 42.4784 35.4531 42.4784C35.246 38.4281 37.904 38.6698 37.5127 37.2429C37.2136 36.1728 36.5462 27.5775 40.608 28.0377C44.6698 28.498 40.7001 21.9047 45.855 23.4351C51.0099 24.9655 50.9179 21.0417 50.9179 21.0417C52.011 20.547 52.7014 21.8357 54.2893 22.9288C55.8772 24.0219 58.5467 23.4236 58.5467 23.4236C68.1777 25.9665 69.3858 52.4316 64.0008 59.9453Z" fill="black"/>
<path d="M50.7028 19.2537C50.7028 19.2537 35.5486 19.4954 35.307 40.8975C35.307 40.8975 27.1259 39.4592 34.1564 50.1027C34.1564 50.1027 34.8467 51.9208 36.9985 50.1027C39.1502 48.2847 34.9848 54.4637 44.7654 60.6427C44.7654 60.6427 44.9034 70.5613 42.4641 72.1492C40.0247 73.7371 57.2708 79.0134 59.8483 71.9714C58.1809 69.93 55.8667 67.535 55.9382 64.9001C55.9382 64.9001 66.8004 64.3478 66.8579 45.6382C66.9154 26.9286 61.6915 18.1721 50.7028 19.2537Z" fill="#D0A288"/>
<path d="M67.6195 69.108C67.6195 69.108 68.494 66.373 69.9208 58.2954C71.3476 50.2178 63.2912 19.2077 63.2912 19.2077C63.2912 19.2077 64.7065 9.09344 57.5379 12.1312C57.5379 12.1312 52.6246 15.6982 43.7301 13.6845C34.8355 11.6709 29.4735 23.7298 30.1063 27.7455C30.1063 27.7455 25.7587 38.7998 30.2233 62.2041C34.6878 85.6084 26.4127 91.5608 32.8794 94.9092C39.3461 98.2576 46.9059 98.0795 53.2115 88.7017C59.517 79.3239 65.8686 94.9092 65.8686 94.9092C65.8686 94.9092 69.4376 92.3167 67.6195 69.108ZM64.3268 58.2954C61.4732 62.7139 59.5515 64.4168 56.7209 64.4168C53.8903 64.4168 58.6973 70.8208 58.6973 70.8208C51.2181 77.1494 43.2583 71.0216 43.2583 71.0216C46.0401 69.0948 45.5596 60.6657 45.5596 60.6657C41.5899 60.4126 37.6086 49.769 37.6086 49.769C34.3523 52.3235 32.8794 47.974 32.8794 47.974C30.0603 39.1485 35.3533 40.9205 35.3533 40.9205C34.6399 30.5646 46.2615 28.0677 53.2115 26.6524C60.1614 25.2371 60.7252 22.2569 60.7252 22.2569C69.2746 32.2216 67.2264 53.8078 64.3268 58.2954Z" fill="black"/>
<path d="M57.8701 70.4479C51.3007 75.7035 44.9133 72.6377 42.5408 70.4479C30.9237 69.9632 22.0065 87.9473 19 97H84.1483C78.1262 85.9594 64.4396 65.1923 57.8701 70.4479Z" fill="#C3DDF7"/>
</svg>
