<svg width="204" height="200" viewBox="0 0 204 200" fill="none" xmlns="http://www.w3.org/2000/svg">
<circle cx="112" cy="116" r="80" fill="#9FC157" fill-opacity="0.8"/>
<path d="M10.7081 83.5076L20.0965 90.3558L19.5206 92.8707L8.0878 94.9515L8.6681 92.4171L17.1293 90.9485L10.1724 85.8471L10.7081 83.5076Z" fill="#343434"/>
<path d="M11.5435 81.3741L12.343 79.0054L22.4622 82.4209L21.6626 84.7896L11.5435 81.3741ZM10.2789 79.6174C10.1339 80.0469 9.87976 80.3622 9.51639 80.5632C9.14039 80.76 8.75026 80.7901 8.346 80.6537C7.94174 80.5172 7.656 80.2589 7.48878 79.8788C7.30892 79.4945 7.29148 79.0875 7.43646 78.658C7.58144 78.2285 7.83562 77.9132 8.19899 77.7122C8.54972 77.5069 8.9209 77.4704 9.31253 77.6025C9.72942 77.7433 10.0341 78.0079 10.2266 78.3966C10.4107 78.7683 10.4282 79.1753 10.2789 79.6174Z" fill="#343434"/>
<path d="M24.9092 76.5621C24.5605 77.3555 24.1161 78.085 23.576 78.7506C23.0359 79.4162 22.5079 79.9051 21.992 80.2173L20.6389 78.5739C21.1249 78.2633 21.5936 77.843 22.045 77.3131C22.4894 76.7657 22.8431 76.1929 23.106 75.5948C23.7068 74.2277 23.6471 73.3859 22.927 73.0693C22.5852 72.9191 22.2694 72.9915 21.9795 73.2865C21.695 73.5693 21.3228 74.0683 20.8627 74.7837C20.3866 75.5357 19.9566 76.1332 19.5726 76.5761C19.1939 77.0068 18.7262 77.3255 18.1692 77.5323C17.6055 77.7215 16.9696 77.6605 16.2617 77.3493C15.334 76.9416 14.7644 76.2326 14.5531 75.2221C14.3349 74.1941 14.5156 73.021 15.0949 71.7027C15.39 71.0313 15.7644 70.3948 16.2181 69.7932C16.6596 69.1862 17.1024 68.7255 17.5465 68.4109L18.8997 70.0542C18.0467 70.6697 17.3922 71.4962 16.9362 72.5337C16.6411 73.2051 16.5196 73.7634 16.5715 74.2086C16.6166 74.6362 16.8039 74.9224 17.1335 75.0672C17.4997 75.2282 17.8426 75.1604 18.1622 74.864C18.475 74.5499 18.8702 74.0318 19.3478 73.3096C19.8132 72.582 20.2352 72.0029 20.6139 71.5722C20.9925 71.1414 21.4488 70.8322 21.9828 70.6445C22.5221 70.4446 23.1397 70.4976 23.8354 70.8034C24.7509 71.2057 25.309 71.9243 25.5096 72.9591C25.7102 73.9939 25.51 75.1949 24.9092 76.5621Z" fill="#343434"/>
<path d="M23.6708 56.0388L32.8288 61.5336L31.6043 63.5745L30.4381 62.8748C30.6439 63.4647 30.7068 64.0855 30.6268 64.7372C30.5353 65.3821 30.3112 66.0017 29.9545 66.5963C29.2205 67.8196 28.3036 68.5834 27.2037 68.8875C26.0992 69.1733 24.8782 68.9149 23.5405 68.1123L18.3098 64.9739L19.596 62.8302L24.5352 65.7937C25.3583 66.2876 26.0855 66.4751 26.7166 66.3562C27.3432 66.219 27.8622 65.8074 28.2738 65.1214C28.7334 64.3554 28.8626 63.6088 28.6614 62.8816C28.4556 62.1362 27.9068 61.4959 27.015 60.9608L22.3846 58.1825L23.6708 56.0388Z" fill="#343434"/>
<path d="M28.5959 49.2903C29.5868 48.0681 30.6376 47.3753 31.7486 47.2118C32.8576 47.0295 34.0025 47.417 35.1832 48.3742L40.0459 52.3165L38.5596 54.1498L37.5498 53.3311C37.7192 53.8632 37.7217 54.4317 37.5574 55.0366C37.3912 55.6227 37.0562 56.2265 36.5524 56.8479C36.0486 57.4694 35.5042 57.9291 34.9191 58.2273C34.3238 58.517 33.7347 58.6402 33.1519 58.5968C32.5672 58.5347 32.0366 58.3106 31.5602 57.9243C30.8145 57.3197 30.4415 56.5624 30.4411 55.6524C30.4388 54.7237 30.9205 53.6638 31.8862 52.4727L33.6243 50.3288L33.5 50.228C32.92 49.7578 32.3319 49.5728 31.7357 49.673C31.1479 49.7629 30.5769 50.1496 30.0227 50.8332C29.6449 51.2993 29.3437 51.819 29.1192 52.3922C28.9032 52.9551 28.7986 53.4969 28.8057 54.0176L26.7747 53.6326C26.796 52.9289 26.9663 52.2002 27.2856 51.4464C27.605 50.6925 28.0417 49.9738 28.5959 49.2903ZM35.4661 55.2978C35.8607 54.811 36.1005 54.2931 36.1853 53.7439C36.2681 53.1759 36.1653 52.6463 35.877 52.1551L34.9138 51.3742L33.289 53.3783C32.3821 54.4969 32.2964 55.3542 33.0317 55.9504C33.3839 56.2359 33.7769 56.3228 34.2107 56.2111C34.6446 56.0994 35.063 55.795 35.4661 55.2978Z" fill="#343434"/>
<path d="M31.6236 39.6842L33.3802 37.9053L43.9394 48.3326L42.1828 50.1114L31.6236 39.6842Z" fill="#343434"/>
<path d="M53.693 40.1502C52.8082 40.8148 51.8738 41.2249 50.8899 41.3803C49.9061 41.5357 48.9686 41.4311 48.0777 41.0665C47.1787 40.6912 46.4129 40.0824 45.7803 39.2402C45.1476 38.3981 44.7803 37.4983 44.6782 36.5411C44.5762 35.5838 44.7314 34.6584 45.1441 33.7647C45.5674 32.8631 46.2268 32.0759 47.1223 31.4032C47.9645 30.7706 48.8282 30.3886 49.7134 30.2572C50.6093 30.1179 51.4574 30.2479 52.2577 30.6473L51.3953 32.6959C50.8538 32.4857 50.3244 32.4247 49.8071 32.5131C49.2925 32.5829 48.8167 32.7819 48.3796 33.1102C47.6334 33.6708 47.1992 34.3805 47.0772 35.2392C46.9472 36.0873 47.1865 36.9165 47.7951 37.7267C48.4038 38.5369 49.1321 39.007 49.9802 39.137C50.831 39.2484 51.6348 39.0197 52.3917 38.4512C52.8288 38.1228 53.1565 37.7266 53.3748 37.2624C53.5957 36.7796 53.6807 36.2488 53.6296 35.6702L55.8374 35.4125C55.9874 36.3004 55.8747 37.1605 55.4993 37.9928C55.1266 38.8064 54.5245 39.5255 53.693 40.1502Z" fill="#343434"/>
<path d="M55.6136 27.6812C55.6507 26.3503 56.4454 25.216 57.9975 24.2783L59.2281 26.3155C59.0248 26.3915 58.849 26.4744 58.7006 26.564C57.8675 27.0673 57.3653 27.7057 57.1938 28.4791C57.0155 29.2411 57.2021 30.0786 57.7536 30.9916L60.4321 35.4253L58.2923 36.718L52.7698 27.5766L54.807 26.346L55.6136 27.6812Z" fill="#343434"/>
<path d="M72.764 23.1353C72.8375 23.2922 72.93 23.5213 73.0415 23.8224L65.4518 27.375C65.9181 28.0253 66.5279 28.4318 67.2813 28.5944C68.041 28.7393 68.8375 28.6168 69.6707 28.2268C70.7334 27.7293 71.445 26.9693 71.8055 25.9467L73.672 26.7734C73.4803 27.4962 73.1145 28.1459 72.5747 28.7224C72.0349 29.299 71.3484 29.7822 70.5151 30.1723C69.4524 30.6697 68.4176 30.8964 67.4107 30.8525C66.4038 30.8085 65.5017 30.5168 64.7045 29.9772C63.9136 29.4199 63.2949 28.6643 62.8484 27.7103C62.4075 26.7683 62.2232 25.8241 62.2954 24.8776C62.374 23.9133 62.6948 23.0418 63.2577 22.263C63.8207 21.4843 64.5791 20.8716 65.5331 20.4251C66.4751 19.9842 67.4133 19.8027 68.3477 19.8805C69.2886 19.9407 70.1424 20.255 70.9091 20.8236C71.6822 21.3745 72.3005 22.145 72.764 23.1353ZM66.381 22.2365C65.6565 22.5756 65.1423 23.0812 64.8386 23.7534C64.5413 24.4078 64.5051 25.1167 64.7299 25.88L70.2184 23.311C69.794 22.6558 69.2325 22.2267 68.5339 22.0237C67.8353 21.8207 67.1176 21.8917 66.381 22.2365Z" fill="#343434"/>
<path d="M76.9347 15.7555C78.4233 15.2461 79.6817 15.2172 80.7099 15.6686C81.7464 16.1032 82.5107 17.0395 83.0027 18.4777L85.0293 24.4006L82.7964 25.1646L82.3755 23.9346C82.2364 24.4754 81.9367 24.9584 81.4762 25.3837C81.0241 25.7921 80.4196 26.1258 79.6626 26.3847C78.9057 26.6437 78.2002 26.7442 77.5462 26.6861C76.8879 26.6154 76.3233 26.407 75.8526 26.0607C75.3901 25.6976 75.0596 25.2258 74.861 24.6455C74.5502 23.7372 74.6364 22.8974 75.1194 22.1262C75.6107 21.3381 76.5817 20.6958 78.0325 20.1994L80.6438 19.3059L80.592 19.1545C80.3503 18.4481 79.9503 17.979 79.3918 17.7473C78.8461 17.5113 78.1568 17.5357 77.3242 17.8206C76.7565 18.0148 76.2254 18.2952 75.7307 18.6617C75.2487 19.024 74.8724 19.4275 74.6019 19.8724L73.0854 18.4676C73.4772 17.8827 74.0085 17.3556 74.6794 16.8865C75.3503 16.4174 76.1021 16.0403 76.9347 15.7555ZM79.5654 24.4944C80.1584 24.2915 80.6366 23.98 81.0001 23.5596C81.3719 23.1224 81.5661 22.6191 81.5827 22.0497L81.1812 20.8765L78.7402 21.7117C77.3777 22.1779 76.8497 22.8588 77.1562 23.7545C77.3029 24.1834 77.5898 24.4658 78.0167 24.6016C78.4437 24.7373 78.9599 24.7016 79.5654 24.4944Z" fill="#343434"/>
<path d="M94.8667 21.2232C94.6402 21.5271 94.3344 21.7889 93.9495 22.0086C93.5775 22.225 93.1651 22.3897 92.7123 22.5026C91.5738 22.7866 90.6199 22.7085 89.8505 22.2682C89.0811 21.828 88.5544 21.0387 88.2705 19.9002L87.0266 14.913L85.3189 15.3389L84.8349 13.3984L86.5426 12.9724L85.9521 10.605L88.3778 9.99997L88.9683 12.3674L91.7433 11.6753L92.2273 13.6159L89.4523 14.308L90.6816 19.237C90.8075 19.7415 91.0272 20.099 91.3408 20.3094C91.6511 20.5068 92.0391 20.5474 92.5049 20.4313C93.0482 20.2958 93.4655 20.0405 93.7568 19.6656L94.8667 21.2232Z" fill="#343434"/>
<path d="M101.965 20.6369C100.899 20.8076 99.9008 20.7311 98.9712 20.4074C98.0417 20.0836 97.268 19.5526 96.6501 18.8143C96.0434 18.0608 95.6567 17.164 95.4901 16.1239C95.3236 15.0838 95.4119 14.1177 95.7552 13.2255C96.1116 12.3313 96.6808 11.5852 97.4628 10.9874C98.2448 10.3896 99.169 10.0053 100.235 9.83449C101.315 9.66161 102.32 9.73706 103.249 10.0608C104.179 10.3846 104.946 10.9166 105.55 11.657C106.168 12.3953 106.56 13.2845 106.727 14.3245C106.894 15.3646 106.8 16.3384 106.445 17.2458C106.102 18.138 105.539 18.883 104.758 19.4808C103.976 20.0786 103.045 20.464 101.965 20.6369ZM101.627 18.5238C102.535 18.3783 103.237 17.9553 103.733 17.2549C104.228 16.5544 104.397 15.7104 104.239 14.723C104.081 13.7356 103.657 12.9865 102.967 12.4757C102.278 11.965 101.479 11.7824 100.571 11.9278C99.6622 12.0733 98.9602 12.4963 98.4647 13.1968C97.9824 13.8951 97.8203 14.738 97.9784 15.7255C98.1366 16.7129 98.5538 17.463 99.23 17.9759C99.9195 18.4866 100.718 18.6693 101.627 18.5238Z" fill="#343434"/>
<path d="M111.549 10.1937C112.192 9.02765 113.418 8.3834 115.227 8.26096L115.388 10.6355C115.172 10.61 114.978 10.6031 114.805 10.6148C113.834 10.6805 113.095 11.0179 112.588 11.6268C112.081 12.2224 111.863 13.0524 111.935 14.1166L112.285 19.2848L109.79 19.4536L109.069 8.79796L111.444 8.63726L111.549 10.1937Z" fill="#343434"/>
<circle cx="105" cy="120" r="79.75" fill="white" fill-opacity="0.85" stroke="#9FC157" stroke-width="0.5"/>
<mask id="mask0" style="mask-type:alpha" maskUnits="userSpaceOnUse" x="25" y="40" width="160" height="160">
<circle cx="105" cy="120" r="80" fill="#9FC157" fill-opacity="0.8"/>
</mask>
<g mask="url(#mask0)">
<path fill-rule="evenodd" clip-rule="evenodd" d="M72.5301 78.1718C72.0318 78.6157 72.5016 79.7888 73.6907 81.069C75.9694 83.5222 84.9949 91.8427 96.0821 101.711C106.323 110.827 110.864 114.58 113.555 116.157C114.14 116.499 114.594 116.801 114.564 116.828C114.534 116.855 113.971 116.64 113.314 116.351C111.353 115.488 108.855 114.639 107.561 114.397C105.137 113.942 102.445 114.177 100.916 114.975C100.011 115.447 99.4563 116.053 98.8961 117.179C98.4109 118.155 97.8823 118.652 96.5772 119.358C95.5962 119.889 95.3207 120.229 95.5118 120.672C95.767 121.265 97.0226 121.157 98.1344 120.447C98.5392 120.189 99.5909 119.425 100.471 118.75C104.189 115.9 104.835 115.794 110.077 117.175C112.992 117.943 115.604 118.522 116.155 118.522C116.393 118.522 117.493 118.938 118.599 119.445C122.151 121.076 129.458 124.889 129.458 125.112C129.458 125.334 131.233 126.979 132.062 127.524C133.187 128.265 134.767 128.971 135.8 129.196C136.638 129.378 137.197 129.732 138.979 131.206C139.817 131.899 139.905 132.015 139.493 131.88C138.332 131.5 136.925 132.137 136.565 133.205C136.321 133.931 136.307 135.476 136.54 136.022C136.636 136.245 136.68 136.458 136.639 136.494C136.496 136.622 135.09 135.974 132.323 134.505C128.584 132.522 124.203 130.6 121.031 129.551C117.861 128.503 116.708 128.001 113.869 126.434C111.409 125.076 109.554 124.27 107.562 123.696C105.922 123.223 105.131 123.242 105.049 123.756C104.899 124.702 108.625 126.878 116.092 130.208C123.773 133.633 130.602 136.069 135.943 137.289C137.235 137.584 138.019 137.839 138.119 137.998C138.459 138.54 139.7 139.604 140.579 140.107L141.507 140.639L140.833 140.903C140.083 141.197 137.968 141.462 138.076 141.249C138.114 141.175 138.33 140.791 138.557 140.395C138.875 139.84 138.928 139.618 138.787 139.42C138.462 138.961 138.146 139.146 137.631 140.098C136.867 141.511 136.763 141.536 131.311 141.608L126.846 141.667L126.648 141.201C126.388 140.583 125.676 140.331 123.421 140.057C119.217 139.547 117.889 139.095 113.844 136.799C108.938 134.015 105.632 132.514 103.109 131.925C102.267 131.728 101.91 131.703 101.691 131.826C100.895 132.272 101.53 133.097 103.618 134.33C106.192 135.851 109.098 137.146 115.536 139.639C119.302 141.099 122.915 142.085 124.521 142.093C124.78 142.094 125.104 142.158 125.242 142.236C125.572 142.422 124.259 142.949 122.906 143.173C121.963 143.329 121.898 143.318 120.682 142.786C119.892 142.44 118.436 142.022 116.734 141.652C109.174 140.008 105.954 139.373 105.589 139.455C105.038 139.578 105.069 140.134 105.654 140.612C107.886 142.439 113.19 143.824 118.63 144.001C120.044 144.047 121.2 144.146 121.2 144.222C121.2 144.478 119.418 145.086 117.794 145.384C115.185 145.862 112.699 146.032 109.375 145.959C106.598 145.898 106.146 145.85 104.905 145.488C103.166 144.98 102.121 144.259 100.906 142.728C100.089 141.698 99.9932 141.502 100.077 141.02C100.15 140.598 100.036 140.206 99.577 139.293C98.8282 137.805 98.5768 136.962 98.7225 136.429C98.7856 136.199 99.1669 135.45 99.5701 134.766C100.58 133.05 100.562 132.665 99.3776 130.582C98.3118 128.709 98.0532 127.743 98.2089 126.218C98.3041 125.286 98.28 125.118 98.0402 125.036C97.6458 124.901 97.5547 125.031 97.4222 125.921C97.3582 126.351 97.1725 127.244 97.0097 127.905C96.6197 129.487 96.8029 130.314 97.8513 131.706C98.2728 132.266 98.6177 132.835 98.6177 132.971C98.6177 133.107 98.3388 133.408 97.9979 133.639C97.0825 134.26 96.4269 135.26 96.4269 136.037C96.4269 136.808 97.0386 138.312 97.9645 139.815C98.3378 140.421 98.612 140.944 98.5737 140.979C98.4876 141.055 85.5766 140.174 84.8885 140.045C83.6168 139.805 83.5516 139.483 84.2188 136.736C84.4559 135.759 84.7588 134.251 84.8919 133.384C85.5584 129.042 86.303 127.77 90.4015 123.974C93.9924 120.647 94.3104 120.18 93.7509 119.054C93.1678 117.88 90.722 116.397 88.2535 115.722C86.6531 115.284 83.4793 115.357 81.5467 115.875C78.1509 116.787 75.4232 118.585 73.4393 121.219C70.075 125.685 68.3939 131.494 69.436 135.051L69.7267 136.043L67.109 136.221C63.237 136.485 60.7841 136.866 55.5597 138.016C46.8995 139.924 41.1677 139.923 34.4582 138.016C32.6692 137.508 25.0454 134.928 23.8771 134.436C22.993 134.063 20.5677 133.27 17.8585 132.467C11.3319 130.533 6.42281 129.807 1.04198 129.979C-5.70759 130.195 -12.211 131.803 -22.72 135.855C-24.5679 136.567 -30.9853 139.382 -33.5898 140.623C-34.7021 141.153 -36.4084 141.961 -37.3816 142.42C-38.9231 143.147 -43.0614 145.151 -43.7856 145.521C-44.082 145.673 -44.0705 145.867 -43.7547 146.045C-43.6061 146.128 -42.8973 145.867 -41.6771 145.28C-39.0953 144.038 -35.6347 142.37 -34.4324 141.789C-32.1835 140.702 -24.5995 137.373 -22.2633 136.447C-7.37818 130.546 1.78888 129.355 12.9605 131.873C16.5749 132.688 18.7125 133.358 26.6577 136.167C29.7628 137.265 33.2133 138.41 34.3256 138.711C41.0416 140.528 46.3237 140.598 54.2115 138.973C55.6018 138.687 57.6873 138.259 58.8459 138.022C61.9338 137.392 65.1947 136.975 67.7921 136.878L70.0813 136.794L70.7129 137.8C71.5818 139.184 72.9293 140.324 74.4803 140.989C75.5469 141.446 75.971 141.541 77.2151 141.605C79.6944 141.73 81.0912 141.221 81.0912 140.19C81.0912 139.3 78.5687 137.707 76.0009 136.977C74.8204 136.641 72.4044 136.236 71.5796 136.236C70.8257 136.236 70.54 135.982 70.2282 135.035C69.5531 132.984 69.7653 130.664 70.9183 127.487C72.4041 123.393 74.6395 120.323 77.5993 118.312C77.9012 118.107 78.7536 117.67 79.4932 117.341C83.2513 115.669 87.412 115.691 90.6128 117.4C91.7938 118.031 93.0323 119.06 93.1616 119.519C93.3163 120.068 92.716 120.815 90.3147 123.061C85.5727 127.496 84.8692 128.628 84.2074 132.89C84.057 133.859 83.7439 135.43 83.5115 136.382C83.2793 137.334 83.0757 138.499 83.0592 138.971C83.0174 140.167 83.4508 140.551 85.0648 140.749C86.6761 140.947 96.8708 141.64 98.1649 141.64H99.2205L99.804 142.499C101.241 144.616 103.069 145.842 105.611 146.395C107.312 146.764 113.134 146.763 115.807 146.393C119.933 145.822 121.622 145.252 122.032 144.292C122.162 143.988 122.318 143.892 122.682 143.892C123.782 143.892 126.134 142.997 126.35 142.497C126.408 142.362 127.541 142.313 130.766 142.307C134.28 142.299 135.305 142.25 136.169 142.044C136.948 141.859 137.322 141.833 137.562 141.947C137.791 142.057 138.302 142.054 139.251 141.938C140.752 141.755 141.36 141.587 141.796 141.236C142.062 141.021 142.157 141.059 142.954 141.698C143.432 142.081 144.006 142.435 144.231 142.485C144.476 142.54 144.767 142.801 144.96 143.138C145.999 144.952 150.314 146.925 153.197 146.904C153.905 146.899 154.795 146.934 155.176 146.983C156.452 147.146 158.02 146.098 157.437 145.472C157.123 145.135 156.384 145.191 155.337 145.633L154.411 146.023L153.954 145.703C153.703 145.527 152.642 144.585 151.597 143.61C149.242 141.412 148.119 140.683 147.208 140.76L146.562 140.815L146.622 140.257C146.698 139.542 146.253 138.887 145.086 137.999C143.759 136.989 143.118 136.687 142.301 136.687L141.577 136.686L142.279 136.091C142.97 135.506 142.98 135.483 142.91 134.628C142.817 133.477 142.348 132.672 141.423 132.073C141.006 131.802 139.998 131.059 139.182 130.42L137.7 129.259L138.195 129.05C138.895 128.755 139.373 127.915 139.419 126.896L139.457 126.046L140.819 126.129C142.669 126.242 144.278 125.882 148.554 124.398C153.603 122.646 154.146 122.471 156.316 121.902C160.296 120.859 161.608 120.699 166.112 120.706C170.701 120.713 172.54 120.93 178.916 122.214C188.824 124.209 190.765 124.576 193.886 125.047C200.232 126.005 207.352 126.643 218.167 127.224C221.214 127.388 223.774 127.486 223.854 127.442C223.934 127.398 224 127.23 224 127.07C224 126.83 223.881 126.779 223.316 126.779C222.179 126.779 214.421 126.345 209.76 126.02C199.789 125.326 193.917 124.552 185.324 122.801C172.506 120.189 169.304 119.743 164.679 119.925C160.021 120.108 156.095 121.006 148.901 123.535C144.699 125.012 143.071 125.428 141.496 125.428C140.816 125.428 140.073 125.352 139.845 125.26C139.453 125.1 139.425 125.006 139.332 123.496C139.079 119.395 138.684 118.132 137.326 117.086C135.883 115.973 128.817 113.259 126.052 112.755C124.325 112.44 123.211 112.456 121.606 112.82C119.31 113.341 118.032 114.062 118.418 114.618C118.708 115.035 118.149 114.639 116.675 113.381C114.451 111.483 109.921 107.676 106.37 104.72C104.748 103.37 102.283 101.313 100.893 100.15C99.5025 98.9861 97.8348 97.5946 97.1866 97.0573C96.5385 96.5201 95.363 95.5352 94.5745 94.8687C93.786 94.2023 92.5335 93.1553 91.7913 92.5419C91.0491 91.9287 89.267 90.4424 87.831 89.2394C76.0809 79.3946 75.0364 78.5567 74.0649 78.1951C73.3893 77.9436 72.7964 77.9346 72.5301 78.1718ZM74.603 79.3539C74.9737 79.5833 75.5046 79.9574 75.7826 80.1851C76.0607 80.4128 76.6674 80.9025 77.1308 81.2731C78.1207 82.065 79.9609 83.5912 81.8495 85.1868C82.591 85.8132 84.2153 87.1695 85.4592 88.2008C86.7029 89.232 87.8404 90.1811 87.987 90.3096C88.1335 90.4381 89.5048 91.5849 91.0341 92.858C93.9794 95.3097 95.1928 96.3239 97.7751 98.4915C98.6556 99.2307 99.8646 100.24 100.462 100.735C101.059 101.23 102.196 102.179 102.99 102.845C103.783 103.511 106.328 105.636 108.645 107.569C114.755 112.664 117.944 115.346 120.434 117.481C123.11 119.777 125.076 121.411 126.087 122.181C126.774 122.703 126.79 122.729 126.256 122.456C125.931 122.291 124.668 121.647 123.448 121.024C122.228 120.402 120.427 119.511 119.446 119.045C118.229 118.466 117.661 118.113 117.661 117.935C117.661 117.556 117.079 117.143 115.554 116.439C112.978 115.249 107.12 110.649 99.3764 103.734C94.9993 99.8253 84.7482 90.5308 81.4978 87.5239C74.5551 81.1013 73.1705 79.666 73.1705 78.8923C73.1705 78.6175 73.2143 78.602 73.5497 78.7592C73.7582 78.8569 74.2322 79.1244 74.603 79.3539ZM126.332 113.498C127.875 113.856 132.032 115.31 134.261 116.271C136.587 117.275 137.49 117.961 137.927 119.056C138.232 119.822 138.546 122.135 138.554 123.679L138.558 124.557L137.633 123.804C137.124 123.389 136.473 123.005 136.187 122.949C135.05 122.726 133.802 123.275 133.239 124.245C132.666 125.232 131.816 124.725 125.919 119.877C124.945 119.076 123.031 117.528 121.663 116.435C120.296 115.342 119.178 114.417 119.178 114.378C119.178 114.267 120.702 113.714 121.621 113.492C122.766 113.215 125.127 113.218 126.332 113.498ZM107.093 114.993C107.761 115.116 108.915 115.425 109.656 115.679C111.173 116.199 113.981 117.347 113.904 117.416C113.876 117.441 112.985 117.225 111.923 116.937C107.466 115.726 105.213 115.422 103.825 115.844C102.948 116.111 101.727 116.865 99.9659 118.226C98.2296 119.569 97.0176 120.325 96.6045 120.322C96.4604 120.322 96.8063 120.059 97.373 119.739C98.5161 119.093 99.0726 118.513 99.6135 117.405C100.202 116.2 100.705 115.727 101.777 115.368C103.66 114.738 105.14 114.634 107.093 114.993ZM119.178 115.295C119.178 115.336 119.14 115.37 119.093 115.37C119.047 115.37 119.009 115.336 119.009 115.295C119.009 115.254 119.047 115.22 119.093 115.22C119.14 115.22 119.178 115.254 119.178 115.295ZM123.292 118.683C130.391 124.451 131.747 125.43 132.637 125.425C133.186 125.423 133.296 125.352 133.918 124.602C134.602 123.777 134.838 123.637 135.556 123.631C136.087 123.627 136.365 123.773 137.452 124.628C138.69 125.601 138.727 125.65 138.726 126.317C138.724 127.756 138.181 128.58 137.234 128.58C137.004 128.58 136.128 128.138 135.207 127.558C134.316 126.995 132.762 126.068 131.755 125.497C130.725 124.913 129.666 124.18 129.338 123.822C129.016 123.473 128.058 122.689 127.209 122.08C125.741 121.027 123.514 119.196 120.695 116.721C119.04 115.269 119.752 115.807 123.292 118.683ZM114.965 116.946C114.965 116.987 114.927 117.021 114.88 117.021C114.834 117.021 114.796 116.987 114.796 116.946C114.796 116.905 114.834 116.871 114.88 116.871C114.927 116.871 114.965 116.905 114.965 116.946ZM115.302 117.096C115.302 117.138 115.264 117.171 115.217 117.171C115.171 117.171 115.133 117.138 115.133 117.096C115.133 117.055 115.171 117.021 115.217 117.021C115.264 117.021 115.302 117.055 115.302 117.096ZM115.639 117.246C115.639 117.288 115.601 117.321 115.554 117.321C115.508 117.321 115.47 117.288 115.47 117.246C115.47 117.205 115.508 117.171 115.554 117.171C115.601 117.171 115.639 117.205 115.639 117.246ZM115.976 117.397C115.976 117.438 115.938 117.472 115.891 117.472C115.845 117.472 115.807 117.438 115.807 117.397C115.807 117.355 115.845 117.321 115.891 117.321C115.938 117.321 115.976 117.355 115.976 117.397ZM116.313 117.547C116.313 117.588 116.275 117.622 116.229 117.622C116.182 117.622 116.144 117.588 116.144 117.547C116.144 117.505 116.182 117.472 116.229 117.472C116.275 117.472 116.313 117.505 116.313 117.547ZM116.65 117.697C116.65 117.738 116.612 117.772 116.566 117.772C116.519 117.772 116.481 117.738 116.481 117.697C116.481 117.655 116.519 117.622 116.566 117.622C116.612 117.622 116.65 117.655 116.65 117.697ZM127.267 122.951C127.267 122.992 127.229 123.026 127.183 123.026C127.136 123.026 127.098 122.992 127.098 122.951C127.098 122.909 127.136 122.876 127.183 122.876C127.229 122.876 127.267 122.909 127.267 122.951ZM138.221 123.551C138.221 123.593 138.259 123.626 138.305 123.626C138.352 123.626 138.39 123.593 138.39 123.551C138.39 123.51 138.352 123.476 138.305 123.476C138.259 123.476 138.221 123.51 138.221 123.551ZM107.68 124.461C109.428 124.984 111.44 125.893 113.953 127.298C116.344 128.634 117.344 129.062 120.442 130.078C124.12 131.284 127.207 132.629 131.952 135.094C132.721 135.494 133.323 135.845 133.289 135.875C133.236 135.923 130.402 135.068 128.362 134.389C127.494 134.1 123.187 132.439 120.694 131.433C115.08 129.165 108.439 125.9 106.37 124.391C105.809 123.981 106.134 123.999 107.68 124.461ZM133.24 127.19C134.84 128.143 135.071 128.336 133.924 127.76C133.105 127.349 131.48 126.321 131.48 126.213C131.48 126.146 131.612 126.219 133.24 127.19ZM98.8473 131.176C99.2772 131.902 99.6272 132.645 99.6252 132.827C99.6231 133.009 99.244 133.827 98.7825 134.644C97.6664 136.621 97.6947 137.462 98.9526 139.696C99.1595 140.063 99.2505 140.296 99.1546 140.214C98.8068 139.914 97.4529 137.344 97.2801 136.656C97.0464 135.723 97.2309 135.317 98.3567 134.284C99.6981 133.054 99.6978 133.048 98.2234 130.916C97.7668 130.256 97.6096 129.865 97.6184 129.415L97.6303 128.805L97.8479 129.331C97.9676 129.62 98.4173 130.45 98.8473 131.176ZM140.831 132.502C141.77 132.995 142.451 134.424 142.103 135.171C141.882 135.646 141.074 136.155 139.923 136.544C138.593 136.995 138.464 136.957 138.061 135.997C137.867 135.535 137.7 134.823 137.69 134.414C137.668 133.556 137.84 133.384 139.131 132.972C139.6 132.822 139.99 132.595 140.035 132.445C140.133 132.12 140.1 132.118 140.831 132.502ZM104.516 133.043C106.505 133.732 109.529 135.184 112.478 136.867C117.381 139.664 118.871 140.21 122.849 140.664C124.98 140.908 125.636 141.054 125.828 141.33C125.984 141.555 125.091 141.533 123.475 141.272C121.18 140.9 119.471 140.404 116.303 139.189C109.04 136.404 103.73 133.924 102.577 132.779L102.241 132.445L102.831 132.555C103.155 132.615 103.914 132.835 104.516 133.043ZM74.0131 137.236C76.602 137.711 79.6783 139.068 80.1188 139.93C80.2964 140.277 80.2753 140.357 79.9432 140.597C79.0261 141.258 76.393 141.094 74.5448 140.261C73.4017 139.746 72.0358 138.544 71.3408 137.443L70.9494 136.822L71.8493 136.913C72.3442 136.963 73.318 137.109 74.0131 137.236ZM143.763 137.95C144.777 138.612 145.973 139.757 145.973 140.063C145.973 140.38 144.764 141.771 144.48 141.781C144.108 141.795 142.385 140.299 142.085 139.702C141.826 139.186 140.37 137.887 140.051 137.887C139.971 137.887 139.906 137.83 139.906 137.761C139.906 137.59 141.713 137.305 142.399 137.368C142.703 137.397 143.317 137.658 143.763 137.95ZM140.58 139.085C140.905 139.342 141.018 139.487 140.833 139.406C140.648 139.325 140.231 139.048 139.906 138.791C139.582 138.533 139.468 138.389 139.653 138.47C139.839 138.551 140.256 138.827 140.58 139.085ZM109.456 140.796C111.142 141.158 114 141.769 115.807 142.153C117.615 142.538 119.397 142.985 119.768 143.148L120.442 143.444L118.613 143.362C115.065 143.203 110.969 142.408 108.614 141.421C107.437 140.928 105.987 140.139 106.257 140.139C106.331 140.139 107.77 140.435 109.456 140.796ZM148.292 141.794C148.954 142.258 149.826 143.004 151.703 144.715L153.472 146.328L152.578 146.229C150.215 145.969 146.629 144.311 145.795 143.092C145.616 142.83 145.469 142.574 145.468 142.523C145.468 142.472 145.826 142.182 146.264 141.878C147.133 141.275 147.528 141.259 148.292 141.794ZM156.347 146.073C156.167 146.194 155.94 146.291 155.842 146.288C155.743 146.285 155.853 146.186 156.085 146.068C156.63 145.79 156.763 145.793 156.347 146.073Z" fill="#9FC157"/>
</g>
</svg>
