<svg width="204" height="197" viewBox="0 0 204 197" fill="none" xmlns="http://www.w3.org/2000/svg">
<circle cx="115" cy="113" r="80" fill="#D64279" fill-opacity="0.8"/>
<path d="M10.4926 91.4148C9.54319 90.4813 9.25357 89.127 9.62377 87.3519L11.9536 87.8377C11.8709 88.0384 11.8119 88.2236 11.7765 88.3933C11.5778 89.3461 11.7033 90.1486 12.1529 90.8008C12.5895 91.4503 13.3299 91.8839 14.3741 92.1017L19.445 93.1592L18.9347 95.6065L8.47958 93.4262L8.96546 91.0963L10.4926 91.4148Z" fill="#343434"/>
<path d="M18.9454 76.3917C19.1093 76.4482 19.3381 76.5412 19.6319 76.6708L16.8988 84.5926C17.6903 84.7105 18.4066 84.5557 19.0478 84.1281C19.6808 83.6835 20.1472 83.0264 20.4473 82.1567C20.83 81.0475 20.7797 80.0076 20.2966 79.037L22.1894 78.2725C22.5748 78.9132 22.7866 79.6281 22.8247 80.417C22.8628 81.2059 22.7319 82.0352 22.4318 82.9049C22.0491 84.014 21.4915 84.9148 20.759 85.6071C20.0265 86.2993 19.1891 86.7439 18.2467 86.9406C17.2961 87.1204 16.3229 87.0385 15.3272 86.695C14.3441 86.3558 13.5379 85.8308 12.9086 85.12C12.2711 84.3923 11.8687 83.5553 11.7015 82.6091C11.5344 81.6628 11.6225 80.6918 11.9661 79.6961C12.3053 78.7129 12.8281 77.913 13.5345 77.2964C14.2326 76.6628 15.0527 76.2687 15.9946 76.1141C16.9283 75.9425 17.9119 76.0351 18.9454 76.3917ZM13.8567 80.3483C13.5958 81.1046 13.6009 81.8257 13.872 82.5116C14.1349 83.1806 14.6185 83.7001 15.3231 84.0701L17.2995 78.3415C16.5337 78.1901 15.8347 78.2945 15.2027 78.6547C14.5706 79.0149 14.122 79.5795 13.8567 80.3483Z" fill="#343434"/>
<path d="M27.0569 71.9491C26.5663 72.9411 25.9168 73.728 25.1084 74.31C24.2999 74.8919 23.4159 75.2207 22.4562 75.2964C21.4845 75.3662 20.5266 75.1677 19.5824 74.7007C18.6383 74.2337 17.9051 73.5959 17.3828 72.7872C16.8605 71.9785 16.5823 71.0823 16.5482 70.0986C16.52 69.1029 16.7542 68.1031 17.2507 67.0992C17.7177 66.155 18.3168 65.4249 19.048 64.9089C19.7851 64.381 20.6008 64.1151 21.4953 64.1112L21.648 66.3287C21.0698 66.3849 20.5698 66.569 20.1477 66.8809C19.7197 67.1749 19.3845 67.5669 19.1421 68.0569C18.7284 68.8935 18.6604 69.7227 18.9383 70.5444C19.2042 71.3601 19.7913 71.9926 20.6996 72.4419C21.6079 72.8911 22.47 72.9827 23.2857 72.7168C24.0955 72.4331 24.7102 71.8669 25.1298 71.0183C25.3722 70.5283 25.4863 70.0269 25.4721 69.5142C25.4519 68.9836 25.2887 68.4715 24.9825 67.9779L26.8376 66.7534C27.3714 67.4786 27.6582 68.2972 27.698 69.2094C27.7317 70.1037 27.518 71.0169 27.0569 71.9491Z" fill="#343434"/>
<path d="M20.7927 60.8374L22.0986 58.7055L31.2057 64.2843L29.8998 66.4161L20.7927 60.8374ZM19.95 58.8436C19.7132 59.2301 19.3954 59.481 18.9964 59.5963C18.5861 59.7046 18.199 59.6473 17.8352 59.4244C17.4713 59.2015 17.2501 58.8862 17.1716 58.4785C17.0816 58.0637 17.155 57.6631 17.3918 57.2765C17.6286 56.8899 17.9465 56.639 18.3455 56.5238C18.7331 56.4016 19.1031 56.4484 19.4555 56.6643C19.8307 56.8942 20.069 57.2199 20.1703 57.6416C20.2672 58.045 20.1938 58.4456 19.95 58.8436Z" fill="#343434"/>
<path d="M27.6198 50.5805C28.2521 49.7548 28.9955 49.1569 29.85 48.7869C30.7125 48.4062 31.6138 48.282 32.5539 48.4141C33.4939 48.5463 34.3926 48.9407 35.2501 49.5974C36.1075 50.2541 36.7278 51.0231 37.1109 51.9043C37.4834 52.7774 37.5983 53.68 37.4556 54.6119C37.3209 55.5333 36.9374 56.4068 36.3051 57.2324C35.4295 58.3757 34.3553 58.9889 33.0824 59.072L37.1948 62.2217L35.6747 64.2064L24.1154 55.3534L25.5626 53.4639L26.674 54.3151C26.5231 53.6789 26.5295 53.0456 26.6932 52.4152C26.865 51.7742 27.1739 51.1627 27.6198 50.5805ZM34.4359 56.1535C34.9953 55.4231 35.2099 54.6386 35.0797 53.7999C34.9575 52.9506 34.4995 52.222 33.7056 51.6139C32.9117 51.0059 32.0889 50.7536 31.2372 50.857C30.3935 50.9498 29.692 51.3614 29.1326 52.0918C28.7678 52.5682 28.5506 53.082 28.481 53.6333C28.4008 54.1765 28.4768 54.7133 28.7088 55.2437C28.9408 55.7741 29.3214 56.2419 29.8507 56.6473C30.3799 57.0526 30.9308 57.2982 31.5033 57.384C32.0758 57.4698 32.6191 57.4073 33.1333 57.1964C33.6369 56.9775 34.071 56.6299 34.4359 56.1535Z" fill="#343434"/>
<path d="M43.9802 40.9551C44.1016 41.0788 44.265 41.264 44.4703 41.511L38.4931 47.3844C39.1491 47.8428 39.8593 48.0234 40.6239 47.9264C41.3886 47.8105 42.0991 47.4302 42.7553 46.7853C43.5922 45.963 44.0107 45.0096 44.0107 43.9254L46.0459 44.0846C46.1054 44.83 45.9764 45.5643 45.6589 46.2875C45.3414 47.0107 44.8546 47.6947 44.1984 48.3395C43.3615 49.1619 42.4609 49.7197 41.4966 50.013C40.5324 50.3063 39.5846 50.331 38.6533 50.0871C37.7222 49.8244 36.8875 49.3174 36.1492 48.5661C35.4203 47.8243 34.9325 46.995 34.686 46.0783C34.4396 45.1427 34.4525 44.2141 34.7245 43.2925C34.9966 42.3709 35.5083 41.541 36.2596 40.8027C37.0014 40.0738 37.8259 39.5907 38.7331 39.3535C39.6405 39.0975 40.5502 39.1101 41.4623 39.3915C42.3746 39.6541 43.2139 40.1753 43.9802 40.9551ZM37.6614 42.2292C37.0908 42.7899 36.7739 43.4377 36.7109 44.1726C36.6481 44.8886 36.8496 45.5692 37.3154 46.2144L41.6378 41.967C41.0197 41.4902 40.3474 41.2722 39.6211 41.313C38.8947 41.3538 38.2415 41.6592 37.6614 42.2292Z" fill="#343434"/>
<path d="M58.192 30.5499C58.2887 30.6937 58.4153 30.9059 58.5718 31.1863L51.6181 35.8629C52.1788 36.4338 52.8439 36.7418 53.6132 36.7867C54.3862 36.8132 55.1544 36.5697 55.9179 36.0563C56.8915 35.4014 57.4778 34.5411 57.6769 33.4753L59.6482 34.0053C59.5699 34.749 59.3083 35.4471 58.8635 36.0998C58.4187 36.7524 57.8146 37.3355 57.0512 37.8489C56.0776 38.5037 55.0899 38.8868 54.0882 38.9981C53.0865 39.1094 52.1502 38.9597 51.2795 38.5491C50.4125 38.1199 49.685 37.4683 49.0972 36.5943C48.5168 35.7313 48.1895 34.8266 48.1154 33.8802C48.0449 32.9153 48.228 32.0048 48.6646 31.1488C49.1012 30.2928 49.7565 29.5709 50.6305 28.983C51.4935 28.4026 52.3927 28.0791 53.328 28.0124C54.267 27.9273 55.1589 28.1067 56.0039 28.5507C56.8525 28.9763 57.5818 29.6427 58.192 30.5499ZM51.7467 30.6426C51.0829 31.0891 50.6525 31.6677 50.4557 32.3785C50.2625 33.0709 50.3357 33.7769 50.6751 34.4966L55.7037 31.1147C55.1836 30.5325 54.5628 30.1948 53.8413 30.1016C53.1198 30.0084 52.4216 30.1887 51.7467 30.6426Z" fill="#343434"/>
<path d="M69.3613 30.6222L65.2423 28.5653L64.4583 33.1142L61.9979 34.3648L63.2506 27.6482L57.3192 24.7624L59.7975 23.5028L63.719 25.4358L64.4687 21.1286L66.8757 19.9052L65.675 26.371L71.8753 29.3444L69.3613 30.6222Z" fill="#343434"/>
<path d="M74.9254 16.5794C75.8996 16.2156 76.847 16.1037 77.7676 16.2439C78.7006 16.3794 79.5303 16.7527 80.2567 17.3639C80.9831 17.975 81.5352 18.7865 81.913 19.7982C82.2908 20.81 82.4081 21.791 82.2648 22.7411C82.1168 23.6788 81.7349 24.5046 81.1191 25.2185C80.5157 25.9277 79.7269 26.4643 78.7526 26.8281C77.4036 27.3319 76.1678 27.281 75.045 26.6756L76.8572 31.5282L74.5152 32.4028L69.4214 18.7629L71.651 17.9303L72.1408 19.2418C72.3508 18.6226 72.6925 18.0893 73.1659 17.6421C73.6519 17.1902 74.2384 16.836 74.9254 16.5794ZM77.7417 24.9213C78.6035 24.5994 79.202 24.0486 79.537 23.2688C79.8845 22.4843 79.8834 21.6237 79.5335 20.6868C79.1837 19.75 78.6204 19.0993 77.8438 18.7346C77.0796 18.3653 76.2666 18.3416 75.4047 18.6634C74.8426 18.8733 74.3857 19.1934 74.034 19.6236C73.6776 20.0414 73.4569 20.5365 73.3719 21.1091C73.2868 21.6817 73.3609 22.2803 73.5941 22.9049C73.8274 23.5294 74.1638 24.03 74.6033 24.4067C75.0429 24.7834 75.5365 25.0189 76.0841 25.1133C76.6271 25.1952 77.1796 25.1312 77.7417 24.9213Z" fill="#343434"/>
<path d="M81.632 10.0732L84.0354 9.38496L88.1209 23.6515L85.7175 24.3398L81.632 10.0732Z" fill="#343434"/>
<path d="M96.0909 21.8417C95.0336 22.0624 94.0332 22.0329 93.0894 21.7532C92.1457 21.4735 91.3479 20.9795 90.696 20.2711C90.0544 19.5469 89.626 18.6693 89.4108 17.6382C89.1955 16.6071 89.2383 15.6379 89.5392 14.7306C89.8532 13.8205 90.3867 13.0485 91.1397 12.4146C91.8927 11.7806 92.7978 11.3533 93.855 11.1326C94.9252 10.9091 95.9322 10.9372 96.876 11.2169C97.8197 11.4966 98.611 11.992 99.2498 12.7031C99.9017 13.4115 100.335 14.2813 100.551 15.3124C100.766 16.3435 100.718 17.3206 100.407 18.2437C100.106 19.151 99.5787 19.9216 98.8257 20.5556C98.0727 21.1895 97.1611 21.6182 96.0909 21.8417ZM95.6535 19.7468C96.5541 19.5588 97.2353 19.1033 97.6973 18.3803C98.1593 17.6573 98.2881 16.8063 98.0837 15.8274C97.8794 14.8485 97.4208 14.1202 96.7081 13.6424C95.9955 13.1647 95.1888 13.0198 94.2882 13.2078C93.3877 13.3959 92.7064 13.8514 92.2444 14.5744C91.7955 15.2947 91.6732 16.1443 91.8776 17.1232C92.0819 18.1021 92.5339 18.8317 93.2336 19.3122C93.9463 19.79 94.7529 19.9349 95.6535 19.7468Z" fill="#343434"/>
<path d="M104.957 10.9547C105.539 9.75701 106.73 9.05031 108.53 8.8346L108.813 11.1977C108.597 11.1834 108.402 11.1865 108.23 11.2071C107.264 11.3229 106.543 11.6979 106.069 12.3322C105.593 12.9533 105.418 13.7934 105.545 14.8525L106.161 19.9957L103.679 20.2931L102.408 9.68889L104.771 9.40578L104.957 10.9547Z" fill="#343434"/>
<path d="M121.628 13.7514C121.633 13.9246 121.626 14.1716 121.609 14.4922L113.232 14.7251C113.4 15.5074 113.798 16.1232 114.424 16.5727C115.063 17.0084 115.842 17.2135 116.762 17.1879C117.935 17.1553 118.89 16.7419 119.628 15.9478L121.011 17.45C120.547 18.0364 119.952 18.4864 119.227 18.8C118.502 19.1136 117.68 19.2832 116.761 19.3088C115.588 19.3414 114.548 19.1369 113.642 18.6952C112.736 18.2535 112.025 17.6264 111.509 16.8137C111.006 15.9874 110.74 15.0478 110.711 13.9948C110.682 12.9552 110.889 12.0158 111.332 11.1765C111.789 10.3235 112.431 9.65204 113.257 9.16221C114.084 8.67238 115.024 8.41283 116.077 8.38356C117.116 8.35466 118.049 8.56216 118.875 9.00604C119.714 9.43623 120.372 10.0649 120.848 10.8919C121.338 11.7053 121.598 12.6585 121.628 13.7514ZM116.132 10.3828C115.333 10.405 114.66 10.6638 114.113 11.1592C113.58 11.6409 113.264 12.2766 113.166 13.0663L119.223 12.8979C119.095 12.1278 118.751 11.5105 118.192 11.0458C117.632 10.5812 116.945 10.3602 116.132 10.3828Z" fill="#343434"/>
<path d="M127.288 10.2304C128.086 9.16423 129.389 8.69541 131.198 8.82392L131.029 11.1979C130.819 11.1429 130.628 11.1093 130.455 11.097C129.484 11.028 128.706 11.2601 128.12 11.7932C127.535 12.3131 127.205 13.105 127.129 14.169L126.762 19.336L124.268 19.1588L125.025 8.50564L127.399 8.67431L127.288 10.2304Z" fill="#343434"/>
<circle cx="109" cy="117" r="79.75" fill="white" fill-opacity="0.85" stroke="#D64279" stroke-width="0.5"/>
<mask id="mask0" style="mask-type:alpha" maskUnits="userSpaceOnUse" x="29" y="37" width="160" height="160">
<circle cx="109" cy="117" r="80" fill="#D64279" fill-opacity="0.8"/>
</mask>
<g mask="url(#mask0)">
<path fill-rule="evenodd" clip-rule="evenodd" d="M79.5166 84.0828C77.8529 84.4442 76.2087 85.6728 76.2087 86.5546C76.2087 86.745 75.7513 87.0172 74.8764 87.3473C71.8598 88.4859 68.3015 90.0739 66.801 90.9513C64.5936 92.2419 63.4851 93.2927 62.7533 94.788C62.182 95.9557 62.1506 96.1265 62.1524 98.0574C62.1544 100.24 62.3904 101.063 63.4597 102.621C63.8901 103.248 63.9041 103.331 63.6464 103.73C63.1719 104.466 62.9171 106.561 63.0501 108.632C63.1969 110.916 63.7813 113.073 64.6449 114.519C66.2879 117.268 71.3289 120.797 76.2166 122.619C78.8335 123.595 81.3522 124.056 84.0018 124.044C86.2907 124.034 87.3439 123.84 88.9608 123.128C90.0377 122.653 90.2561 122.731 89.3786 123.277C88.216 124 86.0691 124.436 83.6514 124.441C80.0399 124.448 78.2892 123.928 72.3496 121.081C65.6787 117.883 63.4801 117.18 60.155 117.18C55.1133 117.18 49.6412 119.451 39.5008 125.752C36.9857 127.315 29.9989 131.127 29.9989 131.5C29.9989 131.804 29.8423 132.094 30 132C30.1264 131.925 37.5942 127.832 38.3522 127.359C40.9842 125.713 43.9633 123.915 45.0598 123.31C52.2582 119.335 55.3976 118.171 59.4153 117.988C63.0457 117.823 65.0675 118.424 71.9451 121.712C78.216 124.711 79.9907 125.236 83.7433 125.203C86.2118 125.181 88.37 124.749 89.5704 124.037C90.279 123.616 90.252 123.581 90.5448 125.329C90.8741 127.297 91.6056 129.892 92.141 130.992C92.7222 132.187 93.9752 133.378 94.9306 133.645C97.4807 134.358 100.968 133.108 103.525 130.565C105.39 128.71 105.976 127.118 105.348 125.607C105.203 125.258 104.428 124.271 103.625 123.414C101.238 120.864 101.082 119.769 102.835 117.87C103.301 117.365 105.441 115.631 107.59 114.016C111.763 110.881 112.893 109.736 113.437 108.09C113.597 107.607 113.754 107.212 113.787 107.212C113.82 107.212 114.077 107.607 114.358 108.09C114.993 109.18 116.533 110.724 117.633 111.372C119.675 112.576 123.594 113.696 128.583 114.501C134.026 115.379 138.201 115.513 140.305 114.877L141.093 114.639L140.425 115.383C139.363 116.565 139.207 117.133 139.271 119.578C139.379 123.75 139.319 124.861 138.947 125.616C138.356 126.813 137.803 127.085 135.966 127.085C134.507 127.085 134.255 127.028 132.993 126.412C131.394 125.631 128.977 123.726 127.745 122.275C127.273 121.72 126.419 120.328 125.848 119.184C123.939 115.357 122.706 114.172 120.667 114.201C119.362 114.219 116.375 115.067 113.623 116.2C109.887 117.739 107.944 118.95 106.99 120.337C106.476 121.083 106.439 121.253 106.439 122.818C106.439 124.903 106.879 126.358 108.463 129.512C110.962 134.485 112.895 136.411 117.055 138.07C121.408 139.805 123.227 141.268 127.071 146.127C128.037 147.347 129.139 148.729 129.522 149.199C130.107 149.917 132.015 152.947 133.175 155C134.046 156.543 136.319 160.205 137.434 161.862C139.64 165.14 140.606 166 142.086 166C142.904 166 143.78 165.22 143.956 164.334C144.025 163.984 144.226 163.692 144.459 163.6C145.749 163.092 145.994 161.949 145.213 160.082C144.658 158.755 142.52 154.982 140.407 151.602C139.557 150.242 138.89 149.099 138.926 149.063C138.961 149.028 139.252 149.074 139.572 149.166C140.826 149.528 141.772 148.96 144.948 145.941C147.923 143.112 149.71 141.945 152.669 140.896C155.263 139.976 157.532 139.684 161.181 139.799C164.675 139.909 167.483 140.337 172.963 141.597C174.783 142.015 177.76 142.689 179.579 143.094C181.398 143.5 183.038 143.878 183.224 143.934C183.49 144.014 185.047 144.327 184.999 144C184.943 143.618 183.054 143.121 178.293 142.023C166.61 139.328 164.032 138.927 159.272 139.065C155.006 139.188 152.639 139.764 149.565 141.424C147.786 142.386 146.38 143.491 143.895 145.883C142.765 146.97 141.591 147.99 141.285 148.149C139.64 149.005 138.36 148.186 135.941 144.732C133.577 141.356 133.092 140.741 131.247 138.782C128.874 136.261 128.901 136.34 128.75 131.615C128.631 127.899 128.35 125.64 127.837 124.284C127.45 123.26 127.692 123.28 128.848 124.368C131.319 126.692 133.393 127.762 135.667 127.882C137.541 127.981 138.607 127.576 139.317 126.497C140.017 125.433 140.187 124.144 140.047 120.97C139.979 119.437 139.98 117.884 140.048 117.518C140.185 116.785 141.424 115.274 142.315 114.753L142.857 114.437L144.705 115.511C148.088 117.477 149.098 118.587 151.708 123.203C154.43 128.017 155.451 129.027 157.602 129.027C159.441 129.027 160.467 127.906 160.467 125.897C160.467 124.372 159.915 123.158 158.84 122.319C158.199 121.819 158.087 121.634 158.133 121.156C158.303 119.41 152.089 113.146 148.798 111.744C148.343 111.55 147.934 111.364 147.89 111.331C147.845 111.297 148.228 110.835 148.741 110.304C149.736 109.274 150.476 108.22 152.27 105.28C153.466 103.319 153.551 103.068 153.112 102.821C152.862 102.68 152.865 102.574 153.138 101.841C153.58 100.655 153.579 97.8127 153.136 96.4899C151.277 90.935 144.949 87.3789 135.332 86.4849C126.012 85.6185 117.035 88.8041 113.432 94.2564C112.085 96.294 111.781 98.172 112.312 101.169C112.453 101.963 112.527 102.878 112.477 103.203C112.427 103.527 112.516 104.156 112.674 104.601C113.015 105.557 113.047 106.908 112.75 107.786C112.218 109.353 110.668 110.879 106.806 113.635C105.796 114.356 104.349 115.47 103.591 116.11L102.214 117.273L103.087 116.079C104.868 113.64 104.79 113.968 104.748 109.153C104.728 106.815 104.596 103.178 104.455 101.073C104.11 95.9192 103.943 95.7494 101.629 98.1961C98.585 101.415 96.7964 102.94 94.4857 104.287C90.4576 106.636 84.8749 107.966 78.9653 107.986C74.7994 107.999 71.3686 107.291 68.4904 105.824C67.5659 105.353 65.2904 103.714 65.4033 103.601C65.4433 103.561 66.5057 103.813 67.7642 104.161C73.0734 105.63 78.0012 106.349 82.7325 106.347C86.4754 106.346 87.9242 106.111 90.6065 105.07C95.8647 103.031 101.288 98.2465 101.944 95.069C102.461 92.5589 101.333 90.3486 98.7601 88.8316C96.2072 87.3266 90.9055 85.7846 86.316 85.2123C85.3558 85.0925 84.0665 84.7999 83.4507 84.5617C82.202 84.0789 80.4926 83.8707 79.5166 84.0828ZM80.9867 84.8427C80.734 84.9282 80.2239 85.0489 79.8531 85.111C79.4824 85.1733 78.7174 85.4584 78.1532 85.7445C77.5892 86.0309 77.1276 86.2405 77.1276 86.2106C77.1276 86.1806 77.4229 85.9296 77.7838 85.6526C78.5057 85.0988 79.8058 84.6823 80.803 84.6854C81.393 84.6875 81.4081 84.7004 80.9867 84.8427ZM84.2946 85.8699C84.9436 86.2047 86.0744 87.4276 86.305 88.0443C86.6163 88.8762 86.5384 90.3281 86.1404 91.1129C85.3939 92.5848 83.8168 93.3511 81.5505 93.3428C79.9475 93.3368 79.0559 93.1102 78.1519 92.4787C75.9711 90.9552 76.1167 87.7821 78.4299 86.4189C79.7217 85.6578 83.2441 85.328 84.2946 85.8699ZM89.9615 86.6125C92.5976 87.1449 96.2372 88.3242 97.7637 89.1405C100.54 90.6256 101.711 92.6111 101.195 94.9611C100.647 97.4551 96.9138 101.024 92.344 103.422C89.9681 104.669 87.8913 105.279 85.1002 105.548C80.7414 105.969 73.3392 105.013 67.3213 103.252C66.4256 102.99 65.4182 102.775 65.0826 102.775C64.3955 102.775 63.9848 102.319 63.3009 100.796C62.981 100.084 62.9014 99.5478 62.8943 98.0613C62.8864 96.3992 62.9376 96.106 63.402 95.1545C64.528 92.8479 67.7476 90.8648 74.5618 88.2811L76.1308 87.6862L75.9586 88.532C75.5415 90.5807 76.4537 92.484 78.309 93.4356C79.3356 93.9619 79.5217 93.9942 81.525 93.9942C83.5202 93.9942 83.7194 93.96 84.754 93.4396C87.3881 92.1147 88.1265 89.062 86.3723 86.7498L85.7272 85.8998L86.7108 86.0272C87.2518 86.0973 88.7146 86.3607 89.9615 86.6125ZM135.474 87.2569C141.23 87.7563 146.666 89.7208 149.486 92.3206C152.655 95.2417 153.619 99.0816 152.036 102.479C151.794 102.998 151.457 103.589 151.287 103.792C150.99 104.147 150.982 104.129 151.087 103.359C151.242 102.223 150.881 100.454 150.25 99.2611C148.806 96.528 145.37 94.2682 140.87 93.0921C135.199 91.6098 129.338 92.1478 124.07 94.6341C121.512 95.8414 119.872 96.9634 118.451 98.4795C116.011 101.081 115.524 103.275 116.738 106.184C117.006 106.825 115.67 105.652 114.468 104.191C113.374 102.86 113.362 102.833 113.048 100.942C112.486 97.5575 113.037 95.5756 115.184 93.2668C119.393 88.7405 126.91 86.5138 135.474 87.2569ZM137.225 93.1703C144.869 94.1164 150.283 97.9422 150.311 102.418C150.32 103.832 150.044 104.814 149.552 105.124C146.983 106.737 143.421 108.376 141.011 109.052C135.827 110.506 128.139 110.282 121.416 108.479C119.537 107.976 118.943 107.663 118.171 106.772C117.111 105.548 116.762 104.584 116.864 103.16C116.914 102.451 117.109 101.631 117.331 101.194C118.693 98.5096 122.211 95.954 126.701 94.3865C130.244 93.1494 133.767 92.7421 137.225 93.1703ZM103.784 102.406C104.058 107.297 104.119 112.601 103.912 113.346C103.774 113.84 101.469 117.043 100.599 117.949C99.8778 118.701 99.1078 118.951 98.2807 118.702C97.0775 118.339 94.5302 116.189 92.0965 113.482C90.6363 111.858 89.8617 111.309 88.681 111.064C87.5206 110.823 86.5434 111.128 86.0498 111.886C85.66 112.484 85.8373 112.934 87.2224 114.856C89.0423 117.383 90.359 120.202 90.359 121.573C90.359 121.9 90.2562 122.002 89.9249 122.002C89.6862 122.002 88.9213 122.271 88.225 122.601L86.9592 123.201L83.8352 123.196C81.1593 123.192 80.4871 123.13 79.149 122.766C74.7316 121.563 70.0767 119.064 67.2411 116.373C64.9935 114.24 64.2395 112.647 63.8624 109.236C63.6907 107.683 63.6909 106.925 63.8631 105.811C64.1557 103.918 64.3346 103.709 65.0738 104.4C66.3807 105.621 68.7003 106.897 70.9713 107.644C75.5826 109.161 82.2615 109.134 88.2791 107.573C93.5115 106.216 96.479 104.445 100.65 100.191C102.644 98.1571 103.343 97.5466 103.428 97.767C103.49 97.9288 103.651 100.016 103.784 102.406ZM116.546 107.177C117.958 108.084 121.807 110.008 122.939 110.373C126.087 111.388 128.529 111.724 132.718 111.718C135.549 111.714 136.644 111.633 138.507 111.29C141.428 110.752 144.117 109.87 146.324 108.725C147.279 108.229 147.972 107.932 147.863 108.063C147.445 108.57 145.875 109.438 144.203 110.087C142.04 110.927 141.559 111.174 141.076 111.695C140.658 112.146 140.706 112.792 141.197 113.341C141.514 113.694 141.478 113.723 140.252 114.104C138.221 114.736 134.29 114.641 129.226 113.84C122.68 112.803 118.7 111.507 116.743 109.773C115.445 108.624 113.698 105.77 113.698 104.8C113.698 104.57 114.025 104.813 114.754 105.586C115.336 106.201 116.142 106.918 116.546 107.177ZM151.531 105.04C151.129 105.799 149.409 108.403 148.849 109.1C148.545 109.478 147.947 110.081 147.519 110.441C146.864 110.991 146.601 111.094 145.852 111.094C144.628 111.094 144.071 111.344 143.054 112.347L142.18 113.208L141.793 112.819C141.411 112.435 141.411 112.425 141.759 112.075C141.953 111.88 143.118 111.324 144.349 110.84C146.936 109.822 148.404 108.824 149.445 107.377C150.126 106.429 151.587 104.65 151.698 104.632C151.727 104.628 151.652 104.811 151.531 105.04ZM147.144 107.49C147.144 107.54 147.102 107.582 147.052 107.582C147.001 107.582 146.96 107.54 146.96 107.49C146.96 107.439 147.001 107.397 147.052 107.397C147.102 107.397 147.144 107.439 147.144 107.49ZM146.776 107.674C146.776 107.725 146.735 107.767 146.684 107.767C146.634 107.767 146.592 107.725 146.592 107.674C146.592 107.624 146.634 107.582 146.684 107.582C146.735 107.582 146.776 107.624 146.776 107.674ZM146.409 107.859C146.409 107.91 146.367 107.952 146.317 107.952C146.266 107.952 146.225 107.91 146.225 107.859C146.225 107.808 146.266 107.767 146.317 107.767C146.367 107.767 146.409 107.808 146.409 107.859ZM146.041 108.044C146.041 108.095 146 108.137 145.949 108.137C145.899 108.137 145.857 108.095 145.857 108.044C145.857 107.993 145.899 107.952 145.949 107.952C146 107.952 146.041 107.993 146.041 108.044ZM145.122 108.506C144.768 108.701 144.396 108.861 144.295 108.861C144.194 108.861 144.401 108.701 144.755 108.506C145.108 108.311 145.481 108.152 145.582 108.152C145.683 108.152 145.476 108.311 145.122 108.506ZM143.958 108.999C143.891 109.067 143.781 109.067 143.713 108.999C143.646 108.931 143.701 108.876 143.836 108.876C143.971 108.876 144.026 108.931 143.958 108.999ZM142.989 109.343C142.674 109.482 142.178 109.642 141.886 109.699C141.594 109.756 141.768 109.643 142.274 109.446C143.322 109.039 143.85 108.963 142.989 109.343ZM141.202 109.924C141.134 109.991 141.024 109.991 140.957 109.924C140.889 109.856 140.945 109.8 141.079 109.8C141.214 109.8 141.269 109.856 141.202 109.924ZM125.042 110.097C124.981 110.158 124.822 110.165 124.689 110.112C124.543 110.053 124.586 110.009 124.8 110C124.994 109.992 125.103 110.036 125.042 110.097ZM140.467 110.109C140.399 110.176 140.289 110.176 140.222 110.109C140.154 110.041 140.21 109.985 140.344 109.985C140.479 109.985 140.534 110.041 140.467 110.109ZM128.675 110.56C129.585 110.663 131.776 110.759 133.545 110.773C136.713 110.798 136.735 110.801 135.015 110.968C132.999 111.163 128.032 110.864 126.286 110.443L125.183 110.177L126.102 110.275C126.607 110.329 127.765 110.458 128.675 110.56ZM139.927 110.282C139.866 110.343 139.707 110.35 139.575 110.296C139.428 110.237 139.472 110.194 139.686 110.185C139.879 110.177 139.988 110.22 139.927 110.282ZM138.92 110.477C138.794 110.529 138.587 110.529 138.461 110.477C138.334 110.426 138.438 110.384 138.69 110.384C138.943 110.384 139.046 110.426 138.92 110.477ZM137.725 110.667C137.549 110.714 137.259 110.714 137.082 110.667C136.906 110.621 137.05 110.583 137.404 110.583C137.758 110.583 137.902 110.621 137.725 110.667ZM88.0481 112.1C87.9525 112.484 88.3316 113.963 88.9983 115.809C89.0718 116.012 88.5812 115.413 87.9078 114.477C87.2345 113.542 86.6836 112.613 86.6836 112.413C86.6836 112.185 86.8718 111.981 87.1889 111.864C88.0183 111.559 88.1725 111.602 88.0481 112.1ZM145.474 111.896C145.432 111.93 144.902 112.236 144.295 112.575C143.446 113.051 143.27 113.104 143.528 112.807C143.895 112.385 144.878 111.845 145.291 111.838C145.434 111.836 145.517 111.862 145.474 111.896ZM149.165 112.762C150.474 113.43 153.405 115.903 154.992 117.679C156.451 119.31 157.549 120.84 157.382 121.007C157.318 121.072 156.894 121.031 156.441 120.916C155.245 120.613 154.862 120.647 154.862 121.055C154.862 121.245 154.738 121.505 154.586 121.632C153.873 122.228 154.727 124.318 156.01 125.115C156.779 125.594 157.2 125.617 157.65 125.208C158.144 124.758 158.063 124.188 157.355 123.129C157.008 122.611 156.805 122.186 156.903 122.186C157.216 122.186 158.434 122.874 158.757 123.233C159.245 123.776 159.815 125.176 159.82 125.844C159.83 127.368 158.946 128.287 157.469 128.287C155.81 128.287 154.806 127.228 152.472 123.018C149.747 118.103 148.625 116.883 144.832 114.709L143.495 113.942L145.181 112.919C147.088 111.763 147.2 111.758 149.165 112.762ZM89.9313 113.061C91.6674 114.379 92.7904 115.416 93.8824 116.713C95.8491 119.047 99.0406 122.196 100.951 123.687C103.893 125.983 104.331 126.656 103.69 127.903C103.07 129.109 100.516 130.937 98.343 131.731C96.1514 132.531 94.4726 132.22 93.4707 130.829C92.5614 129.566 92.6182 127.872 93.6065 126.773C93.8851 126.463 93.9261 126.469 94.4318 126.898C95.421 127.735 97.5752 127.773 98.3632 126.967C99.0856 126.228 99.1209 125.611 98.4777 124.964C97.8018 124.284 97.0031 124.237 95.5045 124.789C94.9486 124.994 94.3539 125.208 94.1828 125.264C93.9367 125.345 93.6808 124.968 92.9551 123.453C91.6001 120.625 88.705 113.139 88.705 112.464C88.705 112.248 89.1358 112.458 89.9313 113.061ZM122.469 115.516C123.173 116.03 125.065 118.762 124.859 118.969C124.807 119.022 124.403 118.634 123.963 118.106C122.947 116.889 121.672 115.901 121.118 115.901C120.356 115.901 120.095 116.595 120.162 118.446L120.221 120.091L119.375 120.008C118.328 119.907 117.877 120.138 117.48 120.978C117.311 121.338 117.131 121.632 117.081 121.632C117.031 121.632 116.767 121.467 116.493 121.265C116.219 121.063 115.729 120.845 115.405 120.781C114.91 120.683 114.725 120.755 114.256 121.226C113.923 121.562 113.698 121.981 113.698 122.265C113.698 122.682 113.621 122.741 113.079 122.741C112.739 122.741 112.255 122.904 112.003 123.103L111.546 123.465L111.034 122.927C110.007 121.848 108.69 121.522 108.084 122.196C106.764 123.663 109.459 130.347 112.577 133.338C113.996 134.7 115.056 135.353 118.871 137.215C122.483 138.978 123.356 139.674 125.296 142.337C126.774 144.367 126.756 144.367 124.783 142.321C122.708 140.17 120.784 138.817 118.384 137.821C113.985 135.995 112.797 135.116 110.93 132.307C108.803 129.109 107.284 125.466 107.128 123.193C107.013 121.528 107.42 120.651 108.783 119.618C111.433 117.611 118.076 115.009 120.607 114.986C121.563 114.978 121.838 115.056 122.469 115.516ZM122.979 118.166C125.804 121.092 126.303 121.809 126.91 123.804C127.723 126.479 127.879 127.62 128.018 131.892C128.138 135.597 128.166 135.816 128.625 136.699C128.889 137.207 129.782 138.33 130.609 139.194C131.968 140.614 135.251 144.75 135.122 144.879C135.093 144.908 134.83 144.806 134.537 144.652C132.677 143.677 130.449 145.212 130.019 147.765C129.981 147.992 129.518 147.401 128.646 146.008C126.487 142.562 125.101 140.721 123.61 139.319C122.193 137.987 121.657 137.665 117.832 135.852C115.387 134.692 114.116 133.842 112.779 132.471C110.754 130.396 108.785 126.402 108.599 123.993C108.521 122.981 108.556 122.728 108.787 122.639C109.171 122.491 109.985 122.944 110.724 123.718C111.266 124.285 111.343 124.496 111.414 125.601C111.566 127.995 112.481 131.177 113.299 132.163C113.724 132.675 113.896 132.76 114.298 132.659C114.676 132.563 114.812 132.387 114.909 131.869C115.145 130.599 114.011 127.131 112.576 124.738C112.229 124.159 112.204 124.009 112.411 123.758C112.549 123.591 112.86 123.486 113.126 123.517C113.529 123.565 113.618 123.694 113.738 124.404C113.975 125.81 114.828 128.217 115.622 129.72C116.265 130.935 116.459 131.162 116.902 131.214C117.566 131.291 117.735 131.016 117.735 129.858C117.735 127.606 116.621 124.872 115.222 123.696C114.343 122.957 114.188 122.282 114.774 121.749C115.176 121.382 115.539 121.481 116.474 122.212C117.086 122.691 117.147 122.828 117.264 123.984C117.517 126.504 118.331 129.16 119.15 130.139C119.757 130.865 120.504 130.882 121.053 130.182C121.914 129.085 121.173 126.784 119.043 123.943C118.433 123.129 117.932 122.314 117.929 122.131C117.927 121.948 118.051 121.553 118.205 121.253C118.434 120.808 118.602 120.708 119.124 120.708C119.855 120.708 120.497 121.237 120.497 121.84C120.497 122.686 121.305 125.673 121.868 126.911C122.457 128.205 123.205 129.027 123.793 129.027C125.457 129.027 124.193 124.335 121.73 121.37C120.993 120.483 120.973 120.423 120.898 118.835C120.815 117.104 120.895 116.64 121.272 116.64C121.402 116.64 122.17 117.327 122.979 118.166ZM101.319 118.569C100.373 120.02 100.914 121.621 103.184 124.086C104.666 125.695 105.044 126.435 104.823 127.298C104.773 127.493 104.726 127.379 104.714 127.03C104.672 125.827 104.121 125.174 101.293 122.98C99.8354 121.849 96.7765 119.046 96.9982 119.044C97.0616 119.044 97.4104 119.169 97.7733 119.321C99.0079 119.84 100.072 119.602 101.004 118.599C101.563 117.997 101.7 117.984 101.319 118.569ZM92.7489 126.651C92.4451 127.073 92.1967 127.567 92.1967 127.749C92.1967 127.931 92.123 128.126 92.0329 128.182C91.7565 128.354 90.8732 123.208 91.0154 122.255L91.1396 121.422L92.2204 123.653L93.3011 125.885L92.7489 126.651ZM122.003 122.972C122.849 124.256 123.656 126.308 123.766 127.455L123.855 128.38L123.443 128.01C122.648 127.298 122.027 125.676 121.336 122.51C121.275 122.23 121.256 122.002 121.294 122.002C121.333 122.002 121.652 122.438 122.003 122.972ZM156.285 122.926C157.31 124.044 157.465 125.101 156.53 124.597C156.035 124.331 155.046 122.973 155.046 122.559C155.046 121.852 155.394 121.955 156.285 122.926ZM119.13 125.345C120.527 127.459 121.038 129.238 120.402 129.769C119.672 130.378 118.709 128.208 118.038 124.442C117.892 123.619 118.105 123.795 119.13 125.345ZM115.968 125.867C116.702 127.224 117.384 130.763 116.847 130.429C116.415 130.16 114.855 126.243 114.522 124.59L114.392 123.943L114.942 124.465C115.244 124.752 115.706 125.383 115.968 125.867ZM97.972 125.434C98.3158 125.78 98.1057 126.311 97.4949 126.64C96.9507 126.933 95.3955 126.749 94.9444 126.338C94.5956 126.02 94.5923 125.987 94.8931 125.818C95.4049 125.53 96.6547 125.17 97.1913 125.157C97.462 125.15 97.8132 125.275 97.972 125.434ZM112.986 127.132C113.539 128.363 114.249 130.797 114.249 131.459C114.249 132.033 113.909 131.839 113.5 131.033C112.854 129.758 111.971 125.884 112.327 125.884C112.382 125.884 112.679 126.445 112.986 127.132ZM104.693 127.825C104.693 127.876 104.652 127.917 104.601 127.917C104.551 127.917 104.509 127.876 104.509 127.825C104.509 127.774 104.551 127.732 104.601 127.732C104.652 127.732 104.693 127.774 104.693 127.825ZM104.325 128.564C104.325 128.615 104.284 128.657 104.234 128.657C104.183 128.657 104.142 128.615 104.142 128.564C104.142 128.514 104.183 128.472 104.234 128.472C104.284 128.472 104.325 128.514 104.325 128.564ZM102.709 130.314C101.987 130.991 100.965 131.692 99.9958 132.175C98.5854 132.878 98.2904 132.956 96.8346 133.009L95.2288 133.068L96.5152 132.92C98.6128 132.678 100.675 131.734 102.594 130.137C103.193 129.639 103.724 129.231 103.774 129.23C103.825 129.229 103.345 129.716 102.709 130.314ZM134.447 145.496C136.421 146.706 137.268 147.819 141.249 154.429C144.436 159.72 145.354 161.854 144.756 162.578C144.361 163.057 144.02 162.909 144.012 162.256C144.001 161.498 143.6 160.353 143.183 159.888C142.724 159.378 141.763 159.153 140.978 159.371C139.666 159.735 139.244 161.401 140.199 162.446C140.693 162.986 142.278 163.777 142.871 163.78C143.387 163.782 143.399 164.14 142.904 164.773C142.241 165.621 141.132 165.331 139.931 163.994C138.909 162.856 136.868 159.709 133.692 154.376L130.788 149.5L130.789 148.368C130.791 145.91 132.691 144.419 134.447 145.496ZM142.587 160.408C143.233 161.159 143.53 163.042 143.003 163.042C142.506 163.042 141.37 162.483 140.85 161.981C140.273 161.426 140.223 161.081 140.63 160.495C140.993 159.975 142.169 159.922 142.587 160.408Z" fill="#D64279"/>
</g>
</svg>
