<svg width="204" height="197" viewBox="0 0 204 197" fill="none" xmlns="http://www.w3.org/2000/svg">
<circle cx="121" cy="113" r="80" fill="#529FA6" fill-opacity="0.8"/>
<path d="M16.0412 84.5892C16.2099 84.6291 16.4468 84.6989 16.7521 84.7986L14.8221 92.9533C15.6214 92.9917 16.3187 92.7663 16.9141 92.2769C17.4996 91.7715 17.8983 91.0711 18.1101 90.1759C18.3804 89.0341 18.2267 88.0044 17.6492 87.0867L19.4564 86.1374C19.9038 86.7365 20.1858 87.4267 20.3023 88.2079C20.4189 88.989 20.3712 89.8273 20.1593 90.7225C19.8891 91.8643 19.4241 92.8161 18.7642 93.578C18.1043 94.3398 17.3154 94.8656 16.3973 95.1553C15.4693 95.4289 14.4928 95.4444 13.4678 95.2018C12.4558 94.9623 11.6013 94.5203 10.9043 93.8758C10.1974 93.2152 9.71367 92.4225 9.45301 91.4976C9.19235 90.5727 9.18331 89.5977 9.42591 88.5727C9.66543 87.5607 10.1059 86.7127 10.7473 86.0287C11.3789 85.3286 12.1556 84.8548 13.0774 84.6071C13.9893 84.3434 14.9772 84.3374 16.0412 84.5892ZM11.3721 89.0333C11.1879 89.8118 11.2648 90.5288 11.603 91.1843C11.9312 91.8238 12.4642 92.2925 13.2021 92.5904L14.5978 86.6933C13.8207 86.619 13.1356 86.7926 12.5426 87.214C11.9496 87.6354 11.5595 88.2419 11.3721 89.0333Z" fill="#343434"/>
<path d="M13.1637 76.4107C13.7352 74.9449 14.5252 73.9649 15.5336 73.4708C16.5344 72.9594 17.7428 72.9797 19.159 73.5319L24.9914 75.8059L24.1341 78.0047L22.9229 77.5324C23.2463 77.9877 23.4219 78.5284 23.4496 79.1546C23.4698 79.7635 23.3346 80.4406 23.044 81.186C22.7534 81.9313 22.3749 82.5351 21.9085 82.9972C21.4297 83.4545 20.9061 83.7513 20.3378 83.8875C19.7619 84.0064 19.1883 83.9545 18.6168 83.7317C17.7224 83.383 17.1365 82.7753 16.859 81.9086C16.574 81.0247 16.7099 79.8684 17.2669 78.4398L18.2695 75.8684L18.1204 75.8103C17.4248 75.539 16.8083 75.542 16.2709 75.819C15.7384 76.0837 15.3123 76.6259 14.9927 77.4458C14.7747 78.0048 14.6461 78.5915 14.6069 79.2059C14.5726 79.8079 14.638 80.3558 14.8033 80.8495L12.7516 81.1015C12.5575 80.4247 12.4978 79.6787 12.5724 78.8635C12.6469 78.0482 12.8441 77.2306 13.1637 76.4107ZM21.5372 80.0404C21.7649 79.4565 21.8354 78.8901 21.7489 78.3412C21.6548 77.775 21.3957 77.3019 20.9714 76.9218L19.8161 76.4714L18.8789 78.8751C18.3558 80.2168 18.5353 81.0595 19.4173 81.4034C19.8396 81.5681 20.2404 81.5312 20.6197 81.2926C20.9989 81.0541 21.3047 80.6367 21.5372 80.0404Z" fill="#343434"/>
<path d="M19.4945 66.3905C18.8387 65.2318 18.933 63.85 19.7776 62.2454L21.8837 63.3538C21.7489 63.524 21.6412 63.6858 21.5605 63.8391C21.1072 64.7005 21.0069 65.5065 21.2596 66.2573C21.5006 67.0019 22.093 67.6225 23.0369 68.1193L27.6208 70.5318L26.4565 72.7442L17.0055 67.7701L18.114 65.664L19.4945 66.3905Z" fill="#343434"/>
<path d="M24.1823 58.3135C23.6373 57.0987 23.86 55.7318 24.8504 54.2128L26.8441 55.5126C26.6941 55.6694 26.5717 55.8205 26.477 55.9657C25.9455 56.781 25.7705 57.5742 25.9522 58.3453C26.1228 59.1091 26.6548 59.7822 27.5484 60.3648L31.8876 63.1938L30.5223 65.288L21.5757 59.4552L22.8755 57.4615L24.1823 58.3135Z" fill="#343434"/>
<path d="M26.6057 52.0571L28.1258 50.0723L36.6047 56.5662L35.0846 58.551L26.6057 52.0571ZM25.9745 49.9866C25.6989 50.3465 25.3567 50.5631 24.9479 50.6363C24.5286 50.7014 24.1495 50.6042 23.8108 50.3448C23.4721 50.0854 23.2848 49.7488 23.2489 49.3351C23.2025 48.9133 23.3172 48.5224 23.5928 48.1625C23.8684 47.8026 24.2106 47.586 24.6194 47.5128C25.0176 47.4315 25.3807 47.5165 25.7089 47.7678C26.0582 48.0354 26.2614 48.3841 26.3184 48.814C26.3729 49.2253 26.2583 49.6161 25.9745 49.9866Z" fill="#343434"/>
<path d="M34.7666 42.2533C35.6949 41.2776 36.7242 40.7663 37.8548 40.7193C38.9853 40.6722 40.1109 41.1818 41.2315 42.2479L45.6654 46.4662L43.9422 48.2775L39.7401 44.2797C39.0639 43.6363 38.4051 43.3132 37.7637 43.3103C37.1127 43.2983 36.5069 43.5869 35.9462 44.1761C35.3121 44.8427 35.0141 45.5621 35.0522 46.3345C35.0806 47.0977 35.4716 47.8377 36.2251 48.5546L40.1374 52.2767L38.4142 54.0879L30.6765 46.7264L32.317 45.0021L33.3168 45.9534C33.2443 45.3138 33.3323 44.6798 33.5807 44.0511C33.8291 43.4225 34.2244 42.8232 34.7666 42.2533Z" fill="#343434"/>
<path d="M48.7477 30.215L54.3605 37.3269C56.6899 40.2785 56.3474 42.9437 53.3331 45.3226C52.5272 45.9587 51.6805 46.457 50.7931 46.8176C49.914 47.1887 49.0861 47.3665 48.3095 47.351L48.024 45.1813C48.6299 45.1957 49.2804 45.073 49.9755 44.8132C50.6894 44.5555 51.3342 44.1995 51.9098 43.7452C52.8309 43.0183 53.3407 42.2762 53.4395 41.5189C53.5382 40.7615 53.2489 39.9538 52.5715 39.0955L52.2246 38.6559C52.1788 39.2866 51.9895 39.8861 51.6567 40.4544C51.3239 41.0228 50.8697 41.5341 50.2941 41.9885C49.4986 42.6162 48.6443 43.0187 47.731 43.1959C46.82 43.3544 45.9324 43.2736 45.0682 42.9534C44.2146 42.625 43.4738 42.0631 42.8461 41.2676C42.2183 40.4722 41.848 39.6264 41.7352 38.7302C41.6247 37.8153 41.7565 36.9385 42.1306 36.0997C42.5152 35.2526 43.1052 34.5152 43.9006 33.8874C44.5077 33.4083 45.1357 33.0741 45.7845 32.8847C46.4439 32.6871 47.1021 32.6602 47.7591 32.8041L46.8794 31.6894L48.7477 30.215ZM49.279 40.0889C50.0221 39.5024 50.4557 38.8035 50.5797 37.9922C50.706 37.1622 50.4883 36.3913 49.9266 35.6796C49.3732 34.9783 48.6823 34.5979 47.8539 34.5383C47.036 34.4704 46.2554 34.7297 45.5123 35.3162C44.7587 35.9109 44.3147 36.6181 44.1801 37.4376C44.0561 38.2489 44.2708 39.0052 44.8242 39.7065C45.3859 40.4182 46.0798 40.8132 46.906 40.8916C47.7344 40.9512 48.5254 40.6836 49.279 40.0889Z" fill="#343434"/>
<path d="M69.0754 18.7444C70.2928 18.1686 71.4252 18.068 72.4727 18.4428C73.5145 18.8055 74.3689 19.6919 75.036 21.1021L77.6529 26.6344L75.393 27.7034L72.9129 22.4604C72.5138 21.6167 72.0277 21.0722 71.4545 20.8271C70.8756 20.57 70.2366 20.6067 69.5375 20.9374C68.7782 21.2966 68.2893 21.8376 68.0707 22.5605C67.8464 23.2713 67.9538 24.0908 68.3928 25.0188L70.7104 29.9183L68.4505 30.9873L65.9704 25.7443C65.5713 24.9006 65.0852 24.3562 64.512 24.1111C63.9331 23.8539 63.2941 23.8907 62.5951 24.2214C61.8237 24.5862 61.3258 25.1241 61.1016 25.8349C60.8894 26.54 61.0056 27.3627 61.4503 28.3028L63.7679 33.2023L61.508 34.2713L56.9412 24.6169L59.0927 23.5992L59.6742 24.8286C59.8306 24.2237 60.1258 23.6784 60.5598 23.1928C60.9939 22.7073 61.5424 22.3077 62.2053 21.9941C62.9284 21.6521 63.6328 21.4885 64.3184 21.5035C65.0103 21.5007 65.6444 21.6875 66.2207 22.0639C66.379 21.3695 66.7059 20.7355 67.2016 20.1618C67.6915 19.576 68.3161 19.1036 69.0754 18.7444Z" fill="#343434"/>
<path d="M80.8151 14.454C82.319 13.9916 83.5776 14.0022 84.5912 14.4856C85.6135 14.9525 86.348 15.9123 86.7948 17.3652L88.6346 23.3487L86.3788 24.0423L85.9967 22.7997C85.8408 23.3359 85.526 23.8093 85.0524 24.22C84.5877 24.614 83.973 24.9285 83.2083 25.1636C82.4437 25.3987 81.7354 25.477 81.0835 25.3985C80.4277 25.3072 79.87 25.0811 79.4103 24.7203C78.9595 24.3428 78.6439 23.8609 78.4636 23.2747C78.1815 22.3571 78.2939 21.5204 78.8009 20.7647C79.3166 19.9923 80.3073 19.3808 81.773 18.9302L84.4111 18.119L84.364 17.9661C84.1446 17.2524 83.7594 16.771 83.2086 16.5219C82.6704 16.2689 81.9808 16.2717 81.1397 16.5303C80.5662 16.7067 80.0265 16.9703 79.5206 17.3211C79.0274 17.668 78.6387 18.0596 78.3543 18.4958L76.8827 17.0442C77.2925 16.4717 77.8401 15.9616 78.5254 15.5138C79.2107 15.0659 79.974 14.7127 80.8151 14.454ZM83.1705 23.2712C83.7695 23.087 84.2572 22.7906 84.6337 22.3819C85.0191 21.9565 85.2289 21.4595 85.2634 20.891L84.8989 19.7057L82.4329 20.464C81.0565 20.8872 80.5074 21.5512 80.7856 22.4561C80.9188 22.8894 81.1967 23.1806 81.6192 23.3297C82.0416 23.4788 82.5587 23.4593 83.1705 23.2712Z" fill="#343434"/>
<path d="M95.7843 16.973L94.3069 19.0645L94.8617 21.8294L92.4106 22.3212L89.4911 7.77127L91.9422 7.27943L93.7049 16.0643L97.8394 10.3391L100.781 9.74885L97.2893 15.0187L103.294 20.1375L100.313 20.7356L95.7843 16.973Z" fill="#343434"/>
<path d="M113.853 13.7919C113.869 13.9644 113.88 14.2113 113.884 14.5323L105.542 15.3307C105.763 16.0998 106.201 16.6874 106.856 17.0935C107.523 17.4851 108.314 17.6371 109.23 17.5494C110.398 17.4376 111.323 16.9606 112.006 16.1184L113.487 17.5238C113.064 18.1402 112.501 18.6294 111.799 18.9912C111.097 19.3531 110.288 19.5778 109.372 19.6655C108.204 19.7773 107.153 19.6434 106.219 19.264C105.286 18.8846 104.534 18.3069 103.964 17.531C103.406 16.7405 103.077 15.821 102.977 14.7725C102.878 13.7372 103.021 12.7859 103.407 11.9185C103.805 11.0366 104.399 10.3234 105.191 9.77883C105.983 9.23426 106.903 8.9118 107.952 8.81145C108.987 8.71237 109.932 8.85636 110.786 9.24342C111.652 9.61594 112.35 10.1987 112.882 10.9917C113.425 11.7701 113.749 12.7035 113.853 13.7919ZM108.142 10.8024C107.346 10.8786 106.692 11.1823 106.18 11.7134C105.68 12.2301 105.408 12.8856 105.364 13.6801L111.396 13.1028C111.216 12.3432 110.831 11.7505 110.241 11.3247C109.652 10.899 108.952 10.7249 108.142 10.8024Z" fill="#343434"/>
<path d="M119.342 9.88C120.062 8.76 121.329 8.2 123.142 8.2L123.142 10.58C122.929 10.54 122.736 10.52 122.562 10.52C121.589 10.52 120.829 10.8067 120.282 11.38C119.736 11.94 119.462 12.7533 119.462 13.82L119.462 19L116.962 19L116.962 8.32L119.342 8.32L119.342 9.88Z" fill="#343434"/>
<path d="M142.279 9.34146L140.943 10.2433L143.914 14.6474L130.942 12.1282L130.636 13.7063L143.608 16.2255L139.204 19.1971L140.106 20.5337L146.788 16.0244L142.279 9.34146Z" fill="#343434" stroke="#343434" stroke-width="0.3"/>
<circle cx="113" cy="117" r="79.75" fill="white" fill-opacity="0.85" stroke="#529FA6" stroke-width="0.5"/>
<mask id="mask0" style="mask-type:alpha" maskUnits="userSpaceOnUse" x="33" y="37" width="160" height="160">
<circle cx="113" cy="117" r="79.5" fill="#529FA6" fill-opacity="0.8" stroke="#529FA6"/>
</mask>
<g mask="url(#mask0)">
<path fill-rule="evenodd" clip-rule="evenodd" d="M134.311 104.587C131.727 104.322 128.647 105.109 127.21 106.403C126.692 106.87 126.496 107.189 126.054 108.295C125.542 109.576 125.514 109.616 125.296 109.356C125.172 109.209 124.367 108.754 123.508 108.347C122.18 107.717 121.813 107.47 121.054 106.698C120.256 105.884 120.056 105.756 119.142 105.464C117.26 104.864 115.438 105.544 114.671 107.133C114.35 107.797 114.274 108.207 114.256 109.37C114.235 110.74 114.2 110.881 113.353 113.056C112.529 115.172 112.472 115.397 112.461 116.554C112.439 118.812 113.326 121.77 114.704 124.039C115.299 125.018 115.763 125.065 115.504 124.119C115.26 123.228 115.567 121.152 116.217 119.304C117.212 116.47 118.403 114.91 120.032 114.307C120.966 113.962 121.553 114.126 121.82 114.807C122.089 115.492 121.738 116.175 120.348 117.675C117.393 120.865 116.497 122.197 116.207 123.832C116.003 124.984 116.26 126.443 116.821 127.322C117.321 128.102 120.74 131.056 121.023 130.951C121.117 130.916 121.093 130.556 120.971 130.151C120.44 128.403 120.728 125.559 121.681 123.129C122.15 121.933 122.389 121.5 122.771 121.146C124.072 119.942 125.163 121.2 124.472 123.107C124.318 123.532 123.599 125.201 122.875 126.816C121.207 130.536 121.111 131.028 121.759 132.539C122.122 133.384 122.382 133.734 123.058 134.28C123.937 134.991 126.117 136.198 127.568 136.778C128.929 137.322 129.995 138.291 130.591 139.525C130.873 140.108 131.134 140.533 131.171 140.469C131.208 140.405 131.591 139.494 132.022 138.445L132.806 136.537L134.99 134.64C136.598 133.242 137.226 132.782 137.376 132.892C137.522 133 137.696 132.886 137.997 132.483C138.226 132.176 138.828 131.38 139.334 130.714C141.023 128.493 141.328 127.088 140.527 125.221C139.799 123.523 138.773 122.559 135.629 120.617C133.561 119.341 132.734 118.699 132.563 118.236C132.434 117.891 132.448 117.86 132.782 117.736C133.339 117.529 134.708 117.829 135.805 118.398C138.829 119.967 140.461 122.565 141.201 126.987C141.254 127.307 141.279 127.306 141.582 126.984C142.035 126.5 142.981 124.062 143.29 122.577C143.696 120.634 143.635 119.254 143.08 117.772C142.958 117.445 142.902 116.745 142.956 116.216C143.095 114.877 142.919 113.144 142.512 111.847C141.863 109.772 140.232 107.364 138.703 106.225C137.741 105.507 135.639 104.724 134.311 104.587ZM138.718 106.834C140.246 108.069 141.641 110.288 142.188 112.351C142.437 113.291 142.712 115.762 142.599 116.045C142.582 116.087 142.183 115.659 141.712 115.095C141.241 114.531 140.549 113.841 140.175 113.562C138.876 112.594 135.808 111.632 134.672 111.837C134.447 111.877 134.245 112.059 134.144 112.311C133.82 113.122 134.997 113.835 137.924 114.599C141.932 115.645 143.464 117.705 143.036 121.473C142.936 122.356 141.704 126.267 141.6 126.032C141.575 125.976 141.355 125.26 141.111 124.441C140.622 122.796 139.468 120.763 138.434 119.727C137.375 118.666 135.698 117.687 134.44 117.397C132.893 117.04 132.186 117.242 132.074 118.072C131.996 118.645 132.893 119.438 135.413 121.026C138.265 122.823 138.792 123.249 139.582 124.4C141.088 126.592 140.798 128.295 138.422 131.211L137.826 131.942L137.803 130.55C137.76 128.043 137.142 125.767 136.212 124.694C135.641 124.034 134.475 123.432 133.892 123.495C132.833 123.61 132.499 124.635 133.194 125.638C133.412 125.954 134.28 126.897 135.121 127.735C137.006 129.612 137.443 130.323 137.334 131.335L137.253 132.081L134.814 134.217L132.374 136.354L131.741 137.939L131.107 139.525L130.879 139.039C130.308 137.822 129.223 137.002 126.605 135.812C123.801 134.537 122.526 133.513 122.043 132.15C121.59 130.87 121.85 129.944 123.963 125.298C125.094 122.811 125.195 122.525 125.157 121.919C125.04 120.071 123.31 119.64 122.159 121.173C121.16 122.502 120.103 126.629 120.273 128.537L120.336 129.251L120.125 128.83C119.51 127.6 119.129 124.81 119.413 123.606C119.756 122.148 121.703 119.937 123.591 118.861C125.198 117.945 127.26 118.128 127.859 119.24C128 119.501 128.362 121.141 128.663 122.885C129.586 128.232 130.348 132.011 130.538 132.187C131.278 132.871 131.714 130.106 131.284 127.457C130.94 125.338 130.579 124.176 129.464 121.595C128.922 120.341 128.493 119.279 128.51 119.235C128.556 119.121 129.386 119.757 130.253 120.568C131.317 121.564 132.159 122.024 132.584 121.841C132.769 121.762 132.945 121.637 132.974 121.565C133.142 121.144 131.563 119.955 129.39 118.867L128.245 118.293L127.592 116.513C127.232 115.533 126.972 114.646 127.015 114.54C127.095 114.34 128.015 114.264 129.717 114.317C130.57 114.344 131.022 114.471 132.807 115.184C134.641 115.917 134.931 115.996 135.162 115.83C135.353 115.692 135.409 115.553 135.367 115.322C135.267 114.776 133.681 114.185 130.925 113.667C128.036 113.125 127.077 112.781 126.757 112.174L126.53 111.744L127.424 111.406C129.366 110.67 130.954 110.341 132.112 110.434C134.228 110.604 134.646 110.59 134.85 110.342C135.168 109.954 135.037 109.752 134.264 109.443C132.655 108.8 130.623 109.058 127.854 110.256L126.084 111.022L126.062 110.179C126.022 108.641 126.849 107.078 128.131 106.269C129.499 105.407 132.512 104.814 134.401 105.037C135.675 105.187 137.748 106.049 138.718 106.834ZM134.343 110.023C134.27 110.11 133.636 110.123 132.933 110.052C131.249 109.882 130.505 109.948 129.006 110.401C128.154 110.659 127.957 110.683 128.385 110.479C129.225 110.078 131.143 109.559 131.882 109.534C132.381 109.517 133.892 109.697 134.349 109.829C134.419 109.849 134.416 109.936 134.343 110.023ZM140.217 114.202C141.096 114.94 141.979 115.971 141.424 115.611C140.33 114.901 139.502 114.564 137.639 114.069C135.919 113.612 135.497 113.453 135.091 113.11C134.45 112.568 134.493 112.285 135.221 112.274C136.733 112.25 138.878 113.078 140.217 114.202ZM120.805 107.102C121.409 107.767 121.765 108.01 122.934 108.559C124.695 109.387 125.22 109.764 125.46 110.376L125.651 110.861L125.171 110.439C124.522 109.866 122.771 109.176 121.584 109.024C119.043 108.701 117.333 109.376 116.047 111.21C115.569 111.892 115.453 112.547 115.787 112.68C116.092 112.802 116.818 112.279 117.447 111.485C117.816 111.018 118.316 110.566 118.563 110.476C119.225 110.235 121.822 110.084 122.908 110.224C123.467 110.296 124.084 110.479 124.415 110.671C125.162 111.106 125.916 112.079 125.975 112.684C126.001 112.954 126.15 113.604 126.306 114.129C126.462 114.653 126.613 115.323 126.641 115.617C126.67 115.911 126.804 116.548 126.939 117.032C127.074 117.516 127.174 117.938 127.162 117.968C127.15 117.998 126.895 117.975 126.597 117.916C125.175 117.636 124.055 117.931 122.563 118.981C120.622 120.347 119.319 122.069 118.99 123.707C118.754 124.878 118.974 126.98 119.479 128.373C119.702 128.988 119.818 129.465 119.736 129.433C119.244 129.236 117.535 127.619 117.133 126.97C116.128 125.349 116.454 123.092 117.983 121.072C118.4 120.522 119.416 119.345 120.241 118.457C121.067 117.57 121.915 116.514 122.126 116.111C122.491 115.416 122.495 115.343 122.201 114.66C121.855 113.852 121.436 113.602 120.571 113.686C118.937 113.845 117.099 115.725 116.076 118.284C115.486 119.762 114.984 121.902 114.999 122.88C115.009 123.49 115.001 123.505 114.795 123.261C114.678 123.121 114.26 122.202 113.867 121.219C113.072 119.232 112.788 117.376 113.008 115.616C113.111 114.791 113.29 114.249 113.86 113.034C114.581 111.499 114.582 111.494 114.677 109.515C114.768 107.61 114.79 107.509 115.232 106.932C115.781 106.214 117.079 105.601 117.92 105.662C119.028 105.741 120.019 106.236 120.805 107.102ZM120.577 109.767C119.526 109.843 118.449 110.01 118.183 110.138C117.918 110.266 117.449 110.711 117.141 111.128C116.834 111.544 116.437 111.981 116.259 112.097L115.936 112.309L116.056 112.009C116.259 111.5 117.116 110.512 117.711 110.1C118.462 109.579 119.608 109.333 120.951 109.402C122.739 109.495 122.611 109.619 120.577 109.767ZM134.769 115.143C135.18 115.524 134.824 115.568 133.999 115.239C132.837 114.774 132.457 114.404 133.382 114.638C134.44 114.906 134.559 114.949 134.769 115.143ZM128.226 113.88C126.714 113.901 126.668 113.886 126.528 113.312L126.402 112.792L127.748 113.33L129.094 113.868L128.226 113.88ZM131.41 120.544C132.425 121.238 132.795 121.67 132.158 121.415C131.76 121.256 130.078 119.951 130.124 119.837C130.168 119.727 130.409 119.859 131.41 120.544ZM129.54 122.856C130.749 125.909 131.251 128.825 130.921 130.878C130.866 131.222 130.799 131.494 130.773 131.484C130.715 131.46 130.243 129.126 129.633 125.842C129.058 122.749 128.887 121.625 128.996 121.669C129.044 121.688 129.289 122.222 129.54 122.856ZM135.662 124.742C136.262 125.332 136.877 126.722 137.122 128.05C137.24 128.688 137.323 129.245 137.306 129.288C137.288 129.332 137.016 129.074 136.701 128.716C136.386 128.358 135.699 127.658 135.173 127.161C133.846 125.906 133.357 125.263 133.303 124.702C133.26 124.265 133.294 124.204 133.666 124.044C134.16 123.833 135.054 124.145 135.662 124.742Z" fill="#529FA6"/>
<path fill-rule="evenodd" clip-rule="evenodd" d="M92.5123 119.853L91.9532 120.877L89.1746 122.817C86.2197 124.88 85.9605 125.126 85.05 126.72C84.4878 127.704 84.1054 129.731 84.2496 130.962C84.4223 132.436 85.0486 134.181 85.3365 133.991C85.3993 133.95 85.548 133.363 85.6669 132.688C85.9156 131.275 86.3855 130.114 87.0642 129.236C88.3162 127.616 92.8164 125.522 93.3412 126.315C93.6446 126.775 92.6487 127.756 89.2574 130.34C87.4156 131.743 86.1163 133.016 85.6207 133.904C85.4763 134.162 85.2437 134.857 85.104 135.447C84.7005 137.152 85.0975 138.681 86.4957 140.805C87.1286 141.768 87.1884 141.927 87.1803 142.633C87.1591 144.472 87.985 146.556 89.3358 148.072C89.8031 148.597 90.3925 149.165 90.6453 149.335C90.8982 149.505 91.2019 149.79 91.3201 149.969C91.6749 150.505 93.1903 151.757 94.264 152.4C95.8554 153.354 96.3817 153.353 95.7528 152.399C95.2104 151.576 94.5241 149.609 94.3539 148.391C94.1048 146.608 94.8047 143.639 95.9045 141.812C96.4726 140.869 96.9164 140.507 97.3884 140.604C98.2623 140.782 98.3495 142.014 97.6435 144.209C96.7107 147.108 96.3884 149.089 96.5681 150.819C96.7589 152.653 97.2027 153.031 98.9266 152.825C100.305 152.66 101.453 152.909 102.118 153.516C102.575 153.934 102.658 154.073 102.659 154.424C102.662 154.945 102.778 155.127 103.011 154.972C103.111 154.906 103.16 154.559 103.119 154.2C103.018 153.304 103.424 151.041 103.806 150.365C104.09 149.863 104.336 149.671 106.318 148.405C108.453 147.04 108.529 146.979 108.983 146.238C109.611 145.212 109.813 144.449 109.693 143.553C109.549 142.478 108.645 141.209 105.993 138.358C102.901 135.033 102.25 133.935 103.055 133.402C103.7 132.976 104.823 133.626 106.138 135.185C107.243 136.495 108.606 138.949 109.68 141.559C110.072 142.514 110.42 143.336 110.454 143.387C110.586 143.59 110.709 143.305 110.977 142.176C111.273 140.924 111.702 139.848 112.372 138.675C113.146 137.318 113.164 136.019 112.424 134.89C112.022 134.277 111.378 133.679 108.61 131.348C106.868 129.881 106.17 129.094 106.117 128.536C106.035 127.669 106.465 127.201 107.283 127.269C108.7 127.386 110.239 129.041 111.921 132.258C112.499 133.364 112.774 134.082 113.298 135.857C113.465 136.426 113.7 135.816 114.118 133.726C114.646 131.078 114.849 128.953 114.681 127.803C114.601 127.254 114.329 126.495 113.923 125.688C112.622 123.102 112.691 123.355 112.928 122.033C113.188 120.579 113.135 119.932 112.7 119.275C112.298 118.666 111.845 118.361 110.875 118.043C109.98 117.751 109.279 117.304 108.962 116.825C108.62 116.308 107.347 115.63 106.562 115.547C105.63 115.449 104.545 115.758 103.847 116.322C102.642 117.297 101.784 119.517 101.78 121.671C101.778 122.322 101.717 122.581 101.58 122.511C101.471 122.455 100.731 121.856 99.9352 121.181C98.2525 119.752 97.6101 119.319 96.5211 118.879C95.1858 118.339 93.9374 118.237 93.3753 118.621C93.208 118.735 92.8197 119.29 92.5123 119.853ZM94.565 118.804C95.8505 118.832 97.657 119.767 99.4711 121.344L100.485 122.225L99.808 122.076C99.4355 121.995 98.8079 121.975 98.4133 122.032C96.7792 122.27 94.8845 123.176 94.8221 123.748C94.7784 124.149 95.126 124.225 96.0141 124.011C99.284 123.223 100.83 123.046 101.59 123.372C101.926 123.516 101.93 123.543 101.645 123.828C101.055 124.419 100.624 125.375 100.452 126.476L100.277 127.592L99.049 128.7C97.3921 130.196 95.7029 132.031 95.5949 132.452C95.4927 132.85 95.6673 133.179 96.0187 133.251C96.2092 133.29 96.0851 133.419 95.4601 133.832C93.9745 134.814 92.4688 136.791 91.6115 138.886C90.2391 142.24 89.8712 145.08 90.4741 147.669C90.5877 148.157 90.6714 148.63 90.66 148.719C90.6485 148.809 90.3035 148.522 89.8932 148.083C88.4794 146.569 87.5982 144.442 87.621 142.6C87.65 140.25 89.5325 137.077 93.4547 132.764C94.9033 131.172 95.3276 130.543 95.3154 130.009C95.2962 129.162 93.4569 129.733 91.5281 131.185C89.1392 132.982 87.6694 135.043 87.3381 137.06C87.2315 137.71 87.1565 138.846 87.1714 139.585L87.1986 140.929L86.6816 140.232C85.5858 138.755 85.1633 137.057 85.5111 135.527C85.8888 133.866 86.691 132.861 89.1857 130.924C93.3817 127.667 94.0504 127 93.8085 126.313C93.6338 125.816 93.317 125.696 92.4497 125.799C91.2233 125.945 89.7989 126.587 88.2315 127.7C86.9457 128.614 86.7914 128.767 86.2838 129.635C85.9808 130.153 85.6005 131.115 85.439 131.773C85.1586 132.916 85.1383 132.95 84.9926 132.541C84.4693 131.071 84.5572 128.838 85.1955 127.394C85.9121 125.773 86.3568 125.332 89.4818 123.148L92.3198 121.164L92.8196 120.184C93.4185 119.009 93.7023 118.785 94.565 118.804ZM105.527 116.036C106.31 115.918 107.413 116.122 107.948 116.484C108.166 116.631 108.569 117.009 108.843 117.323C109.344 117.897 109.579 118.03 111.109 118.607C112.6 119.17 112.944 120.124 112.448 122.323C112.246 123.215 112.319 123.459 113.49 125.798C114.214 127.245 114.403 128.183 114.28 129.717C114.178 130.973 113.598 134.555 113.484 134.631C113.439 134.66 113.287 134.343 113.146 133.927C112.721 132.677 111.197 130.032 110.202 128.816C108.91 127.239 107.599 126.558 106.557 126.925C106.023 127.113 105.603 127.892 105.694 128.529C105.831 129.498 106.298 130.011 109.227 132.412C111.298 134.11 112.261 135.18 112.495 136.038C112.683 136.731 112.409 137.778 111.704 139.058C111.397 139.617 111.002 140.562 110.828 141.157C110.654 141.752 110.492 142.233 110.468 142.227C110.444 142.22 110.159 141.596 109.834 140.839C107.537 135.494 104.822 132.312 103.079 132.925C102.597 133.094 102.272 133.663 102.326 134.243C102.382 134.848 103.681 136.544 105.911 138.922C109.129 142.355 109.734 143.593 109.021 145.29C108.558 146.394 107.965 146.936 105.771 148.26C103.98 149.341 103.858 149.437 103.489 150.058C103.275 150.419 102.99 151.284 102.855 151.981L102.611 153.247L101.91 152.842C101.168 152.413 99.9313 152.255 98.5893 152.418C97.733 152.522 97.5726 152.473 97.2636 152.011C96.9816 151.589 96.885 150.758 96.9642 149.435C97.0536 147.943 97.2678 146.901 97.9545 144.621C98.6645 142.263 98.7237 141.649 98.3191 140.856C98.068 140.364 97.9498 140.268 97.4765 140.172C97.0005 140.075 96.858 140.116 96.4246 140.478C95.5461 141.213 94.7367 142.851 94.191 145C93.6647 147.072 93.7665 148.586 94.5888 150.917L95.1443 152.492L94.3511 151.991C93.3806 151.379 91.9894 150.182 91.6612 149.677C90.8232 148.389 91.4238 145.69 93.3053 142.288C94.0542 140.933 94.633 140.023 96.0895 137.907C97.1981 136.297 97.5827 135.513 97.6813 134.662C97.773 133.87 97.4433 133.368 96.7964 133.315L96.3042 133.274L96.6747 133.029C96.8784 132.894 97.7148 131.903 98.5333 130.825C99.3519 129.748 100.059 128.874 100.105 128.883C100.151 128.892 100.172 129.616 100.151 130.49C100.095 132.834 100.12 135.816 100.206 136.934C100.248 137.474 100.25 138.665 100.21 139.58C100.096 142.215 100.102 145.013 100.224 145.95C100.421 147.471 101.184 149.28 101.623 149.266C102.036 149.254 102.099 148.541 101.848 146.685C101.701 145.597 101.394 143.344 101.167 141.68C100.557 137.215 100.589 135.884 101.429 130.782C101.79 128.585 101.903 128.173 102.103 128.316C102.235 128.41 103.048 129.293 103.91 130.277C106.694 133.456 108.273 135.095 108.62 135.166C108.92 135.228 108.953 135.203 109.02 134.876C109.081 134.574 108.947 134.302 108.168 133.15C106.751 131.052 104.084 128.279 102.695 127.46L102.06 127.085L102.206 125.455C102.37 123.606 102.4 123.572 104.033 123.336C104.982 123.199 105.732 123.402 107.225 124.201C107.793 124.505 108.602 124.864 109.022 125C110.384 125.439 110.462 124.889 109.17 123.954C107.874 123.015 106.703 122.434 105.662 122.214C104.566 121.982 103.897 122.07 102.903 122.575L102.196 122.934L102.202 121.866C102.218 118.712 103.577 116.33 105.527 116.036ZM96.9593 122.84C98.1185 122.45 99.0634 122.353 99.8502 122.54L100.584 122.714L99.604 122.835C99.0652 122.901 97.9353 123.115 97.0931 123.31C96.2509 123.505 95.5243 123.658 95.4781 123.65C95.2848 123.614 96.2917 123.064 96.9593 122.84ZM101.811 122.836C101.834 122.869 101.824 122.915 101.791 122.938C101.757 122.96 101.711 122.951 101.689 122.917C101.666 122.883 101.676 122.837 101.709 122.815C101.743 122.792 101.789 122.802 101.811 122.836ZM104.194 122.562C104.548 122.506 105.268 122.572 105.795 122.709C106.686 122.94 108.461 123.864 109.129 124.443L109.418 124.693L108.965 124.551C108.716 124.473 108.117 124.194 107.634 123.93C105.818 122.939 104.724 122.693 103.416 122.98C102.969 123.078 102.961 123.073 103.249 122.874C103.416 122.758 103.841 122.618 104.194 122.562ZM101.828 124.463C101.862 124.515 101.829 124.976 101.754 125.486C101.662 126.103 101.499 126.527 101.266 126.752C101.074 126.938 100.883 127.04 100.841 126.977C100.733 126.814 101.016 125.669 101.321 125.032C101.598 124.454 101.727 124.31 101.828 124.463ZM93.9527 130.224C95.4335 129.61 95.1871 130.239 93.0055 132.641C90.4439 135.462 88.496 138.159 87.8952 139.718C87.6072 140.465 87.5331 140.146 87.6201 138.532C87.6988 137.074 87.9889 135.859 88.4467 135.071C88.8444 134.386 89.9706 133.013 90.5861 132.463C91.3737 131.759 93.2315 130.523 93.9527 130.224ZM101.522 127.294C101.506 127.369 101.433 127.418 101.358 127.403C101.283 127.387 101.296 127.326 101.386 127.266C101.476 127.207 101.537 127.219 101.522 127.294ZM98.1072 130.68C96.8115 132.406 96.1226 133.077 96.022 132.71C95.9536 132.46 96.4804 131.799 97.881 130.379C99.5397 128.696 99.5683 128.733 98.1072 130.68ZM101.325 127.84C101.446 127.896 101.054 130.792 100.564 133.46C100.507 133.768 100.515 132.805 100.584 130.893C100.627 129.703 100.695 128.565 100.736 128.364C100.819 127.959 101.08 127.726 101.325 127.84ZM102.12 127.576C102.142 127.609 102.133 127.655 102.099 127.678C102.065 127.7 102.019 127.691 101.997 127.657C101.975 127.623 101.984 127.577 102.018 127.555C102.051 127.533 102.097 127.542 102.12 127.576ZM103.861 128.906C105.759 130.628 108.65 134.105 108.484 134.465C108.392 134.663 108.346 134.616 105.314 131.203C103.982 129.704 102.736 128.302 102.546 128.089C102.199 127.701 102.199 127.701 102.582 127.897C102.794 128.005 103.369 128.459 103.861 128.906ZM96.6732 133.742C97.1838 133.695 97.401 134.211 97.1926 134.975C96.9833 135.742 96.6525 136.312 94.9316 138.871C92.8208 142.01 91.5237 144.559 91.0245 146.549L90.8079 147.413L90.6894 146.255C90.5274 144.673 90.6691 143.24 91.1577 141.516C91.8662 139.018 92.7304 137.24 93.947 135.779C94.7372 134.83 96.1252 133.793 96.6732 133.742ZM100.788 142.154C100.864 142.727 101.077 144.194 101.262 145.414C101.654 148 101.689 148.648 101.424 148.377C101.191 148.139 100.746 146.695 100.647 145.858C100.558 145.101 100.514 141.085 100.595 141.101C100.625 141.107 100.712 141.581 100.788 142.154Z" fill="#529FA6"/>
<path d="M101.558 123.253C101.558 123.253 100.659 115.056 100.073 109.812C99.6125 105.694 99.0711 101.232 99.0711 99.2717C99.0711 96.4695 102.149 95.4692 102.657 93.0564C103.057 91.16 102.944 89.4154 101.329 88.5285C99.327 87.4296 98.2075 87.8026 97.0881 88.9217C95.3916 90.6179 95.1296 91.3119 94.1035 93.0564C93.1125 94.7411 91.8652 96.3826 91.8652 96.3826" stroke="#529FA6" stroke-width="0.5"/>
<path d="M125.651 109.642C125.651 109.642 124.752 101.445 124.166 96.2013C123.706 92.0832 123.165 87.6213 123.165 85.6608C123.165 82.8586 126.242 81.8583 126.751 79.4455C127.15 77.5491 127.038 75.8045 125.422 74.9176C123.421 73.8187 122.301 74.1917 121.182 75.3108C119.485 77.007 119.223 77.701 118.197 79.4455C117.206 81.1302 115.959 82.7717 115.959 82.7717" stroke="#529FA6" stroke-width="0.5"/>
<path d="M84.48 129.264C75.527 133.74 74.4078 134.113 71.7965 138.963C69.1852 143.812 59.3493 144.165 56.1287 138.963C54.135 135.742 52.379 129.799 56.1287 129.264C58.4541 128.931 60.2265 130.186 61.3513 132.248C63.5896 136.351 54.1961 138.041 48.6678 138.963C41.953 140.082 39.2441 141.91 33 142.32" stroke="#529FA6" stroke-width="0.5"/>
<path d="M141.854 110.558C148.963 111.613 152.672 111.304 159.387 116.154C166.451 121.256 165.729 124.734 176.92 129.957C180.109 131.445 189.344 132.331 196.691 129.957" stroke="#529FA6" stroke-width="0.5"/>
</g>
</svg>
