<svg width="93" height="97" viewBox="0 0 93 97" fill="none" xmlns="http://www.w3.org/2000/svg">
<path fill-rule="evenodd" clip-rule="evenodd" d="M45.972 1.0711C55.0944 0.644417 64.4374 2.05279 72.0127 7.62988C79.756 13.3307 84.6751 22.3567 87.9 31.9392C91.2327 41.8424 93.6957 52.7153 90.5419 62.6884C87.4145 72.5777 79.2078 79.1157 71.1814 84.8066C63.5373 90.2264 55.0767 94.5877 45.972 94.2894C37.03 93.9964 28.8556 89.2579 21.8363 83.1899C15.0463 77.3201 10.4295 69.4001 7.08129 60.6695C3.45145 51.2046 -0.90113 40.9729 1.88735 31.1725C4.68613 21.3358 13.512 15.4469 21.5002 9.99249C28.9774 4.88698 37.1662 1.48297 45.972 1.0711Z" fill="white" stroke="#DADADA" stroke-width="2"/>
<path d="M50.821 19.8813C50.821 19.8813 35.9453 20.1187 35.7079 41.1549C35.7079 41.1549 27.6709 39.7307 34.521 50.1301C34.521 50.1301 35.1879 51.9161 37.313 50.1301C39.4381 48.3441 35.3349 54.4142 44.9318 60.4843C44.9318 60.4843 45.0787 70.2281 42.671 71.788C40.2633 73.348 55.8059 78.7172 58.3493 71.788C56.7362 69.7972 55.8865 67.296 55.9529 64.7345C55.9529 64.7345 66.6462 64.1354 66.714 45.8008C66.7819 27.4661 61.6952 18.8301 50.821 19.8813Z" fill="#BA9777"/>
<path d="M67.946 34.8927C66.2957 34.8927 70.0711 23.1029 64.1706 22.1534C64.1706 22.1534 59.8074 14.0034 57.2188 14.2408C54.6303 14.4782 54.2686 15.0546 51.4313 14.2408C51.4313 14.2408 43.7674 7.52636 41.5292 13.4269C41.5292 13.4269 36.8156 11.4148 32.5654 18.6153C28.3152 25.8158 25.6136 18.9657 27.1396 28.393C27.1396 28.393 23.1381 32.5302 24.5511 38.069C24.5511 38.069 19.3626 40.6576 23.0137 47.112C26.6648 53.5664 16.2993 49.2371 23.4885 59.8513C23.4885 59.8513 19.9504 68.0465 22.426 69.5499C24.9015 71.0533 18.8879 76.4791 22.7764 78.3668C26.6648 80.2545 20.5156 82.2553 26.1675 84.143C26.1675 84.143 25.9301 91.4565 30.689 84.9682C30.689 84.9682 32.8141 86.5055 36.9399 84.2561C41.0658 82.0066 44.7282 80.9554 46.6159 82.8431C48.5036 84.7308 53.0929 84.143 55.9302 82.2553C58.7674 80.3676 59.8187 88.0315 61.469 83.6683C63.1194 79.305 61.4577 79.9606 65.5157 78.8303C69.5738 77.6999 72.5919 73.6418 71.405 70.9177C70.666 69.4471 70.3029 67.8164 70.3483 66.1713C70.3937 64.5261 70.846 62.9179 71.665 61.4903C73.6544 57.4775 70.1164 53.9621 73.2927 49.2936C76.4691 44.6252 69.5964 34.8927 67.946 34.8927ZM63.6732 59.0827C58.7109 66.0344 56.9588 62.4738 55.7606 64.8136C54.5624 67.1535 58.3492 71.7767 58.3492 71.7767C52.2791 79.2711 43.0439 72.4776 43.0439 72.4776C43.0439 72.4776 46.6837 61.1738 44.6265 60.2921C40.5458 58.5062 37.4147 50.2657 37.9459 49.6666C35.1652 52.7187 32.6106 48.1406 31.9437 43.7096C31.4802 40.6576 35.6287 41.9236 35.6287 41.9236C35.4252 37.9447 38.0364 38.1821 37.6521 36.7804C37.3582 35.7292 36.7026 27.2853 40.6928 27.7374C44.683 28.1896 40.7832 21.7125 45.8473 23.2159C50.9113 24.7193 50.8209 20.8648 50.8209 20.8648C51.8948 20.3787 52.573 21.6447 54.1329 22.7186C55.6928 23.7924 58.3153 23.2046 58.3153 23.2046C67.7765 25.7028 68.9634 51.7013 63.6732 59.0827Z" fill="#202020"/>
<path d="M58.185 70.6645C51.7314 75.8274 45.4566 72.8157 43.1259 70.6645C31.7136 70.1883 22.9535 87.8554 20 96.7485H84C78.084 85.9026 64.6387 65.5015 58.185 70.6645Z" fill="#B4C1FF"/>
</svg>
