<svg width="301" height="299" viewBox="0 0 301 299" fill="none" xmlns="http://www.w3.org/2000/svg">
<g filter="url(#filter0_d_2373_56149)">
<rect x="27" y="27" width="246.831" height="177.171" rx="7.19029" fill="white"/>
<path d="M85.7863 185.707C84.7789 185.707 84.0005 185.449 83.4511 184.934C82.9016 184.407 82.6269 183.635 82.6269 182.616V174.391H84.7732V182.564C84.7732 182.999 84.882 183.337 85.0995 183.577C85.3284 183.818 85.6432 183.938 86.0439 183.938C86.5246 183.938 86.9253 183.812 87.2458 183.56L87.8468 185.088C87.595 185.295 87.2859 185.449 86.9196 185.552C86.5533 185.655 86.1755 185.707 85.7863 185.707ZM81.1158 178.203V176.486H87.2287V178.203H81.1158ZM94.8152 176.314C95.5478 176.314 96.2003 176.457 96.7727 176.743C97.3565 177.03 97.8144 177.47 98.1464 178.066C98.4783 178.649 98.6443 179.405 98.6443 180.332V185.586H96.498V180.607C96.498 179.794 96.3034 179.187 95.9141 178.787C95.5364 178.386 95.0041 178.186 94.3173 178.186C93.8136 178.186 93.3671 178.289 92.9779 178.495C92.5887 178.701 92.2854 179.01 92.0679 179.422C91.8618 179.823 91.7588 180.332 91.7588 180.95V185.586H89.6124V172.846H91.7588V178.89L91.2952 178.134C91.6157 177.55 92.0793 177.104 92.686 176.795C93.3042 176.474 94.0139 176.314 94.8152 176.314ZM101.367 185.586V176.417H103.41V178.941L103.17 178.203C103.445 177.585 103.874 177.115 104.458 176.795C105.053 176.474 105.791 176.314 106.673 176.314V178.358C106.581 178.335 106.495 178.323 106.415 178.323C106.335 178.312 106.255 178.306 106.175 178.306C105.362 178.306 104.715 178.546 104.235 179.027C103.754 179.497 103.513 180.201 103.513 181.139V185.586H101.367ZM108.494 185.586V176.417H110.64V185.586H108.494ZM109.575 174.906C109.175 174.906 108.843 174.78 108.58 174.528C108.328 174.277 108.202 173.973 108.202 173.618C108.202 173.252 108.328 172.949 108.58 172.708C108.843 172.456 109.175 172.331 109.575 172.331C109.976 172.331 110.302 172.451 110.554 172.691C110.817 172.92 110.949 173.212 110.949 173.567C110.949 173.945 110.823 174.265 110.571 174.528C110.319 174.78 109.988 174.906 109.575 174.906ZM115.895 185.586L111.963 176.417H114.195L117.578 184.505H116.479L119.982 176.417H122.043L118.11 185.586H115.895ZM127.442 185.707C126.424 185.707 125.531 185.506 124.764 185.106C124.008 184.694 123.419 184.133 122.995 183.423C122.583 182.713 122.377 181.906 122.377 181.002C122.377 180.086 122.577 179.279 122.978 178.581C123.39 177.871 123.951 177.316 124.661 176.915C125.382 176.514 126.2 176.314 127.116 176.314C128.009 176.314 128.805 176.509 129.503 176.898C130.201 177.287 130.751 177.837 131.151 178.546C131.552 179.256 131.752 180.092 131.752 181.053C131.752 181.145 131.747 181.248 131.735 181.362C131.735 181.477 131.729 181.586 131.718 181.689H124.077V180.263H130.585L129.743 180.71C129.755 180.183 129.646 179.72 129.417 179.319C129.188 178.918 128.873 178.604 128.473 178.375C128.083 178.146 127.631 178.031 127.116 178.031C126.59 178.031 126.126 178.146 125.725 178.375C125.336 178.604 125.027 178.924 124.798 179.336C124.581 179.737 124.472 180.212 124.472 180.761V181.105C124.472 181.654 124.598 182.141 124.85 182.564C125.101 182.988 125.456 183.314 125.914 183.543C126.372 183.772 126.899 183.887 127.494 183.887C128.009 183.887 128.473 183.806 128.885 183.646C129.297 183.486 129.663 183.234 129.984 182.891L131.134 184.213C130.722 184.694 130.201 185.066 129.572 185.329C128.953 185.581 128.244 185.707 127.442 185.707ZM143.762 176.314C144.495 176.314 145.147 176.457 145.72 176.743C146.303 177.03 146.761 177.47 147.093 178.066C147.425 178.649 147.591 179.405 147.591 180.332V185.586H145.445V180.607C145.445 179.794 145.25 179.187 144.861 178.787C144.483 178.386 143.951 178.186 143.264 178.186C142.761 178.186 142.314 178.289 141.925 178.495C141.536 178.701 141.232 179.01 141.015 179.422C140.809 179.823 140.706 180.332 140.706 180.95V185.586H138.559V176.417H140.603V178.89L140.242 178.134C140.563 177.55 141.026 177.104 141.633 176.795C142.251 176.474 142.961 176.314 143.762 176.314ZM154.641 185.707C153.622 185.707 152.729 185.506 151.962 185.106C151.207 184.694 150.617 184.133 150.193 183.423C149.781 182.713 149.575 181.906 149.575 181.002C149.575 180.086 149.776 179.279 150.176 178.581C150.588 177.871 151.149 177.316 151.859 176.915C152.58 176.514 153.399 176.314 154.314 176.314C155.207 176.314 156.003 176.509 156.701 176.898C157.399 177.287 157.949 177.837 158.35 178.546C158.75 179.256 158.951 180.092 158.951 181.053C158.951 181.145 158.945 181.248 158.933 181.362C158.933 181.477 158.928 181.586 158.916 181.689H151.275V180.263H157.783L156.942 180.71C156.953 180.183 156.844 179.72 156.615 179.319C156.386 178.918 156.072 178.604 155.671 178.375C155.282 178.146 154.83 178.031 154.314 178.031C153.788 178.031 153.324 178.146 152.924 178.375C152.534 178.604 152.225 178.924 151.996 179.336C151.779 179.737 151.67 180.212 151.67 180.761V181.105C151.67 181.654 151.796 182.141 152.048 182.564C152.3 182.988 152.655 183.314 153.112 183.543C153.57 183.772 154.097 183.887 154.692 183.887C155.207 183.887 155.671 183.806 156.083 183.646C156.495 183.486 156.861 183.234 157.182 182.891L158.332 184.213C157.92 184.694 157.399 185.066 156.77 185.329C156.152 185.581 155.442 185.707 154.641 185.707ZM164.464 185.707C163.456 185.707 162.678 185.449 162.128 184.934C161.579 184.407 161.304 183.635 161.304 182.616V174.391H163.451V182.564C163.451 182.999 163.559 183.337 163.777 183.577C164.006 183.818 164.321 183.938 164.721 183.938C165.202 183.938 165.603 183.812 165.923 183.56L166.524 185.088C166.272 185.295 165.963 185.449 165.597 185.552C165.231 185.655 164.853 185.707 164.464 185.707ZM159.793 178.203V176.486H165.906V178.203H159.793ZM170.148 185.586L166.783 176.417H168.809L171.694 184.505H170.732L173.754 176.417H175.557L178.493 184.505H177.549L180.519 176.417H182.425L179.043 185.586H176.982L174.304 178.426H174.939L172.209 185.586H170.148ZM187.771 185.707C186.832 185.707 185.996 185.506 185.264 185.106C184.531 184.694 183.953 184.133 183.529 183.423C183.106 182.713 182.894 181.906 182.894 181.002C182.894 180.086 183.106 179.279 183.529 178.581C183.953 177.871 184.531 177.316 185.264 176.915C185.996 176.514 186.832 176.314 187.771 176.314C188.721 176.314 189.562 176.514 190.295 176.915C191.039 177.316 191.617 177.865 192.029 178.564C192.453 179.262 192.664 180.075 192.664 181.002C192.664 181.906 192.453 182.713 192.029 183.423C191.617 184.133 191.039 184.694 190.295 185.106C189.562 185.506 188.721 185.707 187.771 185.707ZM187.771 183.869C188.297 183.869 188.767 183.755 189.179 183.526C189.591 183.297 189.911 182.965 190.14 182.53C190.381 182.095 190.501 181.586 190.501 181.002C190.501 180.407 190.381 179.897 190.14 179.474C189.911 179.039 189.591 178.707 189.179 178.478C188.767 178.249 188.303 178.134 187.788 178.134C187.261 178.134 186.792 178.249 186.38 178.478C185.979 178.707 185.659 179.039 185.418 179.474C185.178 179.897 185.058 180.407 185.058 181.002C185.058 181.586 185.178 182.095 185.418 182.53C185.659 182.965 185.979 183.297 186.38 183.526C186.792 183.755 187.255 183.869 187.771 183.869ZM194.717 185.586V176.417H196.76V178.941L196.52 178.203C196.794 177.585 197.224 177.115 197.808 176.795C198.403 176.474 199.141 176.314 200.023 176.314V178.358C199.931 178.335 199.845 178.323 199.765 178.323C199.685 178.312 199.605 178.306 199.525 178.306C198.712 178.306 198.065 178.546 197.584 179.027C197.104 179.497 196.863 180.201 196.863 181.139V185.586H194.717ZM203.595 183.543L203.646 180.847L208.437 176.417H211.013L206.943 180.504L205.81 181.448L203.595 183.543ZM201.843 185.586V172.846H203.99V185.586H201.843ZM208.763 185.586L205.415 181.448L206.771 179.731L211.373 185.586H208.763ZM215.308 185.707C214.541 185.707 213.802 185.609 213.093 185.415C212.394 185.209 211.839 184.963 211.427 184.676L212.251 183.045C212.663 183.308 213.156 183.526 213.728 183.698C214.3 183.869 214.873 183.955 215.445 183.955C216.12 183.955 216.607 183.864 216.905 183.68C217.214 183.497 217.368 183.251 217.368 182.942C217.368 182.69 217.265 182.501 217.059 182.375C216.853 182.238 216.584 182.135 216.252 182.066C215.92 181.998 215.548 181.935 215.136 181.878C214.735 181.82 214.329 181.746 213.917 181.654C213.516 181.551 213.15 181.408 212.818 181.225C212.486 181.03 212.217 180.773 212.011 180.452C211.805 180.132 211.702 179.708 211.702 179.182C211.702 178.598 211.868 178.094 212.2 177.671C212.532 177.236 212.995 176.904 213.591 176.675C214.197 176.434 214.913 176.314 215.737 176.314C216.355 176.314 216.979 176.383 217.609 176.52C218.238 176.658 218.759 176.852 219.171 177.104L218.347 178.735C217.912 178.472 217.471 178.295 217.025 178.203C216.59 178.1 216.155 178.048 215.72 178.048C215.067 178.048 214.581 178.146 214.26 178.34C213.951 178.535 213.797 178.781 213.797 179.079C213.797 179.353 213.9 179.559 214.106 179.697C214.312 179.834 214.581 179.943 214.913 180.023C215.245 180.103 215.611 180.172 216.012 180.229C216.424 180.275 216.83 180.349 217.231 180.452C217.631 180.555 217.998 180.698 218.33 180.882C218.673 181.053 218.948 181.299 219.154 181.62C219.36 181.94 219.463 182.358 219.463 182.873C219.463 183.446 219.291 183.944 218.948 184.367C218.616 184.791 218.141 185.123 217.523 185.363C216.905 185.592 216.166 185.707 215.308 185.707Z" fill="black"/>
<path d="M150.814 89.09C152.372 90.2153 155.223 91.7207 162.078 94.0016C180.555 100.175 189.326 93.5302 201.633 100.449C208.052 104.038 206.167 106.121 216.714 113.222C225.08 118.833 228.523 119.061 230.174 122.954C232.994 129.615 227.307 141.551 218.863 144.334C208.052 147.892 201.602 133.538 181.334 129.432C172.157 127.577 163.262 129.554 145.502 133.492C121.915 138.708 115.559 144.06 95.3995 145.505C86.5194 146.128 73.3084 146.95 70.473 141.08C68.4788 136.913 72.3425 130.542 75.692 127.06C83.3569 119.061 92.5329 121.859 94.5114 116.811C97.3936 109.436 79.5399 99.3694 82.7648 91.2037C83.7463 88.7251 86.1766 87.6454 89.6975 86.0944C101.725 80.7874 108.299 87.9343 120.684 84.3457C130.826 81.3957 132.742 74.7506 138.335 76.3928C143.321 77.8526 143.196 83.6006 150.814 89.09Z" fill="#E2F2EE"/>
<path d="M123.691 143.833C120.307 143.761 116.922 143.863 113.549 144.137C105.479 144.988 105.167 146.524 99.1226 146.524C95.6485 146.524 93.3272 146.022 89.6038 147.132C89.339 147.208 84.5562 148.653 84.6809 149.824C84.899 151.755 98.3126 151.877 103.734 151.922C126.417 152.12 143.601 149.444 159.32 151.025C162.436 151.329 164.539 151.618 164.539 151.618C176.348 153.139 178.202 155.085 184.496 155.222C188.188 155.298 191.569 154.477 198.33 152.819C202.459 151.816 211.697 149.55 211.526 148.03C211.526 147.467 210.139 146.783 194.949 146.235C179.37 145.657 173.372 146.114 159.632 145.323C155.55 145.095 156.407 145.08 150.721 144.73C136.481 143.863 127.991 143.817 123.691 143.833Z" fill="#CCE5ED"/>
<path d="M125.173 141.566C121.794 141.494 118.414 141.596 115.047 141.87C106.977 142.722 106.65 144.273 100.605 144.273C97.1308 144.273 94.825 143.756 91.0861 144.866C90.8368 144.866 86.054 146.386 86.1787 147.557C86.3812 149.504 99.7948 149.61 105.216 149.656C127.915 149.853 145.083 147.177 160.802 148.758C163.918 149.078 166.021 149.367 166.021 149.367C177.846 150.887 179.684 152.834 185.994 152.955C189.67 153.031 193.051 152.21 199.812 150.568C203.956 149.549 213.195 147.299 213.023 145.763C213.023 145.215 211.621 144.516 196.432 143.968C180.853 143.391 174.855 143.862 161.114 143.071C157.048 142.828 157.905 142.813 152.203 142.463C137.917 141.566 129.473 141.566 125.173 141.566Z" fill="#BCC8CE"/>
<path d="M121.432 122.726L125.031 145.398C127.467 146.015 129.977 146.306 132.493 146.265C134.903 146.23 137.297 145.882 139.613 145.231L142.884 122.726H121.432Z" stroke="#75869E" stroke-width="0.536589" stroke-miterlimit="10"/>
<path d="M116.634 97.3011H99.4817V104.478H116.634V97.3011Z" fill="#BFBFBF" stroke="#BFBFBF" stroke-width="0.214635" stroke-miterlimit="10"/>
<path d="M117.461 90.0781H115.7V93.9253H117.461V90.0781Z" fill="black" stroke="black" stroke-width="0.321953" stroke-miterlimit="10"/>
<path d="M123.583 88.0713H109.577C109.448 88.0713 109.344 88.1734 109.344 88.2994V89.6679C109.344 89.7939 109.448 89.896 109.577 89.896H123.583C123.712 89.896 123.816 89.7939 123.816 89.6679V88.2994C123.816 88.1734 123.712 88.0713 123.583 88.0713Z" fill="black"/>
<path d="M123.582 88.3443V89.728H109.561V88.3443H123.582ZM123.582 87.8881H109.561C109.438 87.8919 109.322 87.9411 109.235 88.0259C109.148 88.1106 109.098 88.2245 109.094 88.3443V89.728C109.098 89.8478 109.148 89.9616 109.235 90.0464C109.322 90.1311 109.438 90.1804 109.561 90.1842H123.582C123.706 90.1842 123.825 90.1361 123.913 90.0506C124 89.965 124.05 89.849 124.05 89.728V88.3443C124.05 88.2233 124 88.1072 123.913 88.0217C123.825 87.9361 123.706 87.8881 123.582 87.8881V87.8881Z" fill="black"/>
<path d="M123.301 128.824L141.014 128.915C140.266 134.177 139.513 139.433 138.755 144.684C134.475 145.634 130.039 145.701 125.731 144.882L123.301 128.824Z" fill="#A4D3F7"/>
<path d="M127.618 121.327C125.78 121.51 121.386 122.087 121.386 122.513C121.386 123.456 142.854 123.365 142.885 122.513C142.885 122.133 138.399 121.631 137.012 121.479C133.897 121.075 130.745 121.023 127.618 121.327V121.327Z" fill="white" stroke="#75869E" stroke-width="0.536589" stroke-miterlimit="10"/>
<path d="M132.213 109.633C131.688 109.631 131.184 109.435 130.8 109.086C130.416 108.737 130.181 108.259 130.141 107.748V107.413C130.083 106.747 129.774 106.126 129.273 105.671C128.772 105.216 128.115 104.959 127.431 104.95H122.025C121.24 104.95 120.487 104.645 119.932 104.104C119.377 103.562 119.065 102.827 119.065 102.061V100.357C119.065 99.5912 119.377 98.8563 119.932 98.3145C120.487 97.7727 121.24 97.4683 122.025 97.4683H131.808C132.341 97.4679 132.852 97.6689 133.236 98.029C133.619 98.3892 133.845 98.8804 133.865 99.3995L134.301 107.504C134.323 107.782 134.284 108.061 134.187 108.323C134.09 108.585 133.938 108.824 133.74 109.025C133.542 109.223 133.304 109.379 133.041 109.484C132.779 109.588 132.497 109.639 132.213 109.633Z" fill="#BFBFBF"/>
<path d="M131.807 97.5444C132.298 97.5475 132.77 97.7332 133.126 98.0637C133.482 98.3942 133.695 98.8447 133.723 99.3235L134.144 107.444C134.158 107.689 134.122 107.935 134.039 108.167C133.956 108.4 133.827 108.614 133.659 108.797C133.492 108.981 133.288 109.13 133.061 109.237C132.834 109.344 132.588 109.406 132.336 109.42C132.085 109.434 131.833 109.4 131.595 109.319C131.357 109.238 131.138 109.112 130.949 108.948C130.761 108.784 130.608 108.586 130.499 108.364C130.389 108.143 130.325 107.902 130.311 107.656V107.337C130.253 106.631 129.927 105.971 129.397 105.488C128.866 105.004 128.17 104.731 127.445 104.722H122.039C121.295 104.722 120.582 104.433 120.056 103.92C119.53 103.407 119.234 102.71 119.234 101.985V100.281C119.238 99.5568 119.535 98.8629 120.06 98.3504C120.585 97.838 121.296 97.5483 122.039 97.5444H131.807V97.5444ZM131.807 97.2402H122.023C121.197 97.2402 120.404 97.5606 119.82 98.131C119.235 98.7013 118.907 99.4749 118.907 100.281V102.03C118.907 102.837 119.235 103.61 119.82 104.181C120.404 104.751 121.197 105.071 122.023 105.071H127.429C128.075 105.081 128.694 105.324 129.166 105.754C129.638 106.184 129.93 106.77 129.984 107.398V107.717C130.023 108.269 130.275 108.785 130.688 109.163C131.101 109.541 131.645 109.752 132.212 109.755C132.513 109.753 132.811 109.692 133.088 109.576C133.364 109.459 133.614 109.289 133.822 109.076C134.03 108.863 134.192 108.612 134.298 108.336C134.404 108.061 134.452 107.768 134.44 107.474L134.034 99.7492V99.3539C134.003 98.7971 133.755 98.2731 133.341 97.8888C132.927 97.5045 132.378 97.2889 131.807 97.2859V97.2402Z" fill="#BFBFBF"/>
<path d="M116.819 107.824C114.932 107.824 113.05 107.615 111.211 107.2C110.948 107.155 110.698 107.057 110.475 106.913C110.253 106.769 110.063 106.582 109.918 106.364C109.818 106.215 109.751 106.048 109.722 105.872C109.692 105.697 109.701 105.517 109.746 105.345L112.379 95.5524C112.526 95.1636 112.799 94.832 113.156 94.6071C113.512 94.3823 113.934 94.2765 114.358 94.3055H118.72C119.135 94.2789 119.548 94.3807 119.9 94.5964C120.253 94.812 120.527 95.1306 120.683 95.5068L123.799 105.3C123.853 105.474 123.869 105.658 123.845 105.839C123.821 106.02 123.757 106.194 123.658 106.349C123.517 106.573 123.329 106.767 123.106 106.916C122.883 107.065 122.631 107.167 122.365 107.216C120.549 107.608 118.695 107.812 116.835 107.824H116.819Z" fill="#D6D8D6"/>
<path d="M118.722 94.4276C119.103 94.4001 119.483 94.4913 119.808 94.688C120.132 94.8848 120.385 95.1769 120.529 95.5225C121.573 98.7766 122.601 102.046 123.645 105.315C123.894 106.076 123.302 106.836 122.32 107.034C120.52 107.428 118.682 107.631 116.837 107.642V107.642C114.965 107.64 113.1 107.436 111.275 107.034C110.324 106.821 109.717 106.091 109.935 105.346C110.807 102.092 111.68 98.8222 112.568 95.5681C112.703 95.2099 112.954 94.9046 113.283 94.6987C113.612 94.4928 114.001 94.3976 114.391 94.4276H118.753H118.722ZM118.753 94.1235H114.391C113.93 94.0915 113.472 94.2081 113.086 94.4554C112.701 94.7027 112.409 95.067 112.256 95.492L110.932 100.419L109.639 105.27C109.585 105.461 109.572 105.661 109.602 105.857C109.631 106.054 109.702 106.242 109.81 106.41C110.131 106.881 110.63 107.209 111.197 107.322C113.047 107.736 114.939 107.945 116.837 107.946C118.718 107.936 120.592 107.733 122.429 107.338C122.718 107.286 122.993 107.176 123.234 107.013C123.476 106.851 123.68 106.64 123.832 106.395C123.934 106.219 123.999 106.024 124.023 105.823C124.047 105.622 124.029 105.418 123.972 105.224L122.554 100.662L120.903 95.4616C120.739 95.0546 120.447 94.7087 120.069 94.4738C119.691 94.2388 119.247 94.1268 118.799 94.1539L118.753 94.1235Z" fill="#D6D8D6"/>
<path d="M133.911 109.299H130.437V122.619H133.911V109.299Z" fill="#A4D3F7" stroke="#A4D3F7" stroke-width="0.321953" stroke-miterlimit="10"/>
<path d="M129.563 109.299C129.522 109.299 129.482 109.283 129.453 109.255C129.424 109.226 129.407 109.188 129.407 109.147V107.915C129.407 107.875 129.424 107.836 129.453 107.808C129.482 107.779 129.522 107.763 129.563 107.763H134.813C134.854 107.763 134.894 107.779 134.923 107.808C134.953 107.836 134.969 107.875 134.969 107.915V109.147C134.969 109.188 134.953 109.226 134.923 109.255C134.894 109.283 134.854 109.299 134.813 109.299H129.563Z" fill="#D6D8D6"/>
<path d="M129.565 107.915H134.815V109.147H129.565V107.915ZM129.565 107.611C129.483 107.615 129.406 107.648 129.348 107.705C129.291 107.761 129.257 107.836 129.253 107.915V109.147C129.253 109.228 129.286 109.305 129.344 109.362C129.403 109.419 129.482 109.451 129.565 109.451H134.815C134.896 109.448 134.973 109.414 135.031 109.358C135.088 109.302 135.122 109.227 135.126 109.147V107.915C135.126 107.835 135.093 107.757 135.035 107.7C134.977 107.643 134.897 107.611 134.815 107.611H129.565Z" fill="#D6D8D6"/>
<path d="M128.38 127.759C126.822 127.942 123.255 128.519 123.286 128.945C123.286 129.888 140.999 129.782 141.03 128.945C141.03 128.565 137.323 128.078 136.17 127.911C133.593 127.512 130.972 127.461 128.38 127.759V127.759Z" fill="#D3E6EF"/>
<path d="M133.896 123.745V128.307C133.292 128.464 132.668 128.535 132.043 128.52C131.516 128.512 130.993 128.44 130.485 128.307V123.745H133.896Z" fill="#A4D3F7" stroke="#A4D3F7" stroke-width="0.321953" stroke-miterlimit="10"/>
<path d="M110.979 103.079C110.829 103.523 110.704 103.975 110.605 104.433C110.483 104.8 110.451 105.191 110.512 105.573C110.59 105.844 110.722 106.097 110.901 106.318C111.344 106.7 111.87 106.978 112.44 107.134C113.009 107.289 113.607 107.317 114.188 107.215C113.327 107.003 112.541 106.566 111.914 105.953C111.525 105.588 111.236 105.134 111.073 104.632C110.91 104.13 110.877 103.596 110.979 103.079Z" fill="white"/>
<path d="M117.943 94.777C118.289 94.795 118.63 94.8616 118.956 94.9747C119.381 95.1526 119.751 95.4356 120.031 95.7958C120.236 96.0731 120.394 96.3813 120.498 96.7082L119.797 96.2216L118.909 95.5829C118.342 95.1872 117.702 94.9031 117.024 94.7466C117.258 94.7466 117.569 94.7466 117.943 94.777Z" fill="white"/>
<path d="M130.857 97.7727C131.157 97.7379 131.461 97.7379 131.761 97.7727C132.033 97.8011 132.297 97.8784 132.54 98.0008C132.863 98.2474 133.098 98.5883 133.21 98.974C133.304 99.1935 133.372 99.4232 133.412 99.6582C133.477 99.9384 133.518 100.223 133.537 100.51C133.349 100.16 133.136 99.825 132.898 99.5062C132.707 99.2095 132.47 98.9429 132.197 98.7155C131.815 98.4916 131.4 98.3274 130.966 98.2289L129.751 97.8335C130.117 97.7827 130.487 97.7624 130.857 97.7727Z" fill="white"/>
<path d="M129.765 108.797C129.808 108.855 129.861 108.907 129.921 108.949C130.178 109.151 130.494 109.268 130.824 109.284C130.54 109.321 130.252 109.321 129.967 109.284C129.82 109.275 129.678 109.222 129.562 109.132C129.444 108.98 129.388 108.79 129.407 108.599C129.378 108.418 129.378 108.233 129.407 108.052C129.437 108.332 129.563 108.595 129.765 108.797V108.797Z" fill="white"/>
<path d="M125.577 138.297C126.094 139.135 126.557 140.003 126.963 140.898C127.191 141.626 127.598 142.289 128.147 142.829C128.609 143.105 129.094 143.344 129.596 143.544C130.206 143.877 130.836 144.177 131.481 144.441C132.029 144.648 132.598 144.796 133.179 144.882C132.392 144.952 131.599 144.952 130.811 144.882C129.835 144.776 128.867 144.608 127.914 144.38C127.482 144.313 127.059 144.201 126.652 144.045C125.888 143.452 126.2 142.297 125.888 139.924C125.842 139.255 125.732 138.662 125.577 138.297Z" fill="white"/>
<path d="M180.104 123.699C178.909 131.251 177.715 138.809 176.521 146.371C171.729 147.567 166.7 147.509 161.939 146.204L158.651 123.699H180.104Z" stroke="#75869E" stroke-width="0.536589" stroke-miterlimit="10"/>
<path d="M202.038 98.2592H184.886V105.436H202.038V98.2592Z" fill="#BFBFBF" stroke="#BFBFBF" stroke-width="0.214635" stroke-miterlimit="10"/>
<path d="M185.82 91.0364H184.059V94.8835H185.82V91.0364Z" fill="black" stroke="black" stroke-width="0.321953" stroke-miterlimit="10"/>
<path d="M191.942 89.0444H177.936C177.807 89.0444 177.703 89.1466 177.703 89.2725V90.6411C177.703 90.7671 177.807 90.8692 177.936 90.8692H191.942C192.071 90.8692 192.176 90.7671 192.176 90.6411V89.2725C192.176 89.1466 192.071 89.0444 191.942 89.0444Z" fill="black"/>
<path d="M191.942 89.2726V90.6412H177.921V89.2726H191.942ZM191.942 88.8164H177.921C177.859 88.8143 177.797 88.8247 177.74 88.8468C177.682 88.869 177.63 88.9025 177.586 88.9453C177.542 88.9881 177.508 89.0393 177.485 89.0956C177.462 89.1519 177.451 89.2121 177.454 89.2726V90.6412C177.451 90.7017 177.462 90.7619 177.485 90.8182C177.508 90.8745 177.542 90.9257 177.586 90.9685C177.63 91.0113 177.682 91.0448 177.74 91.067C177.797 91.0891 177.859 91.0995 177.921 91.0974H191.942C192.004 91.0995 192.066 91.0891 192.124 91.067C192.181 91.0448 192.234 91.0113 192.278 90.9685C192.321 90.9257 192.356 90.8745 192.378 90.8182C192.401 90.7619 192.412 90.7017 192.41 90.6412V89.2726C192.412 89.2121 192.401 89.1519 192.378 89.0956C192.356 89.0393 192.321 88.9881 192.278 88.9453C192.234 88.9025 192.181 88.869 192.124 88.8468C192.066 88.8247 192.004 88.8143 191.942 88.8164Z" fill="black"/>
<path d="M177.548 135.347H161.284L162.639 145.748C164.807 146.263 167.029 146.529 169.26 146.539C171.466 146.543 173.666 146.309 175.819 145.84L177.548 135.347Z" fill="#A4D3F7"/>
<path d="M173.87 122.301C175.708 122.483 180.101 123.061 180.101 123.487C180.101 124.43 158.649 124.323 158.602 123.487C158.602 123.107 163.089 122.605 164.491 122.453C167.601 122.057 170.748 122.006 173.87 122.301V122.301Z" fill="white" stroke="#75869E" stroke-width="0.536589" stroke-miterlimit="10"/>
<path d="M169.306 110.531C169.025 110.527 168.749 110.469 168.492 110.359C168.235 110.249 168.004 110.091 167.811 109.892C167.618 109.694 167.467 109.46 167.368 109.204C167.269 108.948 167.223 108.676 167.234 108.402L167.67 100.282C167.694 99.763 167.923 99.2734 168.31 98.916C168.696 98.5587 169.21 98.3616 169.742 98.366H179.51C180.295 98.366 181.048 98.6704 181.603 99.2123C182.158 99.7541 182.47 100.489 182.47 101.255V102.958C182.47 103.725 182.158 104.459 181.603 105.001C181.048 105.543 180.295 105.847 179.51 105.847H174.104C173.419 105.856 172.763 106.114 172.262 106.569C171.761 107.024 171.451 107.645 171.393 108.311V108.63C171.358 109.147 171.122 109.63 170.734 109.983C170.347 110.336 169.836 110.532 169.306 110.531V110.531Z" fill="#BFBFBF"/>
<path d="M179.509 98.5177C180.253 98.5177 180.966 98.8061 181.492 99.3194C182.018 99.8327 182.314 100.529 182.314 101.255V102.958C182.314 103.684 182.018 104.38 181.492 104.893C180.966 105.407 180.253 105.695 179.509 105.695H174.103C173.38 105.704 172.686 105.975 172.156 106.455C171.626 106.936 171.299 107.592 171.237 108.295V108.63C171.206 109.126 170.974 109.59 170.593 109.919C170.212 110.248 169.712 110.416 169.204 110.386C168.696 110.356 168.22 110.13 167.883 109.758C167.546 109.386 167.373 108.898 167.404 108.402L167.841 100.297C167.861 99.8155 168.072 99.3607 168.43 99.0286C168.787 98.6966 169.263 98.5134 169.757 98.5177H179.525H179.509ZM179.525 98.2136H169.757C169.184 98.213 168.634 98.4274 168.219 98.8124C167.804 99.1975 167.557 99.7236 167.529 100.282L167.093 108.387C167.058 108.963 167.259 109.53 167.652 109.962C168.045 110.394 168.597 110.656 169.188 110.69C169.779 110.725 170.36 110.528 170.802 110.145C171.245 109.761 171.513 109.222 171.548 108.645V108.326C171.599 107.696 171.89 107.108 172.362 106.678C172.835 106.247 173.457 106.005 174.103 105.999H179.509C180.336 105.999 181.128 105.679 181.713 105.108C182.297 104.538 182.625 103.765 182.625 102.958V101.255C182.625 100.448 182.297 99.6747 181.713 99.1044C181.128 98.534 180.336 98.2136 179.509 98.2136H179.525Z" fill="#BFBFBF"/>
<path d="M184.776 108.782C182.915 108.784 181.06 108.585 179.245 108.189C178.977 108.143 178.721 108.041 178.496 107.892C178.27 107.743 178.079 107.548 177.936 107.322C177.836 107.165 177.773 106.988 177.751 106.803C177.729 106.619 177.75 106.433 177.812 106.258L180.928 96.4647C181.09 96.0926 181.365 95.7779 181.716 95.5631C182.067 95.3483 182.477 95.2437 182.89 95.2635H187.268C187.692 95.2364 188.112 95.345 188.467 95.5728C188.821 95.8007 189.089 96.1352 189.231 96.5256L191.864 106.303C191.954 106.654 191.898 107.026 191.708 107.337C191.56 107.553 191.369 107.737 191.147 107.881C190.925 108.024 190.676 108.124 190.415 108.174C188.575 108.583 186.694 108.787 184.807 108.782H184.776Z" fill="#D6D8D6"/>
<path d="M187.174 95.4152C187.564 95.3937 187.951 95.4941 188.279 95.702C188.607 95.9098 188.858 96.2142 188.997 96.5709L191.614 106.348C191.817 107.094 191.225 107.869 190.29 108.021C188.461 108.431 186.589 108.635 184.713 108.629V108.629C182.863 108.631 181.018 108.432 179.213 108.036C179.009 108.008 178.813 107.941 178.636 107.839C178.458 107.736 178.304 107.601 178.18 107.439C178.057 107.278 177.968 107.095 177.918 106.9C177.868 106.705 177.858 106.502 177.889 106.303C178.933 103.049 179.961 99.7794 181.005 96.5101C181.153 96.1673 181.406 95.8778 181.73 95.6816C182.053 95.4855 182.432 95.3924 182.812 95.4152H187.19H187.174ZM187.19 95.1111H182.812C182.366 95.0887 181.923 95.2026 181.546 95.4369C181.169 95.6713 180.877 96.0145 180.709 96.4188L179.057 101.635L177.593 106.196C177.533 106.393 177.515 106.6 177.539 106.803C177.563 107.007 177.629 107.204 177.733 107.383C177.892 107.622 178.097 107.829 178.338 107.991C178.578 108.153 178.849 108.266 179.135 108.325C180.967 108.721 182.837 108.92 184.713 108.918C186.615 108.923 188.512 108.719 190.368 108.31C190.935 108.196 191.433 107.868 191.754 107.398C191.968 107.056 192.035 106.647 191.941 106.257L190.617 101.33L189.308 96.4797C189.161 96.053 188.874 95.6858 188.491 95.4354C188.107 95.1851 187.65 95.0657 187.19 95.0959V95.1111Z" fill="#D6D8D6"/>
<path d="M171.065 110.257H167.591V123.578H171.065V110.257Z" fill="#A4D3F7" stroke="#A4D3F7" stroke-width="0.321953" stroke-miterlimit="10"/>
<path d="M166.719 110.303C166.702 110.311 166.683 110.315 166.664 110.315C166.646 110.315 166.627 110.311 166.61 110.303C166.603 110.286 166.599 110.268 166.599 110.249C166.599 110.231 166.603 110.213 166.61 110.196V108.964C166.61 108.924 166.626 108.885 166.656 108.857C166.685 108.828 166.724 108.812 166.766 108.812H172C172.018 108.805 172.036 108.802 172.055 108.802C172.074 108.802 172.092 108.805 172.109 108.812C172.118 108.829 172.122 108.847 172.122 108.866C172.122 108.884 172.118 108.902 172.109 108.919V110.151C172.106 110.19 172.088 110.226 172.06 110.254C172.031 110.282 171.994 110.299 171.954 110.303H166.719Z" fill="#D6D8D6"/>
<path d="M171.953 108.888V110.12H166.719V108.888H171.953ZM171.953 108.584H166.703C166.623 108.588 166.548 108.622 166.493 108.678C166.438 108.735 166.407 108.81 166.407 108.888V110.12C166.411 110.199 166.445 110.275 166.502 110.331C166.56 110.387 166.637 110.42 166.719 110.424V110.424H171.953C172.035 110.42 172.112 110.387 172.169 110.331C172.227 110.275 172.261 110.199 172.265 110.12V108.888C172.261 108.809 172.227 108.734 172.169 108.677C172.112 108.621 172.035 108.588 171.953 108.584V108.584Z" fill="#D6D8D6"/>
<path d="M173.139 134.328C174.168 134.45 177.564 134.921 177.548 135.271C177.548 136.016 161.315 135.895 161.284 135.271C162.595 134.831 163.964 134.575 165.35 134.511C167.927 134.118 170.546 134.057 173.139 134.328Z" fill="#D3E6EF"/>
<path d="M167.641 124.703V134.618C168.204 134.933 168.845 135.091 169.495 135.074C170.044 135.046 170.578 134.89 171.052 134.618V124.703H167.641Z" fill="#A4D3F7" stroke="#A4D3F7" stroke-width="0.321953" stroke-miterlimit="10"/>
<path d="M190.539 104.053C190.691 104.496 190.816 104.948 190.913 105.406C191.042 105.767 191.075 106.155 191.006 106.531C190.929 106.808 190.797 107.066 190.617 107.292C190.169 107.667 189.643 107.941 189.075 108.096C188.507 108.251 187.911 108.283 187.329 108.189C188.191 107.979 188.978 107.542 189.604 106.927C189.917 106.63 190.17 106.28 190.352 105.893C190.608 105.313 190.673 104.67 190.539 104.053Z" fill="white"/>
<path d="M183.576 95.7507C183.235 95.7608 182.898 95.8277 182.579 95.9484C182.145 96.1174 181.767 96.4018 181.489 96.7695C181.279 97.0361 181.125 97.3412 181.037 97.6667L181.723 97.1801L182.611 96.5414C183.181 96.155 183.82 95.8764 184.496 95.7203C184.189 95.7098 183.882 95.72 183.576 95.7507V95.7507Z" fill="white"/>
<path d="M170.663 98.7305C170.362 98.7051 170.06 98.7051 169.759 98.7305C169.485 98.7467 169.218 98.8248 168.98 98.9586C168.661 99.2027 168.427 99.5374 168.31 99.9166C168.225 100.139 168.157 100.368 168.108 100.601C168.041 100.88 168.005 101.166 167.999 101.452C168.185 101.107 168.398 100.777 168.638 100.464C168.82 100.165 169.052 99.8983 169.323 99.6733C169.699 99.4392 170.117 99.2743 170.554 99.1867L171.769 98.7913C171.403 98.741 171.033 98.7206 170.663 98.7305Z" fill="white"/>
<path d="M171.766 109.77C171.718 109.825 171.666 109.876 171.61 109.922C171.349 110.128 171.026 110.245 170.691 110.257C170.98 110.303 171.275 110.303 171.564 110.257C171.706 110.256 171.843 110.208 171.953 110.12C172.069 109.967 172.124 109.778 172.109 109.588C172.131 109.406 172.131 109.222 172.109 109.04C172.064 109.309 171.945 109.561 171.766 109.77Z" fill="white"/>
<path d="M175.881 139.271C175.366 140.11 174.903 140.978 174.494 141.871C174.282 142.601 173.874 143.263 173.31 143.787C172.856 144.081 172.37 144.325 171.862 144.517C171.253 144.853 170.623 145.153 169.976 145.414C169.432 145.615 168.868 145.762 168.294 145.855C169.076 145.935 169.864 145.935 170.646 145.855C171.63 145.763 172.604 145.595 173.56 145.353C173.985 145.289 174.403 145.182 174.806 145.034C175.585 144.441 175.273 143.27 175.585 140.898C175.678 140.228 175.803 139.635 175.881 139.271Z" fill="white"/>
<path d="M98.6386 90.1543H93.4663C92.8813 90.1543 92.407 90.6172 92.407 91.1883V112.933C92.407 113.504 92.8813 113.967 93.4663 113.967H98.6386C99.2237 113.967 99.698 113.504 99.698 112.933V91.1883C99.698 90.6172 99.2237 90.1543 98.6386 90.1543Z" fill="#7F7F7F"/>
<path d="M98.6557 90.3975C98.7634 90.3955 98.8704 90.4144 98.9705 90.4532C99.0706 90.4921 99.1618 90.55 99.2387 90.6236C99.3155 90.6972 99.3766 90.7851 99.4183 90.882C99.46 90.979 99.4814 91.083 99.4814 91.1882V112.948C99.4814 113.162 99.3944 113.367 99.2396 113.518C99.0847 113.669 98.8747 113.754 98.6557 113.754H93.4679C93.3602 113.754 93.2535 113.733 93.1542 113.693C93.0549 113.652 92.9649 113.592 92.8895 113.517C92.8141 113.442 92.7547 113.353 92.7149 113.256C92.6751 113.158 92.6557 113.053 92.6578 112.948V91.1882C92.6578 91.0843 92.6787 90.9815 92.7194 90.8856C92.7602 90.7897 92.8198 90.7025 92.8951 90.6291C92.9703 90.5556 93.0596 90.4974 93.1579 90.4577C93.2562 90.4179 93.3615 90.3975 93.4679 90.3975H98.6557ZM98.6557 89.9413H93.4679C93.1291 89.9413 92.8042 90.0727 92.5646 90.3065C92.325 90.5403 92.1904 90.8575 92.1904 91.1882V112.948C92.1904 113.28 92.3245 113.599 92.5636 113.835C92.8028 114.072 93.1277 114.206 93.4679 114.21H98.6557C98.9987 114.21 99.3275 114.077 99.57 113.841C99.8125 113.604 99.9488 113.283 99.9488 112.948V91.1882C99.9447 90.8561 99.8067 90.539 99.5646 90.3055C99.3226 90.0721 98.996 89.9413 98.6557 89.9413V89.9413Z" fill="#7F7F7F"/>
<path d="M93.7478 90.5952C93.5639 90.644 93.3936 90.7323 93.2493 90.8537C93.0794 91.0025 92.9508 91.1908 92.8754 91.4011C92.7582 91.7172 92.7156 92.0551 92.7507 92.3895C92.7507 92.7545 92.7507 93.2867 92.7507 94.0014C92.8442 93.7429 93 93.3627 93.1714 92.8913C93.2932 92.3594 93.4926 91.8473 93.7633 91.3707C93.9675 91.1406 94.2182 90.9543 94.4997 90.8235C94.7813 90.6926 95.0875 90.6201 95.3992 90.6104C94.8585 90.4721 94.2911 90.4669 93.7478 90.5952V90.5952Z" fill="white"/>
<path d="M208.036 91.1276H202.864C202.278 91.1276 201.804 91.5905 201.804 92.1616V113.906C201.804 114.478 202.278 114.94 202.864 114.94H208.036C208.621 114.94 209.095 114.478 209.095 113.906V92.1616C209.095 91.5905 208.621 91.1276 208.036 91.1276Z" fill="#7F7F7F"/>
<path d="M208.051 91.3859C208.27 91.3859 208.48 91.4708 208.635 91.6219C208.79 91.7731 208.877 91.9781 208.877 92.1918V113.952C208.877 114.057 208.856 114.161 208.814 114.258C208.772 114.355 208.711 114.443 208.634 114.516C208.557 114.59 208.466 114.648 208.366 114.687C208.266 114.726 208.159 114.745 208.051 114.743H202.864C202.756 114.745 202.649 114.726 202.549 114.687C202.449 114.648 202.358 114.59 202.281 114.516C202.204 114.443 202.143 114.355 202.101 114.258C202.059 114.161 202.038 114.057 202.038 113.952V92.1614C202.038 91.9477 202.125 91.7427 202.28 91.5915C202.435 91.4404 202.645 91.3555 202.864 91.3555H208.051V91.3859ZM208.051 90.8993H202.864C202.521 90.8993 202.192 91.0323 201.949 91.269C201.707 91.5057 201.571 91.8267 201.571 92.1614V113.922C201.575 114.254 201.713 114.571 201.955 114.804C202.197 115.038 202.523 115.168 202.864 115.168H208.051C208.392 115.168 208.718 115.038 208.96 114.804C209.202 114.571 209.34 114.254 209.344 113.922V92.1614C209.344 91.8267 209.208 91.5057 208.966 91.269C208.723 91.0323 208.394 90.8993 208.051 90.8993V90.8993Z" fill="#7F7F7F"/>
<path d="M207.786 91.5687C207.967 91.6148 208.137 91.6977 208.284 91.812C208.447 91.9634 208.57 92.1513 208.643 92.3594C208.756 92.6818 208.803 93.0228 208.783 93.363C208.783 93.728 208.783 94.2602 208.783 94.9749L208.378 93.8496C208.25 93.3171 208.046 92.805 207.77 92.329C207.564 92.1024 207.313 91.9194 207.031 91.7913C206.75 91.6631 206.445 91.5926 206.134 91.5839C206.674 91.4411 207.243 91.4358 207.786 91.5687V91.5687Z" fill="white"/>
</g>
<rect x="27" y="215.78" width="135.22" height="22.5367" rx="5.36589" fill="#CCE6FF"/>
<path d="M35.5331 232V222.985H39.0488C39.8387 222.985 40.5126 223.109 41.0707 223.358C41.6287 223.607 42.058 223.968 42.3585 224.44C42.659 224.912 42.8092 225.475 42.8092 226.127C42.8092 226.78 42.659 227.342 42.3585 227.814C42.058 228.278 41.6287 228.638 41.0707 228.896C40.5126 229.145 39.8387 229.269 39.0488 229.269H36.2414L36.8209 228.664V232H35.5331ZM36.8209 228.793L36.2414 228.149H39.0102C39.8344 228.149 40.4568 227.973 40.8775 227.621C41.3068 227.269 41.5214 226.771 41.5214 226.127C41.5214 225.483 41.3068 224.985 40.8775 224.633C40.4568 224.281 39.8344 224.105 39.0102 224.105H36.2414L36.8209 223.461V228.793ZM48.2912 225.11C48.8492 225.11 49.3386 225.217 49.7593 225.432C50.1885 225.646 50.5234 225.973 50.7638 226.411C51.0042 226.848 51.1244 227.402 51.1244 228.072V232H49.8881V228.213C49.8881 227.552 49.7249 227.054 49.3987 226.72C49.081 226.385 48.6303 226.217 48.0465 226.217C47.6086 226.217 47.2266 226.303 46.9003 226.475C46.5741 226.647 46.3208 226.9 46.1405 227.235C45.9688 227.57 45.883 227.986 45.883 228.484V232H44.6467V222.444H45.883V227.016L45.6383 226.526C45.8615 226.08 46.2049 225.732 46.6685 225.483C47.1321 225.234 47.673 225.11 48.2912 225.11ZM53.5828 234.575C53.2565 234.575 52.9389 234.519 52.6298 234.408C52.3207 234.305 52.0546 234.15 51.8313 233.944L52.3593 233.017C52.5311 233.18 52.7199 233.305 52.926 233.39C53.132 233.476 53.351 233.519 53.5828 233.519C53.8833 233.519 54.1322 233.442 54.3297 233.287C54.5272 233.133 54.7118 232.858 54.8835 232.463L55.3084 231.523L55.4372 231.369L58.1159 225.174H59.3264L56.0167 232.682C55.8193 233.163 55.596 233.541 55.3471 233.815C55.1067 234.09 54.8405 234.283 54.5486 234.395C54.2567 234.515 53.9348 234.575 53.5828 234.575ZM55.2054 232.219L52.0889 225.174H53.3767L56.0296 231.253L55.2054 232.219ZM62.3497 232.077C61.783 232.077 61.2421 232 60.727 231.845C60.2205 231.691 59.8213 231.502 59.5293 231.278L60.0445 230.3C60.3364 230.497 60.697 230.665 61.1262 230.802C61.5555 230.939 61.9934 231.008 62.4398 231.008C63.015 231.008 63.4271 230.926 63.6761 230.763C63.9337 230.6 64.0624 230.373 64.0624 230.081C64.0624 229.866 63.9852 229.699 63.8306 229.579C63.6761 229.458 63.4701 229.368 63.2125 229.308C62.9635 229.248 62.6845 229.196 62.3754 229.154C62.0663 229.102 61.7573 229.042 61.4482 228.973C61.1391 228.896 60.8558 228.793 60.5982 228.664C60.3407 228.527 60.1346 228.342 59.9801 228.11C59.8255 227.87 59.7483 227.552 59.7483 227.157C59.7483 226.745 59.8642 226.385 60.096 226.076C60.3278 225.767 60.654 225.531 61.0747 225.367C61.504 225.196 62.0105 225.11 62.5943 225.11C63.0408 225.11 63.4915 225.166 63.9465 225.277C64.4102 225.38 64.7879 225.531 65.0798 225.728L64.5518 226.707C64.2427 226.501 63.9208 226.359 63.586 226.282C63.2511 226.204 62.9163 226.166 62.5815 226.166C62.0406 226.166 61.6371 226.256 61.3709 226.436C61.1048 226.608 60.9717 226.831 60.9717 227.106C60.9717 227.338 61.049 227.518 61.2035 227.647C61.3666 227.767 61.5727 227.861 61.8217 227.93C62.0792 227.999 62.3625 228.059 62.6716 228.11C62.9807 228.153 63.2898 228.213 63.5988 228.291C63.9079 228.359 64.1869 228.458 64.4359 228.587C64.6935 228.716 64.8995 228.896 65.0541 229.128C65.2172 229.36 65.2987 229.669 65.2987 230.055C65.2987 230.467 65.1786 230.823 64.9382 231.124C64.6978 231.424 64.3586 231.661 63.9208 231.832C63.4829 231.995 62.9592 232.077 62.3497 232.077ZM66.8438 232V225.174H68.0801V232H66.8438ZM67.462 223.861C67.2216 223.861 67.0198 223.783 66.8567 223.629C66.7022 223.474 66.6249 223.285 66.6249 223.062C66.6249 222.83 66.7022 222.637 66.8567 222.483C67.0198 222.328 67.2216 222.251 67.462 222.251C67.7024 222.251 67.8998 222.328 68.0544 222.483C68.2175 222.629 68.2991 222.813 68.2991 223.036C68.2991 223.268 68.2218 223.466 68.0672 223.629C67.9127 223.783 67.711 223.861 67.462 223.861ZM73.4155 232.077C72.7201 232.077 72.0976 231.927 71.5482 231.626C71.0073 231.326 70.5823 230.914 70.2732 230.39C69.9642 229.866 69.8096 229.265 69.8096 228.587C69.8096 227.909 69.9642 227.308 70.2732 226.784C70.5823 226.26 71.0073 225.852 71.5482 225.561C72.0976 225.26 72.7201 225.11 73.4155 225.11C74.0336 225.11 74.5831 225.234 75.0639 225.483C75.5533 225.724 75.931 226.084 76.1972 226.565L75.2571 227.17C75.0338 226.836 74.7591 226.591 74.4329 226.436C74.1152 226.273 73.7718 226.192 73.4026 226.192C72.9562 226.192 72.5569 226.29 72.2049 226.488C71.8529 226.685 71.5739 226.964 71.3679 227.325C71.1618 227.677 71.0588 228.098 71.0588 228.587C71.0588 229.076 71.1618 229.501 71.3679 229.862C71.5739 230.222 71.8529 230.501 72.2049 230.699C72.5569 230.896 72.9562 230.995 73.4026 230.995C73.7718 230.995 74.1152 230.918 74.4329 230.763C74.7591 230.6 75.0338 230.351 75.2571 230.016L76.1972 230.609C75.931 231.081 75.5533 231.446 75.0639 231.703C74.5831 231.952 74.0336 232.077 73.4155 232.077ZM82.0347 232V230.557L81.9703 230.287V227.827C81.9703 227.303 81.8158 226.9 81.5067 226.617C81.2062 226.325 80.7512 226.179 80.1416 226.179C79.7381 226.179 79.3432 226.247 78.9568 226.385C78.5705 226.514 78.2442 226.69 77.9781 226.913L77.4629 225.986C77.8149 225.702 78.2356 225.488 78.725 225.342C79.223 225.187 79.7424 225.11 80.2833 225.11C81.2191 225.11 81.9402 225.337 82.4468 225.792C82.9533 226.247 83.2066 226.943 83.2066 227.879V232H82.0347ZM79.7939 232.077C79.2873 232.077 78.8409 231.991 78.4546 231.819C78.0768 231.648 77.7849 231.412 77.5788 231.111C77.3728 230.802 77.2698 230.454 77.2698 230.068C77.2698 229.699 77.3556 229.364 77.5273 229.063C77.7076 228.763 77.9952 228.523 78.3902 228.342C78.7937 228.162 79.3346 228.072 80.0128 228.072H82.1763V228.96H80.0643C79.4462 228.96 79.0298 229.063 78.8151 229.269C78.6005 229.476 78.4932 229.724 78.4932 230.016C78.4932 230.351 78.6263 230.622 78.8924 230.828C79.1586 231.025 79.5277 231.124 79.9999 231.124C80.4635 231.124 80.8671 231.021 81.2105 230.815C81.5625 230.609 81.8158 230.308 81.9703 229.913L82.215 230.763C82.0519 231.167 81.7642 231.489 81.3521 231.729C80.94 231.961 80.4206 232.077 79.7939 232.077ZM85.4945 232V222.444H86.7308V232H85.4945ZM92.7301 232V222.985H96.2458C97.0357 222.985 97.7096 223.109 98.2677 223.358C98.8257 223.607 99.255 223.968 99.5555 224.44C99.856 224.912 100.006 225.475 100.006 226.127C100.006 226.78 99.856 227.342 99.5555 227.814C99.255 228.278 98.8257 228.638 98.2677 228.896C97.7096 229.145 97.0357 229.269 96.2458 229.269H93.4384L94.0179 228.664V232H92.7301ZM94.0179 228.793L93.4384 228.149H96.2072C97.0314 228.149 97.6538 227.973 98.0745 227.621C98.5038 227.269 98.7184 226.771 98.7184 226.127C98.7184 225.483 98.5038 224.985 98.0745 224.633C97.6538 224.281 97.0314 224.105 96.2072 224.105H93.4384L94.0179 223.461V228.793ZM101.592 232V225.174H102.777V227.029L102.661 226.565C102.85 226.093 103.168 225.732 103.614 225.483C104.06 225.234 104.61 225.11 105.262 225.11V226.308C105.211 226.299 105.159 226.295 105.108 226.295C105.065 226.295 105.022 226.295 104.979 226.295C104.318 226.295 103.794 226.492 103.408 226.887C103.022 227.282 102.828 227.853 102.828 228.6V232H101.592ZM109.647 232.077C108.96 232.077 108.35 231.927 107.818 231.626C107.286 231.326 106.865 230.914 106.556 230.39C106.247 229.858 106.092 229.257 106.092 228.587C106.092 227.909 106.247 227.308 106.556 226.784C106.865 226.26 107.286 225.852 107.818 225.561C108.35 225.26 108.96 225.11 109.647 225.11C110.325 225.11 110.93 225.26 111.462 225.561C112.003 225.852 112.424 226.26 112.724 226.784C113.034 227.299 113.188 227.9 113.188 228.587C113.188 229.265 113.034 229.866 112.724 230.39C112.424 230.914 112.003 231.326 111.462 231.626C110.93 231.927 110.325 232.077 109.647 232.077ZM109.647 230.995C110.084 230.995 110.475 230.896 110.819 230.699C111.171 230.501 111.445 230.222 111.643 229.862C111.84 229.493 111.939 229.068 111.939 228.587C111.939 228.098 111.84 227.677 111.643 227.325C111.445 226.964 111.171 226.685 110.819 226.488C110.475 226.29 110.084 226.192 109.647 226.192C109.209 226.192 108.818 226.29 108.475 226.488C108.131 226.685 107.857 226.964 107.65 227.325C107.444 227.677 107.341 228.098 107.341 228.587C107.341 229.068 107.444 229.493 107.65 229.862C107.857 230.222 108.131 230.501 108.475 230.699C108.818 230.896 109.209 230.995 109.647 230.995ZM117.242 232.077C116.555 232.077 116.023 231.892 115.645 231.523C115.267 231.154 115.078 230.626 115.078 229.939V223.68H116.314V229.888C116.314 230.257 116.405 230.54 116.585 230.738C116.774 230.935 117.04 231.034 117.383 231.034C117.77 231.034 118.092 230.926 118.349 230.712L118.736 231.6C118.547 231.764 118.319 231.884 118.053 231.961C117.795 232.038 117.525 232.077 117.242 232.077ZM113.919 226.192V225.174H118.272V226.192H113.919ZM122.927 232.077C122.24 232.077 121.631 231.927 121.098 231.626C120.566 231.326 120.145 230.914 119.836 230.39C119.527 229.858 119.373 229.257 119.373 228.587C119.373 227.909 119.527 227.308 119.836 226.784C120.145 226.26 120.566 225.852 121.098 225.561C121.631 225.26 122.24 225.11 122.927 225.11C123.605 225.11 124.211 225.26 124.743 225.561C125.284 225.852 125.705 226.26 126.005 226.784C126.314 227.299 126.469 227.9 126.469 228.587C126.469 229.265 126.314 229.866 126.005 230.39C125.705 230.914 125.284 231.326 124.743 231.626C124.211 231.927 123.605 232.077 122.927 232.077ZM122.927 230.995C123.365 230.995 123.756 230.896 124.099 230.699C124.451 230.501 124.726 230.222 124.923 229.862C125.121 229.493 125.219 229.068 125.219 228.587C125.219 228.098 125.121 227.677 124.923 227.325C124.726 226.964 124.451 226.685 124.099 226.488C123.756 226.29 123.365 226.192 122.927 226.192C122.489 226.192 122.099 226.29 121.755 226.488C121.412 226.685 121.137 226.964 120.931 227.325C120.725 227.677 120.622 228.098 120.622 228.587C120.622 229.068 120.725 229.493 120.931 229.862C121.137 230.222 121.412 230.501 121.755 230.699C122.099 230.896 122.489 230.995 122.927 230.995ZM130.522 232.077C129.835 232.077 129.303 231.892 128.925 231.523C128.548 231.154 128.359 230.626 128.359 229.939V223.68H129.595V229.888C129.595 230.257 129.685 230.54 129.865 230.738C130.054 230.935 130.32 231.034 130.664 231.034C131.05 231.034 131.372 230.926 131.63 230.712L132.016 231.6C131.827 231.764 131.6 231.884 131.334 231.961C131.076 232.038 130.806 232.077 130.522 232.077ZM127.2 226.192V225.174H131.552V226.192H127.2ZM133.681 234.575C133.355 234.575 133.037 234.519 132.728 234.408C132.419 234.305 132.153 234.15 131.93 233.944L132.458 233.017C132.629 233.18 132.818 233.305 133.024 233.39C133.23 233.476 133.449 233.519 133.681 233.519C133.982 233.519 134.231 233.442 134.428 233.287C134.626 233.133 134.81 232.858 134.982 232.463L135.407 231.523L135.536 231.369L138.214 225.174H139.425L136.115 232.682C135.918 233.163 135.694 233.541 135.446 233.815C135.205 234.09 134.939 234.283 134.647 234.395C134.355 234.515 134.033 234.575 133.681 234.575ZM135.304 232.219L132.187 225.174H133.475L136.128 231.253L135.304 232.219ZM144.197 232.077C143.631 232.077 143.111 231.948 142.639 231.691C142.176 231.424 141.802 231.034 141.519 230.519C141.244 230.004 141.107 229.36 141.107 228.587C141.107 227.814 141.24 227.17 141.506 226.655C141.781 226.14 142.15 225.754 142.613 225.496C143.086 225.239 143.614 225.11 144.197 225.11C144.867 225.11 145.459 225.256 145.975 225.548C146.49 225.84 146.898 226.247 147.198 226.771C147.499 227.286 147.649 227.892 147.649 228.587C147.649 229.282 147.499 229.892 147.198 230.416C146.898 230.939 146.49 231.347 145.975 231.639C145.459 231.931 144.867 232.077 144.197 232.077ZM140.579 234.498V225.174H141.763V227.016L141.686 228.6L141.815 230.184V234.498H140.579ZM144.094 230.995C144.532 230.995 144.923 230.896 145.266 230.699C145.618 230.501 145.893 230.222 146.09 229.862C146.297 229.493 146.4 229.068 146.4 228.587C146.4 228.098 146.297 227.677 146.09 227.325C145.893 226.964 145.618 226.685 145.266 226.488C144.923 226.29 144.532 226.192 144.094 226.192C143.665 226.192 143.274 226.29 142.922 226.488C142.579 226.685 142.304 226.964 142.098 227.325C141.901 227.677 141.802 228.098 141.802 228.587C141.802 229.068 141.901 229.493 142.098 229.862C142.304 230.222 142.579 230.501 142.922 230.699C143.274 230.896 143.665 230.995 144.094 230.995ZM152.396 232.077C151.666 232.077 151.022 231.927 150.464 231.626C149.915 231.326 149.486 230.914 149.177 230.39C148.876 229.866 148.726 229.265 148.726 228.587C148.726 227.909 148.872 227.308 149.164 226.784C149.464 226.26 149.872 225.852 150.387 225.561C150.911 225.26 151.499 225.11 152.151 225.11C152.813 225.11 153.396 225.256 153.903 225.548C154.409 225.84 154.804 226.252 155.088 226.784C155.38 227.308 155.526 227.922 155.526 228.626C155.526 228.677 155.521 228.737 155.513 228.806C155.513 228.875 155.508 228.939 155.5 228.999H149.692V228.11H154.856L154.354 228.42C154.362 227.982 154.272 227.591 154.083 227.248C153.894 226.904 153.632 226.638 153.298 226.449C152.971 226.252 152.589 226.153 152.151 226.153C151.722 226.153 151.34 226.252 151.005 226.449C150.67 226.638 150.409 226.908 150.22 227.26C150.031 227.604 149.936 227.999 149.936 228.445V228.651C149.936 229.106 150.039 229.514 150.246 229.875C150.46 230.227 150.756 230.501 151.134 230.699C151.512 230.896 151.945 230.995 152.435 230.995C152.838 230.995 153.203 230.926 153.529 230.789C153.864 230.652 154.156 230.446 154.405 230.171L155.088 230.969C154.779 231.33 154.392 231.605 153.929 231.794C153.474 231.982 152.963 232.077 152.396 232.077Z" fill="#202020"/>
<rect x="27" y="245.829" width="125.562" height="22.5367" rx="5.36589" fill="#CCE6FF"/>
<path d="M35.7842 262.048V253.034H36.8402L40.884 259.846H40.3173L44.3095 253.034H45.3656L45.3784 262.048H44.1421L44.1293 254.978H44.4255L40.8711 260.954H40.2787L36.6986 254.978H37.0205V262.048H35.7842ZM50.8269 262.126C50.1401 262.126 49.5305 261.975 48.9982 261.675C48.4659 261.374 48.0452 260.962 47.7361 260.439C47.4271 259.906 47.2725 259.305 47.2725 258.636C47.2725 257.957 47.4271 257.356 47.7361 256.833C48.0452 256.309 48.4659 255.901 48.9982 255.609C49.5305 255.309 50.1401 255.159 50.8269 255.159C51.5051 255.159 52.1104 255.309 52.6427 255.609C53.1836 255.901 53.6043 256.309 53.9048 256.833C54.2138 257.348 54.3684 257.949 54.3684 258.636C54.3684 259.314 54.2138 259.915 53.9048 260.439C53.6043 260.962 53.1836 261.374 52.6427 261.675C52.1104 261.975 51.5051 262.126 50.8269 262.126ZM50.8269 261.044C51.2647 261.044 51.6554 260.945 51.9988 260.748C52.3508 260.55 52.6255 260.271 52.823 259.911C53.0205 259.541 53.1192 259.116 53.1192 258.636C53.1192 258.146 53.0205 257.726 52.823 257.374C52.6255 257.013 52.3508 256.734 51.9988 256.537C51.6554 256.339 51.2647 256.24 50.8269 256.24C50.389 256.24 49.9984 256.339 49.655 256.537C49.3116 256.734 49.0368 257.013 48.8308 257.374C48.6247 257.726 48.5217 258.146 48.5217 258.636C48.5217 259.116 48.6247 259.541 48.8308 259.911C49.0368 260.271 49.3116 260.55 49.655 260.748C49.9984 260.945 50.389 261.044 50.8269 261.044ZM59.6969 262.126C59.1131 262.126 58.5851 261.997 58.1129 261.739C57.6493 261.473 57.2801 261.082 57.0054 260.567C56.7392 260.052 56.6061 259.408 56.6061 258.636C56.6061 257.863 56.7435 257.219 57.0182 256.704C57.3016 256.189 57.675 255.802 58.1386 255.545C58.6108 255.287 59.1303 255.159 59.6969 255.159C60.3666 255.159 60.959 255.304 61.4741 255.596C61.9892 255.888 62.397 256.296 62.6975 256.82C62.998 257.335 63.1482 257.94 63.1482 258.636C63.1482 259.331 62.998 259.941 62.6975 260.464C62.397 260.988 61.9892 261.396 61.4741 261.688C60.959 261.98 60.3666 262.126 59.6969 262.126ZM56.0781 262.048V252.493H57.3144V257.039L57.1857 258.623L57.2629 260.207V262.048H56.0781ZM59.5939 261.044C60.0317 261.044 60.4224 260.945 60.7658 260.748C61.1178 260.55 61.3925 260.271 61.59 259.911C61.796 259.541 61.8991 259.116 61.8991 258.636C61.8991 258.146 61.796 257.726 61.59 257.374C61.3925 257.013 61.1178 256.734 60.7658 256.537C60.4224 256.339 60.0317 256.24 59.5939 256.24C59.1646 256.24 58.774 256.339 58.422 256.537C58.0785 256.734 57.8038 257.013 57.5978 257.374C57.4003 257.726 57.3016 258.146 57.3016 258.636C57.3016 259.116 57.4003 259.541 57.5978 259.911C57.8038 260.271 58.0785 260.55 58.422 260.748C58.774 260.945 59.1646 261.044 59.5939 261.044ZM64.8564 262.048V255.223H66.0927V262.048H64.8564ZM65.4746 253.909C65.2342 253.909 65.0324 253.832 64.8693 253.678C64.7147 253.523 64.6375 253.334 64.6375 253.111C64.6375 252.879 64.7147 252.686 64.8693 252.531C65.0324 252.377 65.2342 252.3 65.4746 252.3C65.7149 252.3 65.9124 252.377 66.0669 252.531C66.2301 252.677 66.3116 252.862 66.3116 253.085C66.3116 253.317 66.2344 253.514 66.0798 253.678C65.9253 253.832 65.7235 253.909 65.4746 253.909ZM68.4532 262.048V252.493H69.6895V262.048H68.4532ZM75.0893 262.126C74.3595 262.126 73.7156 261.975 73.1576 261.675C72.6081 261.374 72.1788 260.962 71.8697 260.439C71.5693 259.915 71.419 259.314 71.419 258.636C71.419 257.957 71.565 257.356 71.8569 256.833C72.1574 256.309 72.5652 255.901 73.0803 255.609C73.604 255.309 74.1921 255.159 74.8446 255.159C75.5057 255.159 76.0895 255.304 76.596 255.596C77.1026 255.888 77.4975 256.3 77.7808 256.833C78.0727 257.356 78.2187 257.97 78.2187 258.674C78.2187 258.726 78.2144 258.786 78.2058 258.855C78.2058 258.923 78.2015 258.988 78.1929 259.048H72.3849V258.159H77.549L77.0468 258.468C77.0553 258.03 76.9652 257.64 76.7763 257.296C76.5874 256.953 76.3256 256.687 75.9907 256.498C75.6645 256.3 75.2825 256.202 74.8446 256.202C74.4153 256.202 74.0333 256.3 73.6984 256.498C73.3636 256.687 73.1018 256.957 72.9129 257.309C72.724 257.653 72.6296 258.048 72.6296 258.494V258.7C72.6296 259.155 72.7326 259.563 72.9386 259.923C73.1533 260.275 73.4495 260.55 73.8272 260.748C74.205 260.945 74.6385 261.044 75.1279 261.044C75.5314 261.044 75.8963 260.975 76.2226 260.838C76.5574 260.7 76.8493 260.494 77.0983 260.22L77.7808 261.018C77.4717 261.379 77.0854 261.653 76.6218 261.842C76.1668 262.031 75.6559 262.126 75.0893 262.126ZM87.3088 262.151C86.124 262.151 85.1925 261.812 84.5143 261.134C83.836 260.456 83.4969 259.464 83.4969 258.159V253.034H84.7847V258.108C84.7847 259.112 85.0036 259.846 85.4415 260.31C85.8879 260.773 86.5147 261.005 87.3217 261.005C88.1373 261.005 88.764 260.773 89.2019 260.31C89.6483 259.846 89.8716 259.112 89.8716 258.108V253.034H91.1207V258.159C91.1207 259.464 90.7816 260.456 90.1034 261.134C89.4337 261.812 88.5022 262.151 87.3088 262.151ZM93.761 262.048V253.034H95.0488V262.048H93.761ZM101.206 262.048V253.034H105.005C105.967 253.034 106.812 253.223 107.542 253.6C108.281 253.978 108.851 254.506 109.255 255.184C109.667 255.863 109.873 256.648 109.873 257.541C109.873 258.434 109.667 259.219 109.255 259.898C108.851 260.576 108.281 261.104 107.542 261.482C106.812 261.859 105.967 262.048 105.005 262.048H101.206ZM102.494 260.928H104.928C105.675 260.928 106.319 260.786 106.86 260.503C107.409 260.22 107.834 259.825 108.135 259.318C108.435 258.803 108.585 258.211 108.585 257.541C108.585 256.863 108.435 256.27 108.135 255.764C107.834 255.257 107.409 254.862 106.86 254.579C106.319 254.296 105.675 254.154 104.928 254.154H102.494V260.928ZM114.705 262.126C113.975 262.126 113.331 261.975 112.773 261.675C112.223 261.374 111.794 260.962 111.485 260.439C111.185 259.915 111.034 259.314 111.034 258.636C111.034 257.957 111.18 257.356 111.472 256.833C111.773 256.309 112.181 255.901 112.696 255.609C113.219 255.309 113.807 255.159 114.46 255.159C115.121 255.159 115.705 255.304 116.211 255.596C116.718 255.888 117.113 256.3 117.396 256.833C117.688 257.356 117.834 257.97 117.834 258.674C117.834 258.726 117.83 258.786 117.821 258.855C117.821 258.923 117.817 258.988 117.808 259.048H112V258.159H117.164L116.662 258.468C116.671 258.03 116.581 257.64 116.392 257.296C116.203 256.953 115.941 256.687 115.606 256.498C115.28 256.3 114.898 256.202 114.46 256.202C114.031 256.202 113.649 256.3 113.314 256.498C112.979 256.687 112.717 256.957 112.528 257.309C112.339 257.653 112.245 258.048 112.245 258.494V258.7C112.245 259.155 112.348 259.563 112.554 259.923C112.769 260.275 113.065 260.55 113.443 260.748C113.82 260.945 114.254 261.044 114.743 261.044C115.147 261.044 115.512 260.975 115.838 260.838C116.173 260.7 116.465 260.494 116.714 260.22L117.396 261.018C117.087 261.379 116.701 261.653 116.237 261.842C115.782 262.031 115.271 262.126 114.705 262.126ZM121.508 262.126C120.942 262.126 120.401 262.048 119.886 261.894C119.379 261.739 118.98 261.55 118.688 261.327L119.203 260.348C119.495 260.546 119.855 260.713 120.285 260.851C120.714 260.988 121.152 261.057 121.598 261.057C122.174 261.057 122.586 260.975 122.835 260.812C123.092 260.649 123.221 260.421 123.221 260.129C123.221 259.915 123.144 259.747 122.989 259.627C122.835 259.507 122.629 259.417 122.371 259.357C122.122 259.297 121.843 259.245 121.534 259.202C121.225 259.151 120.916 259.091 120.607 259.022C120.298 258.945 120.014 258.842 119.757 258.713C119.499 258.576 119.293 258.391 119.139 258.159C118.984 257.919 118.907 257.601 118.907 257.206C118.907 256.794 119.023 256.433 119.255 256.124C119.486 255.815 119.813 255.579 120.233 255.416C120.663 255.244 121.169 255.159 121.753 255.159C122.199 255.159 122.65 255.214 123.105 255.326C123.569 255.429 123.946 255.579 124.238 255.777L123.71 256.755C123.401 256.549 123.079 256.408 122.744 256.33C122.41 256.253 122.075 256.215 121.74 256.215C121.199 256.215 120.796 256.305 120.529 256.485C120.263 256.657 120.13 256.88 120.13 257.155C120.13 257.386 120.208 257.567 120.362 257.696C120.525 257.816 120.731 257.91 120.98 257.979C121.238 258.048 121.521 258.108 121.83 258.159C122.139 258.202 122.448 258.262 122.757 258.339C123.066 258.408 123.345 258.507 123.594 258.636C123.852 258.764 124.058 258.945 124.213 259.177C124.376 259.408 124.457 259.717 124.457 260.104C124.457 260.516 124.337 260.872 124.097 261.173C123.856 261.473 123.517 261.709 123.079 261.881C122.641 262.044 122.118 262.126 121.508 262.126ZM126.002 262.048V255.223H127.239V262.048H126.002ZM126.621 253.909C126.38 253.909 126.178 253.832 126.015 253.678C125.861 253.523 125.783 253.334 125.783 253.111C125.783 252.879 125.861 252.686 126.015 252.531C126.178 252.377 126.38 252.3 126.621 252.3C126.861 252.3 127.058 252.377 127.213 252.531C127.376 252.677 127.458 252.862 127.458 253.085C127.458 253.317 127.38 253.514 127.226 253.678C127.071 253.832 126.869 253.909 126.621 253.909ZM132.587 264.624C131.96 264.624 131.351 264.534 130.758 264.354C130.174 264.182 129.698 263.933 129.329 263.607L129.921 262.654C130.239 262.928 130.629 263.143 131.093 263.298C131.557 263.461 132.042 263.542 132.548 263.542C133.355 263.542 133.948 263.353 134.325 262.976C134.703 262.598 134.892 262.023 134.892 261.25V259.808L135.021 258.455L134.956 257.09V255.223H136.128V261.121C136.128 262.323 135.828 263.207 135.227 263.774C134.626 264.341 133.746 264.624 132.587 264.624ZM132.432 261.765C131.771 261.765 131.179 261.628 130.655 261.353C130.14 261.07 129.728 260.679 129.419 260.181C129.118 259.683 128.968 259.108 128.968 258.455C128.968 257.794 129.118 257.219 129.419 256.73C129.728 256.232 130.14 255.845 130.655 255.571C131.179 255.296 131.771 255.159 132.432 255.159C133.016 255.159 133.548 255.279 134.029 255.519C134.51 255.751 134.892 256.112 135.175 256.601C135.467 257.09 135.613 257.708 135.613 258.455C135.613 259.194 135.467 259.808 135.175 260.297C134.892 260.786 134.51 261.155 134.029 261.404C133.548 261.645 133.016 261.765 132.432 261.765ZM132.574 260.683C133.029 260.683 133.433 260.589 133.785 260.4C134.137 260.211 134.411 259.949 134.609 259.614C134.815 259.28 134.918 258.893 134.918 258.455C134.918 258.017 134.815 257.631 134.609 257.296C134.411 256.961 134.137 256.704 133.785 256.524C133.433 256.335 133.029 256.24 132.574 256.24C132.119 256.24 131.711 256.335 131.351 256.524C130.999 256.704 130.72 256.961 130.514 257.296C130.316 257.631 130.217 258.017 130.217 258.455C130.217 258.893 130.316 259.28 130.514 259.614C130.72 259.949 130.999 260.211 131.351 260.4C131.711 260.589 132.119 260.683 132.574 260.683ZM142.135 255.159C142.693 255.159 143.183 255.266 143.603 255.48C144.033 255.695 144.367 256.021 144.608 256.459C144.848 256.897 144.968 257.451 144.968 258.121V262.048H143.732V258.262C143.732 257.601 143.569 257.103 143.243 256.768C142.925 256.433 142.474 256.266 141.89 256.266C141.453 256.266 141.071 256.352 140.744 256.524C140.418 256.695 140.165 256.949 139.984 257.283C139.813 257.618 139.727 258.035 139.727 258.533V262.048H138.491V255.223H139.675V257.065L139.482 256.575C139.705 256.129 140.049 255.781 140.512 255.532C140.976 255.283 141.517 255.159 142.135 255.159Z" fill="#202020"/>
<rect x="169.732" y="215.78" width="113.757" height="22.5367" rx="5.36589" fill="#CCE6FF"/>
<path d="M177.267 232V222.985H181.311C182.35 222.985 183.148 223.195 183.706 223.616C184.264 224.028 184.543 224.595 184.543 225.316C184.543 225.805 184.432 226.217 184.208 226.552C183.994 226.887 183.702 227.145 183.333 227.325C182.963 227.505 182.564 227.595 182.135 227.595L182.367 227.209C182.882 227.209 183.337 227.299 183.732 227.479C184.127 227.66 184.44 227.926 184.672 228.278C184.904 228.621 185.02 229.051 185.02 229.566C185.02 230.338 184.728 230.939 184.144 231.369C183.569 231.789 182.71 232 181.568 232H177.267ZM178.555 230.957H181.517C182.229 230.957 182.775 230.836 183.152 230.596C183.53 230.356 183.719 229.978 183.719 229.463C183.719 228.939 183.53 228.557 183.152 228.316C182.775 228.076 182.229 227.956 181.517 227.956H178.439V226.913H181.195C181.847 226.913 182.354 226.793 182.714 226.552C183.075 226.312 183.255 225.951 183.255 225.47C183.255 224.99 183.075 224.629 182.714 224.389C182.354 224.148 181.847 224.028 181.195 224.028H178.555V230.957ZM189.705 232.077C189.121 232.077 188.606 231.97 188.16 231.755C187.722 231.54 187.378 231.214 187.13 230.776C186.889 230.33 186.769 229.772 186.769 229.102V225.174H188.005V228.96C188.005 229.63 188.164 230.132 188.482 230.467C188.808 230.802 189.263 230.969 189.847 230.969C190.276 230.969 190.65 230.884 190.967 230.712C191.285 230.532 191.53 230.274 191.701 229.939C191.873 229.596 191.959 229.184 191.959 228.703V225.174H193.195V232H192.023V230.158L192.216 230.647C191.993 231.102 191.658 231.454 191.212 231.703C190.765 231.952 190.263 232.077 189.705 232.077ZM197.506 232.077C196.94 232.077 196.399 232 195.884 231.845C195.377 231.691 194.978 231.502 194.686 231.278L195.201 230.3C195.493 230.497 195.853 230.665 196.283 230.802C196.712 230.939 197.15 231.008 197.596 231.008C198.172 231.008 198.584 230.926 198.833 230.763C199.09 230.6 199.219 230.373 199.219 230.081C199.219 229.866 199.142 229.699 198.987 229.579C198.833 229.458 198.627 229.368 198.369 229.308C198.12 229.248 197.841 229.196 197.532 229.154C197.223 229.102 196.914 229.042 196.605 228.973C196.296 228.896 196.012 228.793 195.755 228.664C195.497 228.527 195.291 228.342 195.137 228.11C194.982 227.87 194.905 227.552 194.905 227.157C194.905 226.745 195.021 226.385 195.253 226.076C195.484 225.767 195.811 225.531 196.231 225.367C196.661 225.196 197.167 225.11 197.751 225.11C198.197 225.11 198.648 225.166 199.103 225.277C199.567 225.38 199.944 225.531 200.236 225.728L199.708 226.707C199.399 226.501 199.077 226.359 198.742 226.282C198.408 226.204 198.073 226.166 197.738 226.166C197.197 226.166 196.794 226.256 196.527 226.436C196.261 226.608 196.128 226.831 196.128 227.106C196.128 227.338 196.205 227.518 196.36 227.647C196.523 227.767 196.729 227.861 196.978 227.93C197.236 227.999 197.519 228.059 197.828 228.11C198.137 228.153 198.446 228.213 198.755 228.291C199.064 228.359 199.343 228.458 199.592 228.587C199.85 228.716 200.056 228.896 200.211 229.128C200.374 229.36 200.455 229.669 200.455 230.055C200.455 230.467 200.335 230.823 200.095 231.124C199.854 231.424 199.515 231.661 199.077 231.832C198.639 231.995 198.116 232.077 197.506 232.077ZM202 232V225.174H203.237V232H202ZM202.618 223.861C202.378 223.861 202.176 223.783 202.013 223.629C201.859 223.474 201.781 223.285 201.781 223.062C201.781 222.83 201.859 222.637 202.013 222.483C202.176 222.328 202.378 222.251 202.618 222.251C202.859 222.251 203.056 222.328 203.211 222.483C203.374 222.629 203.456 222.813 203.456 223.036C203.456 223.268 203.378 223.466 203.224 223.629C203.069 223.783 202.867 223.861 202.618 223.861ZM209.242 225.11C209.8 225.11 210.289 225.217 210.71 225.432C211.139 225.646 211.474 225.973 211.714 226.411C211.955 226.848 212.075 227.402 212.075 228.072V232H210.839V228.213C210.839 227.552 210.675 227.054 210.349 226.72C210.032 226.385 209.581 226.217 208.997 226.217C208.559 226.217 208.177 226.303 207.851 226.475C207.525 226.647 207.271 226.9 207.091 227.235C206.919 227.57 206.833 227.986 206.833 228.484V232H205.597V225.174H206.782V227.016L206.589 226.526C206.812 226.08 207.155 225.732 207.619 225.483C208.083 225.234 208.624 225.11 209.242 225.11ZM217.402 232.077C216.672 232.077 216.028 231.927 215.47 231.626C214.921 231.326 214.492 230.914 214.183 230.39C213.882 229.866 213.732 229.265 213.732 228.587C213.732 227.909 213.878 227.308 214.17 226.784C214.47 226.26 214.878 225.852 215.393 225.561C215.917 225.26 216.505 225.11 217.157 225.11C217.818 225.11 218.402 225.256 218.909 225.548C219.415 225.84 219.81 226.252 220.094 226.784C220.386 227.308 220.531 227.922 220.531 228.626C220.531 228.677 220.527 228.737 220.519 228.806C220.519 228.875 220.514 228.939 220.506 228.999H214.698V228.11H219.862L219.36 228.42C219.368 227.982 219.278 227.591 219.089 227.248C218.9 226.904 218.638 226.638 218.304 226.449C217.977 226.252 217.595 226.153 217.157 226.153C216.728 226.153 216.346 226.252 216.011 226.449C215.676 226.638 215.415 226.908 215.226 227.26C215.037 227.604 214.942 227.999 214.942 228.445V228.651C214.942 229.106 215.045 229.514 215.251 229.875C215.466 230.227 215.762 230.501 216.14 230.699C216.518 230.896 216.951 230.995 217.441 230.995C217.844 230.995 218.209 230.926 218.535 230.789C218.87 230.652 219.162 230.446 219.411 230.171L220.094 230.969C219.785 231.33 219.398 231.605 218.935 231.794C218.48 231.982 217.969 232.077 217.402 232.077ZM224.206 232.077C223.639 232.077 223.098 232 222.583 231.845C222.076 231.691 221.677 231.502 221.385 231.278L221.9 230.3C222.192 230.497 222.553 230.665 222.982 230.802C223.412 230.939 223.849 231.008 224.296 231.008C224.871 231.008 225.283 230.926 225.532 230.763C225.79 230.6 225.918 230.373 225.918 230.081C225.918 229.866 225.841 229.699 225.687 229.579C225.532 229.458 225.326 229.368 225.068 229.308C224.82 229.248 224.54 229.196 224.231 229.154C223.922 229.102 223.613 229.042 223.304 228.973C222.995 228.896 222.712 228.793 222.454 228.664C222.197 228.527 221.991 228.342 221.836 228.11C221.682 227.87 221.604 227.552 221.604 227.157C221.604 226.745 221.72 226.385 221.952 226.076C222.184 225.767 222.51 225.531 222.931 225.367C223.36 225.196 223.867 225.11 224.45 225.11C224.897 225.11 225.348 225.166 225.803 225.277C226.266 225.38 226.644 225.531 226.936 225.728L226.408 226.707C226.099 226.501 225.777 226.359 225.442 226.282C225.107 226.204 224.772 226.166 224.437 226.166C223.897 226.166 223.493 226.256 223.227 226.436C222.961 226.608 222.828 226.831 222.828 227.106C222.828 227.338 222.905 227.518 223.059 227.647C223.223 227.767 223.429 227.861 223.678 227.93C223.935 227.999 224.219 228.059 224.528 228.11C224.837 228.153 225.146 228.213 225.455 228.291C225.764 228.359 226.043 228.458 226.292 228.587C226.549 228.716 226.756 228.896 226.91 229.128C227.073 229.36 227.155 229.669 227.155 230.055C227.155 230.467 227.035 230.823 226.794 231.124C226.554 231.424 226.215 231.661 225.777 231.832C225.339 231.995 224.815 232.077 224.206 232.077ZM230.657 232.077C230.091 232.077 229.55 232 229.035 231.845C228.528 231.691 228.129 231.502 227.837 231.278L228.352 230.3C228.644 230.497 229.005 230.665 229.434 230.802C229.863 230.939 230.301 231.008 230.747 231.008C231.323 231.008 231.735 230.926 231.984 230.763C232.241 230.6 232.37 230.373 232.37 230.081C232.37 229.866 232.293 229.699 232.138 229.579C231.984 229.458 231.778 229.368 231.52 229.308C231.271 229.248 230.992 229.196 230.683 229.154C230.374 229.102 230.065 229.042 229.756 228.973C229.447 228.896 229.163 228.793 228.906 228.664C228.648 228.527 228.442 228.342 228.288 228.11C228.133 227.87 228.056 227.552 228.056 227.157C228.056 226.745 228.172 226.385 228.404 226.076C228.635 225.767 228.962 225.531 229.382 225.367C229.812 225.196 230.318 225.11 230.902 225.11C231.348 225.11 231.799 225.166 232.254 225.277C232.718 225.38 233.096 225.531 233.387 225.728L232.859 226.707C232.55 226.501 232.228 226.359 231.894 226.282C231.559 226.204 231.224 226.166 230.889 226.166C230.348 226.166 229.945 226.256 229.679 226.436C229.412 226.608 229.279 226.831 229.279 227.106C229.279 227.338 229.357 227.518 229.511 227.647C229.674 227.767 229.88 227.861 230.129 227.93C230.387 227.999 230.67 228.059 230.979 228.11C231.288 228.153 231.597 228.213 231.906 228.291C232.216 228.359 232.495 228.458 232.744 228.587C233.001 228.716 233.207 228.896 233.362 229.128C233.525 229.36 233.606 229.669 233.606 230.055C233.606 230.467 233.486 230.823 233.246 231.124C233.005 231.424 232.666 231.661 232.228 231.832C231.791 231.995 231.267 232.077 230.657 232.077ZM238.79 232V222.985H239.846L243.89 229.797H243.323L247.316 222.985H248.372L248.384 232H247.148L247.135 224.93H247.431L243.877 230.905H243.285L239.705 224.93H240.027V232H238.79ZM253.833 232.077C253.146 232.077 252.537 231.927 252.004 231.626C251.472 231.326 251.051 230.914 250.742 230.39C250.433 229.858 250.279 229.257 250.279 228.587C250.279 227.909 250.433 227.308 250.742 226.784C251.051 226.26 251.472 225.852 252.004 225.561C252.537 225.26 253.146 225.11 253.833 225.11C254.511 225.11 255.116 225.26 255.649 225.561C256.19 225.852 256.61 226.26 256.911 226.784C257.22 227.299 257.374 227.9 257.374 228.587C257.374 229.265 257.22 229.866 256.911 230.39C256.61 230.914 256.19 231.326 255.649 231.626C255.116 231.927 254.511 232.077 253.833 232.077ZM253.833 230.995C254.271 230.995 254.661 230.896 255.005 230.699C255.357 230.501 255.632 230.222 255.829 229.862C256.026 229.493 256.125 229.068 256.125 228.587C256.125 228.098 256.026 227.677 255.829 227.325C255.632 226.964 255.357 226.685 255.005 226.488C254.661 226.29 254.271 226.192 253.833 226.192C253.395 226.192 253.004 226.29 252.661 226.488C252.318 226.685 252.043 226.964 251.837 227.325C251.631 227.677 251.528 228.098 251.528 228.587C251.528 229.068 251.631 229.493 251.837 229.862C252.043 230.222 252.318 230.501 252.661 230.699C253.004 230.896 253.395 230.995 253.833 230.995ZM261.904 232.077C261.243 232.077 260.651 231.931 260.127 231.639C259.612 231.347 259.204 230.939 258.904 230.416C258.603 229.892 258.453 229.282 258.453 228.587C258.453 227.892 258.603 227.286 258.904 226.771C259.204 226.247 259.612 225.84 260.127 225.548C260.651 225.256 261.243 225.11 261.904 225.11C262.48 225.11 262.999 225.239 263.463 225.496C263.926 225.754 264.296 226.14 264.57 226.655C264.854 227.17 264.995 227.814 264.995 228.587C264.995 229.36 264.858 230.004 264.583 230.519C264.317 231.034 263.952 231.424 263.488 231.691C263.025 231.948 262.497 232.077 261.904 232.077ZM262.007 230.995C262.437 230.995 262.823 230.896 263.167 230.699C263.519 230.501 263.793 230.222 263.991 229.862C264.197 229.493 264.3 229.068 264.3 228.587C264.3 228.098 264.197 227.677 263.991 227.325C263.793 226.964 263.519 226.685 263.167 226.488C262.823 226.29 262.437 226.192 262.007 226.192C261.57 226.192 261.179 226.29 260.836 226.488C260.492 226.685 260.217 226.964 260.011 227.325C259.805 227.677 259.702 228.098 259.702 228.587C259.702 229.068 259.805 229.493 260.011 229.862C260.217 230.222 260.492 230.501 260.836 230.699C261.179 230.896 261.57 230.995 262.007 230.995ZM264.338 232V230.158L264.416 228.574L264.287 226.99V222.444H265.523V232H264.338ZM270.902 232.077C270.172 232.077 269.528 231.927 268.97 231.626C268.42 231.326 267.991 230.914 267.682 230.39C267.382 229.866 267.231 229.265 267.231 228.587C267.231 227.909 267.377 227.308 267.669 226.784C267.97 226.26 268.378 225.852 268.893 225.561C269.416 225.26 270.004 225.11 270.657 225.11C271.318 225.11 271.902 225.256 272.408 225.548C272.915 225.84 273.31 226.252 273.593 226.784C273.885 227.308 274.031 227.922 274.031 228.626C274.031 228.677 274.027 228.737 274.018 228.806C274.018 228.875 274.014 228.939 274.005 228.999H268.197V228.11H273.361L272.859 228.42C272.868 227.982 272.778 227.591 272.589 227.248C272.4 226.904 272.138 226.638 271.803 226.449C271.477 226.252 271.095 226.153 270.657 226.153C270.228 226.153 269.846 226.252 269.511 226.449C269.176 226.638 268.914 226.908 268.725 227.26C268.536 227.604 268.442 227.999 268.442 228.445V228.651C268.442 229.106 268.545 229.514 268.751 229.875C268.966 230.227 269.262 230.501 269.64 230.699C270.017 230.896 270.451 230.995 270.94 230.995C271.344 230.995 271.709 230.926 272.035 230.789C272.37 230.652 272.662 230.446 272.911 230.171L273.593 230.969C273.284 231.33 272.898 231.605 272.434 231.794C271.979 231.982 271.468 232.077 270.902 232.077ZM275.748 232V222.444H276.984V232H275.748Z" fill="#202020"/>
<rect x="139.684" y="275.878" width="46.1466" height="22.5367" rx="5.36589" fill="#CCF4D5"/>
<path d="M153.557 292.201C152.87 292.201 152.235 292.089 151.651 291.866C151.076 291.634 150.573 291.312 150.144 290.9C149.723 290.479 149.393 289.99 149.152 289.432C148.912 288.874 148.792 288.26 148.792 287.59C148.792 286.921 148.912 286.307 149.152 285.749C149.393 285.191 149.728 284.706 150.157 284.294C150.586 283.873 151.088 283.551 151.664 283.328C152.247 283.096 152.883 282.98 153.57 282.98C154.265 282.98 154.905 283.1 155.488 283.341C156.081 283.572 156.583 283.92 156.995 284.384L156.158 285.195C155.815 284.834 155.428 284.568 154.999 284.397C154.57 284.216 154.111 284.126 153.621 284.126C153.115 284.126 152.642 284.212 152.205 284.384C151.775 284.555 151.402 284.796 151.084 285.105C150.766 285.414 150.518 285.783 150.337 286.212C150.166 286.633 150.08 287.092 150.08 287.59C150.08 288.088 150.166 288.552 150.337 288.981C150.518 289.402 150.766 289.767 151.084 290.076C151.402 290.385 151.775 290.625 152.205 290.797C152.642 290.969 153.115 291.055 153.621 291.055C154.111 291.055 154.57 290.969 154.999 290.797C155.428 290.617 155.815 290.342 156.158 289.973L156.995 290.784C156.583 291.248 156.081 291.6 155.488 291.84C154.905 292.08 154.261 292.201 153.557 292.201ZM157.253 292.098L161.336 283.083H162.611L166.706 292.098H165.354L161.709 283.804H162.224L158.58 292.098H157.253ZM158.992 289.844L159.34 288.814H164.414L164.787 289.844H158.992ZM168.051 292.098V283.083H171.85C172.811 283.083 173.657 283.272 174.387 283.65C175.125 284.027 175.696 284.555 176.1 285.234C176.512 285.912 176.718 286.697 176.718 287.59C176.718 288.483 176.512 289.269 176.1 289.947C175.696 290.625 175.125 291.153 174.387 291.531C173.657 291.909 172.811 292.098 171.85 292.098H168.051ZM169.339 290.977H171.773C172.519 290.977 173.163 290.836 173.704 290.552C174.254 290.269 174.679 289.874 174.979 289.367C175.28 288.852 175.43 288.26 175.43 287.59C175.43 286.912 175.28 286.32 174.979 285.813C174.679 285.307 174.254 284.912 173.704 284.628C173.163 284.345 172.519 284.203 171.773 284.203H169.339V290.977Z" fill="#202020"/>
<rect x="193.343" y="275.878" width="56.8784" height="22.5367" rx="5.36589" fill="#CCF4D5"/>
<path d="M203.589 287.346H208.238V288.453H203.589V287.346ZM203.718 292.098H202.43V283.083H208.792V284.203H203.718V292.098ZM210.424 292.098V285.272H211.66V292.098H210.424ZM211.042 283.959C210.802 283.959 210.6 283.881 210.437 283.727C210.283 283.572 210.205 283.383 210.205 283.16C210.205 282.928 210.283 282.735 210.437 282.581C210.6 282.426 210.802 282.349 211.042 282.349C211.283 282.349 211.48 282.426 211.635 282.581C211.798 282.727 211.879 282.911 211.879 283.134C211.879 283.366 211.802 283.564 211.648 283.727C211.493 283.881 211.291 283.959 211.042 283.959ZM217.009 294.673C216.382 294.673 215.772 294.583 215.18 294.403C214.596 294.231 214.12 293.982 213.751 293.656L214.343 292.703C214.661 292.978 215.051 293.192 215.515 293.347C215.978 293.51 216.464 293.592 216.97 293.592C217.777 293.592 218.369 293.403 218.747 293.025C219.125 292.647 219.314 292.072 219.314 291.299V289.857L219.443 288.505L219.378 287.14V285.272H220.55V291.17C220.55 292.372 220.25 293.257 219.649 293.823C219.048 294.39 218.168 294.673 217.009 294.673ZM216.854 291.814C216.193 291.814 215.601 291.677 215.077 291.402C214.562 291.119 214.15 290.728 213.841 290.23C213.54 289.732 213.39 289.157 213.39 288.505C213.39 287.844 213.54 287.268 213.841 286.779C214.15 286.281 214.562 285.895 215.077 285.62C215.601 285.345 216.193 285.208 216.854 285.208C217.438 285.208 217.97 285.328 218.451 285.568C218.932 285.8 219.314 286.161 219.597 286.65C219.889 287.14 220.035 287.758 220.035 288.505C220.035 289.243 219.889 289.857 219.597 290.346C219.314 290.836 218.932 291.205 218.451 291.454C217.97 291.694 217.438 291.814 216.854 291.814ZM216.996 290.733C217.451 290.733 217.854 290.638 218.206 290.449C218.558 290.26 218.833 289.999 219.031 289.664C219.237 289.329 219.34 288.943 219.34 288.505C219.34 288.067 219.237 287.68 219.031 287.346C218.833 287.011 218.558 286.753 218.206 286.573C217.854 286.384 217.451 286.29 216.996 286.29C216.541 286.29 216.133 286.384 215.772 286.573C215.42 286.753 215.141 287.011 214.935 287.346C214.738 287.68 214.639 288.067 214.639 288.505C214.639 288.943 214.738 289.329 214.935 289.664C215.141 289.999 215.42 290.26 215.772 290.449C216.133 290.638 216.541 290.733 216.996 290.733ZM231.451 285.208C232 285.208 232.485 285.315 232.906 285.53C233.327 285.744 233.653 286.071 233.885 286.509C234.125 286.946 234.245 287.5 234.245 288.17V292.098H233.009V288.311C233.009 287.65 232.854 287.152 232.545 286.818C232.236 286.483 231.803 286.315 231.245 286.315C230.832 286.315 230.472 286.401 230.163 286.573C229.854 286.745 229.613 286.998 229.442 287.333C229.279 287.668 229.197 288.084 229.197 288.582V292.098H227.961V288.311C227.961 287.65 227.806 287.152 227.497 286.818C227.197 286.483 226.763 286.315 226.196 286.315C225.793 286.315 225.437 286.401 225.127 286.573C224.818 286.745 224.578 286.998 224.406 287.333C224.235 287.668 224.149 288.084 224.149 288.582V292.098H222.912V285.272H224.097V287.088L223.904 286.624C224.119 286.178 224.449 285.83 224.896 285.581C225.342 285.332 225.862 285.208 226.454 285.208C227.106 285.208 227.669 285.371 228.141 285.697C228.613 286.015 228.922 286.5 229.068 287.152L228.566 286.946C228.772 286.423 229.133 286.002 229.648 285.684C230.163 285.367 230.764 285.208 231.451 285.208ZM240.757 292.098V290.655L240.692 290.385V287.925C240.692 287.401 240.538 286.998 240.229 286.715C239.928 286.423 239.473 286.277 238.864 286.277C238.46 286.277 238.065 286.345 237.679 286.483C237.293 286.612 236.966 286.788 236.7 287.011L236.185 286.084C236.537 285.8 236.958 285.586 237.447 285.44C237.945 285.285 238.465 285.208 239.005 285.208C239.941 285.208 240.662 285.435 241.169 285.89C241.676 286.345 241.929 287.041 241.929 287.977V292.098H240.757ZM238.516 292.175C238.01 292.175 237.563 292.089 237.177 291.917C236.799 291.746 236.507 291.51 236.301 291.209C236.095 290.9 235.992 290.552 235.992 290.166C235.992 289.797 236.078 289.462 236.25 289.161C236.43 288.861 236.717 288.621 237.112 288.44C237.516 288.26 238.057 288.17 238.735 288.17H240.899V289.058H238.787C238.168 289.058 237.752 289.161 237.537 289.367C237.323 289.574 237.215 289.823 237.215 290.114C237.215 290.449 237.348 290.72 237.615 290.926C237.881 291.123 238.25 291.222 238.722 291.222C239.186 291.222 239.589 291.119 239.933 290.913C240.285 290.707 240.538 290.406 240.692 290.011L240.937 290.861C240.774 291.265 240.486 291.587 240.074 291.827C239.662 292.059 239.143 292.175 238.516 292.175Z" fill="#202020"/>
<rect x="27" y="275.878" width="105.171" height="22.5367" rx="5.36589" fill="#FFF6A9"/>
<path d="M36.1447 292.098V283.083H39.6604C40.4503 283.083 41.1243 283.207 41.6823 283.456C42.2404 283.705 42.6696 284.066 42.9701 284.538C43.2706 285.01 43.4209 285.573 43.4209 286.225C43.4209 286.878 43.2706 287.44 42.9701 287.912C42.6696 288.376 42.2404 288.736 41.6823 288.994C41.1243 289.243 40.4503 289.367 39.6604 289.367H36.853L37.4325 288.762V292.098H36.1447ZM37.4325 288.891L36.853 288.247H39.6218C40.446 288.247 41.0685 288.071 41.4891 287.719C41.9184 287.367 42.133 286.869 42.133 286.225C42.133 285.581 41.9184 285.083 41.4891 284.731C41.0685 284.379 40.446 284.203 39.6218 284.203H36.853L37.4325 283.559V288.891ZM48.1301 292.175C47.5463 292.175 47.0312 292.068 46.5848 291.853C46.1469 291.638 45.8035 291.312 45.5545 290.874C45.3141 290.428 45.1939 289.87 45.1939 289.2V285.272H46.4302V289.058C46.4302 289.728 46.589 290.23 46.9067 290.565C47.233 290.9 47.688 291.067 48.2718 291.067C48.7011 291.067 49.0745 290.982 49.3922 290.81C49.7098 290.63 49.9545 290.372 50.1262 290.037C50.2979 289.694 50.3838 289.282 50.3838 288.801V285.272H51.6201V292.098H50.4482V290.256L50.6414 290.745C50.4181 291.2 50.0833 291.552 49.6369 291.801C49.1904 292.05 48.6882 292.175 48.1301 292.175ZM57.5924 292.175C57.0086 292.175 56.4806 292.046 56.0084 291.789C55.5448 291.522 55.1756 291.132 54.9009 290.617C54.6348 290.102 54.5017 289.458 54.5017 288.685C54.5017 287.912 54.639 287.268 54.9138 286.753C55.1971 286.238 55.5706 285.852 56.0342 285.594C56.5064 285.337 57.0258 285.208 57.5924 285.208C58.2621 285.208 58.8545 285.354 59.3696 285.646C59.8847 285.938 60.2925 286.345 60.593 286.869C60.8935 287.384 61.0438 287.99 61.0438 288.685C61.0438 289.38 60.8935 289.99 60.593 290.514C60.2925 291.037 59.8847 291.445 59.3696 291.737C58.8545 292.029 58.2621 292.175 57.5924 292.175ZM53.9737 292.098V282.542H55.21V287.088L55.0812 288.672L55.1585 290.256V292.098H53.9737ZM57.4894 291.093C57.9273 291.093 58.3179 290.994 58.6613 290.797C59.0133 290.6 59.2881 290.32 59.4855 289.96C59.6916 289.591 59.7946 289.166 59.7946 288.685C59.7946 288.196 59.6916 287.775 59.4855 287.423C59.2881 287.062 59.0133 286.783 58.6613 286.586C58.3179 286.388 57.9273 286.29 57.4894 286.29C57.0601 286.29 56.6695 286.388 56.3175 286.586C55.9741 286.783 55.6993 287.062 55.4933 287.423C55.2958 287.775 55.1971 288.196 55.1971 288.685C55.1971 289.166 55.2958 289.591 55.4933 289.96C55.6993 290.32 55.9741 290.6 56.3175 290.797C56.6695 290.994 57.0601 291.093 57.4894 291.093ZM62.7519 292.098V282.542H63.9882V292.098H62.7519ZM66.3488 292.098V285.272H67.5851V292.098H66.3488ZM66.9669 283.959C66.7265 283.959 66.5248 283.881 66.3616 283.727C66.2071 283.572 66.1298 283.383 66.1298 283.16C66.1298 282.928 66.2071 282.735 66.3616 282.581C66.5248 282.426 66.7265 282.349 66.9669 282.349C67.2073 282.349 67.4048 282.426 67.5593 282.581C67.7224 282.727 67.804 282.911 67.804 283.134C67.804 283.366 67.7267 283.564 67.5722 283.727C67.4176 283.881 67.2159 283.959 66.9669 283.959ZM72.9204 292.175C72.225 292.175 71.6026 292.025 71.0531 291.724C70.5122 291.424 70.0872 291.012 69.7782 290.488C69.4691 289.964 69.3145 289.363 69.3145 288.685C69.3145 288.007 69.4691 287.406 69.7782 286.882C70.0872 286.358 70.5122 285.95 71.0531 285.659C71.6026 285.358 72.225 285.208 72.9204 285.208C73.5386 285.208 74.088 285.332 74.5688 285.581C75.0582 285.822 75.436 286.182 75.7021 286.663L74.762 287.268C74.5388 286.934 74.264 286.689 73.9378 286.534C73.6201 286.371 73.2767 286.29 72.9075 286.29C72.4611 286.29 72.0619 286.388 71.7099 286.586C71.3579 286.783 71.0789 287.062 70.8728 287.423C70.6668 287.775 70.5637 288.196 70.5637 288.685C70.5637 289.174 70.6668 289.599 70.8728 289.96C71.0789 290.32 71.3579 290.6 71.7099 290.797C72.0619 290.994 72.4611 291.093 72.9075 291.093C73.2767 291.093 73.6201 291.016 73.9378 290.861C74.264 290.698 74.5388 290.449 74.762 290.114L75.7021 290.707C75.436 291.179 75.0582 291.544 74.5688 291.801C74.088 292.05 73.5386 292.175 72.9204 292.175ZM87.4063 283.083H88.6941V292.098H87.4063V283.083ZM82.2293 292.098H80.9415V283.083H82.2293V292.098ZM87.5222 288.08H82.1005V286.959H87.5222V288.08ZM94.2513 292.175C93.5216 292.175 92.8777 292.025 92.3196 291.724C91.7701 291.424 91.3409 291.012 91.0318 290.488C90.7313 289.964 90.5811 289.363 90.5811 288.685C90.5811 288.007 90.727 287.406 91.0189 286.882C91.3194 286.358 91.7272 285.95 92.2423 285.659C92.7661 285.358 93.3542 285.208 94.0067 285.208C94.6677 285.208 95.2515 285.354 95.7581 285.646C96.2646 285.938 96.6595 286.35 96.9429 286.882C97.2348 287.406 97.3807 288.02 97.3807 288.724C97.3807 288.775 97.3764 288.835 97.3678 288.904C97.3678 288.973 97.3636 289.037 97.355 289.097H91.5469V288.208H96.7111L96.2088 288.518C96.2174 288.08 96.1273 287.689 95.9384 287.346C95.7495 287.002 95.4876 286.736 95.1528 286.547C94.8266 286.35 94.4445 286.251 94.0067 286.251C93.5774 286.251 93.1953 286.35 92.8605 286.547C92.5257 286.736 92.2638 287.007 92.0749 287.359C91.8861 287.702 91.7916 288.097 91.7916 288.543V288.749C91.7916 289.204 91.8946 289.612 92.1007 289.973C92.3153 290.325 92.6115 290.6 92.9893 290.797C93.367 290.994 93.8006 291.093 94.29 291.093C94.6935 291.093 95.0584 291.024 95.3846 290.887C95.7194 290.75 96.0113 290.544 96.2603 290.269L96.9429 291.067C96.6338 291.428 96.2474 291.703 95.7838 291.892C95.3288 292.08 94.818 292.175 94.2513 292.175ZM103.146 292.098V290.655L103.081 290.385V287.925C103.081 287.401 102.927 286.998 102.618 286.715C102.317 286.423 101.862 286.277 101.253 286.277C100.849 286.277 100.454 286.345 100.068 286.483C99.6815 286.612 99.3552 286.788 99.0891 287.011L98.574 286.084C98.926 285.8 99.3466 285.586 99.836 285.44C100.334 285.285 100.853 285.208 101.394 285.208C102.33 285.208 103.051 285.435 103.558 285.89C104.064 286.345 104.318 287.041 104.318 287.977V292.098H103.146ZM100.905 292.175C100.398 292.175 99.9519 292.089 99.5656 291.917C99.1878 291.746 98.8959 291.51 98.6899 291.209C98.4838 290.9 98.3808 290.552 98.3808 290.166C98.3808 289.797 98.4666 289.462 98.6383 289.161C98.8186 288.861 99.1063 288.621 99.5012 288.44C99.9047 288.26 100.446 288.17 101.124 288.17H103.287V289.058H101.175C100.557 289.058 100.141 289.161 99.9262 289.367C99.7115 289.574 99.6042 289.823 99.6042 290.114C99.6042 290.449 99.7373 290.72 100.003 290.926C100.27 291.123 100.639 291.222 101.111 291.222C101.575 291.222 101.978 291.119 102.321 290.913C102.673 290.707 102.927 290.406 103.081 290.011L103.326 290.861C103.163 291.265 102.875 291.587 102.463 291.827C102.051 292.059 101.532 292.175 100.905 292.175ZM106.605 292.098V282.542H107.842V292.098H106.605ZM112.722 292.175C112.035 292.175 111.503 291.99 111.125 291.621C110.748 291.252 110.559 290.724 110.559 290.037V283.778H111.795V289.986C111.795 290.355 111.885 290.638 112.065 290.836C112.254 291.033 112.52 291.132 112.864 291.132C113.25 291.132 113.572 291.024 113.83 290.81L114.216 291.698C114.027 291.862 113.8 291.982 113.534 292.059C113.276 292.136 113.006 292.175 112.722 292.175ZM109.4 286.29V285.272H113.752V286.29H109.4ZM119.355 285.208C119.913 285.208 120.403 285.315 120.823 285.53C121.253 285.744 121.587 286.071 121.828 286.509C122.068 286.946 122.188 287.5 122.188 288.17V292.098H120.952V288.311C120.952 287.65 120.789 287.152 120.463 286.818C120.145 286.483 119.694 286.315 119.111 286.315C118.673 286.315 118.291 286.401 117.964 286.573C117.638 286.745 117.385 286.998 117.205 287.333C117.033 287.668 116.947 288.084 116.947 288.582V292.098H115.711V282.542H116.947V287.114L116.702 286.624C116.926 286.178 117.269 285.83 117.733 285.581C118.196 285.332 118.737 285.208 119.355 285.208Z" fill="#202020"/>
<rect x="160.073" y="245.829" width="97.6591" height="22.5367" rx="5.36589" fill="#FFF6A9"/>
<path d="M172.351 262.151C171.664 262.151 171.008 262.048 170.381 261.842C169.754 261.628 169.26 261.353 168.9 261.018L169.376 260.014C169.72 260.314 170.158 260.563 170.69 260.761C171.222 260.958 171.776 261.057 172.351 261.057C172.875 261.057 173.3 260.997 173.626 260.876C173.952 260.756 174.193 260.593 174.347 260.387C174.502 260.172 174.579 259.932 174.579 259.666C174.579 259.357 174.476 259.108 174.27 258.919C174.073 258.73 173.811 258.58 173.485 258.468C173.167 258.348 172.815 258.245 172.428 258.159C172.042 258.073 171.652 257.975 171.257 257.863C170.87 257.743 170.514 257.593 170.188 257.412C169.87 257.232 169.612 256.992 169.415 256.691C169.218 256.382 169.119 255.987 169.119 255.506C169.119 255.043 169.239 254.618 169.479 254.231C169.728 253.836 170.106 253.523 170.613 253.291C171.128 253.051 171.78 252.931 172.57 252.931C173.094 252.931 173.613 252.999 174.128 253.137C174.644 253.274 175.09 253.472 175.468 253.729L175.043 254.759C174.656 254.502 174.249 254.317 173.819 254.206C173.39 254.085 172.974 254.025 172.57 254.025C172.064 254.025 171.647 254.09 171.321 254.218C170.995 254.347 170.754 254.519 170.6 254.734C170.454 254.948 170.381 255.189 170.381 255.455C170.381 255.772 170.48 256.026 170.677 256.215C170.883 256.403 171.145 256.554 171.463 256.665C171.789 256.777 172.145 256.88 172.532 256.974C172.918 257.06 173.304 257.159 173.691 257.271C174.085 257.382 174.442 257.528 174.759 257.708C175.086 257.889 175.348 258.129 175.545 258.43C175.742 258.73 175.841 259.116 175.841 259.589C175.841 260.044 175.717 260.469 175.468 260.864C175.219 261.25 174.832 261.563 174.309 261.804C173.794 262.035 173.141 262.151 172.351 262.151ZM180.466 262.126C179.779 262.126 179.169 261.975 178.637 261.675C178.105 261.374 177.684 260.962 177.375 260.439C177.066 259.906 176.911 259.305 176.911 258.636C176.911 257.957 177.066 257.356 177.375 256.833C177.684 256.309 178.105 255.901 178.637 255.609C179.169 255.309 179.779 255.159 180.466 255.159C181.144 255.159 181.749 255.309 182.281 255.609C182.822 255.901 183.243 256.309 183.544 256.833C183.853 257.348 184.007 257.949 184.007 258.636C184.007 259.314 183.853 259.915 183.544 260.439C183.243 260.962 182.822 261.374 182.281 261.675C181.749 261.975 181.144 262.126 180.466 262.126ZM180.466 261.044C180.904 261.044 181.294 260.945 181.638 260.748C181.99 260.55 182.264 260.271 182.462 259.911C182.659 259.541 182.758 259.116 182.758 258.636C182.758 258.146 182.659 257.726 182.462 257.374C182.264 257.013 181.99 256.734 181.638 256.537C181.294 256.339 180.904 256.24 180.466 256.24C180.028 256.24 179.637 256.339 179.294 256.537C178.95 256.734 178.676 257.013 178.47 257.374C178.263 257.726 178.16 258.146 178.16 258.636C178.16 259.116 178.263 259.541 178.47 259.911C178.676 260.271 178.95 260.55 179.294 260.748C179.637 260.945 180.028 261.044 180.466 261.044ZM188.692 262.126C187.996 262.126 187.374 261.975 186.824 261.675C186.284 261.374 185.859 260.962 185.549 260.439C185.24 259.915 185.086 259.314 185.086 258.636C185.086 257.957 185.24 257.356 185.549 256.833C185.859 256.309 186.284 255.901 186.824 255.609C187.374 255.309 187.996 255.159 188.692 255.159C189.31 255.159 189.859 255.283 190.34 255.532C190.83 255.772 191.207 256.133 191.473 256.614L190.533 257.219C190.31 256.884 190.035 256.64 189.709 256.485C189.391 256.322 189.048 256.24 188.679 256.24C188.232 256.24 187.833 256.339 187.481 256.537C187.129 256.734 186.85 257.013 186.644 257.374C186.438 257.726 186.335 258.146 186.335 258.636C186.335 259.125 186.438 259.55 186.644 259.911C186.85 260.271 187.129 260.55 187.481 260.748C187.833 260.945 188.232 261.044 188.679 261.044C189.048 261.044 189.391 260.967 189.709 260.812C190.035 260.649 190.31 260.4 190.533 260.065L191.473 260.658C191.207 261.13 190.83 261.495 190.34 261.752C189.859 262.001 189.31 262.126 188.692 262.126ZM192.986 262.048V255.223H194.222V262.048H192.986ZM193.604 253.909C193.364 253.909 193.162 253.832 192.999 253.678C192.844 253.523 192.767 253.334 192.767 253.111C192.767 252.879 192.844 252.686 192.999 252.531C193.162 252.377 193.364 252.3 193.604 252.3C193.845 252.3 194.042 252.377 194.197 252.531C194.36 252.677 194.441 252.862 194.441 253.085C194.441 253.317 194.364 253.514 194.209 253.678C194.055 253.832 193.853 253.909 193.604 253.909ZM200.82 262.048V260.606L200.755 260.336V257.876C200.755 257.352 200.601 256.949 200.292 256.665C199.991 256.373 199.536 256.227 198.927 256.227C198.523 256.227 198.128 256.296 197.742 256.433C197.356 256.562 197.029 256.738 196.763 256.961L196.248 256.034C196.6 255.751 197.021 255.536 197.51 255.39C198.008 255.236 198.527 255.159 199.068 255.159C200.004 255.159 200.725 255.386 201.232 255.841C201.738 256.296 201.992 256.992 201.992 257.927V262.048H200.82ZM198.579 262.126C198.072 262.126 197.626 262.04 197.24 261.868C196.862 261.696 196.57 261.46 196.364 261.16C196.158 260.851 196.055 260.503 196.055 260.117C196.055 259.747 196.141 259.413 196.312 259.112C196.493 258.812 196.78 258.571 197.175 258.391C197.579 258.211 198.12 258.121 198.798 258.121H200.961V259.009H198.849C198.231 259.009 197.815 259.112 197.6 259.318C197.386 259.524 197.278 259.773 197.278 260.065C197.278 260.4 197.411 260.67 197.677 260.876C197.944 261.074 198.313 261.173 198.785 261.173C199.249 261.173 199.652 261.07 199.996 260.864C200.348 260.658 200.601 260.357 200.755 259.962L201 260.812C200.837 261.216 200.549 261.538 200.137 261.778C199.725 262.01 199.206 262.126 198.579 262.126ZM204.28 262.048V252.493H205.516V262.048H204.28ZM211.515 262.048V253.034H212.803V262.048H211.515ZM217.279 262.126C216.712 262.126 216.171 262.048 215.656 261.894C215.15 261.739 214.751 261.55 214.459 261.327L214.974 260.348C215.266 260.546 215.626 260.713 216.056 260.851C216.485 260.988 216.923 261.057 217.369 261.057C217.944 261.057 218.356 260.975 218.605 260.812C218.863 260.649 218.992 260.421 218.992 260.129C218.992 259.915 218.915 259.747 218.76 259.627C218.605 259.507 218.399 259.417 218.142 259.357C217.893 259.297 217.614 259.245 217.305 259.202C216.996 259.151 216.687 259.091 216.378 259.022C216.068 258.945 215.785 258.842 215.528 258.713C215.27 258.576 215.064 258.391 214.909 258.159C214.755 257.919 214.678 257.601 214.678 257.206C214.678 256.794 214.794 256.433 215.025 256.124C215.257 255.815 215.583 255.579 216.004 255.416C216.433 255.244 216.94 255.159 217.524 255.159C217.97 255.159 218.421 255.214 218.876 255.326C219.339 255.429 219.717 255.579 220.009 255.777L219.481 256.755C219.172 256.549 218.85 256.408 218.515 256.33C218.18 256.253 217.846 256.215 217.511 256.215C216.97 256.215 216.566 256.305 216.3 256.485C216.034 256.657 215.901 256.88 215.901 257.155C215.901 257.386 215.978 257.567 216.133 257.696C216.296 257.816 216.502 257.91 216.751 257.979C217.009 258.048 217.292 258.108 217.601 258.159C217.91 258.202 218.219 258.262 218.528 258.339C218.837 258.408 219.116 258.507 219.365 258.636C219.623 258.764 219.829 258.945 219.983 259.177C220.147 259.408 220.228 259.717 220.228 260.104C220.228 260.516 220.108 260.872 219.868 261.173C219.627 261.473 219.288 261.709 218.85 261.881C218.412 262.044 217.889 262.126 217.279 262.126ZM223.731 262.126C223.164 262.126 222.623 262.048 222.108 261.894C221.601 261.739 221.202 261.55 220.91 261.327L221.425 260.348C221.717 260.546 222.078 260.713 222.507 260.851C222.936 260.988 223.374 261.057 223.821 261.057C224.396 261.057 224.808 260.975 225.057 260.812C225.315 260.649 225.443 260.421 225.443 260.129C225.443 259.915 225.366 259.747 225.212 259.627C225.057 259.507 224.851 259.417 224.593 259.357C224.344 259.297 224.065 259.245 223.756 259.202C223.447 259.151 223.138 259.091 222.829 259.022C222.52 258.945 222.237 258.842 221.979 258.713C221.722 258.576 221.516 258.391 221.361 258.159C221.207 257.919 221.129 257.601 221.129 257.206C221.129 256.794 221.245 256.433 221.477 256.124C221.709 255.815 222.035 255.579 222.456 255.416C222.885 255.244 223.392 255.159 223.975 255.159C224.422 255.159 224.872 255.214 225.328 255.326C225.791 255.429 226.169 255.579 226.461 255.777L225.933 256.755C225.624 256.549 225.302 256.408 224.967 256.33C224.632 256.253 224.297 256.215 223.962 256.215C223.422 256.215 223.018 256.305 222.752 256.485C222.486 256.657 222.353 256.88 222.353 257.155C222.353 257.386 222.43 257.567 222.584 257.696C222.748 257.816 222.954 257.91 223.203 257.979C223.46 258.048 223.744 258.108 224.053 258.159C224.362 258.202 224.671 258.262 224.98 258.339C225.289 258.408 225.568 258.507 225.817 258.636C226.074 258.764 226.281 258.945 226.435 259.177C226.598 259.408 226.68 259.717 226.68 260.104C226.68 260.516 226.56 260.872 226.319 261.173C226.079 261.473 225.74 261.709 225.302 261.881C224.864 262.044 224.34 262.126 223.731 262.126ZM231.097 262.126C230.513 262.126 229.998 262.018 229.551 261.804C229.113 261.589 228.77 261.263 228.521 260.825C228.281 260.378 228.16 259.82 228.16 259.151V255.223H229.397V259.009C229.397 259.679 229.556 260.181 229.873 260.516C230.199 260.851 230.654 261.018 231.238 261.018C231.668 261.018 232.041 260.932 232.359 260.761C232.676 260.58 232.921 260.323 233.093 259.988C233.264 259.644 233.35 259.232 233.35 258.752V255.223H234.587V262.048H233.415V260.207L233.608 260.696C233.385 261.151 233.05 261.503 232.603 261.752C232.157 262.001 231.655 262.126 231.097 262.126ZM239.979 262.126C239.25 262.126 238.606 261.975 238.048 261.675C237.498 261.374 237.069 260.962 236.76 260.439C236.459 259.915 236.309 259.314 236.309 258.636C236.309 257.957 236.455 257.356 236.747 256.833C237.047 256.309 237.455 255.901 237.97 255.609C238.494 255.309 239.082 255.159 239.735 255.159C240.396 255.159 240.98 255.304 241.486 255.596C241.993 255.888 242.388 256.3 242.671 256.833C242.963 257.356 243.109 257.97 243.109 258.674C243.109 258.726 243.105 258.786 243.096 258.855C243.096 258.923 243.092 258.988 243.083 259.048H237.275V258.159H242.439L241.937 258.468C241.945 258.03 241.855 257.64 241.666 257.296C241.478 256.953 241.216 256.687 240.881 256.498C240.555 256.3 240.173 256.202 239.735 256.202C239.305 256.202 238.923 256.3 238.589 256.498C238.254 256.687 237.992 256.957 237.803 257.309C237.614 257.653 237.52 258.048 237.52 258.494V258.7C237.52 259.155 237.623 259.563 237.829 259.923C238.043 260.275 238.34 260.55 238.717 260.748C239.095 260.945 239.529 261.044 240.018 261.044C240.422 261.044 240.786 260.975 241.113 260.838C241.448 260.7 241.739 260.494 241.988 260.22L242.671 261.018C242.362 261.379 241.976 261.653 241.512 261.842C241.057 262.031 240.546 262.126 239.979 262.126ZM246.783 262.126C246.216 262.126 245.675 262.048 245.16 261.894C244.654 261.739 244.255 261.55 243.963 261.327L244.478 260.348C244.77 260.546 245.13 260.713 245.56 260.851C245.989 260.988 246.427 261.057 246.873 261.057C247.448 261.057 247.86 260.975 248.109 260.812C248.367 260.649 248.496 260.421 248.496 260.129C248.496 259.915 248.419 259.747 248.264 259.627C248.109 259.507 247.903 259.417 247.646 259.357C247.397 259.297 247.118 259.245 246.809 259.202C246.5 259.151 246.191 259.091 245.882 259.022C245.572 258.945 245.289 258.842 245.032 258.713C244.774 258.576 244.568 258.391 244.413 258.159C244.259 257.919 244.182 257.601 244.182 257.206C244.182 256.794 244.298 256.433 244.529 256.124C244.761 255.815 245.087 255.579 245.508 255.416C245.937 255.244 246.444 255.159 247.028 255.159C247.474 255.159 247.925 255.214 248.38 255.326C248.843 255.429 249.221 255.579 249.513 255.777L248.985 256.755C248.676 256.549 248.354 256.408 248.019 256.33C247.684 256.253 247.35 256.215 247.015 256.215C246.474 256.215 246.07 256.305 245.804 256.485C245.538 256.657 245.405 256.88 245.405 257.155C245.405 257.386 245.482 257.567 245.637 257.696C245.8 257.816 246.006 257.91 246.255 257.979C246.513 258.048 246.796 258.108 247.105 258.159C247.414 258.202 247.723 258.262 248.032 258.339C248.341 258.408 248.62 258.507 248.869 258.636C249.127 258.764 249.333 258.945 249.487 259.177C249.651 259.408 249.732 259.717 249.732 260.104C249.732 260.516 249.612 260.872 249.371 261.173C249.131 261.473 248.792 261.709 248.354 261.881C247.916 262.044 247.393 262.126 246.783 262.126Z" fill="#202020"/>
<defs>
<filter id="filter0_d_2373_56149" x="0.170568" y="0.170568" width="300.49" height="230.83" filterUnits="userSpaceOnUse" color-interpolation-filters="sRGB">
<feFlood flood-opacity="0" result="BackgroundImageFix"/>
<feColorMatrix in="SourceAlpha" type="matrix" values="0 0 0 0 0 0 0 0 0 0 0 0 0 0 0 0 0 0 127 0" result="hardAlpha"/>
<feOffset/>
<feGaussianBlur stdDeviation="13.4147"/>
<feColorMatrix type="matrix" values="0 0 0 0 0 0 0 0 0 0 0 0 0 0 0 0 0 0 0.14 0"/>
<feBlend mode="normal" in2="BackgroundImageFix" result="effect1_dropShadow_2373_56149"/>
<feBlend mode="normal" in="SourceGraphic" in2="effect1_dropShadow_2373_56149" result="shape"/>
</filter>
</defs>
</svg>
