<svg width="35" height="35" viewBox="0 0 35 35" fill="none" xmlns="http://www.w3.org/2000/svg">
<path fill-rule="evenodd" clip-rule="evenodd" d="M35 17.5C35 27.165 27.165 35 17.5 35C7.83502 35 0 27.165 0 17.5C0 7.83502 7.83502 0 17.5 0C27.165 0 35 7.83502 35 17.5ZM20.7522 6.61239L8.61176 7.50576C7.63282 7.59047 7.29167 8.22864 7.29167 8.99372V22.2627C7.29167 22.8588 7.50432 23.3683 8.0157 24.0494L10.8696 27.7494C11.3384 28.3452 11.7644 28.4727 12.6595 28.43L26.7581 27.5792C27.9506 27.4946 28.2917 26.9413 28.2917 26.0058V11.0778C28.2917 10.5942 28.1002 10.4545 27.5357 10.0427C27.5046 10.02 27.4724 9.99656 27.4391 9.97215L23.5637 7.25038C22.6267 6.5702 22.2431 6.48461 20.7522 6.61239Z" fill="#343434"/>
<path fill-rule="evenodd" clip-rule="evenodd" d="M10.913 10.3977C11.5939 10.9504 11.8493 10.9083 13.1279 10.823L25.1817 10.0998C25.4373 10.0998 25.2247 9.84493 25.1395 9.80257L23.1376 8.35645C22.754 8.05889 22.243 7.7181 21.2635 7.80334L9.59184 8.65401C9.16618 8.69619 9.08115 8.90885 9.25069 9.07933L10.913 10.3977Z" fill="#343434"/>
<path fill-rule="evenodd" clip-rule="evenodd" d="M11.6365 25.8779V13.2047C11.6365 12.6519 11.8069 12.3965 12.3177 12.3537L26.1611 11.5459C26.6306 11.5033 26.8433 11.8013 26.8433 12.3537V24.9419C26.8433 25.4951 26.7579 25.9636 25.9908 26.0058L12.7437 26.7717C11.9771 26.8138 11.6365 26.5591 11.6365 25.8779ZM24.3299 14.6935C24.714 14.6504 24.7989 14.2677 24.714 13.8845L21.774 14.0555C21.348 14.0977 21.0077 14.4378 21.0928 14.9062L22.2005 15.0332V20.9025L17.8556 14.2678L14.7034 14.4801C14.1066 14.523 13.894 15.0754 13.9793 15.4586L15.044 15.5438V23.9221L14.2772 24.1345C13.9791 24.2196 13.8938 24.6446 13.9791 24.8149L16.9176 24.6446C17.9834 24.6446 17.9834 23.8794 17.9834 23.8794L16.6623 23.5815V17.2448L20.8373 23.7942C21.348 24.4318 21.5188 24.6446 22.2005 24.6446C22.6264 24.6446 23.1374 24.4744 23.6916 24.1768V14.8206L24.3299 14.6935Z" fill="#343434"/>
</svg>
