<svg width="146" height="156" viewBox="0 0 146 156" fill="none" xmlns="http://www.w3.org/2000/svg">
<path fill-rule="evenodd" clip-rule="evenodd" d="M103.097 113.666C113.215 113.096 125.068 115.535 125.068 115.535C149.899 124.276 139.54 125.478 141.622 130.936L86.7783 133.713C66.0863 143.509 50.313 115.97 49.2973 129.547L6.24812 130.936C6.24813 117.874 -1.15547 127.542 20.3284 116.932C20.3284 116.932 39.1786 113.096 49.2973 113.666C57.2968 114.117 95.0971 114.117 103.097 113.666Z" fill="#99CCFF"/>
<path d="M74.1225 74.5551C74.1225 74.5551 54.1606 74.852 53.8423 101.15L53.751 107.065C53.751 107.065 53.8423 106.975 56.0704 112.46C58.1764 112.46 53.4179 117.819 66.3015 125.411C66.3015 125.411 67.2386 134.974 64.0253 136.925C60.812 138.876 82.2896 144.189 85.6848 135.536C83.4884 133.028 83.3692 128.649 83.4633 125.411C83.4633 125.411 94.0153 125.411 95.4032 106.975C95.4789 83.9855 88.5976 73.2261 74.1225 74.5551Z" fill="#D4A181"/>
<path d="M101.357 134.407C101.357 134.407 101.513 134.407 101.513 111.933C103.282 101.918 101.598 83.6193 95.959 77.2224C94.7602 75.8624 93.6407 71.7941 76.5211 69.6541C76.5211 69.6541 94.4911 73.2832 83.4632 70.7866C72.4354 68.29 59.015 71.1519 50.1554 81.6454C50.1554 81.6454 44.6016 94.1413 48.7526 120.264C50.8919 133.727 42.1377 128.173 50.1554 132.324C58.173 136.476 65.9515 133.713 65.9515 133.713L71.5053 130.936C71.5053 130.936 100.39 133.277 101.357 134.407ZM91.9109 115.875C90.7454 118.695 86.3573 122.817 83.3042 124.429C80.5302 125.894 79.836 126.076 79.836 126.076C73.588 128.159 71.5053 126.77 71.5053 126.77C68.0342 125.382 66.6457 124.429 66.6457 124.429C64.7826 123.299 61.3774 120.113 59.701 117.487C57.2217 113.604 56.9241 109.156 56.9241 109.156C55.8119 103.379 56.0129 100.826 56.0129 100.826L56.2044 98.9207C55.3199 86.081 69.7288 82.9852 78.3457 81.2304C86.9625 79.4757 87.6616 75.7807 87.6616 75.7807C98.2614 88.1353 94.6878 109.156 91.9109 115.875Z" fill="#0F1213"/>
<path d="M76.7255 72.2539C76.7255 72.2539 75.2626 69.4213 61.3862 74.393C47.5098 79.3648 55.8635 89.1145 55.7384 84.3261C55.5204 75.9714 43.3851 89.7002 52.0672 98.3071C52.2245 96.7744 63.4706 103.264 73.7425 84.7785C73.7425 84.7785 90.4217 99.0521 95.2586 97.3605C97.346 95.4666 97.1195 73.0853 76.7255 72.2539Z" fill="#0F1213"/>
<path fill-rule="evenodd" clip-rule="evenodd" d="M47.1147 135.858L55.4454 134.339C62.4757 135.31 64.1222 138.284 71.9841 139.507C73.4889 139.559 74.0366 137.056 70.6255 135.858C60.3943 132.265 82.1059 134.831 84.6059 133.608C86.7224 131.336 77.7953 126.366 73.6041 125.177C65.4443 125.046 68.5462 123.102 56.9132 128.443L47.8088 128.443L47.1147 135.858Z" fill="#C69272"/>
<path fill-rule="evenodd" clip-rule="evenodd" d="M47.1147 135.858L55.4454 134.339C62.4757 135.31 64.1222 138.284 71.9841 139.507C73.4889 139.559 74.0366 137.056 70.6255 135.858C60.3943 132.265 82.1059 134.831 84.6059 133.608C86.7224 131.336 77.7953 126.366 73.6041 125.177C65.4443 125.046 68.5462 123.102 56.9132 128.443L47.8088 128.443L47.1147 135.858Z" fill="#C69272"/>
<path fill-rule="evenodd" clip-rule="evenodd" d="M100.721 137.715L92.3802 136.25C85.3563 137.266 93.5866 134.288 85.7329 135.562C84.2284 135.624 85.0395 135.671 85.0395 135.671C85.7109 132.196 65.9195 138.573 63.2155 135.709C61.0842 133.451 69.9787 128.423 74.162 127.206C82.3208 127.022 79.2063 125.099 90.8739 130.364L99.9781 130.305L100.721 137.715Z" fill="#D4A181"/>
<path fill-rule="evenodd" clip-rule="evenodd" d="M100.721 137.715L92.3802 136.25C85.3563 137.266 93.5866 134.288 85.7329 135.562C84.2284 135.624 85.0395 135.671 85.0395 135.671C85.7109 132.196 65.9195 138.573 63.2155 135.709C61.0842 133.451 69.9787 128.423 74.162 127.206C82.3208 127.022 79.2063 125.099 90.8739 130.364L99.9781 130.305L100.721 137.715Z" fill="#D4A181"/>
<path fill-rule="evenodd" clip-rule="evenodd" d="M142.41 124.403C144.878 129.378 142.236 135.264 138.939 136.899C135.642 138.535 109.781 139.531 84.7893 140.919L83.4008 123.563C103.272 123.004 96.9174 120.752 134.799 119.007C141.626 120.27 139.942 119.428 142.41 124.403Z" fill="#80B0E0"/>
<path fill-rule="evenodd" clip-rule="evenodd" d="M3.58989 123.015C1.12164 127.99 3.76443 133.875 7.06109 135.511C10.3578 137.146 36.2186 138.142 61.2107 139.531L62.5992 122.175C42.7278 121.616 49.0826 119.364 11.2007 117.619C4.37437 118.882 6.05813 118.039 3.58989 123.015Z" fill="#80B0E0"/>
<path d="M69.5102 98.6995C70.2044 98.6995 70.2044 97.311 69.5102 97.311C68.8159 97.311 66.5307 97.053 64.6506 97.311C62.6952 97.5794 59.0968 98.6995 59.791 98.6995H65.6225H69.5102Z" fill="#0F1213" stroke="#0F1213" stroke-width="0.3"/>
<path d="M78.4241 97.7696C77.7302 97.7894 77.6905 96.4015 78.3844 96.3817C79.0784 96.3619 81.5056 95.225 83.3924 95.4292C85.3547 95.6416 88.8333 97.4719 88.1393 97.4918C87.4454 97.5116 83.0157 96.8291 82.7382 96.837C82.7382 96.837 79.1181 97.7498 78.4241 97.7696Z" fill="#0F1213" stroke="#0F1213" stroke-width="0.3"/>
<g filter="url(#filter0_d)">
<path d="M84.657 22.414C84.657 22.4268 84.657 22.4523 84.657 22.4779C84.6442 22.5929 84.6315 22.708 84.5931 22.8358C84.3372 23.7817 83.3522 24.3442 82.4183 24.0757L80.1923 23.4622L79.0282 23.1426L76.2777 22.3884L74.5635 21.9155L74.3972 21.8643L74.2692 21.826H74.2564L71.378 21.0462L70.2139 20.7267L67.5402 19.9981L67.0029 19.8447C66.9261 19.8191 66.8494 19.7935 66.7726 19.768C66.7598 19.768 66.7342 19.7552 66.7214 19.7424C66.683 19.7296 66.6447 19.7041 66.6063 19.6785C66.0434 19.3717 65.698 18.7709 65.698 18.1318C65.698 17.9784 65.7236 17.825 65.762 17.6588C66.0178 16.7129 67.0029 16.1633 67.9495 16.4189L70.4186 17.0964L71.5827 17.416L74.1157 18.1062L74.2564 18.1446H74.2692L74.3972 18.1829L74.5635 18.234L76.9301 18.886L78.0815 19.2055L80.9599 19.9981L83.3266 20.65C84.0942 20.8545 84.6059 21.5448 84.6315 22.2989L84.657 22.414Z" fill="#FFE974" fill-opacity="0.6"/>
<path d="M82.7892 31.3363C82.7892 31.4897 82.7636 31.6559 82.7252 31.8093C82.674 32.001 82.5845 32.1928 82.4821 32.3461L82.4182 32.4356C82.1239 32.8063 81.7018 33.0492 81.2284 33.1003C81.0109 33.1259 80.7807 33.1131 80.5504 33.0492L80.512 33.0364L77.9662 32.3461L74.5633 31.413L74.397 31.3619L74.2691 31.3235L71.7745 30.6333L70.6103 30.3137L67.5656 29.4828L65.2885 28.8565C64.9943 28.7798 64.7384 28.6264 64.5337 28.4346C64.5209 28.4219 64.5082 28.4091 64.4954 28.3963C64.1755 28.0639 63.9836 27.6165 63.9836 27.1436C63.9836 26.9902 64.0092 26.824 64.0476 26.6706C64.3035 25.7247 65.2757 25.1751 66.2224 25.4307L68.41 26.0315L69.5741 26.3511L72.3758 27.118L74.2819 27.6421L74.4098 27.6805L74.5761 27.7316L77.3138 28.4858L78.4652 28.8053L80.205 29.2783L80.9726 29.4956L81.4843 29.6362C81.8809 29.7385 82.2007 29.9686 82.431 30.2753C82.6612 30.5821 82.7892 30.9528 82.7892 31.3363Z" fill="#FFE974" fill-opacity="0.6"/>
<path d="M84.6186 27.118C84.6186 27.2714 84.593 27.4376 84.5547 27.591C84.4651 27.9361 84.2732 28.2173 84.0301 28.4346C84.0174 28.4474 84.0174 28.4474 84.0046 28.4602C83.5696 28.8309 82.9683 28.9971 82.3799 28.8309L80.397 28.2812L79.2328 27.9617L76.2009 27.1308L74.589 26.6834L74.4227 26.6323L74.2948 26.5939H74.282L71.4931 25.827L70.329 25.5074L67.5785 24.7532L65.2119 24.1013C64.4443 23.884 63.9326 23.2065 63.907 22.4523V22.3373C63.907 22.3245 63.907 22.2989 63.907 22.2734C63.9198 22.1583 63.9326 22.0433 63.9709 21.9155C64.2268 20.9695 65.1991 20.4199 66.1457 20.6755L68.2438 21.2508L69.3951 21.5703L72.2735 22.3629L74.282 22.9125L74.4099 22.9509L74.5762 23.002L77.0325 23.6795L78.1966 23.999L80.9982 24.766L83.3265 25.4051C84.0941 25.6224 84.6186 26.3383 84.6186 27.118Z" fill="#FFE974" fill-opacity="0.6"/>
<path d="M82.8917 18.1062C82.8917 18.2596 82.8661 18.413 82.8277 18.5792C82.8149 18.6175 82.8022 18.6559 82.7894 18.6942C82.6358 19.1416 82.316 19.4867 81.9194 19.6785C81.8811 19.704 81.8427 19.7168 81.8043 19.7424C81.7915 19.7552 81.7659 19.7552 81.7531 19.768C81.4077 19.9086 81.0367 19.9341 80.6529 19.8319L78.2479 19.18L77.0837 18.8604L76.0987 18.592L74.5763 18.1701L74.4228 18.1318H74.41L74.2821 18.0934H74.2693L73.4378 17.8633C73.0412 17.7483 72.7086 17.5182 72.4783 17.1986C72.3504 17.0325 72.2608 16.8407 72.1969 16.6362C72.1457 16.4828 72.1201 16.3166 72.1201 16.1505C72.1201 15.9971 72.1457 15.8437 72.1841 15.6775C72.2353 15.4985 72.312 15.3324 72.4144 15.1918C72.4655 15.1918 72.5167 15.179 72.5679 15.179C72.619 15.179 72.6702 15.1662 72.7214 15.1662C72.7981 15.1534 72.8749 15.1534 72.9389 15.1406C73.0796 15.1278 73.2203 15.1151 73.361 15.1023C73.4634 15.0895 73.5657 15.0895 73.6681 15.0767C73.7448 15.0639 73.8344 15.0639 73.9111 15.0639C74.0263 15.0639 74.1542 15.0511 74.2693 15.0511C74.3077 15.0511 74.3589 15.0511 74.3972 15.0511C74.4484 15.0511 74.5124 15.0511 74.5636 15.0511C74.5891 15.0511 74.6147 15.0511 74.6403 15.0511C74.7043 15.0511 74.7682 15.0511 74.8322 15.0639C74.9473 15.0639 75.0625 15.0767 75.1776 15.0895C75.2927 15.1023 75.4207 15.1151 75.5358 15.1278C75.7277 15.1534 75.9324 15.1662 76.1243 15.2045C77.5699 15.3963 79.0155 15.7414 79.911 15.9715L80.7809 16.2016C80.8065 16.2144 80.8193 16.2144 80.8193 16.2144L81.574 16.4189C82.3672 16.6106 82.8917 17.3265 82.8917 18.1062Z" fill="#FFE974" fill-opacity="0.6"/>
<path d="M82.8277 18.1318C82.8277 18.7709 82.4823 19.3589 81.9194 19.6785C81.881 19.704 81.8426 19.7168 81.8042 19.7424C81.7914 19.7552 81.7659 19.7552 81.7531 19.7679C81.6763 19.8063 81.5996 19.8319 81.5228 19.8446L80.9855 19.998L74.5635 21.7493L74.3972 21.8004L74.2692 21.8387H74.2564L72.248 22.3884L66.1074 24.0629C65.1607 24.3186 64.1885 23.7689 63.9326 22.823C63.8942 22.708 63.8814 22.5929 63.8687 22.4651V22.35C63.8687 22.3373 63.8687 22.3117 63.8687 22.2861C63.8942 21.532 64.4059 20.8417 65.1735 20.6372L67.5402 19.9853L74.2437 18.1573H74.2564L74.3844 18.119H74.3972L74.5507 18.0806L80.5633 16.4317C81.51 16.176 82.4823 16.7257 82.7509 17.6716C82.8021 17.825 82.8277 17.9784 82.8277 18.1318Z" fill="#FFE974"/>
<path d="M84.5676 27.1564C84.5676 27.6421 84.3629 28.1023 84.0175 28.4346C84.0047 28.4474 84.0047 28.4474 83.9919 28.4602C83.7872 28.6519 83.5442 28.7925 83.2627 28.8692L80.9856 29.4956L80.5378 29.6234C80.4995 29.6362 80.4611 29.649 80.4099 29.6618L74.5636 31.2468L74.3973 31.298L74.2693 31.3363L70.6489 32.3206L67.988 33.0492C67.9496 33.062 67.9113 33.062 67.8729 33.0747H67.8601C67.8089 33.0875 67.7578 33.0875 67.7066 33.1003C67.6554 33.1003 67.5914 33.1131 67.5403 33.1131C67.4891 33.1131 67.4379 33.1131 67.3868 33.1131C67.374 33.1131 67.374 33.1131 67.3612 33.1131C67.3484 33.1131 67.3228 33.1131 67.2972 33.1131C67.2588 33.1131 67.2204 33.1003 67.1821 33.1003C67.1693 33.1003 67.1565 33.1003 67.1437 33.0875C67.1053 33.0747 67.0669 33.0747 67.0286 33.062C67.0286 33.062 67.0286 33.062 67.0158 33.062C66.9774 33.0492 66.939 33.0364 66.9134 33.0236C66.8623 33.0108 66.8111 32.9853 66.7599 32.9597C66.7087 32.9341 66.6576 32.9086 66.6064 32.883C66.568 32.8574 66.5296 32.8319 66.4913 32.8063C66.4273 32.768 66.3761 32.7168 66.3249 32.6657C66.2738 32.6146 66.2226 32.5634 66.1714 32.5123C66.1714 32.5123 66.1714 32.4995 66.1586 32.4995C66.0051 32.3078 65.8772 32.0905 65.8132 31.8348C65.7749 31.6814 65.7493 31.528 65.7493 31.3619C65.7493 30.5821 66.2738 29.8663 67.0541 29.649L67.5659 29.5084L74.2693 27.6804L74.3973 27.6421L74.5636 27.591L76.1755 27.1436L82.3288 25.4563C83.2755 25.2006 84.2478 25.7503 84.5036 26.6962C84.5548 26.8496 84.5676 27.003 84.5676 27.1564Z" fill="#FFE974"/>
<path d="M84.657 22.414C84.657 22.4268 84.657 22.4523 84.657 22.4779C84.6314 23.2321 84.1197 23.9223 83.3521 24.1269L80.9854 24.7788L74.5634 26.53L74.3971 26.5811L74.2692 26.6195H74.2564L72.3503 27.1436L66.1585 28.8437C65.5573 29.0098 64.9432 28.8437 64.5082 28.4602C64.4955 28.4474 64.4827 28.4346 64.4699 28.4218C64.2396 28.2045 64.0605 27.9233 63.9709 27.6038C63.9326 27.4504 63.907 27.2842 63.907 27.1308C63.907 26.351 64.4187 25.6352 65.2119 25.4179L67.5401 24.7788L74.2436 22.9381L74.3715 22.8997L74.5378 22.8486L76.2521 22.3884L82.3927 20.7139C83.3393 20.4582 84.3116 21.0079 84.5674 21.9538C84.593 22.0688 84.6186 22.1839 84.6314 22.3117L84.657 22.414Z" fill="#FFE974"/>
<path d="M76.4186 16.1377C76.4186 16.9174 75.8941 17.6333 75.1137 17.8506L74.5636 18.004L74.3973 18.0551L74.2694 18.0934H74.2566L74.1159 18.1318L72.44 18.592L67.8857 19.8319C67.5019 19.9341 67.1309 19.9086 66.7855 19.768C66.7727 19.768 66.7472 19.7552 66.7344 19.7424C66.696 19.7296 66.6576 19.7041 66.6192 19.6785C66.2227 19.4867 65.9028 19.1416 65.7493 18.6942C65.7365 18.6559 65.7237 18.6175 65.7109 18.5792C65.6726 18.4258 65.647 18.2724 65.647 18.1062C65.647 17.3265 66.1715 16.6106 66.9518 16.3933L68.6789 15.9204C69.5872 15.6903 70.9944 15.3579 72.4016 15.1662C72.4528 15.1534 72.504 15.1534 72.5551 15.1406C72.6063 15.1406 72.6575 15.1278 72.7086 15.1278C72.7854 15.1151 72.8622 15.1151 72.9261 15.1023C73.0668 15.0895 73.2076 15.0767 73.3483 15.0639C73.4506 15.0512 73.553 15.0512 73.6553 15.0384C73.7321 15.0256 73.8216 15.0256 73.8984 15.0256C74.0135 15.0256 74.1414 15.0128 74.2566 15.0128C74.295 15.0128 74.3461 15.0128 74.3845 15.0128C74.4357 15.0128 74.4996 15.0128 74.5508 15.0128C74.5764 15.0128 74.602 15.0128 74.6276 15.0128C74.6915 15.0128 74.7555 15.0128 74.8195 15.0256C74.9346 15.0256 75.0497 15.0384 75.1649 15.0512C75.28 15.0639 75.4079 15.0767 75.5231 15.0895C75.715 15.1151 75.9197 15.1278 76.1115 15.1662C76.2011 15.3196 76.2906 15.473 76.3418 15.6519C76.393 15.8181 76.4186 15.9843 76.4186 16.1377Z" fill="#FFE974"/>
<path d="M71.455 33.4199V38.0217H67.7707V34.647L66.146 32.474C66.146 32.474 66.146 32.4868 66.1588 32.4868C66.21 32.5379 66.2483 32.6018 66.3123 32.6402C66.3635 32.6913 66.4274 32.7424 66.4786 32.7808C66.517 32.8063 66.5554 32.8447 66.5937 32.8575C66.6449 32.8958 66.6961 32.9214 66.7473 32.9342C66.7984 32.9597 66.8496 32.9853 66.9008 32.9981C66.9392 33.0109 66.9647 33.0236 67.0031 33.0364C67.0031 33.0364 67.0031 33.0364 67.0159 33.0364C67.0543 33.0492 67.0927 33.062 67.1311 33.062C67.1438 33.062 67.1566 33.062 67.1694 33.0748C67.2078 33.0748 67.2462 33.0876 67.2846 33.0876C67.3101 33.0876 67.3229 33.1003 67.3485 33.1003C67.3613 33.1003 67.3613 33.1003 67.3741 33.1003C67.4253 33.1003 67.4765 33.1003 67.5276 33.1003C67.5788 33.1003 67.6428 33.1003 67.6939 33.0876C67.7451 33.0876 67.7963 33.0748 67.8475 33.062H67.8602C67.8986 33.0492 67.937 33.0492 67.9754 33.0364L70.6363 32.3078L71.455 33.4199Z" fill="#FFE974" fill-opacity="0.6"/>
<path d="M82.7893 31.3363C82.7893 31.4897 82.7637 31.6559 82.7253 31.8093C82.6742 32.001 82.5846 32.1928 82.4823 32.3461L82.4183 32.4356L80.8704 34.647V38.0217H77.186V33.4199L77.9664 32.3461L79.4248 30.352C79.6679 30.0069 80.0133 29.7768 80.397 29.649C80.4354 29.6362 80.4866 29.6234 80.525 29.6107C80.832 29.534 81.1646 29.534 81.4844 29.6234C81.881 29.7257 82.2008 29.9558 82.4311 30.2626C82.6614 30.5821 82.7893 30.9528 82.7893 31.3363Z" fill="#FFE974"/>
</g>
<path d="M65.634 26.9391L65.7236 27.2842C65.7364 27.3481 65.8131 27.3865 65.8771 27.3737L83.3905 22.5802C83.4545 22.5674 83.4929 22.4907 83.4801 22.4268L83.3905 22.0816C83.3777 22.0177 83.301 21.9794 83.237 21.9922L65.7236 26.7857C65.6596 26.7985 65.6212 26.8624 65.634 26.9391Z" fill="#FFE974"/>
<path d="M65.9412 22.0305L66.0307 22.3757C66.0435 22.4396 66.1203 22.4779 66.1842 22.4651L80.9216 18.4258C80.9856 18.413 81.024 18.3363 81.0112 18.2724L80.9216 17.9273C80.9089 17.8634 80.8321 17.825 80.7681 17.8378L66.0307 21.8771C65.9668 21.8899 65.9284 21.9538 65.9412 22.0305Z" fill="#FFE974"/>
<path d="M67.4761 18.0423L67.5656 18.3874C67.5784 18.4513 67.6552 18.4897 67.7192 18.4769L74.5633 16.5979C74.6273 16.5851 74.6657 16.5084 74.6529 16.4445L74.5633 16.0993C74.5505 16.0354 74.4738 15.9971 74.4098 16.0098L67.5656 17.8889C67.5017 17.9017 67.4633 17.9784 67.4761 18.0423Z" fill="#FFE974"/>
<path d="M81.7658 31.8348C81.6251 31.7325 81.4332 31.7709 81.3308 31.8987L79.8853 33.8928C79.8341 33.9695 79.8213 34.059 79.8341 34.1357C79.8341 34.1485 79.8213 34.1613 79.8213 34.1868V38.175C79.8213 38.3412 79.962 38.4818 80.1283 38.4818C80.2946 38.4818 80.4353 38.3412 80.4353 38.175V34.1868V34.174L81.8298 32.2694C81.9321 32.1288 81.9065 31.9371 81.7658 31.8348Z" fill="#F4F4F4"/>
<path d="M67.7832 31.234L67.8728 31.5792C67.8856 31.6431 67.9623 31.6814 68.0263 31.6687L82.7637 27.6293C82.8276 27.6165 82.866 27.5398 82.8532 27.4759L82.7637 27.1308C82.7509 27.0669 82.6741 27.0285 82.6101 27.0413L67.8728 31.0807C67.8088 31.0934 67.7704 31.1574 67.7832 31.234Z" fill="#FFE974"/>
<path d="M79.4761 46.292V47.1101C79.4761 47.4553 79.2075 47.7365 78.862 47.7621V48.3756L78.9772 48.3628C79.2458 48.3373 79.4761 48.5546 79.4761 48.823C79.4761 49.0659 79.297 49.2576 79.0539 49.2832L78.8748 49.296V49.9096L78.99 49.8968C79.2586 49.8712 79.4889 50.0885 79.4889 50.3569C79.4889 50.5998 79.3098 50.7916 79.0667 50.8171L78.8876 50.8299V51.4435L79.0028 51.4307C79.2714 51.4051 79.5017 51.6224 79.5017 51.8909C79.5017 52.1337 79.3226 52.3255 79.0795 52.351L78.9004 52.3638V52.9774L79.1307 52.9646C79.3354 52.9518 79.5017 53.1052 79.5017 53.3097C79.5017 53.5015 79.3482 53.6549 79.1563 53.6549H78.8876L77.506 55.1888L76.6105 56.1731C76.3035 56.5182 75.8557 56.7227 75.3824 56.7227H73.1564C72.6959 56.7227 72.2481 56.5182 71.9283 56.1731L71.0328 55.1888L69.7023 53.706L69.6512 53.6549V53.0924L69.536 53.1052C69.2674 53.1308 69.0371 52.9135 69.0371 52.645C69.0371 52.4022 69.2162 52.2104 69.4593 52.1849L69.6512 52.1721V51.5585L69.536 51.5713C69.2674 51.5969 69.0371 51.3796 69.0371 51.1111C69.0371 50.8683 69.2162 50.6765 69.4593 50.6509L69.6512 50.6382V50.0246L69.536 50.0374C69.2674 50.0629 69.0371 49.8456 69.0371 49.5772C69.0371 49.3343 69.2162 49.1426 69.4593 49.117L69.6512 49.1042V48.4907C69.6384 48.4907 69.6256 48.4907 69.6 48.4907C69.293 48.4907 69.0371 48.235 69.0371 47.9154V46.2793C69.0499 46.2793 69.0627 46.2793 69.0883 46.2793H79.4761V46.292Z" fill="#D6E4E7"/>
<path d="M78.8752 47.7748V48.3884L74.564 48.7335L74.3977 48.7463L74.2569 48.7591L69.6643 49.117V48.5034L74.2569 48.1327L74.3977 48.12L74.564 48.1072L78.8752 47.7748Z" fill="#B3C3CD"/>
<path d="M78.8752 49.3088V49.9224L74.564 50.2675L74.3977 50.2803H74.2569L69.6643 50.651V50.0374L74.2569 49.6667L74.3977 49.6539L74.564 49.6411L78.8752 49.3088Z" fill="#B3C3CD"/>
<path d="M78.8752 50.8427V51.4563L74.564 51.8014H74.3977L74.2569 51.8142L69.6643 52.1849V51.5713L74.2569 51.2006L74.3977 51.1878L74.564 51.1751L78.8752 50.8427Z" fill="#B3C3CD"/>
<path d="M78.8752 52.3766V52.9902L74.564 53.3225L74.3977 53.3353L74.2569 53.3481L69.7155 53.706L69.6643 53.6549V53.0924L74.2569 52.7345L74.3977 52.7217L74.564 52.709L78.8752 52.3766Z" fill="#B3C3CD"/>
<path d="M77.4934 55.1888L76.5979 56.1731C76.2908 56.5182 75.8431 56.7227 75.3697 56.7227H73.1566C72.696 56.7227 72.2483 56.5182 71.9285 56.1731L71.033 55.1888H77.4934Z" fill="#4D545C"/>
<path opacity="0.61" d="M79.9366 45.8319L79.4761 46.2921V47.059H69.0499L68.5894 45.8319H79.9366Z" fill="#606060"/>
<path d="M82.2393 39.236V43.0325C82.2393 43.352 82.1114 43.6588 81.8811 43.8889L79.4761 46.2921H69.0883C69.0755 46.2921 69.0627 46.2921 69.0371 46.2921L68.5765 45.8319L66.6448 43.8889C66.4145 43.6588 66.2866 43.352 66.2866 43.0325V39.236C66.2866 39.1849 66.2866 39.1465 66.2994 39.0954C66.3634 38.4946 66.8879 38.0217 67.5019 38.0217H81.0368C81.6636 38.0217 82.1753 38.4946 82.2393 39.0954C82.2393 39.1337 82.2393 39.1849 82.2393 39.236Z" fill="white"/>
<path d="M66.2866 39.9774H82.2521V40.3609H66.2866V39.9774Z" fill="#CDCDCF"/>
<path opacity="0.35" d="M82.239 39.0954H66.2991C66.363 38.4946 66.8875 38.0217 67.5016 38.0217H67.7703V37.2547H71.4546V38.0217H77.173V37.2547H80.8574V38.0217H81.0237C81.6505 38.0217 82.1622 38.4819 82.239 39.0954Z" fill="#606060"/>
<path opacity="0.1" d="M83.3523 24.1268L80.9857 24.7788L83.314 25.4179C84.1071 25.6352 84.6188 26.351 84.6188 27.1308C84.6188 27.2842 84.5932 27.4503 84.5549 27.6037C84.4653 27.9489 84.2734 28.2301 84.0304 28.4474C84.0176 28.4602 84.0176 28.4602 84.0048 28.473C83.8001 28.6647 83.557 28.8053 83.2756 28.882L80.9984 29.5084L81.5102 29.649C81.9067 29.7512 82.2266 29.9813 82.4568 30.2881C82.6871 30.5949 82.815 30.9656 82.815 31.3491C82.815 31.5025 82.7894 31.6686 82.7511 31.822C82.6999 32.0138 82.6103 32.2055 82.508 32.3589L82.444 32.4484L80.8961 34.6598V38.0344H81.0624C81.6893 38.0344 82.201 38.5074 82.2649 39.1082C82.2649 39.1593 82.2777 39.1976 82.2777 39.2488V43.0452C82.2777 43.3648 82.1498 43.6716 81.9195 43.9017L79.5145 46.3048V47.1229C79.5145 47.468 79.2458 47.7493 78.9004 47.7748V48.3884L79.0155 48.3756C79.2842 48.35 79.5145 48.5674 79.5145 48.8358C79.5145 49.0787 79.3354 49.2704 79.0923 49.296L78.9132 49.3088V49.9223L79.0283 49.9095C79.297 49.884 79.5273 50.1013 79.5273 50.3697C79.5273 50.6126 79.3482 50.8043 79.1051 50.8299L78.926 50.8427V51.4562L79.0411 51.4435C79.3098 51.4179 79.5401 51.6352 79.5401 51.9036C79.5401 52.1465 79.361 52.3382 79.1179 52.3638L78.9388 52.3766V52.9902L79.1691 52.9774C79.3737 52.9646 79.5401 53.118 79.5401 53.3225C79.5401 53.5143 79.3865 53.6677 79.1946 53.6677H78.926L77.5444 55.2016L76.6489 56.1858C76.3418 56.531 75.8941 56.7355 75.4207 56.7355H74.4485V38.0216H77.2373V33.4199L78.0177 32.3461L74.6148 31.413L74.4485 31.3618V27.6165L74.6148 27.5654L76.2267 27.118L74.6148 26.6706L74.4485 26.6195V22.8741L74.6148 22.823L76.329 22.3628L74.6148 21.8899L74.4485 21.8387V15C74.4997 15 74.5636 15 74.6148 15C74.6404 15 74.666 15 74.6916 15C74.7555 15 74.8195 15 74.8834 15.0128C74.9986 15.0128 75.1137 15.0256 75.2289 15.0383C75.344 15.0511 75.4719 15.0639 75.5871 15.0767C75.7789 15.1023 75.9836 15.115 76.1755 15.1534C77.6211 15.3451 79.0667 15.6903 79.9622 15.9204L80.8321 16.1504C80.8577 16.1632 80.8705 16.1632 80.8705 16.1632L81.6253 16.3677C82.4185 16.5851 82.9302 17.3009 82.9302 18.0806C82.9302 18.234 82.9046 18.3874 82.8662 18.5536C82.8534 18.5919 82.8406 18.6303 82.8278 18.6686C82.6743 19.116 82.3545 19.4612 81.9579 19.6529C81.9195 19.6785 81.8812 19.6912 81.8428 19.7168C81.83 19.7296 81.8044 19.7296 81.7916 19.7424C81.7148 19.7807 81.6381 19.8063 81.5613 19.8191L81.024 19.9725L83.3907 20.6244C84.1583 20.8289 84.67 21.5192 84.6956 22.2734V22.3884C84.6956 22.4012 84.6956 22.4267 84.6956 22.4523C84.6316 23.2193 84.1199 23.9095 83.3523 24.1268Z" fill="#606060"/>
<defs>
<filter id="filter0_d" x="48.8687" y="0.0128021" width="50.7884" height="53.0089" filterUnits="userSpaceOnUse" color-interpolation-filters="sRGB">
<feFlood flood-opacity="0" result="BackgroundImageFix"/>
<feColorMatrix in="SourceAlpha" type="matrix" values="0 0 0 0 0 0 0 0 0 0 0 0 0 0 0 0 0 0 127 0" result="hardAlpha"/>
<feOffset/>
<feGaussianBlur stdDeviation="7.5"/>
<feComposite in2="hardAlpha" operator="out"/>
<feColorMatrix type="matrix" values="0 0 0 0 1 0 0 0 0 0.913725 0 0 0 0 0.454902 0 0 0 0.85 0"/>
<feBlend mode="normal" in2="BackgroundImageFix" result="effect1_dropShadow"/>
<feBlend mode="normal" in="SourceGraphic" in2="effect1_dropShadow" result="shape"/>
</filter>
</defs>
</svg>
