<svg width="186" height="156" viewBox="0 0 186 156" fill="none" xmlns="http://www.w3.org/2000/svg">
<ellipse cx="93" cy="137.5" rx="93" ry="16.5" fill="url(#paint0_radial)"/>
<path fill-rule="evenodd" clip-rule="evenodd" d="M123.097 113.666C133.215 113.096 145.068 115.535 145.068 115.535C169.899 124.276 159.54 125.478 161.622 130.936L106.778 133.713C86.0863 143.509 70.313 115.97 69.2973 129.547L26.2481 130.936C26.2481 117.874 18.8445 127.542 40.3284 116.932C40.3284 116.932 59.1786 113.096 69.2973 113.666C77.2968 114.117 115.097 114.117 123.097 113.666Z" fill="#99CCFF"/>
<path d="M94.1225 74.5551C94.1225 74.5551 74.1606 74.852 73.8423 101.15L73.751 107.065C73.751 107.065 73.8423 106.975 76.0704 112.46C78.1764 112.46 73.4179 117.819 86.3015 125.411C86.3015 125.411 87.2386 134.974 84.0253 136.925C80.812 138.876 102.29 144.189 105.685 135.536C103.488 133.028 103.369 128.649 103.463 125.411C103.463 125.411 114.015 125.411 115.403 106.975C115.479 83.9855 108.598 73.2261 94.1225 74.5551Z" fill="#D4A181"/>
<path d="M121.357 134.407C121.357 134.407 121.513 134.407 121.513 111.933C123.282 101.918 121.598 83.6193 115.959 77.2224C114.76 75.8624 113.641 71.7941 96.5211 69.6541C96.5211 69.6541 114.491 73.2832 103.463 70.7866C92.4354 68.29 79.015 71.1519 70.1554 81.6454C70.1554 81.6454 64.6016 94.1413 68.7526 120.264C70.8919 133.727 62.1377 128.173 70.1554 132.324C78.173 136.476 85.9515 133.713 85.9515 133.713L91.5053 130.936C91.5053 130.936 120.39 133.277 121.357 134.407ZM111.911 115.875C110.745 118.695 106.357 122.817 103.304 124.429C100.53 125.894 99.836 126.076 99.836 126.076C93.588 128.159 91.5053 126.77 91.5053 126.77C88.0342 125.382 86.6457 124.429 86.6457 124.429C84.7826 123.299 81.3774 120.113 79.701 117.487C77.2217 113.604 76.9241 109.156 76.9241 109.156C75.8119 103.379 76.0129 100.826 76.0129 100.826L76.2044 98.9207C75.3199 86.081 89.7288 82.9852 98.3457 81.2304C106.963 79.4757 107.662 75.7807 107.662 75.7807C118.261 88.1353 114.688 109.156 111.911 115.875Z" fill="#0F1213"/>
<path d="M96.7255 72.2539C96.7255 72.2539 95.2626 69.4213 81.3862 74.393C67.5098 79.3648 75.8635 89.1145 75.7384 84.3261C75.5204 75.9714 63.3851 89.7002 72.0672 98.3071C72.2245 96.7744 83.4706 103.264 93.7425 84.7785C93.7425 84.7785 110.422 99.0521 115.259 97.3605C117.346 95.4666 117.119 73.0853 96.7255 72.2539Z" fill="#0F1213"/>
<path fill-rule="evenodd" clip-rule="evenodd" d="M67.1147 135.858L75.4454 134.339C82.4757 135.31 84.1222 138.284 91.9841 139.507C93.4889 139.559 94.0366 137.056 90.6255 135.858C80.3943 132.265 102.106 134.831 104.606 133.608C106.722 131.336 97.7953 126.366 93.6041 125.177C85.4443 125.046 88.5462 123.102 76.9132 128.443L67.8088 128.443L67.1147 135.858Z" fill="#C69272"/>
<path fill-rule="evenodd" clip-rule="evenodd" d="M67.1147 135.858L75.4454 134.339C82.4757 135.31 84.1222 138.284 91.9841 139.507C93.4889 139.559 94.0366 137.056 90.6255 135.858C80.3943 132.265 102.106 134.831 104.606 133.608C106.722 131.336 97.7953 126.366 93.6041 125.177C85.4443 125.046 88.5462 123.102 76.9132 128.443L67.8088 128.443L67.1147 135.858Z" fill="#C69272"/>
<path fill-rule="evenodd" clip-rule="evenodd" d="M120.721 137.715L112.38 136.25C105.356 137.266 113.587 134.288 105.733 135.562C104.228 135.624 105.039 135.671 105.039 135.671C105.711 132.196 85.9195 138.573 83.2155 135.709C81.0842 133.451 89.9787 128.423 94.162 127.206C102.321 127.022 99.2063 125.099 110.874 130.364L119.978 130.305L120.721 137.715Z" fill="#D4A181"/>
<path fill-rule="evenodd" clip-rule="evenodd" d="M120.721 137.715L112.38 136.25C105.356 137.266 113.587 134.288 105.733 135.562C104.228 135.624 105.039 135.671 105.039 135.671C105.711 132.196 85.9195 138.573 83.2155 135.709C81.0842 133.451 89.9787 128.423 94.162 127.206C102.321 127.022 99.2063 125.099 110.874 130.364L119.978 130.305L120.721 137.715Z" fill="#D4A181"/>
<path fill-rule="evenodd" clip-rule="evenodd" d="M162.41 124.403C164.878 129.378 162.236 135.264 158.939 136.899C155.642 138.535 129.781 139.531 104.789 140.919L103.401 123.563C123.272 123.004 116.917 120.752 154.799 119.007C161.626 120.27 159.942 119.428 162.41 124.403Z" fill="#80B0E0"/>
<path fill-rule="evenodd" clip-rule="evenodd" d="M23.5899 123.015C21.1216 127.99 23.7644 133.875 27.0611 135.511C30.3578 137.146 56.2186 138.142 81.2107 139.531L82.5992 122.175C62.7278 121.616 69.0826 119.364 31.2007 117.619C24.3744 118.882 26.0581 118.039 23.5899 123.015Z" fill="#80B0E0"/>
<path d="M89.5102 98.6995C90.2044 98.6995 90.2044 97.311 89.5102 97.311C88.8159 97.311 86.5307 97.053 84.6506 97.311C82.6952 97.5794 79.0968 98.6995 79.791 98.6995H85.6225H89.5102Z" fill="#0F1213" stroke="#0F1213" stroke-width="0.3"/>
<path d="M98.4241 97.7696C97.7302 97.7894 97.6905 96.4015 98.3844 96.3817C99.0784 96.3619 101.506 95.225 103.392 95.4292C105.355 95.6416 108.833 97.4719 108.139 97.4918C107.445 97.5116 103.016 96.8291 102.738 96.837C102.738 96.837 99.1181 97.7498 98.4241 97.7696Z" fill="#0F1213" stroke="#0F1213" stroke-width="0.3"/>
<g filter="url(#filter0_d)">
<path d="M104.657 22.414C104.657 22.4268 104.657 22.4523 104.657 22.4779C104.644 22.5929 104.631 22.708 104.593 22.8358C104.337 23.7817 103.352 24.3442 102.418 24.0757L100.192 23.4622L99.0282 23.1426L96.2777 22.3884L94.5635 21.9155L94.3972 21.8643L94.2692 21.826H94.2564L91.378 21.0462L90.2139 20.7267L87.5402 19.9981L87.0029 19.8447C86.9261 19.8191 86.8494 19.7935 86.7726 19.768C86.7598 19.768 86.7342 19.7552 86.7214 19.7424C86.683 19.7296 86.6447 19.7041 86.6063 19.6785C86.0434 19.3717 85.698 18.7709 85.698 18.1318C85.698 17.9784 85.7236 17.825 85.762 17.6588C86.0178 16.7129 87.0029 16.1633 87.9495 16.4189L90.4186 17.0964L91.5827 17.416L94.1157 18.1062L94.2564 18.1446H94.2692L94.3972 18.1829L94.5635 18.234L96.9301 18.886L98.0815 19.2055L100.96 19.9981L103.327 20.65C104.094 20.8545 104.606 21.5448 104.631 22.2989L104.657 22.414Z" fill="#FFE974" fill-opacity="0.6"/>
<path d="M102.789 31.3363C102.789 31.4897 102.764 31.6559 102.725 31.8093C102.674 32.001 102.584 32.1928 102.482 32.3461L102.418 32.4356C102.124 32.8063 101.702 33.0492 101.228 33.1003C101.011 33.1259 100.781 33.1131 100.55 33.0492L100.512 33.0364L97.9662 32.3461L94.5633 31.413L94.397 31.3619L94.2691 31.3235L91.7745 30.6333L90.6103 30.3137L87.5656 29.4828L85.2885 28.8565C84.9943 28.7798 84.7384 28.6264 84.5337 28.4346C84.5209 28.4219 84.5082 28.4091 84.4954 28.3963C84.1755 28.0639 83.9836 27.6165 83.9836 27.1436C83.9836 26.9902 84.0092 26.824 84.0476 26.6706C84.3035 25.7247 85.2757 25.1751 86.2224 25.4307L88.41 26.0315L89.5741 26.3511L92.3758 27.118L94.2819 27.6421L94.4098 27.6805L94.5761 27.7316L97.3138 28.4858L98.4652 28.8053L100.205 29.2783L100.973 29.4956L101.484 29.6362C101.881 29.7385 102.201 29.9686 102.431 30.2753C102.661 30.5821 102.789 30.9528 102.789 31.3363Z" fill="#FFE974" fill-opacity="0.6"/>
<path d="M104.619 27.118C104.619 27.2714 104.593 27.4376 104.555 27.591C104.465 27.9361 104.273 28.2173 104.03 28.4346C104.017 28.4474 104.017 28.4474 104.005 28.4602C103.57 28.8309 102.968 28.9971 102.38 28.8309L100.397 28.2812L99.2328 27.9617L96.2009 27.1308L94.589 26.6834L94.4227 26.6323L94.2948 26.5939H94.282L91.4931 25.827L90.329 25.5074L87.5785 24.7532L85.2119 24.1013C84.4443 23.884 83.9326 23.2065 83.907 22.4523V22.3373C83.907 22.3245 83.907 22.2989 83.907 22.2734C83.9198 22.1583 83.9326 22.0433 83.9709 21.9155C84.2268 20.9695 85.1991 20.4199 86.1457 20.6755L88.2438 21.2508L89.3951 21.5703L92.2735 22.3629L94.282 22.9125L94.4099 22.9509L94.5762 23.002L97.0325 23.6795L98.1966 23.999L100.998 24.766L103.327 25.4051C104.094 25.6224 104.619 26.3383 104.619 27.118Z" fill="#FFE974" fill-opacity="0.6"/>
<path d="M102.892 18.1062C102.892 18.2596 102.866 18.413 102.828 18.5792C102.815 18.6175 102.802 18.6559 102.789 18.6942C102.636 19.1416 102.316 19.4867 101.919 19.6785C101.881 19.704 101.843 19.7168 101.804 19.7424C101.792 19.7552 101.766 19.7552 101.753 19.768C101.408 19.9086 101.037 19.9341 100.653 19.8319L98.2479 19.18L97.0837 18.8604L96.0987 18.592L94.5763 18.1701L94.4228 18.1318H94.41L94.2821 18.0934H94.2693L93.4378 17.8633C93.0412 17.7483 92.7086 17.5182 92.4783 17.1986C92.3504 17.0325 92.2608 16.8407 92.1969 16.6362C92.1457 16.4828 92.1201 16.3166 92.1201 16.1505C92.1201 15.9971 92.1457 15.8437 92.1841 15.6775C92.2353 15.4985 92.312 15.3324 92.4144 15.1918C92.4655 15.1918 92.5167 15.179 92.5679 15.179C92.619 15.179 92.6702 15.1662 92.7214 15.1662C92.7981 15.1534 92.8749 15.1534 92.9389 15.1406C93.0796 15.1278 93.2203 15.1151 93.361 15.1023C93.4634 15.0895 93.5657 15.0895 93.6681 15.0767C93.7448 15.0639 93.8344 15.0639 93.9111 15.0639C94.0263 15.0639 94.1542 15.0511 94.2693 15.0511C94.3077 15.0511 94.3589 15.0511 94.3972 15.0511C94.4484 15.0511 94.5124 15.0511 94.5636 15.0511C94.5891 15.0511 94.6147 15.0511 94.6403 15.0511C94.7043 15.0511 94.7682 15.0511 94.8322 15.0639C94.9473 15.0639 95.0625 15.0767 95.1776 15.0895C95.2927 15.1023 95.4207 15.1151 95.5358 15.1278C95.7277 15.1534 95.9324 15.1662 96.1243 15.2045C97.5699 15.3963 99.0155 15.7414 99.911 15.9715L100.781 16.2016C100.806 16.2144 100.819 16.2144 100.819 16.2144L101.574 16.4189C102.367 16.6106 102.892 17.3265 102.892 18.1062Z" fill="#FFE974" fill-opacity="0.6"/>
<path d="M102.828 18.1318C102.828 18.7709 102.482 19.3589 101.919 19.6785C101.881 19.704 101.843 19.7168 101.804 19.7424C101.791 19.7552 101.766 19.7552 101.753 19.7679C101.676 19.8063 101.6 19.8319 101.523 19.8446L100.985 19.998L94.5635 21.7493L94.3972 21.8004L94.2692 21.8387H94.2564L92.248 22.3884L86.1074 24.0629C85.1607 24.3186 84.1885 23.7689 83.9326 22.823C83.8942 22.708 83.8814 22.5929 83.8687 22.4651V22.35C83.8687 22.3373 83.8687 22.3117 83.8687 22.2861C83.8942 21.532 84.4059 20.8417 85.1735 20.6372L87.5402 19.9853L94.2437 18.1573H94.2564L94.3844 18.119H94.3972L94.5507 18.0806L100.563 16.4317C101.51 16.176 102.482 16.7257 102.751 17.6716C102.802 17.825 102.828 17.9784 102.828 18.1318Z" fill="#FFE974"/>
<path d="M104.568 27.1564C104.568 27.6421 104.363 28.1023 104.017 28.4346C104.005 28.4474 104.005 28.4474 103.992 28.4602C103.787 28.6519 103.544 28.7925 103.263 28.8692L100.986 29.4956L100.538 29.6234C100.499 29.6362 100.461 29.649 100.41 29.6618L94.5636 31.2468L94.3973 31.298L94.2693 31.3363L90.6489 32.3206L87.988 33.0492C87.9496 33.062 87.9113 33.062 87.8729 33.0747H87.8601C87.8089 33.0875 87.7578 33.0875 87.7066 33.1003C87.6554 33.1003 87.5914 33.1131 87.5403 33.1131C87.4891 33.1131 87.4379 33.1131 87.3868 33.1131C87.374 33.1131 87.374 33.1131 87.3612 33.1131C87.3484 33.1131 87.3228 33.1131 87.2972 33.1131C87.2588 33.1131 87.2204 33.1003 87.1821 33.1003C87.1693 33.1003 87.1565 33.1003 87.1437 33.0875C87.1053 33.0747 87.0669 33.0747 87.0286 33.062C87.0286 33.062 87.0286 33.062 87.0158 33.062C86.9774 33.0492 86.939 33.0364 86.9134 33.0236C86.8623 33.0108 86.8111 32.9853 86.7599 32.9597C86.7087 32.9341 86.6576 32.9086 86.6064 32.883C86.568 32.8574 86.5296 32.8319 86.4913 32.8063C86.4273 32.768 86.3761 32.7168 86.3249 32.6657C86.2738 32.6146 86.2226 32.5634 86.1714 32.5123C86.1714 32.5123 86.1714 32.4995 86.1586 32.4995C86.0051 32.3078 85.8772 32.0905 85.8132 31.8348C85.7749 31.6814 85.7493 31.528 85.7493 31.3619C85.7493 30.5821 86.2738 29.8663 87.0541 29.649L87.5659 29.5084L94.2693 27.6804L94.3973 27.6421L94.5636 27.591L96.1755 27.1436L102.329 25.4563C103.276 25.2006 104.248 25.7503 104.504 26.6962C104.555 26.8496 104.568 27.003 104.568 27.1564Z" fill="#FFE974"/>
<path d="M104.657 22.414C104.657 22.4268 104.657 22.4523 104.657 22.4779C104.631 23.2321 104.12 23.9223 103.352 24.1269L100.985 24.7788L94.5634 26.53L94.3971 26.5811L94.2692 26.6195H94.2564L92.3503 27.1436L86.1585 28.8437C85.5573 29.0098 84.9432 28.8437 84.5082 28.4602C84.4955 28.4474 84.4827 28.4346 84.4699 28.4218C84.2396 28.2045 84.0605 27.9233 83.9709 27.6038C83.9326 27.4504 83.907 27.2842 83.907 27.1308C83.907 26.351 84.4187 25.6352 85.2119 25.4179L87.5401 24.7788L94.2436 22.9381L94.3715 22.8997L94.5378 22.8486L96.2521 22.3884L102.393 20.7139C103.339 20.4582 104.312 21.0079 104.567 21.9538C104.593 22.0688 104.619 22.1839 104.631 22.3117L104.657 22.414Z" fill="#FFE974"/>
<path d="M96.4186 16.1377C96.4186 16.9174 95.8941 17.6333 95.1137 17.8506L94.5636 18.004L94.3973 18.0551L94.2694 18.0934H94.2566L94.1159 18.1318L92.44 18.592L87.8857 19.8319C87.5019 19.9341 87.1309 19.9086 86.7855 19.768C86.7727 19.768 86.7472 19.7552 86.7344 19.7424C86.696 19.7296 86.6576 19.7041 86.6192 19.6785C86.2227 19.4867 85.9028 19.1416 85.7493 18.6942C85.7365 18.6559 85.7237 18.6175 85.7109 18.5792C85.6726 18.4258 85.647 18.2724 85.647 18.1062C85.647 17.3265 86.1715 16.6106 86.9518 16.3933L88.6789 15.9204C89.5872 15.6903 90.9944 15.3579 92.4016 15.1662C92.4528 15.1534 92.504 15.1534 92.5551 15.1406C92.6063 15.1406 92.6575 15.1278 92.7086 15.1278C92.7854 15.1151 92.8622 15.1151 92.9261 15.1023C93.0668 15.0895 93.2076 15.0767 93.3483 15.0639C93.4506 15.0512 93.553 15.0512 93.6553 15.0384C93.7321 15.0256 93.8216 15.0256 93.8984 15.0256C94.0135 15.0256 94.1414 15.0128 94.2566 15.0128C94.295 15.0128 94.3461 15.0128 94.3845 15.0128C94.4357 15.0128 94.4996 15.0128 94.5508 15.0128C94.5764 15.0128 94.602 15.0128 94.6276 15.0128C94.6915 15.0128 94.7555 15.0128 94.8195 15.0256C94.9346 15.0256 95.0497 15.0384 95.1649 15.0512C95.28 15.0639 95.4079 15.0767 95.5231 15.0895C95.715 15.1151 95.9197 15.1278 96.1115 15.1662C96.2011 15.3196 96.2906 15.473 96.3418 15.6519C96.393 15.8181 96.4186 15.9843 96.4186 16.1377Z" fill="#FFE974"/>
<path d="M91.455 33.4199V38.0217H87.7707V34.647L86.146 32.474C86.146 32.474 86.146 32.4868 86.1588 32.4868C86.21 32.5379 86.2483 32.6018 86.3123 32.6402C86.3635 32.6913 86.4274 32.7424 86.4786 32.7808C86.517 32.8063 86.5554 32.8447 86.5937 32.8575C86.6449 32.8958 86.6961 32.9214 86.7473 32.9342C86.7984 32.9597 86.8496 32.9853 86.9008 32.9981C86.9392 33.0109 86.9647 33.0236 87.0031 33.0364C87.0031 33.0364 87.0031 33.0364 87.0159 33.0364C87.0543 33.0492 87.0927 33.062 87.1311 33.062C87.1438 33.062 87.1566 33.062 87.1694 33.0748C87.2078 33.0748 87.2462 33.0876 87.2846 33.0876C87.3101 33.0876 87.3229 33.1003 87.3485 33.1003C87.3613 33.1003 87.3613 33.1003 87.3741 33.1003C87.4253 33.1003 87.4765 33.1003 87.5276 33.1003C87.5788 33.1003 87.6428 33.1003 87.6939 33.0876C87.7451 33.0876 87.7963 33.0748 87.8475 33.062H87.8602C87.8986 33.0492 87.937 33.0492 87.9754 33.0364L90.6363 32.3078L91.455 33.4199Z" fill="#FFE974" fill-opacity="0.6"/>
<path d="M102.789 31.3363C102.789 31.4897 102.764 31.6559 102.725 31.8093C102.674 32.001 102.585 32.1928 102.482 32.3461L102.418 32.4356L100.87 34.647V38.0217H97.186V33.4199L97.9664 32.3461L99.4248 30.352C99.6679 30.0069 100.013 29.7768 100.397 29.649C100.435 29.6362 100.487 29.6234 100.525 29.6107C100.832 29.534 101.165 29.534 101.484 29.6234C101.881 29.7257 102.201 29.9558 102.431 30.2626C102.661 30.5821 102.789 30.9528 102.789 31.3363Z" fill="#FFE974"/>
</g>
<path d="M85.634 26.9391L85.7236 27.2842C85.7364 27.3481 85.8131 27.3865 85.8771 27.3737L103.391 22.5802C103.455 22.5674 103.493 22.4907 103.48 22.4268L103.391 22.0816C103.378 22.0177 103.301 21.9794 103.237 21.9922L85.7236 26.7857C85.6596 26.7985 85.6212 26.8624 85.634 26.9391Z" fill="#FFE974"/>
<path d="M85.9412 22.0305L86.0307 22.3757C86.0435 22.4396 86.1203 22.4779 86.1842 22.4651L100.922 18.4258C100.986 18.413 101.024 18.3363 101.011 18.2724L100.922 17.9273C100.909 17.8634 100.832 17.825 100.768 17.8378L86.0307 21.8771C85.9668 21.8899 85.9284 21.9538 85.9412 22.0305Z" fill="#FFE974"/>
<path d="M87.4761 18.0423L87.5656 18.3874C87.5784 18.4513 87.6552 18.4897 87.7192 18.4769L94.5633 16.5979C94.6273 16.5851 94.6657 16.5084 94.6529 16.4445L94.5633 16.0993C94.5505 16.0354 94.4738 15.9971 94.4098 16.0098L87.5656 17.8889C87.5017 17.9017 87.4633 17.9784 87.4761 18.0423Z" fill="#FFE974"/>
<path d="M101.766 31.8348C101.625 31.7325 101.433 31.7709 101.331 31.8987L99.8853 33.8928C99.8341 33.9695 99.8213 34.059 99.8341 34.1357C99.8341 34.1485 99.8213 34.1613 99.8213 34.1868V38.175C99.8213 38.3412 99.962 38.4818 100.128 38.4818C100.295 38.4818 100.435 38.3412 100.435 38.175V34.1868V34.174L101.83 32.2694C101.932 32.1288 101.907 31.9371 101.766 31.8348Z" fill="#F4F4F4"/>
<path d="M87.7832 31.234L87.8728 31.5792C87.8856 31.6431 87.9623 31.6814 88.0263 31.6687L102.764 27.6293C102.828 27.6165 102.866 27.5398 102.853 27.4759L102.764 27.1308C102.751 27.0669 102.674 27.0285 102.61 27.0413L87.8728 31.0807C87.8088 31.0934 87.7704 31.1574 87.7832 31.234Z" fill="#FFE974"/>
<path d="M99.4761 46.292V47.1101C99.4761 47.4553 99.2075 47.7365 98.862 47.7621V48.3756L98.9772 48.3628C99.2458 48.3373 99.4761 48.5546 99.4761 48.823C99.4761 49.0659 99.297 49.2576 99.0539 49.2832L98.8748 49.296V49.9096L98.99 49.8968C99.2586 49.8712 99.4889 50.0885 99.4889 50.3569C99.4889 50.5998 99.3098 50.7916 99.0667 50.8171L98.8876 50.8299V51.4435L99.0028 51.4307C99.2714 51.4051 99.5017 51.6224 99.5017 51.8909C99.5017 52.1337 99.3226 52.3255 99.0795 52.351L98.9004 52.3638V52.9774L99.1307 52.9646C99.3354 52.9518 99.5017 53.1052 99.5017 53.3097C99.5017 53.5015 99.3482 53.6549 99.1563 53.6549H98.8876L97.506 55.1888L96.6105 56.1731C96.3035 56.5182 95.8557 56.7227 95.3824 56.7227H93.1564C92.6959 56.7227 92.2481 56.5182 91.9283 56.1731L91.0328 55.1888L89.7023 53.706L89.6512 53.6549V53.0924L89.536 53.1052C89.2674 53.1308 89.0371 52.9135 89.0371 52.645C89.0371 52.4022 89.2162 52.2104 89.4593 52.1849L89.6512 52.1721V51.5585L89.536 51.5713C89.2674 51.5969 89.0371 51.3796 89.0371 51.1111C89.0371 50.8683 89.2162 50.6765 89.4593 50.6509L89.6512 50.6382V50.0246L89.536 50.0374C89.2674 50.0629 89.0371 49.8456 89.0371 49.5772C89.0371 49.3343 89.2162 49.1426 89.4593 49.117L89.6512 49.1042V48.4907C89.6384 48.4907 89.6256 48.4907 89.6 48.4907C89.293 48.4907 89.0371 48.235 89.0371 47.9154V46.2793C89.0499 46.2793 89.0627 46.2793 89.0883 46.2793H99.4761V46.292Z" fill="#D6E4E7"/>
<path d="M98.8752 47.7748V48.3884L94.564 48.7335L94.3977 48.7463L94.2569 48.7591L89.6643 49.117V48.5034L94.2569 48.1327L94.3977 48.12L94.564 48.1072L98.8752 47.7748Z" fill="#B3C3CD"/>
<path d="M98.8752 49.3088V49.9224L94.564 50.2675L94.3977 50.2803H94.2569L89.6643 50.651V50.0374L94.2569 49.6667L94.3977 49.6539L94.564 49.6411L98.8752 49.3088Z" fill="#B3C3CD"/>
<path d="M98.8752 50.8427V51.4563L94.564 51.8014H94.3977L94.2569 51.8142L89.6643 52.1849V51.5713L94.2569 51.2006L94.3977 51.1878L94.564 51.1751L98.8752 50.8427Z" fill="#B3C3CD"/>
<path d="M98.8752 52.3766V52.9902L94.564 53.3225L94.3977 53.3353L94.2569 53.3481L89.7155 53.706L89.6643 53.6549V53.0924L94.2569 52.7345L94.3977 52.7217L94.564 52.709L98.8752 52.3766Z" fill="#B3C3CD"/>
<path d="M97.4934 55.1888L96.5979 56.1731C96.2908 56.5182 95.8431 56.7227 95.3697 56.7227H93.1566C92.696 56.7227 92.2483 56.5182 91.9285 56.1731L91.033 55.1888H97.4934Z" fill="#4D545C"/>
<path opacity="0.61" d="M99.9366 45.8319L99.4761 46.2921V47.059H89.0499L88.5894 45.8319H99.9366Z" fill="#606060"/>
<path d="M102.239 39.236V43.0325C102.239 43.352 102.111 43.6588 101.881 43.8889L99.4761 46.2921H89.0883C89.0755 46.2921 89.0627 46.2921 89.0371 46.2921L88.5765 45.8319L86.6448 43.8889C86.4145 43.6588 86.2866 43.352 86.2866 43.0325V39.236C86.2866 39.1849 86.2866 39.1465 86.2994 39.0954C86.3634 38.4946 86.8879 38.0217 87.5019 38.0217H101.037C101.664 38.0217 102.175 38.4946 102.239 39.0954C102.239 39.1337 102.239 39.1849 102.239 39.236Z" fill="white"/>
<path d="M86.2866 39.9774H102.252V40.3609H86.2866V39.9774Z" fill="#CDCDCF"/>
<path opacity="0.35" d="M102.239 39.0954H86.2991C86.363 38.4946 86.8875 38.0217 87.5016 38.0217H87.7703V37.2547H91.4546V38.0217H97.173V37.2547H100.857V38.0217H101.024C101.651 38.0217 102.162 38.4819 102.239 39.0954Z" fill="#606060"/>
<path opacity="0.1" d="M103.352 24.1268L100.986 24.7788L103.314 25.4179C104.107 25.6352 104.619 26.351 104.619 27.1308C104.619 27.2842 104.593 27.4503 104.555 27.6037C104.465 27.9489 104.273 28.2301 104.03 28.4474C104.018 28.4602 104.018 28.4602 104.005 28.473C103.8 28.6647 103.557 28.8053 103.276 28.882L100.998 29.5084L101.51 29.649C101.907 29.7512 102.227 29.9813 102.457 30.2881C102.687 30.5949 102.815 30.9656 102.815 31.3491C102.815 31.5025 102.789 31.6686 102.751 31.822C102.7 32.0138 102.61 32.2055 102.508 32.3589L102.444 32.4484L100.896 34.6598V38.0344H101.062C101.689 38.0344 102.201 38.5074 102.265 39.1082C102.265 39.1593 102.278 39.1976 102.278 39.2488V43.0452C102.278 43.3648 102.15 43.6716 101.92 43.9017L99.5145 46.3048V47.1229C99.5145 47.468 99.2458 47.7493 98.9004 47.7748V48.3884L99.0155 48.3756C99.2842 48.35 99.5145 48.5674 99.5145 48.8358C99.5145 49.0787 99.3354 49.2704 99.0923 49.296L98.9132 49.3088V49.9223L99.0283 49.9095C99.297 49.884 99.5273 50.1013 99.5273 50.3697C99.5273 50.6126 99.3482 50.8043 99.1051 50.8299L98.926 50.8427V51.4562L99.0411 51.4435C99.3098 51.4179 99.5401 51.6352 99.5401 51.9036C99.5401 52.1465 99.361 52.3382 99.1179 52.3638L98.9388 52.3766V52.9902L99.1691 52.9774C99.3737 52.9646 99.5401 53.118 99.5401 53.3225C99.5401 53.5143 99.3865 53.6677 99.1946 53.6677H98.926L97.5444 55.2016L96.6489 56.1858C96.3418 56.531 95.8941 56.7355 95.4207 56.7355H94.4485V38.0216H97.2373V33.4199L98.0177 32.3461L94.6148 31.413L94.4485 31.3618V27.6165L94.6148 27.5654L96.2267 27.118L94.6148 26.6706L94.4485 26.6195V22.8741L94.6148 22.823L96.329 22.3628L94.6148 21.8899L94.4485 21.8387V15C94.4997 15 94.5636 15 94.6148 15C94.6404 15 94.666 15 94.6916 15C94.7555 15 94.8195 15 94.8834 15.0128C94.9986 15.0128 95.1137 15.0256 95.2289 15.0383C95.344 15.0511 95.4719 15.0639 95.5871 15.0767C95.7789 15.1023 95.9836 15.115 96.1755 15.1534C97.6211 15.3451 99.0667 15.6903 99.9622 15.9204L100.832 16.1504C100.858 16.1632 100.871 16.1632 100.871 16.1632L101.625 16.3677C102.418 16.5851 102.93 17.3009 102.93 18.0806C102.93 18.234 102.905 18.3874 102.866 18.5536C102.853 18.5919 102.841 18.6303 102.828 18.6686C102.674 19.116 102.354 19.4612 101.958 19.6529C101.92 19.6785 101.881 19.6912 101.843 19.7168C101.83 19.7296 101.804 19.7296 101.792 19.7424C101.715 19.7807 101.638 19.8063 101.561 19.8191L101.024 19.9725L103.391 20.6244C104.158 20.8289 104.67 21.5192 104.696 22.2734V22.3884C104.696 22.4012 104.696 22.4267 104.696 22.4523C104.632 23.2193 104.12 23.9095 103.352 24.1268Z" fill="#606060"/>
<defs>
<filter id="filter0_d" x="68.8687" y="0.0128021" width="50.7884" height="53.0089" filterUnits="userSpaceOnUse" color-interpolation-filters="sRGB">
<feFlood flood-opacity="0" result="BackgroundImageFix"/>
<feColorMatrix in="SourceAlpha" type="matrix" values="0 0 0 0 0 0 0 0 0 0 0 0 0 0 0 0 0 0 127 0" result="hardAlpha"/>
<feOffset/>
<feGaussianBlur stdDeviation="7.5"/>
<feComposite in2="hardAlpha" operator="out"/>
<feColorMatrix type="matrix" values="0 0 0 0 1 0 0 0 0 0.913725 0 0 0 0 0.454902 0 0 0 0.85 0"/>
<feBlend mode="normal" in2="BackgroundImageFix" result="effect1_dropShadow"/>
<feBlend mode="normal" in="SourceGraphic" in2="effect1_dropShadow" result="shape"/>
</filter>
<radialGradient id="paint0_radial" cx="0" cy="0" r="1" gradientUnits="userSpaceOnUse" gradientTransform="translate(93 137.5) rotate(90) scale(16.5 93)">
<stop stop-color="#C4C4C4" stop-opacity="0.58"/>
<stop offset="1" stop-color="#C4C4C4" stop-opacity="0"/>
</radialGradient>
</defs>
</svg>
