<svg width="207" height="290" viewBox="0 0 207 290" fill="none" xmlns="http://www.w3.org/2000/svg">
<ellipse cx="114" cy="273.5" rx="93" ry="16.5" fill="url(#paint0_radial)"/>
<path fill-rule="evenodd" clip-rule="evenodd" d="M64.7151 218.211C56.5028 229.975 65.6708 217.403 64.7167 218.212C64.2926 218.571 62.139 236.579 58.2558 272.234L51.794 271.083C49.8637 229.755 50.6663 220.422 53.5436 217.839C57.6632 214.139 60.8656 218.349 61.921 216.561L64.7151 218.211Z" fill="#D4A181"/>
<path fill-rule="evenodd" clip-rule="evenodd" d="M81.0437 218.211C89.256 229.975 80.088 217.403 81.0421 218.212C81.4662 218.571 83.6198 236.579 87.503 272.234L93.9647 271.083C95.8951 229.755 95.0925 220.422 92.2152 217.839C88.0956 214.139 84.8932 218.349 83.8378 216.561L81.0437 218.211Z" fill="#D4A181"/>
<path d="M74.5 31.1055C74.5 31.1055 60.4777 31.3141 60.2541 49.7869L60.1899 53.9419C60.1899 53.9419 60.2541 53.8787 61.8192 57.7321C63.2985 57.7321 59.956 61.4962 69.006 66.8295C69.006 66.8295 69.6644 73.5465 67.4072 74.9171C65.15 76.2876 80.2369 80.0199 82.6218 73.9418C81.079 72.1797 80.9952 69.1037 81.0614 66.8295C81.0614 66.8295 88.4737 66.8295 89.4485 53.8787C89.5018 37.7299 84.668 30.172 74.5 31.1055Z" fill="#D4A181"/>
<path d="M95.7734 83.6949C95.7734 83.6949 89.2309 72.3937 93.7405 57.3617C94.9831 50.3267 93.8002 37.4727 89.8393 32.9792C88.9972 32.0238 88.2108 29.166 76.1851 27.6628C76.1851 27.6628 88.8081 30.2121 81.0616 28.4584C73.3151 26.7046 63.8879 28.715 57.6645 36.0861C57.6645 36.0861 53.7633 44.8638 56.6791 63.2135C58.1818 72.6705 53.2213 89.5564 58.8533 92.4726C64.4853 95.3888 70.8026 95.2413 70.8026 95.2413L87.1943 93.3904C87.1943 93.3904 96.89 93.3904 95.7734 83.6949ZM86.9957 60.1305C86.1769 62.1114 83.0945 65.007 80.9499 66.1395C78.4847 66.1395 81.2852 73.9419 81.2852 73.9419C74.7412 77.1487 68.7983 74.437 68.7983 74.437C71.6343 72.4327 69.5816 66.1395 69.5816 66.1395C68.4012 65.746 65.5474 63.1075 64.3698 61.263C62.6283 58.5353 62.4192 55.4112 62.4192 55.4112C61.6379 51.3528 61.7792 49.5594 61.7792 49.5594L61.9136 48.2211C61.2923 39.2019 71.4139 37.0273 77.4668 35.7946C83.5197 34.562 84.0107 31.9665 84.0107 31.9665C91.4566 40.645 88.9463 55.4112 86.9957 60.1305Z" fill="#0F1213"/>
<path d="M76.3288 29.489C76.3288 29.489 75.3011 27.4993 65.5537 30.9917C55.8062 34.4841 61.6742 41.3328 61.5863 37.9691C61.4332 32.1004 53.5488 42.6646 59.6476 48.7105C59.7581 47.6338 67.0178 51.2722 74.2334 38.2869C74.2334 38.2869 85.9496 48.3135 89.3473 47.1252C90.8137 45.7948 90.6545 30.0731 76.3288 29.489Z" fill="#0F1213"/>
<path fill-rule="evenodd" clip-rule="evenodd" d="M28.4049 136.542L37.1827 133.616C27.3691 172.273 26.0513 167.033 25.6643 168.839C24.7935 172.904 30.7716 176.493 31.805 178.413C26.9892 180.509 28.1335 174.482 22.0564 178.706C17.6548 181.765 16.3535 183.756 10.5042 183.931C9.59347 183.668 7.87758 181.527 9.40877 180.061C14.0533 175.628 18.2095 171.146 18.8402 169.044C19.7003 166.178 23.2019 172.138 28.4049 136.542Z" fill="#D4A181"/>
<path fill-rule="evenodd" clip-rule="evenodd" d="M28.4049 136.542L37.1827 133.616C27.3691 172.273 26.0513 167.033 25.6643 168.839C24.7935 172.904 30.7716 176.493 31.805 178.413C26.9892 180.509 28.1335 174.482 22.0564 178.706C17.6548 181.765 16.3535 183.756 10.5042 183.931C9.59347 183.668 7.87758 181.527 9.40877 180.061C14.0533 175.628 18.2095 171.146 18.8402 169.044C19.7003 166.178 23.2019 172.138 28.4049 136.542Z" fill="#D4A181"/>
<path fill-rule="evenodd" clip-rule="evenodd" d="M118.184 48.7866L127.742 20.6874C128.443 15.7515 128.237 14.388 128.928 8.84182C129.183 7.81538 130.979 7.92819 131.13 10.4633C131.583 18.067 134.038 2.90707 135.347 1.45445C137.289 0.463011 139.685 7.07543 139.68 10.1359C138.194 15.6725 138.196 15.6722 132.12 23.9144L127.362 50.0937L118.184 48.7866Z" fill="#D4A181"/>
<path fill-rule="evenodd" clip-rule="evenodd" d="M118.184 48.7866L127.742 20.6874C128.443 15.7515 128.237 14.388 128.928 8.84182C129.183 7.81538 130.979 7.92819 131.13 10.4633C131.583 18.067 134.038 2.90707 135.347 1.45445C137.289 0.463011 139.685 7.07543 139.68 10.1359C138.194 15.6725 138.196 15.6722 132.12 23.9144L127.362 50.0937L118.184 48.7866Z" fill="#D4A181"/>
<path fill-rule="evenodd" clip-rule="evenodd" d="M87.1328 89.6296L87.1328 77.2398C106.639 67.4868 117.084 47.1653 117.819 26.674L137.347 26.674C131.225 57.5557 124.876 74.039 101.043 87.7034C93.7499 90.703 94.7479 90.0218 87.1328 89.6296Z" fill="#80B0E0"/>
<path fill-rule="evenodd" clip-rule="evenodd" d="M60.0615 270.345C60.7554 272.199 61.1221 273.59 61.1615 274.515C61.2095 275.641 61.1144 277.287 60.8764 279.452C59.7274 279.47 49.4007 279.638 29.8963 279.954C28.9624 276.942 29.3575 275.301 31.0818 275.032C32.806 274.763 34.2376 274.522 35.3766 274.309L49.4651 266.779C49.7362 266.634 50.0669 266.77 50.2039 267.083C50.2062 267.088 50.2085 267.094 50.2107 267.099L51.245 269.636C52.887 270.462 54.2099 270.866 55.2138 270.85C56.0295 270.837 57.1399 270.444 58.5452 269.672L58.5452 269.672C59.0845 269.376 59.7483 269.64 60.0278 270.263C60.0399 270.29 60.0511 270.317 60.0615 270.345Z" fill="black"/>
<path fill-rule="evenodd" clip-rule="evenodd" d="M84.8905 270.345C84.1965 272.199 83.8298 273.59 83.7904 274.515C83.7424 275.641 83.8375 277.287 84.0755 279.452C85.2245 279.47 95.5512 279.638 115.056 279.954C115.99 276.942 115.594 275.301 113.87 275.032C112.146 274.763 110.714 274.522 109.575 274.309L95.4868 266.779C95.2157 266.634 94.885 266.77 94.748 267.083C94.7457 267.088 94.7434 267.094 94.7412 267.099L93.7069 269.636C92.0649 270.462 90.742 270.866 89.7381 270.85C88.9224 270.837 87.812 270.444 86.4067 269.672L86.4067 269.672C85.8674 269.376 85.2036 269.64 84.9241 270.263C84.912 270.29 84.9008 270.317 84.8905 270.345Z" fill="black"/>
<path fill-rule="evenodd" clip-rule="evenodd" d="M100.872 264.567L76.4811 264.567C78.3171 236.598 75.6732 169.71 66.7974 133.761L89.603 133.761C98.6066 163.86 94.8839 204.59 100.872 264.567Z" fill="#14181A"/>
<path fill-rule="evenodd" clip-rule="evenodd" d="M43.9597 264.567L69.1245 264.567C67.104 236.611 68.4357 167.545 77.0739 131.538L53.8475 133.441C45.0428 163.599 49.5514 204.552 43.9597 264.567Z" fill="#292C2D"/>
<path fill-rule="evenodd" clip-rule="evenodd" d="M81.071 73.1475C83.4557 72.8069 88.8734 74.2638 88.8734 74.2638C99.5353 78.9993 90.8905 106.308 90.8905 133.757H47.9108C43.0343 139.609 37.4219 159.641 37.1825 167.752H12.8665C22.6195 133.757 52.7873 77.0487 61.565 75.0981C61.565 75.0981 66.0074 72.8069 68.3921 73.1475C70.2774 73.4169 79.1858 73.4169 81.071 73.1475Z" fill="#99CCFF"/>
<defs>
<radialGradient id="paint0_radial" cx="0" cy="0" r="1" gradientUnits="userSpaceOnUse" gradientTransform="translate(114 273.5) rotate(90) scale(16.5 93)">
<stop stop-color="#C4C4C4" stop-opacity="0.58"/>
<stop offset="1" stop-color="#C4C4C4" stop-opacity="0"/>
</radialGradient>
</defs>
</svg>
