<svg width="813" height="246" viewBox="0 0 813 246" fill="none" xmlns="http://www.w3.org/2000/svg">
<path d="M201.361 173H227.431L236.561 128.01L246.351 173H270.881L287.161 101.5H268.681L258.451 153.64L247.341 101.5H226.661L215.331 154.3L204.991 101.5H185.081L201.361 173ZM307.171 173H356.011V156.5H326.091V144.84H347.211V129.11H326.091V118H356.011V101.5H307.171V173ZM378.22 173H425.08V156.5H397.36V101.5H378.22V173ZM474.798 100.18C454.668 100.18 440.698 115.58 440.698 137.25C440.698 159.47 453.128 174.32 475.128 174.32C492.728 174.32 502.518 163.98 507.248 150.45L488.548 145.06C486.678 152.65 481.728 157.16 475.128 157.16C467.098 157.16 460.608 149.79 460.608 137.25C460.608 124.71 467.208 117.34 475.238 117.34C481.948 117.34 486.678 121.85 488.108 129.44L506.698 124.38C502.408 109.53 492.838 100.18 474.798 100.18ZM559.745 174.32C581.085 174.32 595.935 157.71 595.935 137.25C595.935 116.79 581.085 100.18 559.745 100.18C538.405 100.18 523.555 116.79 523.555 137.25C523.555 157.71 538.405 174.32 559.745 174.32ZM559.745 156.28C550.835 156.28 543.465 149.24 543.465 137.25C543.465 125.26 550.835 118.22 559.745 118.22C568.655 118.22 576.025 125.26 576.025 137.25C576.025 149.24 568.655 156.28 559.745 156.28ZM647.065 155.62H660.595L673.465 128.78V173H691.505V101.5H671.485L654.325 136.7L637.495 101.5H617.255V173H634.525V129.66L647.065 155.62ZM716.771 173H765.611V156.5H735.691V144.84H756.811V129.11H735.691V118H765.611V101.5H716.771V173ZM796.73 174.32C802.89 174.32 807.84 169.59 807.84 163.65C807.84 157.71 802.89 152.98 796.73 152.98C790.57 152.98 785.62 157.71 785.62 163.65C785.62 169.59 790.57 174.32 796.73 174.32Z" fill="#343434"/>
<path fill-rule="evenodd" clip-rule="evenodd" d="M83.494 186.061C91.3656 197.337 82.5779 185.286 83.4925 186.062C83.899 186.406 85.9632 203.667 89.6853 237.843L95.8789 236.74C97.7292 197.126 96.96 188.181 94.202 185.704C90.2533 182.158 87.1838 186.193 86.1722 184.48L83.494 186.061Z" fill="#D4A181"/>
<path fill-rule="evenodd" clip-rule="evenodd" d="M102.528 230.647L78.1229 230.647C79.9599 202.662 77.3145 135.734 68.4335 99.7643L91.2524 99.7643C100.261 129.881 96.5364 170.635 102.528 230.647Z" fill="#14181A"/>
<path fill-rule="evenodd" clip-rule="evenodd" d="M67.843 186.061C59.9715 197.337 68.7591 185.286 67.8445 186.062C67.4381 186.406 65.3738 203.667 61.6518 237.843L55.4581 236.74C53.6078 197.126 54.3771 188.181 57.1351 185.704C61.0837 182.158 64.1533 186.193 65.1649 184.48L67.843 186.061Z" fill="#D4A181"/>
<path fill-rule="evenodd" clip-rule="evenodd" d="M45.5832 230.647L70.7627 230.647C68.741 202.674 70.0735 133.568 78.7168 97.5401L55.4768 99.4445C46.6669 129.62 51.1781 170.597 45.5832 230.647Z" fill="#292C2D"/>
<path fill-rule="evenodd" clip-rule="evenodd" d="M63.382 236.032C64.0471 237.81 64.3986 239.142 64.4364 240.029C64.4824 241.108 64.3913 242.686 64.1632 244.761C63.0618 244.779 53.1635 244.939 34.4684 245.243C33.5732 242.356 33.9519 240.783 35.6046 240.525C37.2574 240.267 38.6296 240.035 39.7213 239.831L53.2253 232.614C53.4851 232.475 53.8021 232.606 53.9334 232.906C53.9356 232.911 53.9378 232.916 53.9399 232.921L54.9313 235.353C56.5052 236.144 57.7732 236.532 58.7355 236.516C59.5173 236.504 60.5817 236.127 61.9287 235.387L61.9287 235.387C62.4456 235.103 63.0818 235.357 63.3498 235.954C63.3613 235.979 63.3721 236.005 63.382 236.032Z" fill="black"/>
<path fill-rule="evenodd" clip-rule="evenodd" d="M87.181 236.032C86.5158 237.81 86.1644 239.142 86.1266 240.029C86.0806 241.108 86.1717 242.686 86.3998 244.761C87.5012 244.779 97.3995 244.939 116.095 245.243C116.99 242.356 116.611 240.783 114.958 240.525C113.306 240.267 111.933 240.035 110.842 239.831L97.3377 232.614C97.0779 232.475 96.7608 232.606 96.6296 232.906C96.6273 232.911 96.6252 232.916 96.623 232.921L95.6317 235.353C94.0578 236.144 92.7897 236.532 91.8275 236.516C91.0457 236.504 89.9813 236.127 88.6343 235.387L88.6343 235.387C88.1174 235.103 87.4812 235.357 87.2132 235.954C87.2017 235.979 87.1909 236.005 87.181 236.032Z" fill="black"/>
<path d="M75.3847 2.1986C75.3847 2.1986 62.8505 2.39846 62.6507 20.1005C62.6507 20.1005 55.8839 18.9108 61.6989 27.7143C61.6989 27.7143 62.27 29.218 64.0497 27.7143C65.8294 26.2105 62.3842 31.3213 70.4738 36.432C70.4738 36.432 70.588 44.6359 68.5704 45.9492C66.5527 47.2626 79.6294 51.7738 81.7612 45.9492C80.3821 44.2607 79.6559 42.1327 79.715 39.9534C79.715 39.9534 88.6993 39.4966 88.7469 24.0216C88.7944 8.54658 84.4736 1.30398 75.3847 2.1986Z" fill="#D4A181"/>
<path d="M97.7323 51.9018C97.7323 51.9018 90.5947 43.3359 94.8774 29.0601C96.0576 22.379 93.4043 9.53479 89.6427 5.26735C88.8429 4.36005 88.2151 1.47005 76.7945 0.0424697C76.7945 0.0424697 87.4826 2.17403 80.1257 0.508513C72.7689 -1.157 62.7186 1.23089 56.8083 8.23122C56.8083 8.23122 49.7851 13.0331 53.4777 32.3911C56.2521 46.9351 49.4426 60.0758 54.7913 62.8453C60.1399 65.6148 71.1628 64.6873 71.1628 64.6873L86.7299 62.9296C86.7299 62.9296 102.015 62.8466 97.7323 51.9018ZM86.6854 34.4036C84.3251 38.0582 82.7357 39.4667 80.3945 39.4667C78.0532 39.4667 81.4414 45.434 81.4414 45.434C75.2266 48.4796 69.2593 44.9296 69.2593 44.9296C71.9527 43.0262 71.1628 36.3641 71.1628 36.3641C67.8794 36.1548 64.5864 27.3513 64.5864 27.3513C61.893 29.4641 60.6748 25.8666 60.6748 25.8666C58.3431 18.5669 62.721 20.0326 62.721 20.0326C62.1309 11.4671 71.7433 9.40184 77.4917 8.23122C83.2401 7.0606 83.7065 4.59565 83.7065 4.59565C90.7778 12.8376 89.0837 30.6919 86.6854 34.4036Z" fill="#0F1213"/>
<path d="M74.3951 0.966084C74.3951 0.966084 73.2313 -0.814056 64.3612 3.43062C55.4912 7.6753 61.6991 13.5764 61.2899 10.4072C60.5761 4.87766 54.152 15.6226 60.5 20.7429C60.5 19.715 72.8152 23.3601 78.1734 8.37048C78.1734 8.37048 87.1481 17.764 88.4044 16.3649C89.6607 14.9659 87.9857 0.128569 74.3951 0.966084Z" fill="#0F1213"/>
<path fill-rule="evenodd" clip-rule="evenodd" d="M121.521 56.3139L148.12 46.9848C152.218 44.6149 153.116 43.6616 157.665 40.9268C158.582 40.5157 159.55 41.9239 157.745 43.5228C152.329 48.3185 165.096 41.2668 166.948 41.393C168.828 42.2632 165.291 47.9293 163.001 49.7196C157.993 51.8549 157.995 51.8558 148.275 52.1475L125.924 63.938L121.521 56.3139ZM34.2707 103.738L42.6069 100.96C33.287 137.672 32.0354 132.695 31.6679 134.411C30.841 138.271 36.5184 141.68 37.4997 143.504C32.9262 145.494 34.0129 139.77 28.2415 143.781C24.0613 146.687 22.8255 148.577 17.2706 148.744C16.4056 148.493 14.776 146.46 16.2302 145.068C20.6411 140.858 24.5882 136.602 25.1872 134.605C26.004 131.883 29.3295 137.543 34.2707 103.738Z" fill="#D4A181"/>
<path fill-rule="evenodd" clip-rule="evenodd" d="M73.2728 51.7453L80.8939 45.2466C96.8616 62.6442 120.736 52.3364 137.561 42.5319L149.29 60.1216C121.391 70.8727 104.937 74.1383 81.8761 61.936C76.3766 55.5268 76.8212 58.058 73.2728 51.7453Z" fill="#80B0E0"/>
<path fill-rule="evenodd" clip-rule="evenodd" d="M80.2289 45.2554C82.4972 44.9306 82.0843 45.2554 82.0843 45.2554C83.1789 50.294 88.2865 55.6419 89 59.5C92.5193 78.531 85.7866 81.6701 93.5 101H54C49.3614 106.58 44.2759 127.727 44.0482 135.46L19 133.6C28.2771 101.186 60.747 44.4599 68.1687 44.4599C68.1687 44.4599 70.5389 44.9306 72.8072 45.2554C74.6005 45.5122 78.4357 45.5122 80.2289 45.2554Z" fill="#99CCFF"/>
<path fill-rule="evenodd" clip-rule="evenodd" d="M62.5 79C61.5 83.5 58.25 96.1799 59.125 104.46H53C56.5 91.5799 57.5 88 62.5 79Z" fill="black" fill-opacity="0.1"/>
</svg>
