<svg width="870" height="255" viewBox="0 0 870 255" fill="none" xmlns="http://www.w3.org/2000/svg">
<ellipse cx="93" cy="238.5" rx="93" ry="16.5" fill="url(#paint0_radial)"/>
<path d="M264.317 167H279.857L292.877 115.13L306.107 167H320.912L337.607 98.75H326.162L313.457 155.45L299.387 98.75H286.892L272.717 155.66L259.907 98.75H247.622L264.317 167ZM364.731 167H407.991V156.815H376.491V136.865H400.641V127.1H376.491V108.935H407.991V98.75H364.731V167ZM436.672 167H478.987V156.815H448.537V98.75H436.672V167ZM530.696 97.49C511.586 97.49 498.566 112.82 498.566 132.875C498.566 153.245 510.431 168.26 531.011 168.26C545.816 168.26 555.056 159.965 560.201 148.52L549.176 144.635C545.606 152.72 539.621 157.76 531.011 157.76C519.461 157.76 510.851 148.31 510.851 132.875C510.851 117.44 519.881 108.095 530.906 108.095C539.726 108.095 544.976 112.82 548.336 121.115L559.466 117.44C554.531 105.155 546.131 97.49 530.696 97.49ZM616.92 168.26C636.765 168.26 650.52 152.405 650.52 132.875C650.52 113.345 636.765 97.49 616.92 97.49C597.18 97.49 583.32 113.345 583.32 132.875C583.32 152.405 597.18 168.26 616.92 168.26ZM616.92 157.34C605.37 157.34 595.71 148.1 595.71 132.875C595.71 117.755 605.37 108.515 616.92 108.515C628.47 108.515 638.235 117.755 638.235 132.875C638.235 148.1 628.47 157.34 616.92 157.34ZM708.019 150.41H717.154L734.899 114.92V167H746.134V98.75H733.114L712.849 139.07L692.584 98.75H679.669V167H690.379V115.655L708.019 150.41ZM779.706 167H822.966V156.815H791.466V136.865H815.616V127.1H791.466V108.935H822.966V98.75H779.706V167ZM856.268 168.26C860.363 168.26 863.723 165.11 863.723 161.12C863.723 157.13 860.363 153.875 856.268 153.875C852.068 153.875 848.708 157.13 848.708 161.12C848.708 165.11 852.068 168.26 856.268 168.26Z" fill="#343434"/>
<path d="M264.317 167L262.374 167.475L262.747 169H264.317V167ZM279.857 167V169H281.417L281.797 167.487L279.857 167ZM292.877 115.13L294.815 114.636L290.937 114.643L292.877 115.13ZM306.107 167L304.169 167.494L304.553 169H306.107V167ZM320.912 167V169H322.482L322.855 167.475L320.912 167ZM337.607 98.75L339.55 99.2252L340.155 96.75H337.607V98.75ZM326.162 98.75V96.75H324.561L324.21 98.3127L326.162 98.75ZM313.457 155.45L311.516 155.932L315.409 155.887L313.457 155.45ZM299.387 98.75L301.328 98.2683L300.951 96.75H299.387V98.75ZM286.892 98.75V96.75H285.329L284.951 98.2666L286.892 98.75ZM272.717 155.66L270.766 156.099L274.658 156.143L272.717 155.66ZM259.907 98.75L261.858 98.3108L261.507 96.75H259.907V98.75ZM247.622 98.75V96.75H245.074L245.679 99.2252L247.622 98.75ZM264.317 169H279.857V165H264.317V169ZM281.797 167.487L294.817 115.617L290.937 114.643L277.917 166.513L281.797 167.487ZM290.939 115.624L304.169 167.494L308.045 166.506L294.815 114.636L290.939 115.624ZM306.107 169H320.912V165H306.107V169ZM322.855 167.475L339.55 99.2252L335.664 98.2748L318.969 166.525L322.855 167.475ZM337.607 96.75H326.162V100.75H337.607V96.75ZM324.21 98.3127L311.505 155.013L315.409 155.887L328.114 99.1873L324.21 98.3127ZM315.398 154.968L301.328 98.2683L297.446 99.2317L311.516 155.932L315.398 154.968ZM299.387 96.75H286.892V100.75H299.387V96.75ZM284.951 98.2666L270.776 155.177L274.658 156.143L288.833 99.2334L284.951 98.2666ZM274.668 155.221L261.858 98.3108L257.956 99.1892L270.766 156.099L274.668 155.221ZM259.907 96.75H247.622V100.75H259.907V96.75ZM245.679 99.2252L262.374 167.475L266.26 166.525L249.565 98.2748L245.679 99.2252ZM364.731 167H362.731V169H364.731V167ZM407.991 167V169H409.991V167H407.991ZM407.991 156.815H409.991V154.815H407.991V156.815ZM376.491 156.815H374.491V158.815H376.491V156.815ZM376.491 136.865V134.865H374.491V136.865H376.491ZM400.641 136.865V138.865H402.641V136.865H400.641ZM400.641 127.1H402.641V125.1H400.641V127.1ZM376.491 127.1H374.491V129.1H376.491V127.1ZM376.491 108.935V106.935H374.491V108.935H376.491ZM407.991 108.935V110.935H409.991V108.935H407.991ZM407.991 98.75H409.991V96.75H407.991V98.75ZM364.731 98.75V96.75H362.731V98.75H364.731ZM364.731 169H407.991V165H364.731V169ZM409.991 167V156.815H405.991V167H409.991ZM407.991 154.815H376.491V158.815H407.991V154.815ZM378.491 156.815V136.865H374.491V156.815H378.491ZM376.491 138.865H400.641V134.865H376.491V138.865ZM402.641 136.865V127.1H398.641V136.865H402.641ZM400.641 125.1H376.491V129.1H400.641V125.1ZM378.491 127.1V108.935H374.491V127.1H378.491ZM376.491 110.935H407.991V106.935H376.491V110.935ZM409.991 108.935V98.75H405.991V108.935H409.991ZM407.991 96.75H364.731V100.75H407.991V96.75ZM362.731 98.75V167H366.731V98.75H362.731ZM436.672 167H434.672V169H436.672V167ZM478.987 167V169H480.987V167H478.987ZM478.987 156.815H480.987V154.815H478.987V156.815ZM448.537 156.815H446.537V158.815H448.537V156.815ZM448.537 98.75H450.537V96.75H448.537V98.75ZM436.672 98.75V96.75H434.672V98.75H436.672ZM436.672 169H478.987V165H436.672V169ZM480.987 167V156.815H476.987V167H480.987ZM478.987 154.815H448.537V158.815H478.987V154.815ZM450.537 156.815V98.75H446.537V156.815H450.537ZM448.537 96.75H436.672V100.75H448.537V96.75ZM434.672 98.75V167H438.672V98.75H434.672ZM560.201 148.52L562.025 149.34L562.917 147.356L560.866 146.634L560.201 148.52ZM549.176 144.635L549.841 142.749L548.095 142.133L547.347 143.827L549.176 144.635ZM548.336 121.115L546.483 121.866L547.186 123.601L548.963 123.014L548.336 121.115ZM559.466 117.44L560.093 119.339L562.116 118.671L561.322 116.694L559.466 117.44ZM530.696 95.49C510.27 95.49 496.566 111.94 496.566 132.875H500.566C500.566 113.7 512.903 99.49 530.696 99.49V95.49ZM496.566 132.875C496.566 143.436 499.644 152.787 505.569 159.527C511.522 166.298 520.2 170.26 531.011 170.26V166.26C521.243 166.26 513.698 162.715 508.573 156.886C503.421 151.026 500.566 142.684 500.566 132.875H496.566ZM531.011 170.26C546.774 170.26 556.634 161.334 562.025 149.34L558.377 147.7C553.479 158.596 544.859 166.26 531.011 166.26V170.26ZM560.866 146.634L549.841 142.749L548.512 146.521L559.537 150.406L560.866 146.634ZM547.347 143.827C544.006 151.394 538.626 155.76 531.011 155.76V159.76C540.617 159.76 547.207 154.046 551.006 145.443L547.347 143.827ZM531.011 155.76C525.82 155.76 521.344 153.654 518.133 149.821C514.901 145.964 512.851 140.231 512.851 132.875H508.851C508.851 140.954 511.106 147.663 515.067 152.39C519.048 157.141 524.652 159.76 531.011 159.76V155.76ZM512.851 132.875C512.851 118.233 521.274 110.095 530.906 110.095V106.095C518.489 106.095 508.851 116.647 508.851 132.875H512.851ZM530.906 110.095C534.932 110.095 538 111.163 540.436 113.07C542.906 115.002 544.883 117.917 546.483 121.866L550.19 120.364C548.429 116.018 546.102 112.423 542.901 109.919C539.668 107.39 535.7 106.095 530.906 106.095V110.095ZM548.963 123.014L560.093 119.339L558.839 115.541L547.709 119.216L548.963 123.014ZM561.322 116.694C558.765 110.33 555.243 104.991 550.212 101.253C545.16 97.4996 538.761 95.49 530.696 95.49V99.49C538.066 99.49 543.585 101.313 547.826 104.464C552.087 107.629 555.232 112.265 557.61 118.186L561.322 116.694ZM616.92 170.26C638.015 170.26 652.52 153.358 652.52 132.875H648.52C648.52 151.452 635.515 166.26 616.92 166.26V170.26ZM652.52 132.875C652.52 112.392 638.015 95.49 616.92 95.49V99.49C635.515 99.49 648.52 114.298 648.52 132.875H652.52ZM616.92 95.49C595.934 95.49 581.32 112.388 581.32 132.875H585.32C585.32 114.302 598.426 99.49 616.92 99.49V95.49ZM581.32 132.875C581.32 153.362 595.934 170.26 616.92 170.26V166.26C598.426 166.26 585.32 151.448 585.32 132.875H581.32ZM616.92 155.34C606.637 155.34 597.71 147.164 597.71 132.875H593.71C593.71 149.036 604.104 159.34 616.92 159.34V155.34ZM597.71 132.875C597.71 118.697 606.631 110.515 616.92 110.515V106.515C604.109 106.515 593.71 116.813 593.71 132.875H597.71ZM616.92 110.515C627.222 110.515 636.235 118.71 636.235 132.875H640.235C640.235 116.8 629.719 106.515 616.92 106.515V110.515ZM636.235 132.875C636.235 147.151 627.216 155.34 616.92 155.34V159.34C629.724 159.34 640.235 149.049 640.235 132.875H636.235ZM708.019 150.41L706.236 151.315L706.791 152.41H708.019V150.41ZM717.154 150.41V152.41H718.39L718.943 151.304L717.154 150.41ZM734.899 114.92H736.899L733.11 114.026L734.899 114.92ZM734.899 167H732.899V169H734.899V167ZM746.134 167V169H748.134V167H746.134ZM746.134 98.75H748.134V96.75H746.134V98.75ZM733.114 98.75V96.75H731.881L731.327 97.8518L733.114 98.75ZM712.849 139.07L711.062 139.968L712.849 143.524L714.636 139.968L712.849 139.07ZM692.584 98.75L694.371 97.8518L693.817 96.75H692.584V98.75ZM679.669 98.75V96.75H677.669V98.75H679.669ZM679.669 167H677.669V169H679.669V167ZM690.379 167V169H692.379V167H690.379ZM690.379 115.655L692.163 114.75L688.379 115.655H690.379ZM708.019 152.41H717.154V148.41H708.019V152.41ZM718.943 151.304L736.688 115.814L733.11 114.026L715.365 149.516L718.943 151.304ZM732.899 114.92V167H736.899V114.92H732.899ZM734.899 169H746.134V165H734.899V169ZM748.134 167V98.75H744.134V167H748.134ZM746.134 96.75H733.114V100.75H746.134V96.75ZM731.327 97.8518L711.062 138.172L714.636 139.968L734.901 99.6481L731.327 97.8518ZM714.636 138.172L694.371 97.8518L690.797 99.6481L711.062 139.968L714.636 138.172ZM692.584 96.75H679.669V100.75H692.584V96.75ZM677.669 98.75V167H681.669V98.75H677.669ZM679.669 169H690.379V165H679.669V169ZM692.379 167V115.655H688.379V167H692.379ZM688.596 116.56L706.236 151.315L709.803 149.505L692.163 114.75L688.596 116.56ZM779.706 167H777.706V169H779.706V167ZM822.966 167V169H824.966V167H822.966ZM822.966 156.815H824.966V154.815H822.966V156.815ZM791.466 156.815H789.466V158.815H791.466V156.815ZM791.466 136.865V134.865H789.466V136.865H791.466ZM815.616 136.865V138.865H817.616V136.865H815.616ZM815.616 127.1H817.616V125.1H815.616V127.1ZM791.466 127.1H789.466V129.1H791.466V127.1ZM791.466 108.935V106.935H789.466V108.935H791.466ZM822.966 108.935V110.935H824.966V108.935H822.966ZM822.966 98.75H824.966V96.75H822.966V98.75ZM779.706 98.75V96.75H777.706V98.75H779.706ZM779.706 169H822.966V165H779.706V169ZM824.966 167V156.815H820.966V167H824.966ZM822.966 154.815H791.466V158.815H822.966V154.815ZM793.466 156.815V136.865H789.466V156.815H793.466ZM791.466 138.865H815.616V134.865H791.466V138.865ZM817.616 136.865V127.1H813.616V136.865H817.616ZM815.616 125.1H791.466V129.1H815.616V125.1ZM793.466 127.1V108.935H789.466V127.1H793.466ZM791.466 110.935H822.966V106.935H791.466V110.935ZM824.966 108.935V98.75H820.966V108.935H824.966ZM822.966 96.75H779.706V100.75H822.966V96.75ZM777.706 98.75V167H781.706V98.75H777.706ZM856.268 170.26C861.372 170.26 865.723 166.307 865.723 161.12H861.723C861.723 163.913 859.353 166.26 856.268 166.26V170.26ZM865.723 161.12C865.723 155.97 861.411 151.875 856.268 151.875V155.875C859.314 155.875 861.723 158.29 861.723 161.12H865.723ZM856.268 151.875C851.038 151.875 846.708 155.952 846.708 161.12H850.708C850.708 158.308 853.098 155.875 856.268 155.875V151.875ZM846.708 161.12C846.708 166.325 851.077 170.26 856.268 170.26V166.26C853.059 166.26 850.708 163.895 850.708 161.12H846.708Z" fill="black"/>
<path fill-rule="evenodd" clip-rule="evenodd" d="M142.494 186.061C150.366 197.337 141.578 185.286 142.492 186.062C142.899 186.406 144.963 203.667 148.685 237.843L154.879 236.74C156.729 197.126 155.96 188.181 153.202 185.704C149.253 182.158 146.184 186.193 145.172 184.48L142.494 186.061Z" fill="#D4A181"/>
<path fill-rule="evenodd" clip-rule="evenodd" d="M161.528 230.647L137.123 230.647C138.96 202.662 136.314 135.734 127.433 99.7643L150.252 99.7643C159.261 129.881 155.536 170.635 161.528 230.647Z" fill="#14181A"/>
<path fill-rule="evenodd" clip-rule="evenodd" d="M126.843 186.061C118.971 197.337 127.759 185.286 126.845 186.062C126.438 186.406 124.374 203.667 120.652 237.843L114.458 236.74C112.608 197.126 113.377 188.181 116.135 185.704C120.084 182.158 123.153 186.193 124.165 184.48L126.843 186.061Z" fill="#D4A181"/>
<path fill-rule="evenodd" clip-rule="evenodd" d="M104.583 230.647L129.763 230.647C127.741 202.674 129.073 133.568 137.717 97.5401L114.477 99.4445C105.667 129.62 110.178 170.597 104.583 230.647Z" fill="#292C2D"/>
<path fill-rule="evenodd" clip-rule="evenodd" d="M122.382 236.032C123.047 237.81 123.399 239.142 123.436 240.029C123.482 241.108 123.391 242.686 123.163 244.761C122.062 244.779 112.164 244.939 93.4684 245.243C92.5732 242.356 92.9519 240.783 94.6046 240.525C96.2574 240.267 97.6296 240.035 98.7213 239.831L112.225 232.614C112.485 232.475 112.802 232.606 112.933 232.906C112.936 232.911 112.938 232.916 112.94 232.921L113.931 235.353C115.505 236.144 116.773 236.532 117.735 236.516C118.517 236.504 119.582 236.127 120.929 235.387L120.929 235.387C121.446 235.103 122.082 235.357 122.35 235.954C122.361 235.979 122.372 236.005 122.382 236.032Z" fill="black"/>
<path fill-rule="evenodd" clip-rule="evenodd" d="M146.181 236.032C145.516 237.81 145.164 239.142 145.127 240.029C145.081 241.108 145.172 242.686 145.4 244.761C146.501 244.779 156.399 244.939 175.095 245.243C175.99 242.356 175.611 240.783 173.958 240.525C172.306 240.267 170.933 240.035 169.842 239.831L156.338 232.614C156.078 232.475 155.761 232.606 155.63 232.906C155.627 232.911 155.625 232.916 155.623 232.921L154.632 235.353C153.058 236.144 151.79 236.532 150.827 236.516C150.046 236.504 148.981 236.127 147.634 235.387L147.634 235.387C147.117 235.103 146.481 235.357 146.213 235.954C146.202 235.979 146.191 236.005 146.181 236.032Z" fill="black"/>
<path d="M134.385 2.1986C134.385 2.1986 121.851 2.39846 121.651 20.1005C121.651 20.1005 114.884 18.9108 120.699 27.7143C120.699 27.7143 121.27 29.218 123.05 27.7143C124.829 26.2105 121.384 31.3213 129.474 36.432C129.474 36.432 129.588 44.6359 127.57 45.9492C125.553 47.2626 138.629 51.7738 140.761 45.9492C139.382 44.2607 138.656 42.1327 138.715 39.9534C138.715 39.9534 147.699 39.4966 147.747 24.0216C147.794 8.54658 143.474 1.30398 134.385 2.1986Z" fill="#D4A181"/>
<path d="M156.732 51.9018C156.732 51.9018 149.595 43.3359 153.877 29.0601C155.058 22.379 152.404 9.53479 148.643 5.26735C147.843 4.36005 147.215 1.47005 135.794 0.0424697C135.794 0.0424697 146.483 2.17403 139.126 0.508513C131.769 -1.157 121.719 1.23089 115.808 8.23122C115.808 8.23122 108.785 13.0331 112.478 32.3911C115.252 46.9351 108.443 60.0758 113.791 62.8453C119.14 65.6148 130.163 64.6873 130.163 64.6873L145.73 62.9296C145.73 62.9296 161.015 62.8466 156.732 51.9018ZM145.685 34.4036C143.325 38.0582 141.736 39.4667 139.394 39.4667C137.053 39.4667 140.441 45.434 140.441 45.434C134.227 48.4796 128.259 44.9296 128.259 44.9296C130.953 43.0262 130.163 36.3641 130.163 36.3641C126.879 36.1548 123.586 27.3513 123.586 27.3513C120.893 29.4641 119.675 25.8666 119.675 25.8666C117.343 18.5669 121.721 20.0326 121.721 20.0326C121.131 11.4671 130.743 9.40184 136.492 8.23122C142.24 7.0606 142.706 4.59565 142.706 4.59565C149.778 12.8376 148.084 30.6919 145.685 34.4036Z" fill="#0F1213"/>
<path d="M133.395 0.966084C133.395 0.966084 132.231 -0.814056 123.361 3.43062C114.491 7.6753 120.699 13.5764 120.29 10.4072C119.576 4.87766 113.152 15.6226 119.5 20.7429C119.5 19.715 131.815 23.3601 137.173 8.37048C137.173 8.37048 146.148 17.764 147.404 16.3649C148.661 14.9659 146.986 0.128569 133.395 0.966084Z" fill="#0F1213"/>
<path fill-rule="evenodd" clip-rule="evenodd" d="M180.521 56.3139L207.12 46.9848C211.218 44.6149 212.116 43.6616 216.665 40.9268C217.582 40.5157 218.55 41.9239 216.745 43.5228C211.329 48.3185 224.096 41.2668 225.948 41.393C227.828 42.2632 224.291 47.9293 222.001 49.7196C216.993 51.8549 216.995 51.8558 207.275 52.1475L184.924 63.938L180.521 56.3139ZM93.2707 103.738L101.607 100.96C92.287 137.672 91.0354 132.695 90.6679 134.411C89.841 138.271 95.5184 141.68 96.4997 143.504C91.9262 145.494 93.0129 139.77 87.2415 143.781C83.0613 146.687 81.8255 148.577 76.2706 148.744C75.4056 148.493 73.776 146.46 75.2302 145.068C79.6411 140.858 83.5882 136.602 84.1872 134.605C85.004 131.883 88.3295 137.543 93.2707 103.738Z" fill="#D4A181"/>
<path fill-rule="evenodd" clip-rule="evenodd" d="M132.273 51.7453L139.894 45.2466C155.862 62.6442 179.736 52.3364 196.561 42.5319L208.29 60.1216C180.391 70.8727 163.937 74.1383 140.876 61.936C135.377 55.5268 135.821 58.058 132.273 51.7453Z" fill="#80B0E0"/>
<path fill-rule="evenodd" clip-rule="evenodd" d="M139.229 45.2554C141.497 44.9306 141.084 45.2554 141.084 45.2554C142.179 50.294 147.287 55.6419 148 59.5C151.519 78.531 144.787 81.6701 152.5 101H113C108.361 106.58 103.276 127.727 103.048 135.46L78 133.6C87.2771 101.186 119.747 44.4599 127.169 44.4599C127.169 44.4599 129.539 44.9306 131.807 45.2554C133.6 45.5122 137.436 45.5122 139.229 45.2554Z" fill="#99CCFF"/>
<path fill-rule="evenodd" clip-rule="evenodd" d="M121.5 79C120.5 83.5 117.25 96.1799 118.125 104.46H112C115.5 91.5799 116.5 88 121.5 79Z" fill="black" fill-opacity="0.1"/>
<defs>
<radialGradient id="paint0_radial" cx="0" cy="0" r="1" gradientUnits="userSpaceOnUse" gradientTransform="translate(93 238.5) rotate(90) scale(16.5 93)">
<stop stop-color="#C4C4C4" stop-opacity="0.58"/>
<stop offset="1" stop-color="#C4C4C4" stop-opacity="0"/>
</radialGradient>
</defs>
</svg>
