<svg width="119" height="26" viewBox="0 0 119 26" fill="none" xmlns="http://www.w3.org/2000/svg">
<path d="M0.624 7.912H4.624V25H0.624V7.912ZM2.64 5.096C1.91467 5.096 1.30667 4.872 0.816 4.424C0.325334 3.95467 0.0800002 3.37867 0.0800002 2.696C0.0800002 2.01333 0.325334 1.448 0.816 0.999998C1.30667 0.530666 1.91467 0.296 2.64 0.296C3.36533 0.296 3.97333 0.519999 4.464 0.967999C4.95467 1.39467 5.2 1.93867 5.2 2.6C5.2 3.304 4.95467 3.90133 4.464 4.392C3.99467 4.86133 3.38667 5.096 2.64 5.096ZM14.002 10.408C15.154 8.616 17.1807 7.72 20.082 7.72V11.528C19.7407 11.464 19.4313 11.432 19.154 11.432C17.5967 11.432 16.3807 11.8907 15.506 12.808C14.6313 13.704 14.194 15.0053 14.194 16.712V25H10.194V7.912H14.002V10.408ZM23.7952 7.912H27.7952V25H23.7952V7.912ZM25.8112 5.096C25.0859 5.096 24.4779 4.872 23.9872 4.424C23.4966 3.95467 23.2512 3.37867 23.2512 2.696C23.2512 2.01333 23.4966 1.448 23.9872 0.999998C24.4779 0.530666 25.0859 0.296 25.8112 0.296C26.5366 0.296 27.1446 0.519999 27.6352 0.967999C28.1259 1.39467 28.3712 1.93867 28.3712 2.6C28.3712 3.304 28.1259 3.90133 27.6352 4.392C27.1659 4.86133 26.5579 5.096 25.8112 5.096ZM38.6452 25.224C37.2586 25.224 35.9039 25.0427 34.5812 24.68C33.2586 24.3173 32.2026 23.8587 31.4132 23.304L32.9492 20.264C33.7172 20.776 34.6346 21.192 35.7012 21.512C36.7892 21.8107 37.8559 21.96 38.9012 21.96C41.2906 21.96 42.4852 21.3307 42.4852 20.072C42.4852 19.4747 42.1759 19.0587 41.5573 18.824C40.9599 18.5893 39.9892 18.3653 38.6452 18.152C37.2372 17.9387 36.0852 17.6933 35.1892 17.416C34.3146 17.1387 33.5466 16.6587 32.8852 15.976C32.2452 15.272 31.9252 14.3013 31.9252 13.064C31.9252 11.4427 32.5972 10.152 33.9412 9.192C35.3066 8.21067 37.1412 7.72 39.4452 7.72C40.6186 7.72 41.7919 7.85867 42.9653 8.136C44.1386 8.392 45.0986 8.744 45.8453 9.192L44.3092 12.232C42.8586 11.3787 41.2266 10.952 39.4132 10.952C38.2399 10.952 37.3439 11.1333 36.7252 11.496C36.1279 11.8373 35.8292 12.296 35.8292 12.872C35.8292 13.512 36.1492 13.9707 36.7892 14.248C37.4506 14.504 38.4639 14.7493 39.8292 14.984C41.1946 15.1973 42.3146 15.4427 43.1892 15.72C44.0639 15.9973 44.8106 16.4667 45.4292 17.128C46.0692 17.7893 46.3892 18.728 46.3892 19.944C46.3892 21.544 45.6959 22.824 44.3092 23.784C42.9226 24.744 41.0346 25.224 38.6452 25.224ZM69.0137 7.72C71.1684 7.72 72.8964 8.34933 74.1978 9.608C75.4991 10.8667 76.1497 12.7333 76.1497 15.208V25H72.1497V15.72C72.1497 14.2267 71.7977 13.1067 71.0937 12.36C70.3897 11.592 69.3871 11.208 68.0857 11.208C66.6137 11.208 65.4511 11.656 64.5977 12.552C63.7444 13.4267 63.3177 14.696 63.3177 16.36V25H59.3177V1.256H63.3177V9.896C63.9791 9.192 64.7897 8.65867 65.7497 8.296C66.7311 7.912 67.8191 7.72 69.0137 7.72ZM89.0602 25.224C87.3322 25.224 85.7749 24.8507 84.3882 24.104C83.0016 23.3573 81.9136 22.3227 81.1242 21C80.3562 19.656 79.9722 18.1413 79.9722 16.456C79.9722 14.7707 80.3562 13.2667 81.1242 11.944C81.9136 10.6213 83.0016 9.58667 84.3882 8.84C85.7749 8.09333 87.3322 7.72 89.0602 7.72C90.8096 7.72 92.3776 8.09333 93.7642 8.84C95.1509 9.58667 96.2282 10.6213 96.9963 11.944C97.7856 13.2667 98.1803 14.7707 98.1803 16.456C98.1803 18.1413 97.7856 19.656 96.9963 21C96.2282 22.3227 95.1509 23.3573 93.7642 24.104C92.3776 24.8507 90.8096 25.224 89.0602 25.224ZM89.0602 21.8C90.5322 21.8 91.7482 21.3093 92.7082 20.328C93.6682 19.3467 94.1482 18.056 94.1482 16.456C94.1482 14.856 93.6682 13.5653 92.7082 12.584C91.7482 11.6027 90.5322 11.112 89.0602 11.112C87.5882 11.112 86.3722 11.6027 85.4122 12.584C84.4736 13.5653 84.0042 14.856 84.0042 16.456C84.0042 18.056 84.4736 19.3467 85.4122 20.328C86.3722 21.3093 87.5882 21.8 89.0602 21.8ZM118.549 7.912V25H114.741V22.824C114.101 23.592 113.301 24.1893 112.341 24.616C111.381 25.0213 110.347 25.224 109.237 25.224C106.955 25.224 105.152 24.5947 103.829 23.336C102.528 22.056 101.877 20.168 101.877 17.672V7.912H105.877V17.128C105.877 18.664 106.219 19.816 106.901 20.584C107.605 21.3307 108.597 21.704 109.877 21.704C111.307 21.704 112.437 21.2667 113.269 20.392C114.123 19.496 114.549 18.216 114.549 16.552V7.912H118.549Z" fill="#343434"/>
</svg>
