<svg width="93" height="96" viewBox="0 0 93 96" fill="none" xmlns="http://www.w3.org/2000/svg">
<path fill-rule="evenodd" clip-rule="evenodd" d="M45.972 1.0711C55.0944 0.644417 64.4374 2.05279 72.0127 7.62988C79.756 13.3307 84.6751 22.3567 87.9 31.9392C91.2327 41.8424 93.6957 52.7153 90.5419 62.6884C87.4145 72.5777 79.2078 79.1157 71.1814 84.8066C63.5373 90.2264 55.0767 94.5877 45.972 94.2894C37.03 93.9964 28.8556 89.2579 21.8363 83.1899C15.0463 77.3201 10.4295 69.4001 7.08129 60.6695C3.45145 51.2046 -0.90113 40.9729 1.88735 31.1725C4.68613 21.3358 13.512 15.4469 21.5002 9.99249C28.9774 4.88698 37.1662 1.48297 45.972 1.0711Z" fill="white" stroke="#DADADA" stroke-width="2"/>
<path d="M49.8398 16.8064C49.8398 16.8064 34.7202 17.0475 34.4446 38.4469C34.4446 38.4469 26.2821 37.0004 33.2966 47.5623C33.2966 47.5623 33.9739 49.3877 36.1208 47.5623C38.2676 45.7369 34.1117 51.9133 43.87 58.0783C43.87 58.0783 44.0078 67.9744 41.5739 69.5586C39.1401 71.1429 54.9141 76.5846 57.4857 69.5586C55.8484 67.5316 54.9857 64.9882 55.0518 62.3834C55.0518 62.3834 65.8893 61.8324 65.9467 43.1653C66.0041 24.4983 60.8494 15.7273 49.8398 16.8064Z" fill="#F0CEBB"/>
<path d="M28.6013 23.7981C28.6013 23.7981 24.6636 28.1032 29.6345 34.3829C29.419 34.829 29.3022 35.3163 29.2921 35.8115C29.282 36.3068 29.3789 36.7985 29.5762 37.2529C29.7734 37.7073 30.0664 38.1139 30.4351 38.4448C30.8037 38.7756 31.2395 39.0231 31.7125 39.1702C31.7125 39.1702 34.1463 41.9485 35.0648 39.7443C35.9832 37.54 34.9051 31.7769 38.6017 31.6621C38.6017 31.6621 36.9486 24.418 42.6199 25.3479C42.6199 25.3479 47.1995 20.2162 49.6333 21.3757C52.0671 22.5352 53.8696 24.0621 56.0738 22.099C58.278 20.1358 60.0345 28.0114 63.2031 27.2307C64.9825 26.783 64.7644 38.5962 65.9239 37.4367C67.0834 36.2772 69.5058 23.9129 63.3753 16.9902C63.3753 16.9902 58.5306 13.8676 56.797 15.8422C56.797 15.8422 55.1783 12.1455 51.3668 12.1455C47.5554 12.1455 45.6267 13.879 43.7324 13.5346C41.8382 13.1902 38.5318 12.9491 36.9131 14.6827C36.9131 14.6712 27.4648 19.9177 28.6013 23.7981Z" fill="#5F4434"/>
<path d="M57.4052 15.3939C57.6286 14.6394 58.1035 13.9842 58.751 13.5373C59.3985 13.0903 60.1795 12.8785 60.9641 12.9371" fill="#202020"/>
<path d="M56.0737 14.6481C56.0853 14.083 56.299 13.5407 56.676 13.1195C57.0529 12.6983 57.5683 12.426 58.1287 12.3521" fill="#202020"/>
<path d="M57.7817 69.1619C51.2272 74.4055 44.8543 71.3467 42.4872 69.1619C30.8966 68.6783 21.9996 86.6215 19 95.6535H84C77.9916 84.6381 64.3362 63.9182 57.7817 69.1619Z" fill="#202020"/>
</svg>
