<svg width="93" height="97" viewBox="0 0 93 97" fill="none" xmlns="http://www.w3.org/2000/svg">
<path fill-rule="evenodd" clip-rule="evenodd" d="M45.972 1.0711C55.0944 0.644417 64.4374 2.05279 72.0127 7.62988C79.756 13.3307 84.6751 22.3567 87.9 31.9392C91.2327 41.8424 93.6957 52.7153 90.5419 62.6884C87.4145 72.5777 79.2078 79.1157 71.1814 84.8066C63.5373 90.2264 55.0767 94.5877 45.972 94.2894C37.03 93.9964 28.8556 89.2579 21.8363 83.1899C15.0463 77.3201 10.4295 69.4001 7.08129 60.6695C3.45145 51.2046 -0.90113 40.9729 1.88735 31.1725C4.68613 21.3358 13.512 15.4469 21.5002 9.99249C28.9774 4.88698 37.1662 1.48297 45.972 1.0711Z" fill="white" stroke="#DADADA" stroke-width="2"/>
<path d="M48.6849 15.6886C48.6849 15.6886 33.1 15.9371 32.8515 37.9475C32.8515 37.9475 24.4378 36.4683 31.609 47.4144C31.609 47.4144 32.319 49.2841 34.5319 47.4144C36.7447 45.5447 32.461 51.8875 42.5195 58.254C42.5195 58.254 42.6615 68.4545 40.1528 70.0876C37.6441 71.7206 53.8916 77.3297 56.5542 70.0876C54.8665 67.9982 53.9773 65.3765 54.0455 62.6916C54.0455 62.6916 65.2164 62.1354 65.2755 42.8821C65.3465 23.7472 60.0214 14.5762 48.6849 15.6886Z" fill="#5F3E2B"/>
<path d="M47.9959 10.1628C47.9959 10.1628 41.126 8.95431 35.5706 13.1207C26.1034 20.2208 30.6394 31.6873 29.6543 21.9964C30.8367 17.8547 25.3101 37.5211 33.2031 43.8876C35.1772 33.2374 39.7124 29.0956 59.8295 24.9538C59.8295 24.9538 62.7883 31.4633 65.155 33.83C66.7489 32.0549 64.8943 9.1214 47.9959 10.1628Z" fill="#202020"/>
<path d="M56.975 68.463C50.2188 73.868 43.6499 70.715 41.2099 68.463C29.2626 67.9645 20.0919 86.4598 17 95.7697H84C77.8067 84.4154 63.7311 63.058 56.975 68.463Z" fill="white" stroke="#AEABAB" stroke-width="0.7"/>
<path d="M60.4695 23.7716C60.3799 24.6983 59.9758 25.5663 59.3243 26.2313C58.6728 26.8963 57.8132 27.3183 56.8886 27.4269" fill="#202020"/>
<path d="M34.9771 69.9224C34.9771 69.9224 38.7406 72.8224 41.4855 74.0641C43.4827 74.9676 46.8106 75.8392 46.8106 75.8392L48.5857 72.2891L51.5441 75.8392C51.5441 75.8392 55.3254 75.1864 57.4609 74.0641C60.2127 72.618 63.3777 68.739 63.3777 68.739" stroke="#AEABAB" stroke-width="0.7"/>
<path d="M48.585 72.2892L49.1766 95.3647" stroke="#AEABAB" stroke-width="0.7"/>
<circle cx="48.5852" cy="80.5727" r="1.18336" transform="rotate(-180 48.5852 80.5727)" fill="#AEABAB"/>
<circle cx="48.5852" cy="86.4894" r="1.18336" transform="rotate(-180 48.5852 86.4894)" fill="#AEABAB"/>
<circle cx="48.5852" cy="92.4062" r="1.18336" transform="rotate(-180 48.5852 92.4062)" fill="#AEABAB"/>
</svg>
