<svg width="216" height="281" viewBox="0 0 216 281" fill="none" xmlns="http://www.w3.org/2000/svg">
<rect x="8.96826" y="110.605" width="17.9362" height="25.1106" rx="0.74734" stroke="#3880F7" stroke-width="3.7367"/>
<rect x="35.8726" y="132.129" width="17.9362" height="23.317" rx="0.74734" stroke="#3880F7" stroke-width="3.7367"/>
<rect x="35.8726" y="110.605" width="17.9362" height="12.5553" rx="0.74734" stroke="#3880F7" stroke-width="3.7367"/>
<rect x="8.96826" y="142.891" width="17.9362" height="12.5553" rx="0.74734" stroke="#3880F7" stroke-width="3.7367"/>
<path d="M197.13 155.448C214.698 155.448 214.599 147.712 214.599 138.204V128.015C214.599 125.733 212.718 123.876 210.406 123.876H209.037V116.383C209.037 109.902 203.696 104.629 197.13 104.629C190.564 104.629 185.223 109.902 185.223 116.383V123.876H183.854C181.542 123.876 179.661 125.733 179.661 128.015V138.204C179.661 147.712 179.562 155.448 197.13 155.448ZM189.824 115.705C189.824 112.049 193.208 109.076 197.368 109.076C201.527 109.076 204.911 112.049 204.911 115.705L204.906 123.984L189.782 124.018L189.824 115.705ZM186.159 128.45H208.101C209.057 128.45 209.834 129.203 209.834 130.128V138.385C209.834 145.167 210.132 150.684 197.13 150.684C184.128 150.684 184.426 145.167 184.426 138.385V130.128C184.426 129.203 185.203 128.45 186.159 128.45ZM204.911 117.302H209.04V123.956H204.911V117.302Z" fill="#3880F7"/>
<path fill-rule="evenodd" clip-rule="evenodd" d="M197.119 133.215C195.189 133.215 193.625 134.723 193.625 136.584C193.625 137.918 194.429 139.07 195.594 139.616L194.061 144.395H200.086L198.557 139.656C199.769 139.127 200.613 137.951 200.613 136.584C200.613 134.723 199.048 133.215 197.119 133.215Z" fill="#3880F7"/>
<path d="M156.907 141.286C156.1 140.48 154.793 140.48 153.987 141.286C153.181 142.093 153.181 143.4 153.987 144.206L156.907 141.286ZM163.772 153.991L165.232 155.451L168.152 152.531L166.692 151.071L163.772 153.991ZM153.987 144.206L163.772 153.991L166.692 151.071L156.907 141.286L153.987 144.206Z" fill="#3880F7"/>
<path d="M173.557 141.286C174.363 140.48 175.671 140.48 176.477 141.286C177.283 142.093 177.283 143.4 176.477 144.206L173.557 141.286ZM166.692 153.991L165.232 155.451L162.312 152.531L163.772 151.071L166.692 153.991ZM176.477 144.206L166.692 153.991L163.772 151.071L173.557 141.286L176.477 144.206Z" fill="#3880F7"/>
<line x1="165.452" y1="152.273" x2="165.452" y2="106.219" stroke="#3880F7" stroke-width="4.12906"/>
<path fill-rule="evenodd" clip-rule="evenodd" d="M194.041 215.234C196.765 215.234 198.982 216.074 198.982 218.783L201.639 218.862H213.116C214.288 218.862 215.234 219.802 215.234 220.968C215.234 222.133 214.288 223.073 213.116 223.073H210.462V260.808C210.462 263.517 208.246 265.721 205.521 265.721H176.934C174.209 265.721 171.992 263.517 171.992 260.808V223.073H169.522C168.364 223.073 167.404 222.133 167.404 220.968C167.404 219.802 168.364 218.862 169.522 218.862H180.646L183.304 218.783C183.304 216.074 185.52 215.234 188.245 215.234H194.041ZM205.934 222.876H176.705V260.384C176.705 260.761 177.021 261.082 177.392 261.082H205.246C205.631 261.082 205.934 260.761 205.934 260.384V222.876ZM186.005 230.244C187.457 230.244 188.662 231.028 188.662 231.998V253.051C188.662 254.022 187.457 254.805 186.005 254.805C184.534 254.805 183.348 254.022 183.348 253.051V231.998C183.348 231.028 184.534 230.244 186.005 230.244ZM196.634 230.244C198.104 230.244 199.291 231.028 199.291 231.998V253.051C199.291 254.022 198.104 254.805 196.634 254.805C195.181 254.805 193.976 254.022 193.976 253.051V231.998C193.976 231.028 195.181 230.244 196.634 230.244Z" fill="#3880F7"/>
<path d="M62.7769 268.814C55.8291 260.411 49.6594 255.644 44.2664 254.51C38.8749 253.378 33.7418 253.206 28.8657 253.997V269.045L5.979 244.49L28.8657 221.215V235.517C37.8809 235.588 45.5444 238.792 51.8575 245.13C58.1692 251.467 61.8099 259.362 62.7769 268.814Z" stroke="#3880F7" stroke-width="4.35593" stroke-linejoin="round"/>
<path fill-rule="evenodd" clip-rule="evenodd" d="M6.08731 3.19875L12.4548 23.9498H63.8548L9.44015 0.206975C8.18846 -0.339177 6.73102 0.232777 6.18487 1.48447C5.94862 2.0259 5.91402 2.63401 6.08731 3.19875ZM63.8548 29.875L9.4403 53.6024C8.89886 53.8385 8.29079 53.873 7.72613 53.6996C6.42063 53.2987 5.68727 51.9155 6.08812 50.61L12.4548 29.875H63.8548ZM42.7352 33.6181H17.0352L13.0623 46.806L42.7352 33.6181ZM13.0623 7.24218L42.7352 20.4301H17.0352L13.0623 7.24218Z" fill="#3880F7"/>
<path fill-rule="evenodd" clip-rule="evenodd" d="M201.205 38.8634H168.28C162.852 38.8634 158.436 34.4464 158.436 29.0169C158.436 23.5873 162.852 19.1703 168.28 19.1703C168.986 19.1703 169.69 19.2486 170.387 19.4037C170.216 18.6276 170.13 17.8402 170.13 17.0515C170.13 10.947 175.095 5.98047 181.198 5.98047C184.844 5.98047 188.186 7.7383 190.261 10.7154C191.623 9.94634 193.155 9.54268 194.729 9.54268C199.752 9.54268 203.838 13.6299 203.838 18.6539C203.838 18.9297 203.823 19.2143 203.792 19.5142C208.032 20.667 211.049 24.5687 211.049 29.0169C211.049 34.4464 206.633 38.8634 201.205 38.8634ZM171.113 20.9785C170.186 20.6516 169.233 20.4856 168.28 20.4856C163.577 20.4856 159.751 24.3128 159.751 29.0169C159.751 33.721 163.577 37.5482 168.28 37.5482H201.205C205.908 37.5482 209.733 33.721 209.733 29.0169C209.733 24.9839 206.872 21.4692 202.929 20.66C202.584 20.589 202.356 20.2586 202.412 19.9108C202.487 19.4494 202.523 19.038 202.523 18.6539C202.523 14.3554 199.027 10.858 194.729 10.858C193.193 10.858 191.704 11.3073 190.425 12.1573C190.277 12.2556 190.093 12.2893 189.92 12.2517C189.746 12.2135 189.594 12.1059 189.501 11.954C187.707 9.03727 184.603 7.29582 181.197 7.29582C175.82 7.29582 171.445 11.6721 171.445 17.0515C171.445 18.0952 171.617 19.1375 171.956 20.1494C172.036 20.388 171.973 20.651 171.793 20.8273C171.614 21.0033 171.35 21.0624 171.113 20.9785Z" fill="#3880F7"/>
<path d="M170.387 19.4037L170.062 20.8626L172.35 21.3726L171.846 19.0824L170.387 19.4037ZM190.261 10.7154L189.035 11.5702L189.813 12.6855L190.996 12.0168L190.261 10.7154ZM203.792 19.5142L202.305 19.3598L202.174 20.6232L203.4 20.9565L203.792 19.5142ZM171.113 20.9785L171.613 19.5698L171.61 19.569L171.113 20.9785ZM202.929 20.66L202.628 22.1241L202.628 22.1241L202.929 20.66ZM202.412 19.9108L200.936 19.6716L200.936 19.6724L202.412 19.9108ZM190.425 12.1573L191.25 13.4034L191.252 13.4022L190.425 12.1573ZM189.92 12.2517L189.599 13.7116L189.603 13.7125L189.92 12.2517ZM189.501 11.954L188.228 12.7371L188.228 12.7372L189.501 11.954ZM171.956 20.1494L173.373 19.6745L173.373 19.6745L171.956 20.1494ZM171.793 20.8273L172.841 21.8937L172.842 21.8927L171.793 20.8273ZM168.28 40.3581H201.205V37.3688H168.28V40.3581ZM156.941 29.0169C156.941 35.2715 162.026 40.3581 168.28 40.3581V37.3688C163.678 37.3688 159.931 33.6213 159.931 29.0169H156.941ZM168.28 17.6756C162.026 17.6756 156.941 22.7622 156.941 29.0169H159.931C159.931 24.4125 163.678 20.6649 168.28 20.6649V17.6756ZM170.712 17.9448C169.91 17.7663 169.097 17.6756 168.28 17.6756V20.6649C168.875 20.6649 169.47 20.7309 170.062 20.8626L170.712 17.9448ZM168.635 17.0515C168.635 17.9492 168.733 18.8443 168.927 19.725L171.846 19.0824C171.699 18.4109 171.624 17.7312 171.624 17.0515H168.635ZM181.198 4.48579C174.269 4.48579 168.635 10.1219 168.635 17.0515H171.624C171.624 11.772 175.921 7.47515 181.198 7.47515V4.48579ZM191.487 9.86065C189.134 6.48475 185.336 4.48579 181.198 4.48579V7.47515C184.353 7.47515 187.238 8.99184 189.035 11.5702L191.487 9.86065ZM194.729 8.048C192.897 8.048 191.112 8.51807 189.526 9.41401L190.996 12.0168C192.133 11.3746 193.412 11.0374 194.729 11.0374V8.048ZM205.333 18.6539C205.333 12.8048 200.578 8.048 194.729 8.048V11.0374C198.926 11.0374 202.344 14.4551 202.344 18.6539H205.333ZM205.278 19.6686C205.314 19.3221 205.333 18.9859 205.333 18.6539H202.344C202.344 18.8736 202.331 19.1064 202.305 19.3598L205.278 19.6686ZM212.543 29.0169C212.543 23.891 209.072 19.4008 204.184 18.0719L203.4 20.9565C206.992 21.9332 209.554 25.2464 209.554 29.0169H212.543ZM201.205 40.3581C207.459 40.3581 212.543 35.2715 212.543 29.0169H209.554C209.554 33.6213 205.807 37.3688 201.205 37.3688V40.3581ZM168.28 21.9803C169.058 21.9803 169.844 22.1157 170.616 22.3881L171.61 19.569C170.529 19.1876 169.408 18.9909 168.28 18.9909V21.9803ZM161.246 29.0169C161.246 25.1378 164.403 21.9803 168.28 21.9803V18.9909C162.751 18.9909 158.257 23.4877 158.257 29.0169H161.246ZM168.28 36.0535C164.403 36.0535 161.246 32.896 161.246 29.0169H158.257C158.257 34.5461 162.751 39.0428 168.28 39.0428V36.0535ZM201.205 36.0535H168.28V39.0428H201.205V36.0535ZM208.239 29.0169C208.239 32.896 205.082 36.0535 201.205 36.0535V39.0428C206.733 39.0428 211.228 34.5461 211.228 29.0169H208.239ZM202.628 22.1241C205.874 22.7903 208.239 25.6915 208.239 29.0169H211.228C211.228 24.2763 207.869 20.1482 203.229 19.1958L202.628 22.1241ZM200.936 19.6724C200.752 20.811 201.499 21.8919 202.628 22.1241L203.23 19.1959C203.669 19.2861 203.959 19.7062 203.887 20.1492L200.936 19.6724ZM201.028 18.6539C201.028 18.9431 201.001 19.2732 200.936 19.6716L203.887 20.15C203.972 19.6255 204.018 19.1329 204.018 18.6539H201.028ZM194.729 12.3527C198.201 12.3527 201.028 15.1804 201.028 18.6539H204.018C204.018 13.5303 199.853 9.36335 194.729 9.36335V12.3527ZM191.252 13.4022C192.286 12.7152 193.487 12.3527 194.729 12.3527V9.36335C192.899 9.36335 191.122 9.8994 189.598 10.9124L191.252 13.4022ZM189.603 13.7125C190.167 13.8346 190.763 13.7265 191.25 13.4034L189.6 10.9112C189.791 10.7846 190.02 10.744 190.236 10.7909L189.603 13.7125ZM188.228 12.7372C188.534 13.2339 189.028 13.5863 189.599 13.7116L190.24 10.7918C190.463 10.8407 190.655 10.9779 190.774 11.1708L188.228 12.7372ZM181.197 8.7905C184.08 8.7905 186.704 10.2595 188.228 12.7371L190.774 11.1709C188.71 7.81502 185.125 5.80114 181.197 5.80114V8.7905ZM172.94 17.0515C172.94 12.4971 176.646 8.7905 181.197 8.7905V5.80114C174.994 5.80114 169.95 10.847 169.95 17.0515H172.94ZM173.373 19.6745C173.084 18.8123 172.94 17.9302 172.94 17.0515H169.95C169.95 18.2601 170.149 19.4628 170.539 20.6244L173.373 19.6745ZM172.842 21.8927C173.427 21.3164 173.635 20.4557 173.373 19.6745L170.539 20.6244C170.437 20.3203 170.518 19.9856 170.745 19.7618L172.842 21.8927ZM170.614 22.3873C171.391 22.6631 172.256 22.468 172.841 21.8937L170.746 19.7609C170.972 19.5385 171.308 19.4616 171.613 19.5698L170.614 22.3873Z" fill="#3880F7"/>
</svg>
