<svg width="93" height="96" viewBox="0 0 93 96" fill="none" xmlns="http://www.w3.org/2000/svg">
<path fill-rule="evenodd" clip-rule="evenodd" d="M45.972 1.0711C55.0944 0.644417 64.4374 2.05279 72.0127 7.62988C79.756 13.3307 84.6751 22.3567 87.9 31.9392C91.2327 41.8424 93.6957 52.7153 90.5419 62.6884C87.4145 72.5777 79.2078 79.1157 71.1814 84.8066C63.5373 90.2264 55.0767 94.5877 45.972 94.2894C37.03 93.9964 28.8556 89.2579 21.8363 83.1899C15.0463 77.3201 10.4295 69.4001 7.08129 60.6695C3.45145 51.2046 -0.90113 40.9729 1.88735 31.1725C4.68613 21.3358 13.512 15.4469 21.5002 9.99249C28.9774 4.88698 37.1662 1.48297 45.972 1.0711Z" fill="white" stroke="#DADADA" stroke-width="2"/>
<path d="M50.2199 15.9361C50.2199 15.9361 34.6469 16.1846 34.3984 38.1951C34.3984 38.1951 25.9847 36.7159 33.1558 47.591C33.1558 47.591 33.854 49.4725 36.0787 47.591C38.3035 45.7094 34.0079 52.0759 44.0546 58.4305C44.0546 58.4305 44.2084 68.6311 41.6879 70.2641C39.1673 71.8972 55.4385 77.5063 58.1011 70.2641C56.4134 68.1748 55.5241 65.5531 55.5924 62.8681C55.5924 62.8681 66.7632 62.312 66.8224 43.0587C66.8816 24.0303 61.5683 14.8593 50.2199 15.9361Z" fill="#D2AE8D"/>
<path d="M49.4472 12.9525C45.9485 11.326 40.1044 11.9703 36.6008 13.5874C34.1915 14.6995 31.8425 16.132 29.58 19.1478C22.5679 25.2643 27.8184 64.843 30.1674 69.1912C30.7309 70.2342 31.8505 69.5736 33.6747 69.7473C35.8689 69.9562 37.4925 70.1735 40.1069 69.7473C42.9998 72 43.9998 65.5 43.9998 65.5C44.4998 64.5 45.0796 61.2802 44.4998 58.5C44.4998 57.5 39.4407 57.203 36.6008 46.9497C36.6008 46.9497 34.3542 49.7844 32.9868 47.2155C31.6195 44.6467 28.5226 40.6877 32.3558 39.0084C33.8517 38.3523 36.1189 40.4319 38.8535 35.8612C41.1909 31.9023 42.7218 21.4043 51.3933 22.1493C60.0647 22.8944 60.1816 21.0373 60.1816 21.0373C60.1816 21.0373 67.1101 24.7749 65.8129 48.0618C65.7816 48.8139 65.438 50.1161 65.2285 50.842C64.4105 53.7556 62.3536 61.5735 55.2949 61.9627C55.2949 61.9627 55.4998 66 56.4998 68C56.9998 69 56.4998 69 58.8009 68.6352C61.7172 68.1718 67.6177 70.6574 68.1508 69.1912C69.3195 65.9773 80.4168 7.47098 49.4472 12.9525Z" fill="#22160F"/>
<path d="M56.975 68.5519C50.2188 73.9569 43.6499 70.804 41.2099 68.5519C29.2626 68.0535 20.0919 86.5488 17 95.8587H84C77.8067 84.5044 63.7311 63.147 56.975 68.5519Z" fill="#E3E6FE"/>
</svg>
